<svg width="20" height="20" viewBox="0 0 20 20" fill="none" xmlns="http://www.w3.org/2000/svg">
<path fill-rule="evenodd" clip-rule="evenodd" d="M12.4556 0.47376C11.5132 0.0951546 10.496 -0.0603707 9.48349 0.0193412C8.47101 0.0990532 7.49068 0.411842 6.61914 0.933259C5.74759 1.45468 5.00844 2.17059 4.45946 3.02505C3.91049 3.8795 3.56656 4.84934 3.45457 5.85876L3.20257 8.12476L3.19657 8.17876C3.08376 9.16205 2.76372 10.1102 2.25757 10.9608L2.22957 11.0078L1.65157 11.9708L1.62757 12.0108C1.38557 12.4138 1.16757 12.7788 1.02157 13.0878C0.873566 13.4018 0.714566 13.8278 0.791566 14.3118C0.866679 14.7892 1.11215 15.2233 1.48257 15.5338C1.85857 15.8478 2.30457 15.9308 2.65057 15.9658C2.99057 15.9998 3.41657 15.9998 3.88557 15.9998H16.1156C16.5846 15.9998 17.0096 15.9998 17.3506 15.9658C17.6956 15.9308 18.1426 15.8478 18.5176 15.5338C18.8884 15.2235 19.1342 14.7893 19.2096 14.3118C19.2866 13.8288 19.1276 13.4018 18.9796 13.0878C18.8336 12.7778 18.6156 12.4138 18.3736 12.0108L18.3496 11.9708L17.7716 11.0078L17.7436 10.9608C17.3655 10.3257 17.0905 9.63484 16.9286 8.91376C16.2514 9.04149 15.5552 9.02787 14.8836 8.87376C15.0682 9.9721 15.4551 11.0266 16.0246 11.9838L16.0566 12.0368L16.6346 12.9998C16.9076 13.4558 17.0726 13.7328 17.1706 13.9398L17.1846 13.9718L17.1496 13.9758C16.9226 13.9988 16.5996 13.9998 16.0686 13.9998H3.93257C3.40157 13.9998 3.07857 13.9988 2.85057 13.9758L2.81657 13.9718L2.83057 13.9398C2.92857 13.7328 3.09357 13.4558 3.36657 12.9998L3.94457 12.0368L3.97657 11.9838C4.62726 10.8902 5.03864 9.67101 5.18357 8.40676L5.19057 8.34676L5.44257 6.07976C5.51681 5.41018 5.73767 4.76517 6.08943 4.19061C6.44119 3.61605 6.91522 3.12605 7.47781 2.75545C8.0404 2.38484 8.67773 2.14274 9.34449 2.04635C10.0112 1.94996 10.6911 2.00166 11.3356 2.19776C11.5854 1.55172 11.9668 0.964642 12.4556 0.47376ZM14.9826 2.27776C14.6209 2.49156 14.3357 2.81384 14.1675 3.19887C13.9993 3.5839 13.9566 4.01212 14.0456 4.42276C14.1656 4.64809 14.2672 4.88376 14.3506 5.12976C14.5879 5.47666 14.9284 5.73997 15.3239 5.88233C15.7194 6.02468 16.1496 6.03882 16.5536 5.92276L16.5466 5.85876C16.4011 4.53393 15.8556 3.28483 14.9826 2.27776Z" fill="#262626"/>
<path d="M7.10352 15.665C7.27452 16.622 7.65152 17.467 8.17552 18.07C8.69952 18.673 9.34152 19 10.0015 19C10.6615 19 11.3035 18.673 11.8275 18.07C12.3515 17.467 12.7275 16.622 12.8995 15.665" stroke="#262626" stroke-width="2" stroke-linecap="round"/>
<path d="M16 6.5C17.3807 6.5 18.5 5.38071 18.5 4C18.5 2.61929 17.3807 1.5 16 1.5C14.6193 1.5 13.5 2.61929 13.5 4C13.5 5.38071 14.6193 6.5 16 6.5Z" fill="#262626" stroke="#262626"/>
</svg>
