<svg width="20" height="20" viewBox="0 0 20 20" fill="none" xmlns="http://www.w3.org/2000/svg">
<g clip-path="url(#clip0_1163_8474)">
<path fill-rule="evenodd" clip-rule="evenodd" d="M5.91772 1.66738C6.0972 1.19675 6.41542 0.791741 6.83024 0.506014C7.24505 0.220288 7.73688 0.067323 8.24058 0.0673832H11.7863C12.285 0.0671034 12.7722 0.21681 13.1846 0.497051C13.5971 0.777292 13.9157 1.17511 14.0992 1.63881C15.014 1.91233 15.8276 2.45018 16.4376 3.18476C17.0476 3.91934 17.4269 4.81787 17.5277 5.76738L17.7591 7.8731C18.9592 7.96453 19.872 9.06738 19.7134 10.276L18.7234 17.7345L18.7134 17.816C18.692 18.0017 18.6563 18.3117 18.5392 18.5931C18.4127 18.8937 18.2209 19.1625 17.9778 19.3799C17.7347 19.5974 17.4463 19.758 17.1334 19.8502C16.8363 19.936 16.5334 19.9331 16.3477 19.9317H3.72201C3.43382 19.948 3.14483 19.9205 2.86487 19.8502C2.55228 19.7578 2.26414 19.5971 2.02128 19.3797C1.77842 19.1623 1.5869 18.8936 1.46058 18.5931C1.32629 18.2702 1.28629 17.8874 1.26344 17.656L1.24915 17.5317L0.304866 10.4188C0.267822 10.1912 0.261576 9.95956 0.286294 9.73024C0.353458 9.24025 0.586957 8.78821 0.94768 8.44986C1.3084 8.1115 1.77444 7.90737 2.26772 7.87167L2.49915 5.76595C2.60507 4.82327 2.98551 3.93246 3.59325 3.20409C4.20099 2.47572 5.00926 1.94044 5.91772 1.66738ZM6.13487 3.87453C5.72497 4.07309 5.37196 4.37212 5.10869 4.74379C4.84543 5.11545 4.68047 5.54768 4.62915 6.00024L4.42344 7.86595H15.6034L15.3977 6.00024V5.99453C15.3499 5.54113 15.188 5.10724 14.9273 4.73329C14.6665 4.35934 14.3152 4.05751 13.9063 3.85595C13.6839 4.21844 13.3722 4.5178 13.001 4.7254C12.6298 4.933 12.2116 5.0419 11.7863 5.04167H8.24058C7.8196 5.04157 7.40554 4.93456 7.03722 4.73067C6.66891 4.52677 6.35842 4.23267 6.13487 3.87595V3.87453ZM6.24486 12.126C6.24486 11.8892 6.1508 11.6621 5.98335 11.4946C5.81591 11.3272 5.58881 11.2331 5.35201 11.2331C5.11521 11.2331 4.88811 11.3272 4.72066 11.4946C4.55322 11.6621 4.45915 11.8892 4.45915 12.126V15.6717C4.45915 15.9085 4.55322 16.1356 4.72066 16.303C4.88811 16.4705 5.11521 16.5645 5.35201 16.5645C5.58881 16.5645 5.81591 16.4705 5.98335 16.303C6.1508 16.1356 6.24486 15.9085 6.24486 15.6717V12.126ZM10.0134 11.2331C10.5063 11.2331 10.9063 11.6331 10.9063 12.126V15.6717C10.9063 15.9085 10.8122 16.1356 10.6448 16.303C10.4773 16.4705 10.2502 16.5645 10.0134 16.5645C9.77664 16.5645 9.54953 16.4705 9.38209 16.303C9.21465 16.1356 9.12058 15.9085 9.12058 15.6717V12.126C9.12058 11.6331 9.52058 11.2331 10.0134 11.2331ZM15.5691 12.126C15.5691 11.8892 15.4751 11.6621 15.3076 11.4946C15.1402 11.3272 14.9131 11.2331 14.6763 11.2331C14.4395 11.2331 14.2124 11.3272 14.0449 11.4946C13.8775 11.6621 13.7834 11.8892 13.7834 12.126V15.6717C13.7834 15.9085 13.8775 16.1356 14.0449 16.303C14.2124 16.4705 14.4395 16.5645 14.6763 16.5645C14.9131 16.5645 15.1402 16.4705 15.3076 16.303C15.4751 16.1356 15.5691 15.9085 15.5691 15.6717V12.126Z" fill="#424242"/>
</g>
<defs>
<clipPath id="clip0_1163_8474">
<rect width="20" height="20" fill="white"/>
</clipPath>
</defs>
</svg>
