<svg width="22" height="22" viewBox="0 0 22 22" fill="none" xmlns="http://www.w3.org/2000/svg">
<path d="M6.41602 1.83301H15.5827C16.312 1.83301 17.0115 2.12274 17.5272 2.63846C18.043 3.15419 18.3327 3.85366 18.3327 4.58301V17.4163C18.3327 18.1457 18.043 18.8452 17.5272 19.3609C17.0115 19.8766 16.312 20.1663 15.5827 20.1663H6.41602C5.68667 20.1663 4.9872 19.8766 4.47147 19.3609C3.95575 18.8452 3.66602 18.1457 3.66602 17.4163V4.58301C3.66602 3.85366 3.95575 3.15419 4.47147 2.63846C4.9872 2.12274 5.68667 1.83301 6.41602 1.83301ZM7.33268 8.24967C7.08957 8.24967 6.85641 8.34625 6.6845 8.51816C6.51259 8.69007 6.41602 8.92323 6.41602 9.16634C6.41602 9.40946 6.51259 9.64261 6.6845 9.81452C6.85641 9.98643 7.08957 10.083 7.33268 10.083H14.666C14.9091 10.083 15.1423 9.98643 15.3142 9.81452C15.4861 9.64261 15.5827 9.40946 15.5827 9.16634C15.5827 8.92323 15.4861 8.69007 15.3142 8.51816C15.1423 8.34625 14.9091 8.24967 14.666 8.24967H7.33268ZM7.33268 15.583C7.08957 15.583 6.85641 15.6796 6.6845 15.8515C6.51259 16.0234 6.41602 16.2566 6.41602 16.4997C6.41602 16.7428 6.51259 16.9759 6.6845 17.1479C6.85641 17.3198 7.08957 17.4163 7.33268 17.4163H11.916C12.1591 17.4163 12.3923 17.3198 12.5642 17.1479C12.7361 16.9759 12.8327 16.7428 12.8327 16.4997C12.8327 16.2566 12.7361 16.0234 12.5642 15.8515C12.3923 15.6796 12.1591 15.583 11.916 15.583H7.33268ZM7.33268 4.58301C7.08957 4.58301 6.85641 4.67958 6.6845 4.85149C6.51259 5.0234 6.41602 5.25656 6.41602 5.49967C6.41602 5.74279 6.51259 5.97595 6.6845 6.14786C6.85641 6.31976 7.08957 6.41634 7.33268 6.41634H14.666C14.9091 6.41634 15.1423 6.31976 15.3142 6.14786C15.4861 5.97595 15.5827 5.74279 15.5827 5.49967C15.5827 5.25656 15.4861 5.0234 15.3142 4.85149C15.1423 4.67958 14.9091 4.58301 14.666 4.58301H7.33268ZM7.33268 11.9163C7.08957 11.9163 6.85641 12.0129 6.6845 12.1848C6.51259 12.3567 6.41602 12.5899 6.41602 12.833C6.41602 13.0761 6.51259 13.3093 6.6845 13.4812C6.85641 13.6531 7.08957 13.7497 7.33268 13.7497H14.666C14.9091 13.7497 15.1423 13.6531 15.3142 13.4812C15.4861 13.3093 15.5827 13.0761 15.5827 12.833C15.5827 12.5899 15.4861 12.3567 15.3142 12.1848C15.1423 12.0129 14.9091 11.9163 14.666 11.9163H7.33268Z" fill="#424242"/>
</svg>
