<svg width="22" height="22" viewBox="0 0 22 22" fill="none" xmlns="http://www.w3.org/2000/svg">
<path fill-rule="evenodd" clip-rule="evenodd" d="M4.58398 1.83301C3.85464 1.83301 3.15517 2.12274 2.63944 2.63846C2.12372 3.15419 1.83398 3.85366 1.83398 4.58301V17.4163C1.83398 18.1457 2.12372 18.8452 2.63944 19.3609C3.15517 19.8766 3.85464 20.1663 4.58398 20.1663H12.834V15.583C12.834 14.8537 13.1237 14.1542 13.6394 13.6385C14.1552 13.1227 14.8546 12.833 15.584 12.833H20.1673V4.58301C20.1673 3.85366 19.8776 3.15419 19.3619 2.63846C18.8461 2.12274 18.1467 1.83301 17.4173 1.83301H4.58398ZM15.8526 19.3606C15.523 19.6901 15.1152 19.9304 14.6673 20.0591V15.583C14.6673 15.3399 14.7639 15.1067 14.9358 14.9348C15.1077 14.7629 15.3409 14.6663 15.584 14.6663H20.0601C19.9314 15.1142 19.6911 15.5221 19.3616 15.8516L15.8526 19.3606ZM6.41732 5.49967C6.1742 5.49967 5.94104 5.59625 5.76914 5.76816C5.59723 5.94007 5.50065 6.17323 5.50065 6.41634C5.50065 6.65946 5.59723 6.89261 5.76914 7.06452C5.94104 7.23643 6.1742 7.33301 6.41732 7.33301H15.584C15.8271 7.33301 16.0603 7.23643 16.2322 7.06452C16.4041 6.89261 16.5007 6.65946 16.5007 6.41634C16.5007 6.17323 16.4041 5.94007 16.2322 5.76816C16.0603 5.59625 15.8271 5.49967 15.584 5.49967H6.41732ZM6.41732 9.16634C6.1742 9.16634 5.94104 9.26292 5.76914 9.43483C5.59723 9.60674 5.50065 9.83989 5.50065 10.083C5.50065 10.3261 5.59723 10.5593 5.76914 10.7312C5.94104 10.9031 6.1742 10.9997 6.41732 10.9997H15.584C15.8271 10.9997 16.0603 10.9031 16.2322 10.7312C16.4041 10.5593 16.5007 10.3261 16.5007 10.083C16.5007 9.83989 16.4041 9.60674 16.2322 9.43483C16.0603 9.26292 15.8271 9.16634 15.584 9.16634H6.41732ZM6.41732 12.833C6.1742 12.833 5.94104 12.9296 5.76914 13.1015C5.59723 13.2734 5.50065 13.5066 5.50065 13.7497C5.50065 13.9928 5.59723 14.2259 5.76914 14.3979C5.94104 14.5698 6.1742 14.6663 6.41732 14.6663H10.084C10.3271 14.6663 10.5603 14.5698 10.7322 14.3979C10.9041 14.2259 11.0007 13.9928 11.0007 13.7497C11.0007 13.5066 10.9041 13.2734 10.7322 13.1015C10.5603 12.9296 10.3271 12.833 10.084 12.833H6.41732Z" fill="#424242"/>
</svg>
