<svg width="22" height="22" viewBox="0 0 22 22" fill="none" xmlns="http://www.w3.org/2000/svg">
<path fill-rule="evenodd" clip-rule="evenodd" d="M12.8193 2.32984C12.8991 2.48476 12.9192 2.68367 12.9587 3.08151C13.0338 3.83317 13.0714 4.20901 13.2291 4.41617C13.3273 4.5448 13.4578 4.64513 13.6074 4.70696C13.757 4.76878 13.9203 4.7899 14.0807 4.76817C14.3373 4.73426 14.6307 4.49501 15.2155 4.01651C15.5244 3.76259 15.6793 3.63609 15.8452 3.58292C16.0566 3.5154 16.2852 3.5268 16.4887 3.61501C16.6492 3.68467 16.7912 3.82584 17.0727 4.10817L17.8922 4.92767C18.1745 5.21001 18.3157 5.35117 18.3853 5.51159C18.4735 5.71514 18.4849 5.94378 18.4174 6.15509C18.3642 6.32101 18.2377 6.47592 17.9847 6.78484C17.5053 7.37059 17.2661 7.66301 17.2312 7.92059C17.2098 8.08091 17.2311 8.24406 17.2931 8.39346C17.3551 8.54287 17.4555 8.67321 17.5842 8.77126C17.7904 8.92893 18.1672 8.96651 18.9197 9.04168C19.3167 9.08109 19.5156 9.10126 19.6714 9.18101C19.868 9.28294 20.021 9.45258 20.1022 9.65859C20.1673 9.82084 20.1673 10.0207 20.1673 10.4203V11.579C20.1673 11.9787 20.1673 12.1785 20.1032 12.3398C20.0217 12.5465 19.8679 12.7165 19.6705 12.8183C19.5156 12.8981 19.3167 12.9183 18.9188 12.9577C18.1672 13.0328 17.7913 13.0704 17.5842 13.2281C17.4555 13.3263 17.3552 13.4569 17.2934 13.6064C17.2315 13.756 17.2104 13.9193 17.2322 14.0797C17.267 14.3363 17.5062 14.6297 17.9847 15.2145C18.2377 15.5234 18.3642 15.6774 18.4174 15.8443C18.4849 16.0556 18.4735 16.2842 18.3853 16.4878C18.3157 16.6482 18.1745 16.7893 17.8922 17.0717L17.0727 17.8903C16.7903 18.1735 16.6492 18.3147 16.4887 18.3834C16.2852 18.4716 16.0566 18.483 15.8452 18.4155C15.6793 18.3623 15.5244 18.2358 15.2155 17.9828C14.6297 17.5043 14.3373 17.2651 14.0807 17.2312C13.9203 17.2094 13.757 17.2306 13.6074 17.2924C13.4578 17.3542 13.3273 17.4545 13.2291 17.5832C13.0714 17.7894 13.0338 18.1653 12.9587 18.9178C12.9192 19.3157 12.8991 19.5146 12.8193 19.6695C12.7177 19.8668 12.548 20.0205 12.3417 20.1022C12.1795 20.1663 11.9797 20.1663 11.58 20.1663H10.4213C10.0217 20.1663 9.82182 20.1663 9.66048 20.1022C9.45383 20.0207 9.28379 19.8669 9.18198 19.6695C9.10223 19.5146 9.08207 19.3157 9.04265 18.9178C8.96748 18.1662 8.9299 17.7903 8.77223 17.5832C8.67408 17.4547 8.54369 17.3545 8.3943 17.2926C8.2449 17.2308 8.08181 17.2096 7.92157 17.2312C7.66398 17.2651 7.37157 17.5043 6.78582 17.9828C6.4769 18.2368 6.32198 18.3633 6.15607 18.4164C5.94475 18.4839 5.71612 18.4725 5.51257 18.3843C5.35215 18.3147 5.21007 18.1735 4.92865 17.8912L4.10915 17.0717C3.82682 16.7893 3.68565 16.6482 3.61598 16.4878C3.52778 16.2842 3.51638 16.0556 3.5839 15.8443C3.63707 15.6783 3.76357 15.5234 4.01657 15.2145C4.49598 14.6288 4.73523 14.3363 4.76915 14.0788C4.79071 13.9185 4.76951 13.7554 4.70769 13.606C4.64587 13.4566 4.54563 13.3262 4.41715 13.2281C4.2109 13.0704 3.83415 13.0328 3.08157 12.9577C2.68465 12.9183 2.48573 12.8981 2.3299 12.8183C2.13332 12.7164 1.98028 12.5468 1.89907 12.3408C1.83398 12.1785 1.83398 11.9787 1.83398 11.579V10.4203C1.83398 10.0207 1.83398 9.82084 1.89815 9.65951C1.97963 9.45285 2.13338 9.28281 2.33082 9.18101C2.48573 9.10126 2.68465 9.08109 3.08248 9.04168C3.83415 8.96651 4.2109 8.92893 4.41715 8.77126C4.5458 8.67321 4.64621 8.54287 4.7082 8.39346C4.77018 8.24406 4.79153 8.08091 4.77007 7.92059C4.73523 7.66301 4.49507 7.37059 4.01657 6.78392C3.76357 6.47501 3.63707 6.32101 3.5839 6.15417C3.51638 5.94286 3.52778 5.71423 3.61598 5.51067C3.68565 5.35117 3.82682 5.20909 4.10915 4.92676L4.92865 4.10817C5.21098 3.82584 5.35215 3.68376 5.51257 3.61501C5.71612 3.5268 5.94475 3.5154 6.15607 3.58292C6.32198 3.63609 6.4769 3.76259 6.78582 4.01559C7.37157 4.49409 7.66398 4.73334 7.92065 4.76817C8.08126 4.78997 8.24478 4.76879 8.39454 4.70679C8.5443 4.6448 8.67494 4.5442 8.77315 4.41526C8.92898 4.20901 8.96748 3.83317 9.04265 3.08059C9.08207 2.68367 9.10223 2.48476 9.18198 2.32892C9.28374 2.132 9.45341 1.97861 9.65957 1.89717C9.82182 1.83301 10.0217 1.83301 10.4213 1.83301H11.58C11.9797 1.83301 12.1795 1.83301 12.3408 1.89717C12.5475 1.97865 12.7175 2.1324 12.8193 2.32984ZM11.0007 14.6663C11.9731 14.6663 12.9057 14.28 13.5934 13.5924C14.281 12.9048 14.6673 11.9721 14.6673 10.9997C14.6673 10.0272 14.281 9.09458 13.5934 8.40695C12.9057 7.71932 11.9731 7.33301 11.0007 7.33301C10.0282 7.33301 9.09556 7.71932 8.40793 8.40695C7.72029 9.09458 7.33398 10.0272 7.33398 10.9997C7.33398 11.9721 7.72029 12.9048 8.40793 13.5924C9.09556 14.28 10.0282 14.6663 11.0007 14.6663Z" fill="#424242"/>
</svg>
