<svg width="22" height="22" viewBox="0 0 22 22" fill="none" xmlns="http://www.w3.org/2000/svg">
<path d="M11.0007 20.1663C5.9379 20.1663 1.83398 16.0624 1.83398 10.9997C1.83398 5.93692 5.9379 1.83301 11.0007 1.83301C16.0634 1.83301 20.1673 5.93692 20.1673 10.9997C20.1673 16.0624 16.0634 20.1663 11.0007 20.1663ZM10.084 13.7497V15.583H11.9173V13.7497H10.084ZM11.9173 12.2418C12.654 12.0197 13.2865 11.5405 13.6995 10.8913C14.1125 10.2421 14.2786 9.46614 14.1675 8.70477C14.0564 7.9434 13.6756 7.24724 13.0943 6.74309C12.5131 6.23894 11.7701 5.96033 11.0007 5.95801C10.2589 5.95778 9.53996 6.21458 8.96621 6.68471C8.39246 7.15484 7.99933 7.80926 7.85373 8.53659L9.65224 8.89684C9.70327 8.64149 9.82578 8.40588 10.0055 8.21742C10.1852 8.02897 10.4147 7.89542 10.6674 7.83232C10.92 7.76922 11.1854 7.77916 11.4326 7.86098C11.6798 7.9428 11.8987 8.09314 12.0638 8.29451C12.2289 8.49588 12.3335 8.73999 12.3653 8.99845C12.3971 9.2569 12.3548 9.51908 12.2434 9.75446C12.1321 9.98984 11.9561 10.1888 11.7361 10.3281C11.5161 10.4674 11.2611 10.5413 11.0007 10.5413C10.7575 10.5413 10.5244 10.6379 10.3525 10.8098C10.1806 10.9817 10.084 11.2149 10.084 11.458V12.833H11.9173V12.2418Z" fill="#424242"/>
</svg>
