<svg width="16" height="16" viewBox="0 0 16 16" fill="none" xmlns="http://www.w3.org/2000/svg">
<path d="M7.2002 12.2002C7.2002 11.935 7.30555 11.6806 7.49309 11.4931C7.68062 11.3056 7.93498 11.2002 8.2002 11.2002C8.46541 11.2002 8.71977 11.3056 8.9073 11.4931C9.09484 11.6806 9.2002 11.935 9.2002 12.2002C9.2002 12.4654 9.09484 12.7198 8.9073 12.9073C8.71977 13.0948 8.46541 13.2002 8.2002 13.2002C7.93498 13.2002 7.68062 13.0948 7.49309 12.9073C7.30555 12.7198 7.2002 12.4654 7.2002 12.2002ZM7.2002 8.2002C7.2002 7.93498 7.30555 7.68062 7.49309 7.49309C7.68062 7.30555 7.93498 7.2002 8.2002 7.2002C8.46541 7.2002 8.71977 7.30555 8.9073 7.49309C9.09484 7.68062 9.2002 7.93498 9.2002 8.2002C9.2002 8.46541 9.09484 8.71977 8.9073 8.9073C8.71977 9.09484 8.46541 9.2002 8.2002 9.2002C7.93498 9.2002 7.68062 9.09484 7.49309 8.9073C7.30555 8.71977 7.2002 8.46541 7.2002 8.2002ZM7.2002 4.2002C7.2002 3.93498 7.30555 3.68062 7.49309 3.49309C7.68062 3.30555 7.93498 3.2002 8.2002 3.2002C8.46541 3.2002 8.71977 3.30555 8.9073 3.49309C9.09484 3.68062 9.2002 3.93498 9.2002 4.2002C9.2002 4.46541 9.09484 4.71977 8.9073 4.9073C8.71977 5.09484 8.46541 5.2002 8.2002 5.2002C7.93498 5.2002 7.68062 5.09484 7.49309 4.9073C7.30555 4.71977 7.2002 4.46541 7.2002 4.2002Z" fill="#696969"/>
</svg>
