<svg width="68" height="68" viewBox="0 0 68 68" fill="none" xmlns="http://www.w3.org/2000/svg">
<g clip-path="url(#clip0_631_4080)">
<path d="M33.9993 0.666016C15.5893 0.666016 0.666016 15.5893 0.666016 33.9993C0.666016 52.4093 15.5893 67.3327 33.9993 67.3327C52.4093 67.3327 67.3327 52.4093 67.3327 33.9993C67.3327 15.5893 52.4093 0.666016 33.9993 0.666016Z" stroke="#A5A5A5" stroke-width="1.5" stroke-linecap="round" stroke-linejoin="round"/>
<path d="M8.23633 55.1524C8.23633 55.1524 15.6663 45.6657 33.9997 45.6657C52.333 45.6657 59.7663 55.1524 59.7663 55.1524M33.9997 33.999C36.6518 33.999 39.1954 32.9455 41.0707 31.0701C42.9461 29.1947 43.9997 26.6512 43.9997 23.999C43.9997 21.3469 42.9461 18.8033 41.0707 16.928C39.1954 15.0526 36.6518 13.999 33.9997 13.999C31.3475 13.999 28.804 15.0526 26.9286 16.928C25.0532 18.8033 23.9997 21.3469 23.9997 23.999C23.9997 26.6512 25.0532 29.1947 26.9286 31.0701C28.804 32.9455 31.3475 33.999 33.9997 33.999Z" stroke="#A5A5A5" stroke-width="1.5" stroke-linecap="round" stroke-linejoin="round"/>
</g>
<defs>
<clipPath id="clip0_631_4080">
<rect width="68" height="68" fill="white"/>
</clipPath>
</defs>
</svg>
