<svg width="349" height="114" viewBox="0 0 349 114" fill="none" xmlns="http://www.w3.org/2000/svg">
<path d="M5.03906 3.45996C5.02441 5.78174 6.37939 8.16211 8.33496 9.11426L7.4707 10.2275C6.04248 9.48047 4.93652 8.01562 4.35791 6.26514C3.77197 8.12549 2.62207 9.7002 1.12793 10.4766L0.263672 9.34863C2.27783 8.38184 3.64014 5.8623 3.64746 3.45996V1.21875H5.03906V3.45996ZM9.31641 13.2451V0.120117H10.708V5.34961H12.8174V6.53613H10.708V13.2451H9.31641ZM25.095 6.52148V7.64941H13.1273V6.52148H15.9984V4.75635C14.9803 4.34619 14.409 3.68701 14.4163 2.81543C14.409 1.25537 16.2181 0.347168 19.1038 0.354492C21.9822 0.347168 23.784 1.25537 23.7913 2.81543C23.784 3.68701 23.2127 4.34619 22.1946 4.76367V6.52148H25.095ZM14.5482 10.8721C14.5482 9.37061 16.2474 8.54297 19.1038 8.54297C21.9237 8.54297 23.6229 9.37061 23.6302 10.8721C23.6229 12.3882 21.9237 13.2158 19.1038 13.2158C16.2474 13.2158 14.5482 12.3882 14.5482 10.8721ZM15.8519 2.81543C15.8446 3.69434 17.0604 4.18506 19.1038 4.19238C21.1326 4.18506 22.3631 3.69434 22.3558 2.81543C22.3631 1.93652 21.1326 1.43115 19.1038 1.42383C17.0604 1.43115 15.8446 1.93652 15.8519 2.81543ZM15.9544 10.8721C15.9471 11.6924 17.097 12.1611 19.1038 12.1465C21.0814 12.1611 22.2386 11.6924 22.2386 10.8721C22.2386 10.0664 21.0814 9.6123 19.1038 9.6123C17.097 9.6123 15.9471 10.0664 15.9544 10.8721ZM17.4046 6.52148H20.8177V5.12256C20.305 5.20312 19.7264 5.24707 19.1038 5.24707C18.4886 5.24707 17.9173 5.20312 17.4046 5.12988V6.52148ZM30.3414 3.9873C30.3341 6.06006 31.7038 8.37451 33.6959 9.31934L32.9049 10.4033C31.4328 9.7002 30.2609 8.2207 29.6676 6.50684C29.067 8.37451 27.8366 9.99316 26.3424 10.7402L25.5221 9.6416C27.5143 8.68213 28.9572 6.20654 28.9645 3.9873V2.5957H26.0055V1.43848H33.1979V2.5957H30.3414V3.9873ZM34.6041 13.2451V0.120117H35.9957V5.32031H38.1051V6.49219H35.9957V13.2451H34.6041ZM48.6396 0.120117V5.34961H50.6757V6.50684H48.6396V13.2305H47.248V0.120117H48.6396ZM38.4296 9.72949C41.7182 8.08887 43.5053 5.71582 43.791 2.6543H39.0888V1.49707H45.2119C45.1972 5.29102 43.5273 8.68213 39.206 10.8135L38.4296 9.72949ZM65.3434 0.120117V6.87305H63.9518V3.50391H61.1832V2.37598H63.9518V0.120117H65.3434ZM54.357 5.81836C56.4078 5.1665 57.631 3.5332 57.6383 1.6875V0.544922H59.0152V1.6875C59.0152 3.35742 60.2164 4.91016 62.1939 5.54004L61.4615 6.62402C60.0187 6.12598 58.9273 5.13721 58.3487 3.88477C57.7774 5.29834 56.6568 6.39697 55.1041 6.93164L54.357 5.81836ZM56.7594 8.58691V7.48828H65.3434V10.7549H58.151V11.9707H65.7975V13.084H56.7887V9.7002H63.9664V8.58691H56.7594ZM77.9872 0.120117V7.92773H76.5956V4.60254H74.1493V3.45996H76.5956V0.120117H77.9872ZM67.0448 6.74121C69.081 6.03076 70.3334 4.2583 70.3261 2.44922V2.15625H67.4843V1.02832H74.5595V2.15625H71.747V2.43457C71.7397 4.09717 72.9262 5.71582 74.9111 6.38965L74.1933 7.48828C72.7211 6.98291 71.6371 5.92822 71.0658 4.63184C70.4946 6.09668 69.3447 7.27588 67.7773 7.85449L67.0448 6.74121ZM69.1542 10.7695C69.1469 9.20947 70.8315 8.30127 73.5927 8.29395C76.3393 8.30127 78.0238 9.20947 78.0312 10.7695C78.0238 12.3296 76.3393 13.2378 73.5927 13.2451C70.8315 13.2378 69.1469 12.3296 69.1542 10.7695ZM70.5312 10.7695C70.5238 11.6558 71.6664 12.1611 73.5927 12.1465C75.5043 12.1611 76.6469 11.6558 76.6542 10.7695C76.6469 9.87598 75.5043 9.37061 73.5927 9.37793C71.6664 9.37061 70.5238 9.87598 70.5312 10.7695ZM90.0012 0.134766V4.35352H91.9055V5.51074H90.0012V9.94922H88.6096V0.134766H90.0012ZM79.7034 2.78613V1.6582H82.926V0.120117H84.3176V1.6582H87.5256V2.78613H79.7034ZM80.4211 5.8916C80.4138 4.39014 81.7102 3.40869 83.6145 3.41602C85.4968 3.40869 86.7932 4.39014 86.7932 5.8916C86.7932 7.37842 85.4968 8.34521 83.6145 8.35254C81.7102 8.34521 80.4138 7.37842 80.4211 5.8916ZM81.6809 12.9668V9.17285H83.0725V11.8389H90.5579V12.9668H81.6809ZM81.7688 5.8916C81.7541 6.74854 82.5012 7.27588 83.6145 7.26855C84.7278 7.27588 85.4748 6.74854 85.4895 5.8916C85.4748 5.02734 84.7278 4.49268 83.6145 4.48535C82.5012 4.49268 81.7541 5.02734 81.7688 5.8916ZM107.628 5.87695V6.91699H102.34V8.01562H106.134V10.9746H98.4872V12.0586H106.5V13.1133H97.1249V10.0078H104.757V9.02637H97.1102V8.01562H100.963V6.91699H95.6893V5.87695H107.628ZM96.2753 4.30957C98.7875 4.17041 100.56 3.40137 100.846 2.28809H96.8759V1.21875H100.963V0.0615234H102.34V1.21875H106.441V2.28809H102.45C102.728 3.40137 104.5 4.17041 107.042 4.30957L106.617 5.36426C104.332 5.1958 102.472 4.5293 101.651 3.37939C100.831 4.5293 98.9706 5.1958 96.6708 5.36426L96.2753 4.30957ZM110.194 0.676758V2.46387H113.636V0.676758H115.013V6.4043H108.831V0.676758H110.194ZM110.15 8.54297V7.44434H118.631V10.7549H111.541V12H119.085V13.1133H110.179V9.72949H117.254V8.54297H110.15ZM110.194 5.29102H113.636V3.5332H110.194V5.29102ZM117.239 6.87305V0.120117H118.631V2.87402H120.535V4.00195H118.631V6.87305H117.239ZM125.796 3.9873C125.789 6.18457 127.232 8.45508 129.253 9.31934L128.492 10.4033C126.946 9.72217 125.716 8.27197 125.108 6.52148C124.5 8.39648 123.27 9.99316 121.739 10.7402L120.933 9.6416C122.911 8.71143 124.376 6.25049 124.39 3.9873V2.5957H121.387V1.43848H128.785V2.5957H125.796V3.9873ZM130.44 13.2451V0.120117H131.832V13.2451H130.44ZM135.965 10.9893L134.793 15.0322H133.548L134.324 10.9893H135.965ZM151.335 0.120117V13.2744H149.944V0.120117H151.335ZM140.92 5.70117C140.92 2.896 142.334 1.10889 144.319 1.10156C146.267 1.10889 147.703 2.896 147.703 5.70117C147.703 8.53564 146.267 10.3228 144.319 10.3154C142.334 10.3228 140.92 8.53564 140.92 5.70117ZM142.268 5.70117C142.261 7.78857 143.096 9.07031 144.319 9.07031C145.52 9.07031 146.355 7.78857 146.355 5.70117C146.355 3.64307 145.52 2.354 144.319 2.34668C143.096 2.354 142.261 3.64307 142.268 5.70117ZM165.093 6.50684V7.62012H153.11V6.50684H158.428V5.11523H154.604V0.720703H163.613V1.81934H155.981V4.00195H163.701V5.11523H159.775V6.50684H165.093ZM154.531 10.8574C154.531 9.33398 156.238 8.47705 159.087 8.46973C161.914 8.47705 163.606 9.33398 163.613 10.8574C163.606 12.3809 161.914 13.2378 159.087 13.2451C156.238 13.2378 154.531 12.3809 154.531 10.8574ZM155.937 10.8574C155.93 11.6997 157.08 12.1611 159.087 12.1465C161.064 12.1611 162.221 11.6997 162.221 10.8574C162.221 10.0298 161.064 9.55371 159.087 9.55371C157.08 9.55371 155.93 10.0298 155.937 10.8574ZM172.478 1.27734C172.47 3.02051 174.602 4.65381 177.18 4.99805L176.638 6.14062C174.492 5.79639 172.609 4.68311 171.753 3.1377C170.896 4.68311 169.013 5.79639 166.882 6.14062L166.325 4.99805C168.896 4.65381 171.02 3.04248 171.027 1.27734V0.55957H172.478V1.27734ZM165.754 8.57227V7.42969H177.722V8.57227H172.39V13.2451H171.027V8.57227H165.754ZM188.71 0.105469V3.91406H190.629V5.07129H188.71V9.6123H187.319V0.105469H188.71ZM178.984 7.3418V1.2334H184.843V2.36133H180.361V6.18457C182.917 6.19189 184.352 6.11133 186 5.77441L186.162 6.90234C184.389 7.25391 182.836 7.3418 180.024 7.3418H178.984ZM180.39 12.9668V8.63086H181.782V11.8389H189.267V12.9668H180.39ZM193.4 10.9893L192.228 15.0322H190.983L191.76 10.9893H193.4ZM208.771 0.120117V13.2744H207.379V0.120117H208.771ZM198.356 5.70117C198.356 2.896 199.769 1.10889 201.754 1.10156C203.703 1.10889 205.138 2.896 205.138 5.70117C205.138 8.53564 203.703 10.3228 201.754 10.3154C199.769 10.3228 198.356 8.53564 198.356 5.70117ZM199.704 5.70117C199.696 7.78857 200.531 9.07031 201.754 9.07031C202.955 9.07031 203.79 7.78857 203.79 5.70117C203.79 3.64307 202.955 2.354 201.754 2.34668C200.531 2.354 199.696 3.64307 199.704 5.70117ZM222.528 6.50684V7.62012H210.546V6.50684H215.863V5.11523H212.04V0.720703H221.049V1.81934H213.417V4.00195H221.136V5.11523H217.211V6.50684H222.528ZM211.967 10.8574C211.967 9.33398 213.673 8.47705 216.522 8.46973C219.349 8.47705 221.041 9.33398 221.049 10.8574C221.041 12.3809 219.349 13.2378 216.522 13.2451C213.673 13.2378 211.967 12.3809 211.967 10.8574ZM213.373 10.8574C213.365 11.6997 214.515 12.1611 216.522 12.1465C218.5 12.1611 219.657 11.6997 219.657 10.8574C219.657 10.0298 218.5 9.55371 216.522 9.55371C214.515 9.55371 213.365 10.0298 213.373 10.8574ZM231.351 3.45996C231.336 5.85498 232.786 8.27197 234.823 9.17285L233.988 10.2715C232.479 9.55371 231.285 8.08154 230.67 6.28711C230.062 8.21338 228.853 9.79541 227.279 10.5645L226.429 9.39258C228.494 8.47705 229.945 5.96484 229.945 3.45996V1.21875H231.351V3.45996ZM236.009 13.2744V0.120117H237.401V13.2744H236.009ZM249.488 0.120117V4.00195H251.392V5.15918H249.488V9.65625H248.082V0.120117H249.488ZM239.161 7.10742C242.237 6.18457 244.141 4.43408 244.412 2.27344H239.717V1.11621H245.928C245.928 4.55859 243.585 7.05615 239.747 8.2207L239.161 7.10742ZM241.153 12.9668V8.6748H242.559V11.8389H250.03V12.9668H241.153ZM256.097 1.05762C258.169 1.05029 259.664 2.33203 259.671 4.17773C259.664 6.02344 258.169 7.30518 256.097 7.3125C254.031 7.30518 252.515 6.02344 252.522 4.17773C252.515 2.33203 254.031 1.05029 256.097 1.05762ZM251.893 9.29004C254.28 9.29004 257.591 9.26807 260.462 8.85059L260.564 9.86133C257.598 10.4326 254.412 10.4473 252.068 10.4473L251.893 9.29004ZM253.899 4.17773C253.885 5.34229 254.822 6.09668 256.097 6.09668C257.371 6.09668 258.309 5.34229 258.309 4.17773C258.309 3.02783 257.371 2.25879 256.097 2.25879C254.822 2.25879 253.885 3.02783 253.899 4.17773ZM261.282 13.2744V0.120117H262.674V13.2744H261.282ZM278.718 0.120117V6.90234H277.312V0.120117H278.718ZM268.025 5.39355C268.523 5.39355 269.065 5.38623 269.622 5.37891V2.08301H268.377V0.984375H275.51V2.08301H274.251V5.18848C274.888 5.14453 275.518 5.08594 276.111 5.0127L276.17 6.02344C273.547 6.41895 270.493 6.51416 268.186 6.50684L268.025 5.39355ZM270.003 8.60156V7.50293H278.718V10.7549H271.409V12H279.172V13.1133H270.047V9.74414H277.341V8.60156H270.003ZM270.955 5.34961C271.599 5.32764 272.258 5.30566 272.918 5.26904V2.08301H270.955V5.34961ZM291.392 0.120117V13.2744H290.015V6.11133H287.407V4.96875H290.015V0.120117H291.392ZM281.05 10.1689V1.29199H287.187V2.41992H282.456V4.96875H286.631V6.08203H282.456V9.01172C284.653 9.01172 286.177 8.9458 287.92 8.64551L288.066 9.77344C286.155 10.0811 284.507 10.1616 282.075 10.1689H281.05ZM304.387 0.120117V13.2451H303.054V0.120117H304.387ZM293.24 5.78906C293.24 2.94727 294.353 1.16748 296.067 1.1748C297.663 1.16748 298.74 2.68359 298.901 5.14453H300.388V0.369141H301.721V12.6006H300.388V6.27246H298.908C298.784 8.83594 297.693 10.4253 296.067 10.418C294.353 10.4253 293.24 8.63818 293.24 5.78906ZM294.529 5.78906C294.529 7.87646 295.122 9.10693 296.067 9.09961C297.033 9.10693 297.634 7.87646 297.634 5.78906C297.634 3.69434 297.033 2.47119 296.067 2.47852C295.122 2.47119 294.529 3.69434 294.529 5.78906ZM319.538 0.0908203V5.18848H321.34V6.36035H319.538V13.2451H318.146V0.0908203H319.538ZM309.431 9.87598V1.46777H312.8V2.61035H310.822V8.71143C311.452 8.68213 312.148 8.61621 312.917 8.45508L313.034 9.6123C311.848 9.854 310.903 9.87598 310.031 9.87598H309.431ZM313.532 9.87598V1.46777H317.033V2.61035H314.894V8.71875C315.861 8.7041 316.586 8.63086 317.385 8.42578L317.502 9.58301C316.447 9.84668 315.583 9.87598 314.177 9.87598H313.532ZM331.948 0.120117V5.24707H334.057V6.41895H331.948V13.2744H330.571V0.120117H331.948ZM322.236 2.43457V1.30664H328.241V6.12598H323.642V8.96777C325.89 8.96045 327.568 8.87988 329.487 8.52832L329.618 9.65625C327.568 10.0371 325.795 10.125 323.334 10.1396H322.265V4.99805H326.865V2.43457H322.236ZM341.268 1.10156C342.47 1.10889 343.451 1.79004 344.03 2.97656H347.274V0.120117H348.651V13.2744H347.274V8.23535H344.125C343.561 9.55371 342.536 10.3228 341.268 10.3154C339.313 10.3228 337.929 8.53564 337.943 5.70117C337.929 2.896 339.313 1.10889 341.268 1.10156ZM339.262 5.70117C339.269 7.78857 340.082 9.07031 341.268 9.07031C342.455 9.07031 343.268 7.78857 343.275 5.70117C343.268 3.64307 342.455 2.354 341.268 2.34668C340.082 2.354 339.269 3.64307 339.262 5.70117ZM344.425 4.11914C344.528 4.60254 344.594 5.12988 344.594 5.70117C344.594 6.19922 344.55 6.66064 344.462 7.09277H347.274V4.11914H344.425ZM11.6748 25.1201V33.3965H10.3564V29.7344H8.83301V32.9424H7.5293V25.3691H8.83301V28.5918H10.3564V25.1201H11.6748ZM0.410156 27.7129V26.6143H3.06152V25.2227H4.43848V26.6143H7.0459V27.7129H0.410156ZM0.922852 30.584C0.922852 29.2217 2.09473 28.3281 3.73535 28.3281C5.4126 28.3281 6.57715 29.2217 6.57715 30.584C6.57715 31.9463 5.4126 32.8398 3.73535 32.8398C2.09473 32.8398 0.922852 31.9463 0.922852 30.584ZM2.16797 30.584C2.16797 31.3311 2.80518 31.8218 3.73535 31.8291C4.68018 31.8218 5.32471 31.3311 5.31738 30.584C5.32471 29.8369 4.68018 29.3462 3.73535 29.3535C2.80518 29.3462 2.16797 29.8369 2.16797 30.584ZM2.8418 35.916C2.82715 34.4292 4.49707 33.5869 7.28027 33.5869C10.0708 33.5869 11.7407 34.4292 11.748 35.916C11.7407 37.3882 10.0708 38.2231 7.28027 38.2158C4.49707 38.2231 2.82715 37.3882 2.8418 35.916ZM4.21875 35.916C4.2041 36.707 5.33203 37.1611 7.28027 37.1465C9.23584 37.1611 10.3491 36.707 10.3564 35.916C10.3491 35.0884 9.23584 34.6489 7.28027 34.6562C5.33203 34.6489 4.2041 35.0884 4.21875 35.916ZM17.9613 28.9873C17.9539 31.1846 19.3968 33.4551 21.4183 34.3193L20.6566 35.4033C19.1112 34.7222 17.8807 33.272 17.2728 31.5215C16.6649 33.3965 15.4344 34.9932 13.9036 35.7402L13.098 34.6416C15.0755 33.7114 16.5404 31.2505 16.555 28.9873V27.5957H13.5521V26.4385H20.9495V27.5957H17.9613V28.9873ZM22.6048 38.2451V25.1201H23.9964V38.2451H22.6048ZM37.7682 31.1406V32.21H25.7565V31.1406H37.7682ZM27.1774 34.1289V33.1328H36.2887V36.0186H28.5836V37.1025H36.6989V38.084H27.192V35.0957H34.9118V34.1289H27.1774ZM27.2653 26.4385V25.457H36.2594V28.2988H28.6715V29.2949H36.4791V30.2764H27.2946V27.376H34.8678V26.4385H27.2653ZM52.9485 25.1348V34.8906H51.6302V30.1299H50.0188V34.5391H48.7151V25.3691H50.0188V28.9873H51.6302V25.1348H52.9485ZM42.3138 27.3467V26.2334H47.2942V30.0859H43.6907V31.8584C45.3167 31.8511 46.5545 31.7705 47.9973 31.4922L48.1438 32.6055C46.4886 32.9131 45.1263 32.979 43.2073 32.9717H42.343V29.0312H45.9612V27.3467H42.3138ZM44.2473 37.9668V33.9824H45.6243V36.8389H53.3294V37.9668H44.2473ZM61.1246 25.9404V27.0684H56.4957V30.9941C58.8248 30.9868 60.2091 30.9209 61.8131 30.5986L61.9449 31.7266C60.2164 32.0635 58.7223 32.144 56.1148 32.1514H55.1188V25.9404H61.1246ZM56.6861 38.0693V33.3379H65.3434V38.0693H56.6861ZM58.0631 36.9414H63.9811V34.4365H58.0631V36.9414ZM60.3922 29.3975V28.2549H63.9518V25.1201H65.3434V32.708H63.9518V29.3975H60.3922ZM73.0214 25.9111C75.7753 25.9111 77.87 27.3687 77.87 29.5732C77.87 31.7925 75.7753 33.2427 73.0214 33.2354C70.2748 33.2427 68.1801 31.7925 68.1874 29.5732C68.1801 27.3687 70.2748 25.9111 73.0214 25.9111ZM67.0448 36.5459V35.3887H79.0566V36.5459H67.0448ZM69.5204 29.5732C69.5131 31.104 71.0072 32.0928 73.0214 32.0928C75.0282 32.0928 76.5151 31.104 76.5224 29.5732C76.5151 28.0498 75.0282 27.0317 73.0214 27.0391C71.0072 27.0317 69.5131 28.0498 69.5204 29.5732ZM91.7004 35.5059V36.6777H79.6887V35.5059H84.9768V33.2061H81.1536V29.0312H88.8586V27.1855H81.1243V26.043H90.2356V30.1445H82.5305V32.0635H90.5432V33.2061H86.3538V35.5059H91.7004ZM107.642 33.0303V34.1729H102.34V38.2598H100.963V34.1729H95.6747V33.0303H107.642ZM96.3778 31.0088C98.868 30.6938 100.875 29.3022 100.963 27.8301H96.8026V26.7021H100.963V25.1201H102.34V26.7021H106.5V27.8301H102.354C102.428 29.2876 104.412 30.6938 106.91 31.0088L106.412 32.1221C104.303 31.8291 102.508 30.8403 101.659 29.5C100.809 30.855 99.0072 31.8291 96.8905 32.1221L96.3778 31.0088ZM112.918 28.2402C112.918 29.8955 114.156 31.4189 116.17 32.0488L115.496 33.1475C113.988 32.6714 112.852 31.6753 112.252 30.3936C111.68 31.7632 110.545 32.8398 108.992 33.3525L108.319 32.2686C110.325 31.624 111.541 30.0054 111.541 28.2402V27.9326H108.685V26.8047H111.541V25.208H112.933V26.8047H115.775V27.9326H112.918V28.2402ZM110.736 37.9668V34.041H112.127V36.8389H119.613V37.9668H110.736ZM115.321 30.2324V29.1045H117.869V25.1348H119.261V34.9053H117.869V30.2324H115.321ZM131.275 25.1201V28.416H133.179V29.5879H131.275V32.7666H129.883V25.1201H131.275ZM120.977 27.5225V26.4092H124.2V25.0029H125.591V26.4092H128.799V27.5225H120.977ZM121.695 30.3643C121.688 28.9653 122.977 28.0571 124.888 28.0645C126.778 28.0571 128.067 28.9653 128.067 30.3643C128.067 31.7632 126.778 32.6787 124.888 32.6641C122.977 32.6787 121.688 31.7632 121.695 30.3643ZM122.881 38.084V33.3086H124.258V34.583H129.883V33.3086H131.275V38.084H122.881ZM123.043 30.3643C123.028 31.1479 123.775 31.6313 124.888 31.6387C126.001 31.6313 126.749 31.1479 126.763 30.3643C126.749 29.5952 126.001 29.0972 124.888 29.1045C123.775 29.0972 123.028 29.5952 123.043 30.3643ZM124.258 36.9707H129.883V35.667H124.258V36.9707ZM144.505 25.1201V38.2451H143.113V25.1201H144.505ZM134.412 34.9053V26.3945H135.789V33.7041C137.708 33.6968 139.722 33.5283 141.824 33.1035L142.014 34.2754C139.693 34.7515 137.583 34.9126 135.511 34.9053H134.412ZM156.475 25.1201V30.2031H158.584V31.3457H156.475V38.2744H155.083V25.1201H156.475ZM146.807 35.0078V26.3799H152.944V27.5078H148.198V33.8506C150.403 33.8433 152.051 33.748 153.926 33.4111L154.102 34.583C152.044 34.9492 150.3 35.0151 147.861 35.0078H146.807ZM160.388 37.1025C159.817 37.0952 159.341 36.6338 159.348 36.0625C159.341 35.4912 159.817 35.0225 160.388 35.0225C160.952 35.0225 161.421 35.4912 161.428 36.0625C161.421 36.6338 160.952 37.0952 160.388 37.1025ZM12.4365 55.877V56.917H7.14844V58.0156H10.9424V60.9746H3.2959V62.0586H11.3086V63.1133H1.93359V60.0078H9.56543V59.0264H1.91895V58.0156H5.77148V56.917H0.498047V55.877H12.4365ZM1.08398 54.3096C3.59619 54.1704 5.36865 53.4014 5.6543 52.2881H1.68457V51.2188H5.77148V50.0615H7.14844V51.2188H11.25V52.2881H7.2583C7.53662 53.4014 9.30908 54.1704 11.8506 54.3096L11.4258 55.3643C9.14062 55.1958 7.28027 54.5293 6.45996 53.3794C5.63965 54.5293 3.7793 55.1958 1.47949 55.3643L1.08398 54.3096ZM15.0023 50.6768V52.4639H18.4446V50.6768H19.8216V56.4043H13.64V50.6768H15.0023ZM14.9583 58.543V57.4443H23.4398V60.7549H16.3499V62H23.8939V63.1133H14.9876V59.7295H22.0628V58.543H14.9583ZM15.0023 55.291H18.4446V53.5332H15.0023V55.291ZM22.0482 56.873V50.1201H23.4398V52.874H25.3441V54.002H23.4398V56.873H22.0482ZM30.6051 53.9873C30.5978 56.1846 32.0407 58.4551 34.0621 59.3193L33.3004 60.4033C31.755 59.7222 30.5246 58.272 29.9166 56.5215C29.3087 58.3965 28.0783 59.9932 26.5475 60.7402L25.7418 59.6416C27.7194 58.7114 29.1842 56.2505 29.1989 53.9873V52.5957H26.1959V51.4385H33.5934V52.5957H30.6051V53.9873ZM35.2487 63.2451V50.1201H36.6403V63.2451H35.2487ZM50.4121 56.1406V57.21H38.4004V56.1406H50.4121ZM39.8213 59.1289V58.1328H48.9326V61.0186H41.2275V62.1025H49.3427V63.084H39.8359V60.0957H47.5556V59.1289H39.8213ZM39.9091 51.4385V50.457H48.9033V53.2988H41.3154V54.2949H49.123V55.2764H39.9384V52.376H47.5117V51.4385H39.9091ZM66.3688 56.1992V57.3271H61.066V58.5869C63.4684 58.7188 64.8966 59.5244 64.9039 60.9014C64.8966 62.3882 63.1974 63.2231 60.3775 63.2158C57.5211 63.2231 55.8219 62.3882 55.8219 60.9014C55.8219 59.5244 57.2501 58.7114 59.6891 58.5869V57.3271H54.401V56.1992H66.3688ZM55.0309 54.4121C57.3893 54.1704 59.2496 53.1011 59.44 51.834H55.4996V50.7207H65.2994V51.834H61.315C61.5055 53.1084 63.3512 54.1704 65.7535 54.4121L65.2555 55.5107C62.9776 55.2471 61.0953 54.2876 60.3849 52.896C59.6598 54.2876 57.7921 55.2471 55.5143 55.5107L55.0309 54.4121ZM57.2281 60.9014C57.2208 61.6997 58.3707 62.1611 60.3775 62.1465C62.3551 62.1611 63.5123 61.6997 63.5123 60.9014C63.5123 60.0884 62.3551 59.6489 60.3775 59.6416C58.3707 59.6489 57.2208 60.0884 57.2281 60.9014ZM77.9286 50.1348V57.5615H76.537V50.1348H77.9286ZM67.1034 56.1699C69.1542 55.4814 70.392 53.7383 70.3993 51.9072V50.6328H71.8202V51.9072C71.8129 53.6797 73.08 55.2764 75.0722 55.9502L74.3837 57.0195C72.8603 56.5142 71.7104 55.4814 71.1171 54.1338C70.5312 55.5767 69.3666 56.7192 67.7919 57.2686L67.1034 56.1699ZM69.3007 63.084V58.2646H77.9286V63.084H69.3007ZM70.6777 61.9561H76.5663V59.3779H70.6777V61.9561ZM85.6653 50.9111C88.4192 50.9111 90.5139 52.3687 90.5139 54.5732C90.5139 56.7925 88.4192 58.2427 85.6653 58.2354C82.9187 58.2427 80.824 56.7925 80.8313 54.5732C80.824 52.3687 82.9187 50.9111 85.6653 50.9111ZM79.6887 61.5459V60.3887H91.7004V61.5459H79.6887ZM82.1643 54.5732C82.157 56.104 83.6511 57.0928 85.6653 57.0928C87.6721 57.0928 89.1589 56.104 89.1663 54.5732C89.1589 53.0498 87.6721 52.0317 85.6653 52.0391C83.6511 52.0317 82.157 53.0498 82.1643 54.5732ZM104.344 60.5059V61.6777H92.3326V60.5059H97.6207V58.2061H93.7974V54.0312H101.503V52.1855H93.7681V51.043H102.879V55.1445H95.1744V57.0635H103.187V58.2061H98.9976V60.5059H104.344ZM120.286 57.5176V58.6455H114.954V63.2305H113.592V58.6455H108.319V57.5176H120.286ZM108.992 55.4229C111.439 55.0859 113.475 53.6284 113.519 52.0098H109.432V50.8965H119.158V52.0098H115.101C115.123 53.6284 117.144 55.0859 119.627 55.4229L119.114 56.5215C116.961 56.1846 115.101 55.1226 114.302 53.6284C113.497 55.1226 111.644 56.1846 109.52 56.5215L108.992 55.4229ZM131.905 50.1348V59.832H130.513V56.4189H127.642V57.6494H121.592V50.999H122.984V53.2256H126.265V50.999H127.642V52.4639H130.513V50.1348H131.905ZM122.984 56.5215H126.265V54.2949H122.984V56.5215ZM123.335 62.9668V58.8799H124.742V61.8389H132.198V62.9668H123.335ZM127.642 55.291H130.513V53.6064H127.642V55.291ZM140.508 51.1016C141.709 51.1089 142.691 51.79 143.269 52.9766H146.514V50.1201H147.891V63.2744H146.514V58.2354H143.364C142.8 59.5537 141.775 60.3228 140.508 60.3154C138.552 60.3228 137.168 58.5356 137.183 55.7012C137.168 52.896 138.552 51.1089 140.508 51.1016ZM138.501 55.7012C138.508 57.7886 139.321 59.0703 140.508 59.0703C141.694 59.0703 142.507 57.7886 142.515 55.7012C142.507 53.6431 141.694 52.354 140.508 52.3467C139.321 52.354 138.508 53.6431 138.501 55.7012ZM143.665 54.1191C143.767 54.6025 143.833 55.1299 143.833 55.7012C143.833 56.1992 143.789 56.6606 143.701 57.0928H146.514V54.1191H143.665ZM160.784 50.1201V58.3965H159.465V54.7344H157.942V57.9424H156.638V50.3691H157.942V53.5918H159.465V50.1201H160.784ZM149.519 52.7129V51.6143H152.17V50.2227H153.547V51.6143H156.155V52.7129H149.519ZM150.032 55.584C150.032 54.2217 151.204 53.3281 152.844 53.3281C154.521 53.3281 155.686 54.2217 155.686 55.584C155.686 56.9463 154.521 57.8398 152.844 57.8398C151.204 57.8398 150.032 56.9463 150.032 55.584ZM151.277 55.584C151.277 56.3311 151.914 56.8218 152.844 56.8291C153.789 56.8218 154.434 56.3311 154.426 55.584C154.434 54.8369 153.789 54.3462 152.844 54.3535C151.914 54.3462 151.277 54.8369 151.277 55.584ZM151.951 60.916C151.936 59.4292 153.606 58.5869 156.389 58.5869C159.18 58.5869 160.85 59.4292 160.857 60.916C160.85 62.3882 159.18 63.2231 156.389 63.2158C153.606 63.2231 151.936 62.3882 151.951 60.916ZM153.328 60.916C153.313 61.707 154.441 62.1611 156.389 62.1465C158.345 62.1611 159.458 61.707 159.465 60.916C159.458 60.0884 158.345 59.6489 156.389 59.6562C154.441 59.6489 153.313 60.0884 153.328 60.916ZM167.07 53.9873C167.063 56.1846 168.506 58.4551 170.527 59.3193L169.765 60.4033C168.22 59.7222 166.99 58.272 166.382 56.5215C165.774 58.3965 164.543 59.9932 163.012 60.7402L162.207 59.6416C164.184 58.7114 165.649 56.2505 165.664 53.9873V52.5957H162.661V51.4385H170.058V52.5957H167.07V53.9873ZM171.714 63.2451V50.1201H173.105V63.2451H171.714ZM185.31 50.1201V55.4521H187.214V56.5947H185.31V63.2451H183.918V50.1201H185.31ZM174.763 59.5537C176.682 57.5542 177.378 55.2983 177.517 52.6689H175.232V51.5264H178.835C178.828 54.8076 178.242 57.7959 175.861 60.3301L174.763 59.5537ZM178.513 60.4326C180.468 58.1475 181.04 55.4668 181.142 52.6689H179.26V51.5264H182.453C182.453 54.8442 182.036 58.3452 179.626 61.1943L178.513 60.4326ZM192.358 53.9873C192.351 56.1846 193.793 58.4551 195.815 59.3193L195.053 60.4033C193.508 59.7222 192.277 58.272 191.669 56.5215C191.061 58.3965 189.831 59.9932 188.3 60.7402L187.495 59.6416C189.472 58.7114 190.937 56.2505 190.952 53.9873V52.5957H187.949V51.4385H195.346V52.5957H192.358V53.9873ZM197.001 63.2451V50.1201H198.393V63.2451H197.001ZM204.445 51.0576C206.518 51.0503 208.012 52.332 208.019 54.1777C208.012 56.0234 206.518 57.3052 204.445 57.3125C202.38 57.3052 200.864 56.0234 200.871 54.1777C200.864 52.332 202.38 51.0503 204.445 51.0576ZM200.241 59.29C202.629 59.29 205.939 59.2681 208.81 58.8506L208.913 59.8613C205.947 60.4326 202.761 60.4473 200.417 60.4473L200.241 59.29ZM202.248 54.1777C202.233 55.3423 203.171 56.0967 204.445 56.0967C205.719 56.0967 206.657 55.3423 206.657 54.1777C206.657 53.0278 205.719 52.2588 204.445 52.2588C203.171 52.2588 202.233 53.0278 202.248 54.1777ZM209.631 63.2744V50.1201H211.022V63.2744H209.631ZM227.023 50.1201V63.2744H225.631V50.1201H227.023ZM216.608 55.7012C216.608 52.896 218.021 51.1089 220.006 51.1016C221.954 51.1089 223.39 52.896 223.39 55.7012C223.39 58.5356 221.954 60.3228 220.006 60.3154C218.021 60.3228 216.608 58.5356 216.608 55.7012ZM217.955 55.7012C217.948 57.7886 218.783 59.0703 220.006 59.0703C221.207 59.0703 222.042 57.7886 222.042 55.7012C222.042 53.6431 221.207 52.354 220.006 52.3467C218.783 52.354 217.948 53.6431 217.955 55.7012ZM240.78 56.5068V57.6201H228.798V56.5068H234.115V55.1152H230.292V50.7207H239.301V51.8193H231.669V54.002H239.388V55.1152H235.463V56.5068H240.78ZM230.218 60.8574C230.218 59.334 231.925 58.4771 234.774 58.4697C237.601 58.4771 239.293 59.334 239.301 60.8574C239.293 62.3809 237.601 63.2378 234.774 63.2451C231.925 63.2378 230.218 62.3809 230.218 60.8574ZM231.625 60.8574C231.617 61.6997 232.767 62.1611 234.774 62.1465C236.752 62.1611 237.909 61.6997 237.909 60.8574C237.909 60.0298 236.752 59.5537 234.774 59.5537C232.767 59.5537 231.617 60.0298 231.625 60.8574ZM248.165 51.2773C248.158 53.0205 250.289 54.6538 252.867 54.998L252.325 56.1406C250.179 55.7964 248.297 54.6831 247.44 53.1377C246.583 54.6831 244.701 55.7964 242.569 56.1406L242.013 54.998C244.584 54.6538 246.708 53.0425 246.715 51.2773V50.5596H248.165V51.2773ZM241.441 58.5723V57.4297H253.409V58.5723H248.077V63.2451H246.715V58.5723H241.441ZM264.398 50.1055V53.9141H266.317V55.0713H264.398V59.6123H263.006V50.1055H264.398ZM254.671 57.3418V51.2334H260.531V52.3613H256.048V56.1846C258.604 56.1919 260.04 56.1113 261.688 55.7744L261.849 56.9023C260.077 57.2539 258.524 57.3418 255.711 57.3418H254.671ZM256.077 62.9668V58.6309H257.469V61.8389H264.954V62.9668H256.077ZM277.657 50.1201V56.9463H276.28V55.3789H273.409V56.4629H267.359V50.7207H268.751V52.4932H272.032V50.7207H273.409V51.9219H276.28V50.1201H277.657ZM268.751 55.3496H272.032V53.5625H268.751V55.3496ZM269.073 58.6162V57.5322H277.657V60.7549H270.494V61.9707H278.126V63.084H269.102V59.7148H276.28V58.6162H269.073ZM273.409 54.3096H276.28V52.9912H273.409V54.3096ZM293.584 50.1201V63.2744H292.193V50.1201H293.584ZM283.169 55.7012C283.169 52.896 284.583 51.1089 286.568 51.1016C288.516 51.1089 289.951 52.896 289.951 55.7012C289.951 58.5356 288.516 60.3228 286.568 60.3154C284.583 60.3228 283.169 58.5356 283.169 55.7012ZM284.517 55.7012C284.51 57.7886 285.345 59.0703 286.568 59.0703C287.769 59.0703 288.604 57.7886 288.604 55.7012C288.604 53.6431 287.769 52.354 286.568 52.3467C285.345 52.354 284.51 53.6431 284.517 55.7012ZM307.341 56.5068V57.6201H295.359V56.5068H300.676V55.1152H296.853V50.7207H305.862V51.8193H298.23V54.002H305.95V55.1152H302.024V56.5068H307.341ZM296.78 60.8574C296.78 59.334 298.486 58.4771 301.336 58.4697C304.163 58.4771 305.855 59.334 305.862 60.8574C305.855 62.3809 304.163 63.2378 301.336 63.2451C298.486 63.2378 296.78 62.3809 296.78 60.8574ZM298.186 60.8574C298.179 61.6997 299.329 62.1611 301.336 62.1465C303.313 62.1611 304.47 61.6997 304.47 60.8574C304.47 60.0298 303.313 59.5537 301.336 59.5537C299.329 59.5537 298.179 60.0298 298.186 60.8574ZM316.164 53.46C316.15 55.855 317.6 58.272 319.636 59.1729L318.801 60.2715C317.292 59.5537 316.098 58.0815 315.483 56.2871C314.875 58.2134 313.667 59.7954 312.092 60.5645L311.242 59.3926C313.308 58.4771 314.758 55.9648 314.758 53.46V51.2188H316.164V53.46ZM320.823 63.2744V50.1201H322.214V63.2744H320.823ZM334.301 50.1201V54.002H336.206V55.1592H334.301V59.6562H332.895V50.1201H334.301ZM323.974 57.1074C327.05 56.1846 328.955 54.4341 329.226 52.2734H324.531V51.1162H330.742C330.742 54.5586 328.398 57.0562 324.56 58.2207L323.974 57.1074ZM325.966 62.9668V58.6748H327.373V61.8389H334.843V62.9668H325.966ZM342.609 50.3398C345.568 50.3325 347.289 51.1309 347.297 52.5957C347.289 54.0679 345.568 54.8662 342.609 54.8662C339.65 54.8662 337.914 54.0679 337.922 52.5957C337.914 51.1309 339.65 50.3325 342.609 50.3398ZM336.633 56.7852V55.6719H348.6V56.7852H336.633ZM338.068 58.8359V57.7959H347.092V60.8721H339.445V62.0439H347.458V63.1133H338.083V59.8613H345.715V58.8359H338.068ZM339.372 52.5957C339.365 53.4087 340.522 53.8262 342.609 53.8262C344.711 53.8262 345.869 53.4087 345.861 52.5957C345.869 51.8193 344.711 51.3652 342.609 51.3652C340.522 51.3652 339.365 51.8193 339.372 52.5957ZM11.1035 76.3799V77.6689C11.0962 79.2876 11.0962 81.104 10.6055 83.792L9.19922 83.6455C9.70459 81.104 9.70459 79.2437 9.71191 77.6689V77.5078H1.74316V76.3799H11.1035ZM0.483398 86.4727V85.3154H5.03906V80.6865H6.41602V85.3154H12.4512V86.4727H0.483398ZM24.055 75.1201V88.2744H22.678V82.7812H20.1146V81.624H22.678V79.1924H20.1878V78.0498H22.678V75.1201H24.055ZM13.5814 77.4053V76.2773H19.3968V81.0674H15.0023V84.085C16.8553 84.0776 18.4227 83.9897 20.2904 83.7188L20.4075 84.8613C18.3568 85.1836 16.6795 85.2422 14.6068 85.2422H13.6107V79.9688H18.0345V77.4053H13.5814ZM32.2604 77.2881V78.416H25.7418V77.2881H28.32V75.501H29.6969V77.2881H32.2604ZM26.1666 82.2246C26.1593 80.4595 27.3605 79.207 29.0084 79.207C30.671 79.207 31.8576 80.4595 31.8649 82.2246C31.8576 84.019 30.671 85.2788 29.0084 85.2715C27.3605 85.2788 26.1593 84.019 26.1666 82.2246ZM27.3971 82.2246C27.3898 83.3379 28.0636 84.085 29.0084 84.085C29.9533 84.085 30.6344 83.3379 30.6344 82.2246C30.6344 81.1333 29.9533 80.3716 29.0084 80.3643C28.0636 80.3716 27.3898 81.1333 27.3971 82.2246ZM32.861 87.6299V75.4131H34.1793V80.584H35.6881V75.1201H37.0065V88.2451H35.6881V81.7266H34.1793V87.6299H32.861ZM45.9759 87.1465C43.7786 87.1465 42.2185 85.9673 42.1526 84.2314H43.7932C43.8518 85.1616 44.7747 85.7549 45.9612 85.7549C47.243 85.7549 48.1731 85.0591 48.1731 84.0264C48.1731 82.979 47.3015 82.2319 45.7854 82.2246H44.8772V80.9062H45.7854C46.9939 80.9136 47.8362 80.2397 47.8362 79.2217C47.8362 78.2549 47.1111 77.5957 45.9905 77.5957C44.9285 77.5957 43.9763 78.189 43.9397 79.1484H42.387C42.4309 77.4199 44.0276 76.248 46.0052 76.248C48.0926 76.248 49.4036 77.5664 49.3889 79.1338C49.4036 80.3423 48.6565 81.2065 47.5139 81.4922V81.5654C48.9641 81.7705 49.8064 82.7446 49.7991 84.085C49.8064 85.8501 48.1731 87.1465 45.9759 87.1465ZM62.0328 75.1201V88.2451H60.6998V81.4336H59.0738V87.6152H57.7701V75.4717H59.0738V80.3057H60.6998V75.1201H62.0328ZM50.7535 84.4951C53.6686 82.8398 54.8917 80.606 55.1114 77.9326H51.3102V76.79H56.4664C56.4591 80.2397 55.3165 83.3452 51.5592 85.4619L50.7535 84.4951ZM77.2424 75.75V76.7021C77.2497 77.7056 77.2497 78.8408 76.9202 80.3643L75.5432 80.2178C75.8508 78.7969 75.8655 77.7788 75.8655 76.8486H68.1897V75.75H77.2424ZM66.7981 82.3125V81.1992H71.5881V78.6211H72.9504V81.1992H78.7366V82.3125H66.7981ZM67.6184 87.1025C70.1599 86.7583 72.0056 85.4253 72.0129 83.8066V83.2793H73.4192V83.8066C73.4119 85.4253 75.2576 86.7583 77.843 87.1025L77.3157 88.1865C75.2429 87.8716 73.5217 86.9561 72.7161 85.6084C71.9031 86.9561 70.1819 87.8716 68.1164 88.1865L67.6184 87.1025ZM85.4039 75.3398C88.3629 75.3325 90.084 76.1309 90.0914 77.5957C90.084 79.0679 88.3629 79.8662 85.4039 79.8662C82.4449 79.8662 80.709 79.0679 80.7164 77.5957C80.709 76.1309 82.4449 75.3325 85.4039 75.3398ZM79.4273 81.7852V80.6719H91.3951V81.7852H79.4273ZM80.8629 83.8359V82.7959H89.8863V85.8721H82.2398V87.0439H90.2525V88.1133H80.8775V84.8613H88.5093V83.8359H80.8629ZM82.1666 77.5957C82.1592 78.4087 83.3165 78.8262 85.4039 78.8262C87.5059 78.8262 88.6631 78.4087 88.6558 77.5957C88.6631 76.8193 87.5059 76.3652 85.4039 76.3652C83.3165 76.3652 82.1592 76.8193 82.1666 77.5957ZM107.425 85.5498V86.6924H95.4133V85.5498H98.6359V82.6348H96.468V81.5068H98.4309V77.4199H96.4387V76.2773H106.326V77.4199H104.32V81.5068H106.282V82.6348H104.129V85.5498H107.425ZM99.8078 81.5068H102.957V77.4199H99.8078V81.5068ZM100.028 85.5498H102.738V82.6348H100.028V85.5498ZM112.876 78.46C112.862 80.855 114.312 83.272 116.348 84.1729L115.513 85.2715C114.004 84.5537 112.811 83.0815 112.195 81.2871C111.587 83.2134 110.379 84.7954 108.804 85.5645L107.955 84.3926C110.02 83.4771 111.47 80.9648 111.47 78.46V76.2188H112.876V78.46ZM117.535 88.2744V75.1201H118.926V88.2744H117.535ZM130.926 75.1201V80.4375H133.035V81.5947H130.926V88.2451H129.549V75.1201H130.926ZM120.628 78.3135V77.1709H123.865V75.2959H125.257V77.1709H128.406V78.3135H120.628ZM121.302 82.3271C121.302 80.54 122.679 79.2803 124.568 79.2803C126.451 79.2803 127.827 80.54 127.835 82.3271C127.827 84.1289 126.451 85.3813 124.568 85.3887C122.679 85.3813 121.302 84.1289 121.302 82.3271ZM122.635 82.3271C122.627 83.4697 123.448 84.2314 124.568 84.2168C125.681 84.2314 126.494 83.4697 126.502 82.3271C126.494 81.2065 125.681 80.4302 124.568 80.4229C123.448 80.4302 122.627 81.2065 122.635 82.3271ZM139.321 75.9111C142.127 75.9185 144.17 77.3027 144.17 79.3975C144.17 81.3604 142.456 82.6714 140.01 82.8691V85.4473H145.357V86.6045H133.345V85.4473H138.633V82.8691C136.201 82.6714 134.48 81.3604 134.487 79.3975C134.48 77.3027 136.531 75.9185 139.321 75.9111ZM135.835 79.3975C135.835 80.8696 137.3 81.7852 139.321 81.7998C141.358 81.7852 142.815 80.8696 142.822 79.3975C142.815 77.9766 141.358 77.0391 139.321 77.0537C137.3 77.0391 135.835 77.9766 135.835 79.3975ZM156.887 75.1201V88.2451H155.496V75.1201H156.887ZM146.794 84.9053V76.3945H148.171V83.7041C150.09 83.6968 152.104 83.5283 154.207 83.1035L154.397 84.2754C152.075 84.7515 149.966 84.9126 147.893 84.9053H146.794ZM160.991 85.9893L159.819 90.0322H158.574L159.35 85.9893H160.991ZM177.446 80.877V81.917H172.158V83.0156H175.952V85.9746H168.305V87.0586H176.318V88.1133H166.943V85.0078H174.575V84.0264H166.928V83.0156H170.781V81.917H165.507V80.877H177.446ZM166.093 79.3096C168.605 79.1704 170.378 78.4014 170.664 77.2881H166.694V76.2188H170.781V75.0615H172.158V76.2188H176.259V77.2881H172.268C172.546 78.4014 174.318 79.1704 176.86 79.3096L176.435 80.3643C174.15 80.1958 172.289 79.5293 171.469 78.3794C170.649 79.5293 168.789 80.1958 166.489 80.3643L166.093 79.3096ZM180.011 75.6768V77.4639H183.454V75.6768H184.831V81.4043H178.649V75.6768H180.011ZM179.968 83.543V82.4443H188.449V85.7549H181.359V87H188.903V88.1133H179.997V84.7295H187.072V83.543H179.968ZM180.011 80.291H183.454V78.5332H180.011V80.291ZM187.057 81.873V75.1201H188.449V77.874H190.353V79.002H188.449V81.873H187.057ZM195.614 78.9873C195.607 81.1846 197.05 83.4551 199.071 84.3193L198.31 85.4033C196.764 84.7222 195.534 83.272 194.926 81.5215C194.318 83.3965 193.087 84.9932 191.557 85.7402L190.751 84.6416C192.729 83.7114 194.193 81.2505 194.208 78.9873V77.5957H191.205V76.4385H198.603V77.5957H195.614V78.9873ZM200.258 88.2451V75.1201H201.649V88.2451H200.258ZM214.718 75.1201V88.2451H213.385V75.1201H214.718ZM203.571 80.7891C203.571 77.9473 204.684 76.1675 206.398 76.1748C207.995 76.1675 209.071 77.6836 209.232 80.1445H210.719V75.3691H212.052V87.6006H210.719V81.2725H209.24C209.115 83.8359 208.024 85.4253 206.398 85.418C204.684 85.4253 203.571 83.6382 203.571 80.7891ZM204.86 80.7891C204.86 82.8765 205.453 84.1069 206.398 84.0996C207.365 84.1069 207.965 82.8765 207.965 80.7891C207.965 78.6943 207.365 77.4712 206.398 77.4785C205.453 77.4712 204.86 78.6943 204.86 80.7891ZM229.869 75.0908V80.1885H231.671V81.3604H229.869V88.2451H228.478V75.0908H229.869ZM219.762 84.876V76.4678H223.131V77.6104H221.153V83.7114C221.783 83.6821 222.479 83.6162 223.248 83.4551L223.365 84.6123C222.179 84.854 221.234 84.876 220.362 84.876H219.762ZM223.863 84.876V76.4678H227.364V77.6104H225.226V83.7188C226.192 83.7041 226.918 83.6309 227.716 83.4258L227.833 84.583C226.778 84.8467 225.914 84.876 224.508 84.876H223.863ZM242.279 75.1201V80.2471H244.388V81.4189H242.279V88.2744H240.902V75.1201H242.279ZM232.567 77.4346V76.3066H238.573V81.126H233.973V83.9678C236.222 83.9604 237.899 83.8799 239.818 83.5283L239.95 84.6562C237.899 85.0371 236.126 85.125 233.665 85.1396H232.596V79.998H237.196V77.4346H232.567ZM258.602 76.3945V77.9912C258.602 79.9102 258.602 81.7119 258.03 84.4365L256.653 84.3047C256.932 83.0962 257.078 82.0488 257.151 81.0747L249.271 81.4922L249.095 80.3496L257.217 80.042C257.247 79.3389 257.247 78.665 257.254 77.9912V77.5371H249.461V76.3945H258.602ZM248.04 86.4873V85.3447H260.008V86.4873H248.04ZM271.963 75.1201V88.2451H270.645V75.1201H271.963ZM260.64 84.4512C263.423 82.7959 264.756 80.5913 264.998 77.8887H261.255V76.7461H266.382C266.375 78.0278 266.199 79.251 265.796 80.3936H267.876V75.457H269.195V87.6006H267.876V81.5068H265.313C264.536 83.0303 263.284 84.3633 261.431 85.4473L260.64 84.4512ZM283.086 75.8525V76.9658H278.603V80.1592C281.079 80.1592 282.566 80.064 284.272 79.7197L284.434 80.8184C282.617 81.2065 281.013 81.2725 278.267 81.2725H277.227V75.8525H283.086ZM278.501 83.4404V82.3271H286.982V85.6816H279.893V86.9561H287.436V88.084H278.53V84.6123H285.605V83.4404H278.501ZM285.591 81.7119V75.1201H286.982V77.8008H288.887V78.9434H286.982V81.7119H285.591ZM299.538 75.1201V80.2471H301.648V81.4189H299.538V88.2744H298.161V75.1201H299.538ZM289.826 77.4346V76.3066H295.832V81.126H291.233V83.9678C293.481 83.9604 295.158 83.8799 297.077 83.5283L297.209 84.6562C295.158 85.0371 293.386 85.125 290.925 85.1396H289.856V79.998H294.455V77.4346H289.826ZM306.821 77.8594C306.821 79.5586 308.073 81.1553 310.102 81.7998L309.384 82.8838C307.876 82.3857 306.74 81.353 306.14 80.042C305.554 81.4702 304.382 82.5981 302.822 83.1475L302.104 82.0488C304.148 81.353 305.407 79.6538 305.415 77.8594V77.2881H302.47V76.1602H309.707V77.2881H306.821V77.8594ZM304.257 87.9668V83.8066H305.664V86.8389H313.237V87.9668H304.257ZM311.45 84.7148V75.1348H312.841V84.7148H311.45ZM324.826 75.1201V80.2031H326.935V81.3457H324.826V88.2744H323.434V75.1201H324.826ZM315.158 85.0078V76.3799H321.296V77.5078H316.55V83.8506C318.754 83.8433 320.402 83.748 322.277 83.4111L322.453 84.583C320.395 84.9492 318.652 85.0151 316.213 85.0078H315.158ZM337.865 78.958V80.0713H328.827V75.5889H330.204V78.958H337.865ZM327.231 82.8398V81.7266H339.242V82.8398H327.231ZM328.725 87.9375V84.085H330.116V86.7949H337.953V87.9375H328.725ZM11.4258 100.12V107.767H10.0342V104.471H7.57324V103.313H10.0342V100.12H11.4258ZM0.498047 106.595C2.51221 105.906 3.77197 104.156 3.76465 102.361V102.054H0.922852V100.911H7.99805V102.054H5.18555V102.361C5.17822 103.995 6.36475 105.628 8.34961 106.316L7.63184 107.415C6.15967 106.902 5.06836 105.848 4.49707 104.544C3.92578 105.994 2.77588 107.144 1.21582 107.693L0.498047 106.595ZM2.76855 113.084V108.382H11.4258V113.084H2.76855ZM4.14551 111.956H10.0635V109.48H4.14551V111.956ZM19.1038 100.34C22.0628 100.333 23.784 101.131 23.7913 102.596C23.784 104.068 22.0628 104.866 19.1038 104.866C16.1448 104.866 14.409 104.068 14.4163 102.596C14.409 101.131 16.1448 100.333 19.1038 100.34ZM13.1273 106.785V105.672H25.095V106.785H13.1273ZM14.5628 108.836V107.796H23.5863V110.872H15.9398V112.044H23.9525V113.113H14.5775V109.861H22.2093V108.836H14.5628ZM15.8665 102.596C15.8592 103.409 17.0164 103.826 19.1038 103.826C21.2059 103.826 22.3631 103.409 22.3558 102.596C22.3631 101.819 21.2059 101.365 19.1038 101.365C17.0164 101.365 15.8592 101.819 15.8665 102.596ZM33.7129 102.83C33.7129 104.346 34.8994 105.752 36.9062 106.331L36.2617 107.415C34.7456 106.976 33.625 106.045 33.039 104.852C32.4604 106.163 31.3178 107.181 29.7578 107.664L29.0839 106.58C31.0908 105.987 32.3359 104.493 32.3359 102.83V102.698H29.4795V101.585H32.3359V100.062H33.7275V101.585H36.5693V102.698H33.7129V102.83ZM31.0468 113.084V108.455H39.4257V113.084H31.0468ZM32.4091 111.956H38.0488V109.554H32.4091V111.956ZM38.0341 107.869V100.12H39.4257V103.372H41.33V104.529H39.4257V107.869H38.0341ZM52.3772 101.38V102.669C52.3699 104.288 52.3699 106.104 51.8792 108.792L50.4729 108.646C50.9783 106.104 50.9783 104.244 50.9856 102.669V102.508H43.0169V101.38H52.3772ZM41.7571 111.473V110.315H46.3128V105.687H47.6897V110.315H53.7249V111.473H41.7571ZM69.7402 107.84V108.938H64.3788V113.245H63.0165V108.938H57.7284V107.84H69.7402ZM59.2226 106.346V100.647H60.5995V102.361H66.8398V100.647H68.2314V106.346H59.2226ZM60.5995 105.232H66.8398V103.475H60.5995V105.232ZM77.052 100.999V102.127H72.3498V103.636H76.803V104.72H72.3498V106.302C74.7595 106.302 76.1951 106.229 77.8723 105.936L78.0188 107.049C76.2244 107.364 74.6789 107.43 71.9836 107.415H70.9582V100.999H77.052ZM72.0276 109.803V108.675H80.6995V113.245H79.3079V109.803H72.0276ZM79.3079 108.074V100.12H80.6995V103.519H82.6038V104.69H80.6995V108.074H79.3079ZM93.6656 106.346V107.488H84.525V101.292H93.5484V102.435H85.9019V106.346H93.6656ZM83.0308 111.517V110.359H95.0425V111.517H83.0308ZM106.558 100.135V107.371H105.167V100.135H106.558ZM96.3339 101.878V100.75H102.369V104.412H97.7255V105.965C100.025 105.958 101.703 105.899 103.702 105.569L103.878 106.697C101.732 107.049 99.9447 107.107 97.4618 107.122H96.3632V103.328H100.992V101.878H96.3339ZM97.9452 113.084V107.986H99.3368V109.407H105.182V107.986H106.558V113.084H97.9452ZM99.3368 111.956H105.182V110.506H99.3368V111.956ZM119.217 100.12V113.245H117.825V100.12H119.217ZM109.124 109.905V101.395H110.501V108.704C112.42 108.697 114.434 108.528 116.536 108.104L116.727 109.275C114.405 109.751 112.296 109.913 110.223 109.905H109.124ZM131.187 100.12V105.203H133.296V106.346H131.187V113.274H129.795V100.12H131.187ZM121.519 110.008V101.38H127.657V102.508H122.911V108.851C125.115 108.843 126.763 108.748 128.638 108.411L128.814 109.583C126.756 109.949 125.013 110.015 122.574 110.008H121.519ZM135.1 112.103C134.529 112.095 134.053 111.634 134.06 111.062C134.053 110.491 134.529 110.022 135.1 110.022C135.664 110.022 136.133 110.491 136.14 111.062C136.133 111.634 135.664 112.095 135.1 112.103Z" fill="#262626"/>
</svg>
