<svg width="346" height="90" viewBox="0 0 346 90" fill="none" xmlns="http://www.w3.org/2000/svg">
<path d="M0.556641 6.4375L1.72852 2.39453H2.97363L2.19727 6.4375H0.556641ZM14.973 1.12012V14.2451H13.6546V1.12012H14.973ZM3.64973 10.4512C6.43293 8.7959 7.76594 6.59131 8.00764 3.88867H4.26496V2.74609H9.39191C9.38459 4.02783 9.20881 5.25098 8.80598 6.39355H10.8861V1.45703H12.2044V13.6006H10.8861V7.50684H8.32258C7.54621 9.03027 6.29377 10.3633 4.44074 11.4473L3.64973 10.4512ZM21.1569 4.45996C21.1422 6.85498 22.5924 9.27197 24.6286 10.1729L23.7936 11.2715C22.2848 10.5537 21.091 9.08154 20.4757 7.28711C19.8678 9.21338 18.6593 10.7954 17.0846 11.5645L16.235 10.3926C18.3004 9.47705 19.7506 6.96484 19.7506 4.45996V2.21875H21.1569V4.45996ZM25.8151 14.2744V1.12012H27.2067V14.2744H25.8151ZM40.9492 6.55469V7.66797H35.6464V8.81055H39.4404V11.8867H31.7939V13.0439H39.8066V14.1133H30.4316V10.876H38.0634V9.87988H30.417V8.81055H34.2548V7.66797H28.9814V6.55469H40.9492ZM30.5195 5.58789V1.54492H39.4111V5.58789H30.5195ZM31.8818 4.48926H38.0195V2.64355H31.8818V4.48926ZM52.7018 9.41113L45.817 12.7363V11.1543L50.8414 8.86182V8.78857L45.817 6.49609V4.89941L52.7018 8.23926V9.41113ZM68.0139 1.67676V2.54102C68.0212 3.40527 68.0212 4.51123 67.7356 5.93945H69.5373V7.05273H57.5256V5.93945H66.3367C66.6077 4.61377 66.637 3.61035 66.637 2.79004H59.0344V1.67676H68.0139ZM58.9319 9.33789V8.22461H68.0286V11.667H60.3381V13H68.3655V14.1133H58.9465V10.5977H66.6516V9.33789H58.9319ZM74.2418 3.77148C74.2344 5.00928 74.835 6.55469 76.1607 7.46289C77.4644 6.56934 78.065 5.0459 78.065 3.77148V2.13086H79.4713V3.77148C79.4566 5.36084 80.3209 7.00879 82.0787 7.74121L81.317 8.78125C80.0572 8.23193 79.2076 7.20654 78.7535 5.9834C78.314 7.24316 77.4717 8.36377 76.1461 8.94238C74.8057 8.35645 73.9561 7.19922 73.524 5.93945C73.0626 7.15527 72.2056 8.21729 70.9752 8.78125L70.2281 7.74121C71.942 6.97217 72.8355 5.24365 72.8502 3.77148V2.13086H74.2418V3.77148ZM70.1695 12.5166V11.374H82.1666V12.5166H70.1695ZM93.7264 1.12012V14.2451H92.3202V1.12012H93.7264ZM82.9452 10.7295C86.4315 9.06689 88.1381 6.70117 88.4091 3.63965H83.5751V2.52637H89.8153C89.8153 6.37158 88.182 9.69678 83.6776 11.8574L82.9452 10.7295ZM97.9475 2.40918L96.7756 6.45215H95.5305L96.3068 2.40918H97.9475ZM113.304 1.12012V14.2451H111.971V1.12012H113.304ZM102.156 6.78906C102.156 3.94727 103.269 2.16748 104.983 2.1748C106.58 2.16748 107.657 3.68359 107.818 6.14453H109.305V1.36914H110.638V13.6006H109.305V7.27246H107.825C107.701 9.83594 106.609 11.4253 104.983 11.418C103.269 11.4253 102.156 9.63818 102.156 6.78906ZM103.445 6.78906C103.445 8.87646 104.038 10.1069 104.983 10.0996C105.95 10.1069 106.551 8.87646 106.551 6.78906C106.551 4.69434 105.95 3.47119 104.983 3.47852C104.038 3.47119 103.445 4.69434 103.445 6.78906ZM119.385 4.45996C119.385 6.8623 120.733 9.25732 122.739 10.1582L121.89 11.2715C120.403 10.5244 119.275 9.04492 118.696 7.25049C118.118 9.14014 116.975 10.7368 115.459 11.5205L114.58 10.3926C116.616 9.41846 117.971 6.8916 117.979 4.45996V2.21875H119.385V4.45996ZM121.289 6.61328V5.48535H124.219V1.12012H125.596V14.2744H124.219V6.61328H121.289ZM134.199 2.10156C135.4 2.10889 136.382 2.79004 136.96 3.97656H140.205V1.12012H141.582V14.2744H140.205V9.23535H137.055C136.492 10.5537 135.466 11.3228 134.199 11.3154C132.243 11.3228 130.859 9.53564 130.874 6.70117C130.859 3.896 132.243 2.10889 134.199 2.10156ZM132.192 6.70117C132.2 8.78857 133.012 10.0703 134.199 10.0703C135.386 10.0703 136.199 8.78857 136.206 6.70117C136.199 4.64307 135.386 3.354 134.199 3.34668C133.012 3.354 132.2 4.64307 132.192 6.70117ZM137.356 5.11914C137.458 5.60254 137.524 6.12988 137.524 6.70117C137.524 7.19922 137.48 7.66064 137.392 8.09277H140.205V5.11914H137.356ZM154.475 1.12012V9.39648H153.156V5.73438H151.633V8.94238H150.329V1.36914H151.633V4.5918H153.156V1.12012H154.475ZM143.21 3.71289V2.61426H145.861V1.22266H147.238V2.61426H149.846V3.71289H143.21ZM143.723 6.58398C143.723 5.22168 144.895 4.32812 146.535 4.32812C148.213 4.32812 149.377 5.22168 149.377 6.58398C149.377 7.94629 148.213 8.83984 146.535 8.83984C144.895 8.83984 143.723 7.94629 143.723 6.58398ZM144.968 6.58398C144.968 7.33105 145.605 7.82178 146.535 7.8291C147.48 7.82178 148.125 7.33105 148.117 6.58398C148.125 5.83691 147.48 5.34619 146.535 5.35352C145.605 5.34619 144.968 5.83691 144.968 6.58398ZM145.642 11.916C145.627 10.4292 147.297 9.58691 150.08 9.58691C152.871 9.58691 154.541 10.4292 154.548 11.916C154.541 13.3882 152.871 14.2231 150.08 14.2158C147.297 14.2231 145.627 13.3882 145.642 11.916ZM147.019 11.916C147.004 12.707 148.132 13.1611 150.08 13.1465C152.036 13.1611 153.149 12.707 153.156 11.916C153.149 11.0884 152.036 10.6489 150.08 10.6562C148.132 10.6489 147.004 11.0884 147.019 11.916ZM160.497 4.9873C160.49 7.06006 161.86 9.37451 163.852 10.3193L163.061 11.4033C161.589 10.7002 160.417 9.2207 159.824 7.50684C159.223 9.37451 157.993 10.9932 156.498 11.7402L155.678 10.6416C157.67 9.68213 159.113 7.20654 159.121 4.9873V3.5957H156.162V2.43848H163.354V3.5957H160.497V4.9873ZM164.76 14.2451V1.12012H166.152V6.32031H168.261V7.49219H166.152V14.2451H164.76ZM178.796 1.12012V6.34961H180.832V7.50684H178.796V14.2305H177.404V1.12012H178.796ZM168.586 10.7295C171.874 9.08887 173.661 6.71582 173.947 3.6543H169.245V2.49707H175.368C175.353 6.29102 173.683 9.68213 169.362 11.8135L168.586 10.7295ZM188.117 2.10156C189.318 2.10889 190.299 2.79004 190.878 3.97656H194.122V1.12012H195.499V14.2744H194.122V9.23535H190.973C190.409 10.5537 189.384 11.3228 188.117 11.3154C186.161 11.3228 184.777 9.53564 184.791 6.70117C184.777 3.896 186.161 2.10889 188.117 2.10156ZM186.11 6.70117C186.117 8.78857 186.93 10.0703 188.117 10.0703C189.303 10.0703 190.116 8.78857 190.123 6.70117C190.116 4.64307 189.303 3.354 188.117 3.34668C186.93 3.354 186.117 4.64307 186.11 6.70117ZM191.273 5.11914C191.376 5.60254 191.442 6.12988 191.442 6.70117C191.442 7.19922 191.398 7.66064 191.31 8.09277H194.122V5.11914H191.273ZM208.392 1.12012V9.39648H207.074V5.73438H205.551V8.94238H204.247V1.36914H205.551V4.5918H207.074V1.12012H208.392ZM197.128 3.71289V2.61426H199.779V1.22266H201.156V2.61426H203.763V3.71289H197.128ZM197.64 6.58398C197.64 5.22168 198.812 4.32812 200.453 4.32812C202.13 4.32812 203.295 5.22168 203.295 6.58398C203.295 7.94629 202.13 8.83984 200.453 8.83984C198.812 8.83984 197.64 7.94629 197.64 6.58398ZM198.885 6.58398C198.885 7.33105 199.523 7.82178 200.453 7.8291C201.398 7.82178 202.042 7.33105 202.035 6.58398C202.042 5.83691 201.398 5.34619 200.453 5.35352C199.523 5.34619 198.885 5.83691 198.885 6.58398ZM199.559 11.916C199.545 10.4292 201.215 9.58691 203.998 9.58691C206.788 9.58691 208.458 10.4292 208.466 11.916C208.458 13.3882 206.788 14.2231 203.998 14.2158C201.215 14.2231 199.545 13.3882 199.559 11.916ZM200.936 11.916C200.922 12.707 202.05 13.1611 203.998 13.1465C205.953 13.1611 207.067 12.707 207.074 11.916C207.067 11.0884 205.953 10.6489 203.998 10.6562C202.05 10.6489 200.922 11.0884 200.936 11.916ZM223.822 7.16992V8.2832H219.852V11.4912H225.199V12.6338H213.187V11.4912H218.475V8.2832H214.681V2.13086H223.704V3.25879H216.073V7.16992H223.822ZM237.799 7.19922V8.32715H232.496V9.58691C234.898 9.71875 236.326 10.5244 236.334 11.9014C236.326 13.3882 234.627 14.2231 231.807 14.2158C228.951 14.2231 227.252 13.3882 227.252 11.9014C227.252 10.5244 228.68 9.71143 231.119 9.58691V8.32715H225.831V7.19922H237.799ZM226.461 5.41211C228.819 5.17041 230.679 4.10107 230.87 2.83398H226.929V1.7207H236.729V2.83398H232.745C232.935 4.1084 234.781 5.17041 237.183 5.41211L236.685 6.51074C234.407 6.24707 232.525 5.2876 231.815 3.896C231.09 5.2876 229.222 6.24707 226.944 6.51074L226.461 5.41211ZM228.658 11.9014C228.651 12.6997 229.8 13.1611 231.807 13.1465C233.785 13.1611 234.942 12.6997 234.942 11.9014C234.942 11.0884 233.785 10.6489 231.807 10.6416C229.8 10.6489 228.651 11.0884 228.658 11.9014ZM253.784 6.62793V7.74121H241.817V6.62793H253.784ZM242.432 4.9873C244.827 4.81152 246.709 3.8667 246.958 2.7168H242.915V1.60352H252.715V2.7168H248.628C248.877 3.8667 250.767 4.81152 253.184 4.9873L252.73 6.07129C250.474 5.86621 248.584 5.05322 247.793 3.80811C247.002 5.0459 245.127 5.86621 242.871 6.07129L242.432 4.9873ZM243.252 9.83594V8.7959H252.276V11.8867H244.629V13.0439H252.642V14.1133H243.267V10.876H250.899V9.83594H243.252ZM265.388 1.12012V8.19531H264.011V5.45605H261.287V4.32812H264.011V1.12012H265.388ZM254.622 7.38965C257.786 6.60596 259.529 5.05322 259.778 3.05371H255.296V1.89648H261.272C261.272 5.26562 259.046 7.49951 255.149 8.48828L254.622 7.38965ZM256.775 14.084V8.81055H258.167V10.3486H264.011V8.81055H265.388V14.084H256.775ZM258.167 12.9561H264.011V11.4473H258.167V12.9561ZM278.384 1.12012V14.2451H277.065V1.12012H278.384ZM267.061 10.4512C269.844 8.7959 271.177 6.59131 271.418 3.88867H267.676V2.74609H272.803C272.795 4.02783 272.62 5.25098 272.217 6.39355H274.297V1.45703H275.615V13.6006H274.297V7.50684H271.733C270.957 9.03027 269.705 10.3633 267.852 11.4473L267.061 10.4512ZM293.989 1.70605V2.81934H289.997C290.114 4.14502 292.004 5.28027 294.443 5.5293L293.93 6.61328C291.66 6.36426 289.785 5.39014 289.067 3.98389C288.349 5.39014 286.482 6.36426 284.218 6.61328L283.72 5.5293C286.13 5.2583 288.027 4.1377 288.137 2.81934H284.189V1.70605H293.989ZM283.09 8.51758V7.38965H295.087V8.51758H283.09ZM284.423 10.8613V9.7334H293.593V14.2451H292.187V10.8613H284.423ZM301.711 10.1729C304.597 10.1729 306.23 10.8687 306.237 12.209C306.23 13.542 304.597 14.2378 301.711 14.2451C298.788 14.2378 297.155 13.542 297.155 12.209C297.155 10.8687 298.788 10.1729 301.711 10.1729ZM295.734 9.38184V8.29785H307.702V9.38184H295.734ZM296.35 3.25879V2.2041H301.022V0.944336H302.414V2.2041H307.028V3.25879H296.35ZM297.404 5.64648C297.397 4.40137 298.957 3.73486 301.711 3.74219C304.479 3.73486 306.025 4.40137 306.017 5.64648C306.025 6.87695 304.479 7.52881 301.711 7.52148C298.957 7.52881 297.397 6.87695 297.404 5.64648ZM298.576 12.209C298.576 12.8682 299.667 13.2124 301.711 13.2051C303.74 13.2124 304.831 12.8682 304.831 12.209C304.831 11.5425 303.74 11.1909 301.711 11.1836C299.667 11.1909 298.576 11.5425 298.576 12.209ZM298.884 5.64648C298.876 6.23975 299.88 6.54736 301.711 6.55469C303.557 6.54736 304.538 6.23975 304.538 5.64648C304.538 5.02393 303.557 4.68701 301.711 4.69434C299.88 4.68701 298.876 5.02393 298.884 5.64648ZM313.08 3.44922C313.073 5.10449 314.26 6.72314 316.244 7.4043L315.527 8.48828C314.054 7.98291 312.963 6.92822 312.392 5.63184C311.821 7.07471 310.671 8.23193 309.111 8.78125L308.393 7.68262C310.407 6.99414 311.667 5.24365 311.659 3.46387V3.09766H308.818V1.96973H315.893V3.09766H313.08V3.44922ZM310.429 10.7588V9.63086H319.321V14.2451H317.929V10.7588H310.429ZM315.497 5.60254V4.45996H317.929V1.12012H319.321V8.97168H317.929V5.60254H315.497ZM326.999 1.91113C329.753 1.91113 331.847 3.36865 331.847 5.57324C331.847 7.79248 329.753 9.24268 326.999 9.23535C324.252 9.24268 322.157 7.79248 322.165 5.57324C322.157 3.36865 324.252 1.91113 326.999 1.91113ZM321.022 12.5459V11.3887H333.034V12.5459H321.022ZM323.498 5.57324C323.49 7.104 324.984 8.09277 326.999 8.09277C329.005 8.09277 330.492 7.104 330.5 5.57324C330.492 4.0498 329.005 3.03174 326.999 3.03906C324.984 3.03174 323.49 4.0498 323.498 5.57324ZM345.678 11.5059V12.6777H333.666V11.5059H338.954V9.20605H335.131V5.03125H342.836V3.18555H335.101V2.04297H344.213V6.14453H336.508V8.06348H344.52V9.20605H340.331V11.5059H345.678ZM7.20703 27.2773C7.19971 29.0205 9.33105 30.6538 11.9092 30.998L11.3672 32.1406C9.22119 31.7964 7.33887 30.6831 6.48193 29.1377C5.625 30.6831 3.74268 31.7964 1.61133 32.1406L1.05469 30.998C3.62549 30.6538 5.74951 29.0425 5.75684 27.2773V26.5596H7.20703V27.2773ZM0.483398 34.5723V33.4297H12.4512V34.5723H7.11914V39.2451H5.75684V34.5723H0.483398ZM24.3187 26.1201V34.3965H23.0003V30.7344H21.4769V33.9424H20.1732V26.3691H21.4769V29.5918H23.0003V26.1201H24.3187ZM13.054 28.7129V27.6143H15.7054V26.2227H17.0823V27.6143H19.6898V28.7129H13.054ZM13.5667 31.584C13.5667 30.2217 14.7386 29.3281 16.3792 29.3281C18.0565 29.3281 19.221 30.2217 19.221 31.584C19.221 32.9463 18.0565 33.8398 16.3792 33.8398C14.7386 33.8398 13.5667 32.9463 13.5667 31.584ZM14.8118 31.584C14.8118 32.3311 15.449 32.8218 16.3792 32.8291C17.324 32.8218 17.9686 32.3311 17.9613 31.584C17.9686 30.8369 17.324 30.3462 16.3792 30.3535C15.449 30.3462 14.8118 30.8369 14.8118 31.584ZM15.4857 36.916C15.471 35.4292 17.1409 34.5869 19.9241 34.5869C22.7147 34.5869 24.3846 35.4292 24.3919 36.916C24.3846 38.3882 22.7147 39.2231 19.9241 39.2158C17.1409 39.2231 15.471 38.3882 15.4857 36.916ZM16.8626 36.916C16.848 37.707 17.9759 38.1611 19.9241 38.1465C21.8797 38.1611 22.993 37.707 23.0003 36.916C22.993 36.0884 21.8797 35.6489 19.9241 35.6562C17.9759 35.6489 16.848 36.0884 16.8626 36.916ZM36.0836 26.0762V29.1523H38.0026V30.2949H36.0836V33.2979H34.692V26.0762H36.0836ZM25.7858 28.332V27.2334H29.0084V26.0029H30.4V27.2334H33.608V28.332H25.7858ZM26.5036 30.9834C26.4962 29.6577 27.7706 28.8301 29.6969 28.8301C31.6232 28.8301 32.8756 29.6577 32.8756 30.9834C32.8756 32.3164 31.6232 33.1294 29.6969 33.1221C27.7706 33.1294 26.4962 32.3164 26.5036 30.9834ZM27.6022 34.9531V33.9131H36.0836V36.96H28.9938V38.0586H36.5377V39.1133H27.6315V35.9785H34.7067V34.9531H27.6022ZM27.8512 30.9834C27.8366 31.6938 28.5617 32.1113 29.6969 32.1113C30.8248 32.1113 31.5573 31.6938 31.5719 30.9834C31.5573 30.2729 30.8248 29.8335 29.6969 29.8262C28.5617 29.8335 27.8366 30.2729 27.8512 30.9834ZM48.4075 27.2773V33.4004H42.2698V27.2773H48.4075ZM43.6321 32.3018H47.0452V28.4053H43.6321V32.3018ZM43.7493 38.9668V34.8066H45.1409V37.8389H52.6263V38.9668H43.7493ZM50.678 35.7295V26.1055H52.0696V30.0312H53.9739V31.2031H52.0696V35.7295H50.678ZM64.7135 26.1348V30.3535H66.6178V31.5107H64.7135V35.9492H63.3219V26.1348H64.7135ZM54.4156 28.7861V27.6582H57.6383V26.1201H59.0299V27.6582H62.2379V28.7861H54.4156ZM55.1334 31.8916C55.1261 30.3901 56.4225 29.4087 58.3268 29.416C60.2091 29.4087 61.5055 30.3901 61.5055 31.8916C61.5055 33.3784 60.2091 34.3452 58.3268 34.3525C56.4225 34.3452 55.1261 33.3784 55.1334 31.8916ZM56.3932 38.9668V35.1729H57.7848V37.8389H65.2701V38.9668H56.3932ZM56.4811 31.8916C56.4664 32.7485 57.2135 33.2759 58.3268 33.2686C59.44 33.2759 60.1871 32.7485 60.2018 31.8916C60.1871 31.0273 59.44 30.4927 58.3268 30.4854C57.2135 30.4927 56.4664 31.0273 56.4811 31.8916ZM77.2717 27.3799V36.0078H71.1194V27.3799H77.2717ZM72.4963 34.8799H75.9241V28.4785H72.4963V34.8799ZM79.8645 39.2744V26.1201H81.2561V39.2744H79.8645ZM87.6597 28.4932C87.6671 30.3828 88.8389 32.1919 90.7945 32.9463L90.0328 34.0303C88.6046 33.4517 87.5425 32.3018 86.9859 30.8809C86.4219 32.4116 85.3087 33.6274 83.7779 34.2354L83.0308 33.1221C85.0523 32.375 86.2755 30.5073 86.2828 28.4932V26.8672H87.6597V28.4932ZM85.4039 38.9668V34.9238H86.8101V37.8389H94.2662V38.9668H85.4039ZM90.0328 31.7744V30.6465H92.5816V29.123H90.0328V27.9951H92.5816V26.1348H93.9732V35.9053H92.5816V31.7744H90.0328ZM101.651 26.3398C104.61 26.3325 106.331 27.1309 106.339 28.5957C106.331 30.0679 104.61 30.8662 101.651 30.8662C98.6923 30.8662 96.9564 30.0679 96.9638 28.5957C96.9564 27.1309 98.6923 26.3325 101.651 26.3398ZM95.6747 32.7852V31.6719H107.642V32.7852H95.6747ZM97.1102 34.8359V33.7959H106.134V36.8721H98.4872V38.0439H106.5V39.1133H97.1249V35.8613H104.757V34.8359H97.1102ZM98.4139 28.5957C98.4066 29.4087 99.5639 29.8262 101.651 29.8262C103.753 29.8262 104.911 29.4087 104.903 28.5957C104.911 27.8193 103.753 27.3652 101.651 27.3652C99.5639 27.3652 98.4066 27.8193 98.4139 28.5957ZM122.925 26.1201V39.2451H121.592V26.1201H122.925ZM111.47 35.627C113.331 34.5063 114.275 32.1187 114.283 29.7822V28.7275H111.866V27.5996H117.872V28.7275H115.616V29.7822C115.616 32.0234 116.524 34.272 118.37 35.334L117.535 36.3594C116.282 35.6123 115.425 34.272 114.964 32.6899C114.495 34.4038 113.602 35.8687 112.32 36.667L111.47 35.627ZM116.905 31.9062V30.7637H118.941V26.3984H120.259V38.5859H118.941V31.9062H116.905ZM134.617 26.1055V30.0312H136.521V31.2031H134.617V35.7588H133.225V26.1055H134.617ZM124.51 30.2803C124.495 28.3687 126.018 27.021 127.996 27.0137C129.981 27.021 131.482 28.3687 131.497 30.2803C131.482 32.1919 129.981 33.5542 127.996 33.5469C126.018 33.5542 124.495 32.1919 124.51 30.2803ZM125.872 30.2803C125.857 31.5034 126.795 32.3311 127.996 32.3311C129.212 32.3311 130.127 31.5034 130.135 30.2803C130.127 29.0571 129.212 28.2295 127.996 28.2295C126.795 28.2295 125.857 29.0571 125.872 30.2803ZM126.297 38.9668V34.748H127.688V37.8389H135.174V38.9668H126.297ZM147.173 26.1201V31.4375H149.282V32.5947H147.173V39.2451H145.796V26.1201H147.173ZM136.875 29.3135V28.1709H140.112V26.2959H141.504V28.1709H144.653V29.3135H136.875ZM137.549 33.3271C137.549 31.54 138.926 30.2803 140.816 30.2803C142.698 30.2803 144.075 31.54 144.082 33.3271C144.075 35.1289 142.698 36.3813 140.816 36.3887C138.926 36.3813 137.549 35.1289 137.549 33.3271ZM138.882 33.3271C138.875 34.4697 139.695 35.2314 140.816 35.2168C141.929 35.2314 142.742 34.4697 142.749 33.3271C142.742 32.2065 141.929 31.4302 140.816 31.4229C139.695 31.4302 138.875 32.2065 138.882 33.3271ZM160.212 29.958V31.0713H151.174V26.5889H152.551V29.958H160.212ZM149.578 33.8398V32.7266H161.589V33.8398H149.578ZM151.072 38.9375V35.085H152.463V37.7949H160.3V38.9375H151.072ZM176.067 26.6768V27.541C176.074 28.4053 176.074 29.5112 175.788 30.9395H177.59V32.0527H165.578V30.9395H174.389C174.66 29.6138 174.69 28.6104 174.69 27.79H167.087V26.6768H176.067ZM166.984 34.3379V33.2246H176.081V36.667H168.391V38H176.418V39.1133H166.999V35.5977H174.704V34.3379H166.984ZM184.199 26.3398C187.158 26.3325 188.879 27.1309 188.886 28.5957C188.879 30.0679 187.158 30.8662 184.199 30.8662C181.24 30.8662 179.504 30.0679 179.511 28.5957C179.504 27.1309 181.24 26.3325 184.199 26.3398ZM178.222 32.7852V31.6719H190.19V32.7852H178.222ZM179.658 34.8359V33.7959H188.681V36.8721H181.035V38.0439H189.047V39.1133H179.672V35.8613H187.304V34.8359H179.658ZM180.961 28.5957C180.954 29.4087 182.111 29.8262 184.199 29.8262C186.301 29.8262 187.458 29.4087 187.451 28.5957C187.458 27.8193 186.301 27.3652 184.199 27.3652C182.111 27.3652 180.954 27.8193 180.961 28.5957ZM198.793 28.4785C198.786 30.1558 199.95 31.7451 201.957 32.4189L201.254 33.5029C199.767 32.9902 198.676 31.9648 198.105 30.6758C197.533 32.0894 196.391 33.21 194.853 33.752L194.106 32.668C196.156 31.9722 197.394 30.2729 197.401 28.4639V28.1123H194.516V26.9844H201.62V28.1123H198.793V28.4785ZM195.849 35.8027V34.6748H204.521V39.2451H203.129V35.8027H195.849ZM203.129 34.0303V26.1201H204.521V29.4893H206.425V30.6611H204.521V34.0303H203.129ZM211.51 28.083C211.503 29.9214 212.697 31.562 214.689 32.2139L213.927 33.2979C212.484 32.7705 211.422 31.7598 210.851 30.4414C210.287 31.9429 209.144 33.1221 207.555 33.6934L206.808 32.5801C208.903 31.8623 210.119 30.1118 210.133 28.1416V26.8525H211.51V28.083ZM208.961 36.7402C208.954 35.1509 210.639 34.228 213.4 34.2354C216.146 34.228 217.831 35.1509 217.838 36.7402C217.831 38.3223 216.146 39.2231 213.4 39.2158C210.639 39.2231 208.954 38.3223 208.961 36.7402ZM210.338 36.7402C210.331 37.6118 211.474 38.1245 213.4 38.1172C215.311 38.1245 216.454 37.6118 216.461 36.7402C216.454 35.8394 215.311 35.3193 213.4 35.3193C211.474 35.3193 210.331 35.8394 210.338 36.7402ZM213.634 29.9287V28.7861H216.403V26.1201H217.794V33.8691H216.403V29.9287H213.634ZM229.808 26.0762V29.1523H231.727V30.2949H229.808V33.2979H228.417V26.0762H229.808ZM219.51 28.332V27.2334H222.733V26.0029H224.125V27.2334H227.333V28.332H219.51ZM220.228 30.9834C220.221 29.6577 221.495 28.8301 223.422 28.8301C225.348 28.8301 226.6 29.6577 226.6 30.9834C226.6 32.3164 225.348 33.1294 223.422 33.1221C221.495 33.1294 220.221 32.3164 220.228 30.9834ZM221.327 34.9531V33.9131H229.808V36.96H222.718V38.0586H230.262V39.1133H221.356V35.9785H228.431V34.9531H221.327ZM221.576 30.9834C221.561 31.6938 222.286 32.1113 223.422 32.1113C224.55 32.1113 225.282 31.6938 225.297 30.9834C225.282 30.2729 224.55 29.8335 223.422 29.8262C222.286 29.8335 221.561 30.2729 221.576 30.9834ZM242.205 27.2773C242.198 29.0205 244.329 30.6538 246.908 30.998L246.366 32.1406C244.22 31.7964 242.337 30.6831 241.48 29.1377C240.623 30.6831 238.741 31.7964 236.61 32.1406L236.053 30.998C238.624 30.6538 240.748 29.0425 240.755 27.2773V26.5596H242.205V27.2773ZM235.482 34.5723V33.4297H247.45V34.5723H242.118V39.2451H240.755V34.5723H235.482ZM256.023 34.792C256.023 35.9199 256.58 37.1138 257.774 37.8242C258.975 37.0552 259.568 35.8027 259.568 34.792V34.1621H260.931V34.792C260.923 36.1543 261.824 37.4727 263.538 38.0293L262.85 39.0547C261.553 38.6079 260.667 37.729 260.213 36.6597C259.795 37.7144 259.012 38.6738 257.811 39.1719C256.551 38.6958 255.752 37.7656 255.35 36.6963C254.874 37.729 254.009 38.6006 252.771 39.0547L252.068 38.0293C253.753 37.4287 254.668 36.0591 254.676 34.792V34.1621H256.023V34.792ZM251.731 29.958C251.739 28.1196 253.218 26.8599 255.232 26.8525C257.239 26.8599 258.719 28.1196 258.719 29.958C258.719 31.7744 257.239 33.0342 255.232 33.0342C253.218 33.0342 251.739 31.7744 251.731 29.958ZM253.094 29.958C253.086 31.1006 253.987 31.877 255.232 31.877C256.463 31.877 257.356 31.1006 257.356 29.958C257.356 28.8081 256.463 28.0317 255.232 28.0391C253.987 28.0317 253.086 28.8081 253.094 29.958ZM260.96 33.6055V26.1348H262.352V33.6055H260.96ZM266.968 33.9863V35.3779H273.135V33.9863H274.527V39.084H265.591V33.9863H266.968ZM264.112 33.166V32.0088H276.079V33.166H264.112ZM264.756 30.1045C267.298 29.7749 269.378 28.376 269.385 26.8232V26.2666H270.806V26.8232C270.813 28.332 272.908 29.7969 275.42 30.1045L274.922 31.2031C272.798 30.9102 270.945 29.8994 270.103 28.5005C269.253 29.9067 267.393 30.9102 265.284 31.2031L264.756 30.1045ZM266.968 37.9707H273.135V36.4619H266.968V37.9707ZM287.654 26.1201V39.2451H286.262V26.1201H287.654ZM277.561 35.9053V27.3945H278.938V34.7041C280.857 34.6968 282.871 34.5283 284.973 34.1035L285.164 35.2754C282.842 35.7515 280.733 35.9126 278.66 35.9053H277.561ZM299.624 26.1201V31.2031H301.733V32.3457H299.624V39.2744H298.232V26.1201H299.624ZM289.956 36.0078V27.3799H296.094V28.5078H291.348V34.8506C293.552 34.8433 295.2 34.748 297.075 34.4111L297.251 35.583C295.193 35.9492 293.45 36.0151 291.011 36.0078H289.956ZM303.537 38.1025C302.966 38.0952 302.49 37.6338 302.497 37.0625C302.49 36.4912 302.966 36.0225 303.537 36.0225C304.101 36.0225 304.57 36.4912 304.577 37.0625C304.57 37.6338 304.101 38.0952 303.537 38.1025ZM10.7959 51.1348V55.002H12.7002V56.1738H10.7959V60.7734H9.4043V51.1348H10.7959ZM0.996094 58.6055V52.0723H2.3584V54.167H5.80078V52.0723H7.17773V58.6055H0.996094ZM2.3584 57.4922H5.80078V55.2656H2.3584V57.4922ZM2.47559 63.9668V59.8213H3.86719V62.8389H11.3525V63.9668H2.47559ZM25.095 57.4189V58.5322H13.1273V57.4189H25.095ZM14.4163 53.9619C14.409 52.3945 16.2327 51.4351 19.1038 51.4277C21.9676 51.4351 23.784 52.3945 23.7913 53.9619C23.784 55.5366 21.9676 56.4668 19.1038 56.4668C16.2327 56.4668 14.409 55.5366 14.4163 53.9619ZM14.5482 61.8867C14.5482 60.3633 16.2474 59.5137 19.1038 59.5283C21.9237 59.5137 23.6229 60.3633 23.6302 61.8867C23.6229 63.4028 21.9237 64.2524 19.1038 64.2451C16.2474 64.2524 14.5482 63.4028 14.5482 61.8867ZM15.8519 53.9619C15.8446 54.8628 17.0823 55.3755 19.1038 55.3828C21.1107 55.3755 22.3631 54.8628 22.3558 53.9619C22.3631 53.0464 21.1107 52.5337 19.1038 52.541C17.0823 52.5337 15.8446 53.0464 15.8519 53.9619ZM15.9544 61.8867C15.9471 62.707 17.097 63.1685 19.1038 63.1611C21.0814 63.1685 22.2386 62.707 22.2386 61.8867C22.2386 61.0371 21.0814 60.583 19.1038 60.583C17.097 60.583 15.9471 61.0371 15.9544 61.8867ZM36.6403 51.1201V64.2744H35.2487V51.1201H36.6403ZM26.2252 56.7012C26.2252 53.896 27.6388 52.1089 29.6237 52.1016C31.5719 52.1089 33.0075 53.896 33.0075 56.7012C33.0075 59.5356 31.5719 61.3228 29.6237 61.3154C27.6388 61.3228 26.2252 59.5356 26.2252 56.7012ZM27.5729 56.7012C27.5656 58.7886 28.4005 60.0703 29.6237 60.0703C30.8248 60.0703 31.6598 58.7886 31.6598 56.7012C31.6598 54.6431 30.8248 53.354 29.6237 53.3467C28.4005 53.354 27.5656 54.6431 27.5729 56.7012ZM48.4221 55.0312V56.4668H53.7542V57.5947H41.7425V56.4668H47.0452V55.0312H48.4221ZM42.3577 54.7676C44.6941 54.6064 46.5618 53.6982 46.7888 52.5703H42.8557V51.501H52.6555V52.5703H48.6785C48.9055 53.7056 50.7513 54.6064 53.1243 54.7676L52.6702 55.8076C50.3557 55.6099 48.4368 54.7676 47.7483 53.4565C47.0452 54.7603 45.1263 55.6099 42.8118 55.8076L42.3577 54.7676ZM42.8557 60.2754V59.2061H47.0452V58.0488H48.4221V59.2061H52.6116V60.2754H42.8557ZM43.7493 62.5605C43.742 61.4253 45.1702 60.8394 47.719 60.832C50.2679 60.8394 51.7254 61.4253 51.7327 62.5605C51.7254 63.7104 50.2679 64.311 47.719 64.3037C45.1702 64.311 43.742 63.7104 43.7493 62.5605ZM45.1702 62.5605C45.1555 63.0879 46.0784 63.3662 47.719 63.3516C49.3889 63.3662 50.2898 63.0879 50.2971 62.5605C50.2898 62.0332 49.3889 61.7915 47.719 61.7842C46.0784 61.7915 45.1555 62.0332 45.1702 62.5605ZM65.3287 51.1201V64.2451H63.9518V57.4629H61.0074V56.3203H63.9518V51.1201H65.3287ZM54.3717 60.7148C57.8507 59.0156 59.3961 56.6499 59.6378 53.6396H54.9576V52.5264H61.0514C61.0367 56.3276 59.5572 59.6089 55.1041 61.8135L54.3717 60.7148ZM79.3056 56.2764V57.4189H77.2695V64.2305H75.8779V51.1201H77.2695V56.2764H79.3056ZM67.5429 60.9346V52.3945H68.9198V59.7773C70.7509 59.77 72.6625 59.6162 74.7499 59.1914L74.9111 60.3633C72.6625 60.8101 70.5971 60.9419 68.6269 60.9346H67.5429ZM82.0471 61.9893L80.8752 66.0322H79.6301L80.4065 61.9893H82.0471ZM91.2802 54.46C91.2802 56.8623 92.6278 59.2573 94.6347 60.1582L93.785 61.2715C92.2982 60.5244 91.1703 59.0449 90.5917 57.2505C90.0131 59.1401 88.8705 60.7368 87.3544 61.5205L86.4755 60.3926C88.5116 59.4185 89.8666 56.8916 89.8739 54.46V52.2188H91.2802V54.46ZM93.1845 56.6133V55.4854H96.1141V51.1201H97.4911V64.2744H96.1141V56.6133H93.1845ZM110.062 51.1201V64.2744H108.67V51.1201H110.062ZM99.925 61.125V52.2188H101.317V55.5879H104.847V52.2188H106.224V61.125H99.925ZM101.317 59.9824H104.847V56.6865H101.317V59.9824ZM118.501 52.9805C118.501 55.1191 120.779 57.1406 123.306 57.5947L122.662 58.752C120.56 58.2979 118.633 56.9209 117.784 55.0752C116.919 56.9136 114.993 58.2832 112.891 58.752L112.276 57.5947C114.766 57.126 117.029 55.1191 117.037 52.9805V51.9844H118.501V52.9805ZM111.836 62.5166V61.3594H123.848V62.5166H111.836ZM132.393 54.9873C132.385 57.0601 133.755 59.3745 135.747 60.3193L134.956 61.4033C133.484 60.7002 132.312 59.2207 131.719 57.5068C131.118 59.3745 129.888 60.9932 128.394 61.7402L127.573 60.6416C129.566 59.6821 131.008 57.2065 131.016 54.9873V53.5957H128.057V52.4385H135.249V53.5957H132.393V54.9873ZM136.655 64.2451V51.1201H138.047V56.3203H140.156V57.4922H138.047V64.2451H136.655ZM144.392 55.1484C144.392 57.2139 145.352 59.3159 147.161 60.29L146.384 61.3154C145.11 60.6416 144.231 59.3892 143.755 57.9023C143.286 59.4917 142.407 60.8613 141.14 61.623L140.32 60.5684C142.136 59.5137 143.074 57.2651 143.088 55.1484V54.6211H140.715V53.4785H143.088V51.5889H144.392V53.4785H146.721V54.6211H144.392V55.1484ZM145.857 57.3896V56.2324H147.747V51.3984H149.065V63.5859H147.747V57.3896H145.857ZM150.398 64.2451V51.1201H151.731V64.2451H150.398ZM164.404 51.1201V64.2451H163.071V51.1201H164.404ZM153.257 56.7891C153.257 53.9473 154.37 52.1675 156.084 52.1748C157.68 52.1675 158.757 53.6836 158.918 56.1445H160.405V51.3691H161.738V63.6006H160.405V57.2725H158.926C158.801 59.8359 157.71 61.4253 156.084 61.418C154.37 61.4253 153.257 59.6382 153.257 56.7891ZM154.546 56.7891C154.546 58.8765 155.139 60.1069 156.084 60.0996C157.051 60.1069 157.651 58.8765 157.651 56.7891C157.651 54.6943 157.051 53.4712 156.084 53.4785C155.139 53.4712 154.546 54.6943 154.546 56.7891ZM170.485 54.46C170.485 56.8623 171.833 59.2573 173.84 60.1582L172.99 61.2715C171.504 60.5244 170.376 59.0449 169.797 57.2505C169.218 59.1401 168.076 60.7368 166.56 61.5205L165.681 60.3926C167.717 59.4185 169.072 56.8916 169.079 54.46V52.2188H170.485V54.46ZM172.39 56.6133V55.4854H175.319V51.1201H176.696V64.2744H175.319V56.6133H172.39ZM187.717 60.1729C190.602 60.1729 192.236 60.8687 192.243 62.209C192.236 63.542 190.602 64.2378 187.717 64.2451C184.794 64.2378 183.161 63.542 183.161 62.209C183.161 60.8687 184.794 60.1729 187.717 60.1729ZM181.74 59.3818V58.2979H193.708V59.3818H181.74ZM182.355 53.2588V52.2041H187.028V50.9443H188.42V52.2041H193.034V53.2588H182.355ZM183.41 55.6465C183.403 54.4014 184.963 53.7349 187.717 53.7422C190.485 53.7349 192.031 54.4014 192.023 55.6465C192.031 56.877 190.485 57.5288 187.717 57.5215C184.963 57.5288 183.403 56.877 183.41 55.6465ZM184.582 62.209C184.582 62.8682 185.673 63.2124 187.717 63.2051C189.745 63.2124 190.837 62.8682 190.837 62.209C190.837 61.5425 189.745 61.1909 187.717 61.1836C185.673 61.1909 184.582 61.5425 184.582 62.209ZM184.889 55.6465C184.882 56.2397 185.886 56.5474 187.717 56.5547C189.562 56.5474 190.544 56.2397 190.544 55.6465C190.544 55.0239 189.562 54.687 187.717 54.6943C185.886 54.687 184.882 55.0239 184.889 55.6465ZM201.269 52.3799V61.0078H195.116V52.3799H201.269ZM196.493 59.8799H199.921V53.4785H196.493V59.8799ZM203.861 64.2744V51.1201H205.253V64.2744H203.861ZM219.025 57.7705V58.8984H207.013V57.7705H212.33V56.6719H208.551V53.4785H216.124V52.4531H208.522V51.3691H217.516V54.5039H209.928V55.5879H217.78V56.6719H213.707V57.7705H219.025ZM208.595 64.084V59.499H209.987V60.6416H216.154V59.499H217.531V64.084H208.595ZM209.987 62.9854H216.154V61.7109H209.987V62.9854ZM229.896 51.1201V56.2031H232.006V57.3457H229.896V64.2744H228.505V51.1201H229.896ZM220.228 61.0078V52.3799H226.366V53.5078H221.62V59.8506C223.824 59.8433 225.472 59.748 227.347 59.4111L227.523 60.583C225.465 60.9492 223.722 61.0151 221.283 61.0078H220.228ZM242.936 52.3799V53.6689C242.928 55.2876 242.928 57.104 242.438 59.792L241.031 59.6455C241.537 57.104 241.537 55.2437 241.544 53.6689V53.5078H233.575V52.3799H242.936ZM232.315 62.4727V61.3154H236.871V56.6865H238.248V61.3154H244.283V62.4727H232.315ZM255.758 52.3066V53.4346H254.512V57.5508C255.135 57.5068 255.743 57.4482 256.329 57.375L256.417 58.415C253.773 58.8325 250.711 58.8911 248.463 58.8984L248.301 57.7559C248.807 57.7559 249.349 57.7485 249.913 57.7412V53.4346H248.668V52.3066H255.758ZM250.294 63.9668V59.8652H251.685V62.8389H259.171V63.9668H250.294ZM251.26 57.7119C251.883 57.6899 252.513 57.668 253.15 57.6387V53.4346H251.26V57.7119ZM257.222 60.7881V51.1348H258.614V55.0166H260.518V56.1885H258.614V60.7881H257.222ZM271.258 51.1055V54.9141H273.177V56.0713H271.258V60.6123H269.866V51.1055H271.258ZM261.531 58.3418V52.2334H267.391V53.3613H262.908V57.1846C265.464 57.1919 266.9 57.1113 268.548 56.7744L268.709 57.9023C266.937 58.2539 265.384 58.3418 262.571 58.3418H261.531ZM262.938 63.9668V59.6309H264.329V62.8389H271.814V63.9668H262.938ZM281.411 56.6719V57.8145H278.643V60.2461C279.859 60.1948 281.082 60.1143 282.232 59.9824L282.334 61.0078C279.441 61.4399 276.336 61.4839 273.838 61.4912L273.662 60.334C274.768 60.334 275.992 60.3267 277.251 60.2974V57.8145H274.615V52.3359H281.353V53.4639H275.992V56.6719H281.411ZM283.052 64.2744V51.1201H284.444V64.2744H283.052ZM292.927 52.2334V53.3467H295.784V51.1348H297.175V60.7002H295.784V57.3018H292.927V58.4443H286.834V52.2334H292.927ZM288.211 57.3457H291.565V53.3613H288.211V57.3457ZM288.606 63.9668V59.8213H290.012V62.8389H297.468V63.9668H288.606ZM292.927 56.1592H295.784V54.4893H292.927V56.1592ZM312.722 60.29V64.084H303.655V60.29H312.722ZM302.219 59.3965V58.2979H307.507V57.4043C305.185 57.3091 303.882 56.6865 303.889 55.5586C303.882 54.3354 305.442 53.7056 308.196 53.6982C310.964 53.7056 312.51 54.3354 312.502 55.5586C312.51 56.6865 311.228 57.3091 308.899 57.4043V58.2979H314.187V59.3965H302.219ZM302.834 53.2295V52.1602H307.507V50.9443H308.899V52.1602H313.513V53.2295H302.834ZM305.032 63.0146H311.374V61.3594H305.032V63.0146ZM305.368 55.5586C305.361 56.1519 306.365 56.4668 308.196 56.4668C310.041 56.4668 311.023 56.1519 311.023 55.5586C311.023 54.958 310.041 54.665 308.196 54.6504C306.365 54.665 305.361 54.958 305.368 55.5586ZM328.488 51.1201V56.6133H330.466V57.7852H328.488V64.2451H327.097V51.1201H328.488ZM318.044 60.6709C319.077 60.6709 320.278 60.6709 321.53 60.6343V59.3013C320.051 59.0815 319.084 58.188 319.099 56.9209C319.084 55.4414 320.366 54.4673 322.233 54.46C324.094 54.4673 325.39 55.4414 325.397 56.9209C325.39 58.188 324.409 59.0889 322.922 59.3013V60.583C324.086 60.5244 325.258 60.4292 326.35 60.2754L326.437 61.3008C323.596 61.8062 320.527 61.8354 318.264 61.8281L318.044 60.6709ZM318.293 53.7861V52.6729H321.53V51.1494H322.922V52.6729H326.159V53.7861H318.293ZM320.402 56.9209C320.402 57.7559 321.135 58.2759 322.233 58.2686C323.332 58.2759 324.057 57.7559 324.064 56.9209C324.057 56.0786 323.332 55.5439 322.233 55.5439C321.135 55.5439 320.402 56.0786 320.402 56.9209ZM337.543 52.2334V53.3467H340.4V51.1348H341.791V60.7002H340.4V57.3018H337.543V58.4443H331.449V52.2334H337.543ZM332.826 57.3457H336.181V53.3613H332.826V57.3457ZM333.222 63.9668V59.8213H334.628V62.8389H342.084V63.9668H333.222ZM337.543 56.1592H340.4V54.4893H337.543V56.1592ZM11.7773 76.1201V89.2451H10.4443V76.1201H11.7773ZM0.629883 81.7891C0.629883 78.9473 1.74316 77.1675 3.45703 77.1748C5.05371 77.1675 6.13037 78.6836 6.2915 81.1445H7.77832V76.3691H9.11133V88.6006H7.77832V82.2725H6.29883C6.17432 84.8359 5.08301 86.4253 3.45703 86.418C1.74316 86.4253 0.629883 84.6382 0.629883 81.7891ZM1.91895 81.7891C1.91895 83.8765 2.51221 85.1069 3.45703 85.0996C4.42383 85.1069 5.02441 83.8765 5.02441 81.7891C5.02441 79.6943 4.42383 78.4712 3.45703 78.4785C2.51221 78.4712 1.91895 79.6943 1.91895 81.7891ZM27.1188 81.9795V83.1221H23.1491V86.4619H28.4811V87.6045H16.4694V86.4619H21.7575V83.1221H17.9049V77.2041H19.3112V81.9795H27.1188ZM41.0664 81.877V82.917H35.7783V84.0156H39.5722V86.9746H31.9257V88.0586H39.9384V89.1133H30.5634V86.0078H38.1953V85.0264H30.5488V84.0156H34.4013V82.917H29.1279V81.877H41.0664ZM29.7138 80.3096C32.226 80.1704 33.9985 79.4014 34.2841 78.2881H30.3144V77.2188H34.4013V76.0615H35.7783V77.2188H39.8798V78.2881H35.8881C36.1665 79.4014 37.9389 80.1704 40.4804 80.3096L40.0556 81.3643C37.7705 81.1958 35.9101 80.5293 35.0898 79.3794C34.2695 80.5293 32.4091 81.1958 30.1093 81.3643L29.7138 80.3096ZM46.5764 79.46C46.5618 81.855 48.012 84.272 50.0481 85.1729L49.2132 86.2715C47.7044 85.5537 46.5105 84.0815 45.8953 82.2871C45.2874 84.2134 44.0789 85.7954 42.5042 86.5645L41.6546 85.3926C43.72 84.4771 45.1702 81.9648 45.1702 79.46V77.2188H46.5764V79.46ZM51.2346 89.2744V76.1201H52.6263V89.2744H51.2346ZM61.4029 77.1016C61.3883 80.6099 59.6378 83.1587 55.2506 84.5576L54.7232 83.4297C56.8766 82.7632 58.2608 81.8403 59.0665 80.6904L54.8844 81.0127L54.6646 79.8994L59.6012 79.687C59.777 79.2329 59.8868 78.7495 59.9381 78.2441H55.3238V77.1016H61.4029ZM56.7008 89.04V84.9531H58.107V87.9121H65.6803V89.04H56.7008ZM63.8932 85.6562V76.1348H65.2848V85.6562H63.8932ZM77.2695 76.1201V81.2031H79.3788V82.3457H77.2695V89.2744H75.8779V76.1201H77.2695ZM67.6015 86.0078V77.3799H73.7392V78.5078H68.9931V84.8506C71.1977 84.8433 72.8456 84.748 74.7206 84.4111L74.8964 85.583C72.8383 85.9492 71.0951 86.0151 68.6562 86.0078H67.6015ZM90.3088 79.958V81.0713H81.2707V76.5889H82.6477V79.958H90.3088ZM79.6741 83.8398V82.7266H91.6858V83.8398H79.6741ZM81.1682 88.9375V85.085H82.5598V87.7949H90.3967V88.9375H81.1682ZM106.617 76.1201V83.7666H105.225V80.4707H102.765V79.3135H105.225V76.1201H106.617ZM95.6893 82.5947C97.7035 81.9062 98.9633 80.1558 98.9559 78.3613V78.0537H96.1141V76.9111H103.189V78.0537H100.377V78.3613C100.37 79.9946 101.556 81.6279 103.541 82.3164L102.823 83.415C101.351 82.9023 100.26 81.8477 99.6884 80.5439C99.1171 81.9941 97.9672 83.144 96.4071 83.6934L95.6893 82.5947ZM97.9598 89.084V84.3818H106.617V89.084H97.9598ZM99.3368 87.9561H105.255V85.4805H99.3368V87.9561ZM116.26 78.8301C116.26 80.3462 117.447 81.7524 119.454 82.3311L118.809 83.415C117.293 82.9756 116.172 82.0454 115.586 80.8516C115.008 82.1626 113.865 83.1807 112.305 83.6641L111.631 82.5801C113.638 81.9868 114.883 80.4927 114.883 78.8301V78.6982H112.027V77.585H114.883V76.0615H116.275V77.585H119.117V78.6982H116.26V78.8301ZM113.594 89.084V84.4551H121.973V89.084H113.594ZM114.957 87.9561H120.596V85.5537H114.957V87.9561ZM120.582 83.8691V76.1201H121.973V79.3721H123.877V80.5293H121.973V83.8691H120.582ZM134.925 77.3799V78.6689C134.917 80.2876 134.917 82.104 134.427 84.792L133.02 84.6455C133.526 82.104 133.526 80.2437 133.533 78.6689V78.5078H125.564V77.3799H134.925ZM124.305 87.4727V86.3154H128.86V81.6865H130.237V86.3154H136.272V87.4727H124.305ZM152.288 83.8398V84.9385H146.926V89.2451H145.564V84.9385H140.276V83.8398H152.288ZM141.77 82.3457V76.6475H143.147V78.3613H149.387V76.6475H150.779V82.3457H141.77ZM143.147 81.2324H149.387V79.4746H143.147V81.2324ZM159.599 76.999V78.127H154.897V79.6357H159.35V80.7197H154.897V82.3018C157.307 82.3018 158.742 82.2285 160.42 81.9355L160.566 83.0488C158.772 83.3638 157.226 83.4297 154.531 83.415H153.506V76.999H159.599ZM154.575 85.8027V84.6748H163.247V89.2451H161.855V85.8027H154.575ZM161.855 84.0742V76.1201H163.247V79.5186H165.151V80.6904H163.247V84.0742H161.855ZM176.213 82.3457V83.4883H167.072V77.292H176.096V78.4346H168.449V82.3457H176.213ZM165.578 87.5166V86.3594H177.59V87.5166H165.578ZM189.106 76.1348V83.3711H187.714V76.1348H189.106ZM178.881 77.8779V76.75H184.916V80.4121H180.273V81.9648C182.573 81.9575 184.25 81.8989 186.249 81.5693L186.425 82.6973C184.279 83.0488 182.492 83.1074 180.009 83.1221H178.911V79.3281H183.539V77.8779H178.881ZM180.493 89.084V83.9863H181.884V85.4072H187.729V83.9863H189.106V89.084H180.493ZM181.884 87.9561H187.729V86.5059H181.884V87.9561ZM201.764 76.1201V89.2451H200.373V76.1201H201.764ZM191.672 85.9053V77.3945H193.049V84.7041C194.968 84.6968 196.982 84.5283 199.084 84.1035L199.274 85.2754C196.952 85.7515 194.843 85.9126 192.77 85.9053H191.672ZM213.734 76.1201V81.2031H215.844V82.3457H213.734V89.2744H212.343V76.1201H213.734ZM204.066 86.0078V77.3799H210.204V78.5078H205.458V84.8506C207.663 84.8433 209.311 84.748 211.186 84.4111L211.361 85.583C209.303 85.9492 207.56 86.0151 205.121 86.0078H204.066ZM217.648 88.1025C217.077 88.0952 216.6 87.6338 216.608 87.0625C216.6 86.4912 217.077 86.0225 217.648 86.0225C218.212 86.0225 218.681 86.4912 218.688 87.0625C218.681 87.6338 218.212 88.0952 217.648 88.1025Z" fill="#262626"/>
</svg>
