<svg width="350" height="289" viewBox="0 0 350 289" fill="none" xmlns="http://www.w3.org/2000/svg">
<path d="M4.04297 1.10156C5.24414 1.10889 6.22559 1.79004 6.8042 2.97656H10.0488V0.120117H11.4258V13.2744H10.0488V8.23535H6.89941C6.33545 9.55371 5.31006 10.3228 4.04297 10.3154C2.0874 10.3228 0.703125 8.53564 0.717773 5.70117C0.703125 2.896 2.0874 1.10889 4.04297 1.10156ZM2.03613 5.70117C2.04346 7.78857 2.85645 9.07031 4.04297 9.07031C5.22949 9.07031 6.04248 7.78857 6.0498 5.70117C6.04248 3.64307 5.22949 2.354 4.04297 2.34668C2.85645 2.354 2.04346 3.64307 2.03613 5.70117ZM7.19971 4.11914C7.30225 4.60254 7.36816 5.12988 7.36816 5.70117C7.36816 6.19922 7.32422 6.66064 7.23633 7.09277H10.0488V4.11914H7.19971ZM24.3187 0.120117V8.39648H23.0003V4.73438H21.4769V7.94238H20.1732V0.369141H21.4769V3.5918H23.0003V0.120117H24.3187ZM13.054 2.71289V1.61426H15.7054V0.222656H17.0823V1.61426H19.6898V2.71289H13.054ZM13.5667 5.58398C13.5667 4.22168 14.7386 3.32812 16.3792 3.32812C18.0565 3.32812 19.221 4.22168 19.221 5.58398C19.221 6.94629 18.0565 7.83984 16.3792 7.83984C14.7386 7.83984 13.5667 6.94629 13.5667 5.58398ZM14.8118 5.58398C14.8118 6.33105 15.449 6.82178 16.3792 6.8291C17.324 6.82178 17.9686 6.33105 17.9613 5.58398C17.9686 4.83691 17.324 4.34619 16.3792 4.35352C15.449 4.34619 14.8118 4.83691 14.8118 5.58398ZM15.4857 10.916C15.471 9.4292 17.1409 8.58691 19.9241 8.58691C22.7147 8.58691 24.3846 9.4292 24.3919 10.916C24.3846 12.3882 22.7147 13.2231 19.9241 13.2158C17.1409 13.2231 15.471 12.3882 15.4857 10.916ZM16.8626 10.916C16.848 11.707 17.9759 12.1611 19.9241 12.1465C21.8797 12.1611 22.993 11.707 23.0003 10.916C22.993 10.0884 21.8797 9.64893 19.9241 9.65625C17.9759 9.64893 16.848 10.0884 16.8626 10.916ZM40.0556 0.134766V9.74414H38.664V4.80762H36.1591V3.67969H38.664V0.134766H40.0556ZM29.1279 7.00488C31.1421 6.32373 32.4018 4.59521 32.3945 2.78613V2.27344H29.5527V1.13086H36.6279V2.27344H33.8154V2.78613C33.8081 4.41943 34.9946 6.06738 36.9795 6.72656L36.2617 7.83984C34.7895 7.32715 33.6982 6.27246 33.1269 4.96875C32.5556 6.41895 31.4057 7.57617 29.8457 8.13281L29.1279 7.00488ZM31.5302 12.9668V8.87988H32.9218V11.8389H40.4072V12.9668H31.5302ZM51.984 1.37988V10.0078H45.8316V1.37988H51.984ZM47.2086 8.87988H50.6363V2.47852H47.2086V8.87988ZM54.5768 13.2744V0.120117H55.9684V13.2744H54.5768ZM62.372 2.49316C62.3793 4.38281 63.5512 6.19189 65.5068 6.94629L64.745 8.03027C63.3168 7.45166 62.2548 6.30176 61.6982 4.88086C61.1342 6.41162 60.0209 7.62744 58.4902 8.23535L57.7431 7.12207C59.7646 6.375 60.9877 4.50732 60.995 2.49316V0.867188H62.372V2.49316ZM60.1161 12.9668V8.92383H61.5224V11.8389H68.9784V12.9668H60.1161ZM64.745 5.77441V4.64648H67.2939V3.12305H64.745V1.99512H67.2939V0.134766H68.6855V9.90527H67.2939V5.77441H64.745ZM84.1734 0.662109V5.15918H80.3941V6.68262H85.6968V7.81055H73.7291V6.68262H79.0172V5.15918H75.2525V0.662109H84.1734ZM75.0621 10.1543V9.05566H84.232V13.2451H82.8257V10.1543H75.0621ZM76.6148 4.0459H82.7964V1.76074H76.6148V4.0459ZM98.37 7.2832V8.41113H86.3583V7.2832H91.6757V6.03809H87.8964V2.69824H95.4696V1.52637H87.8671V0.427734H96.8612V3.72363H89.2733V4.9541H97.1249V6.03809H93.0526V7.2832H98.37ZM87.7059 10.4473V9.33398H96.9345V13.1426H95.5282V10.4473H87.7059ZM110.311 0.120117V13.2451H108.978V0.120117H110.311ZM99.1633 5.78906C99.1633 2.94727 100.277 1.16748 101.99 1.1748C103.587 1.16748 104.664 2.68359 104.825 5.14453H106.312V0.369141H107.645V12.6006H106.312V6.27246H104.832C104.708 8.83594 103.616 10.4253 101.99 10.418C100.277 10.4253 99.1633 8.63818 99.1633 5.78906ZM100.452 5.78906C100.452 7.87646 101.046 9.10693 101.99 9.09961C102.957 9.10693 103.558 7.87646 103.558 5.78906C103.558 3.69434 102.957 2.47119 101.99 2.47852C101.046 2.47119 100.452 3.69434 100.452 5.78906ZM125.96 0.120117V13.2744H124.568V5.97949H121.858V4.83691H124.568V0.120117H125.96ZM114.856 9.6123C116.863 8.65283 118.277 6.16992 118.284 3.81152V2.58105H115.384V1.43848H122.605V2.58105H119.69V3.81152C119.69 6.03076 121.089 8.42578 123.103 9.31934L122.268 10.4326C120.752 9.7002 119.588 8.16943 119.002 6.38232C118.416 8.28662 117.222 9.91992 115.706 10.6963L114.856 9.6123ZM132.232 2.53711C132.224 4.20703 133.389 5.73047 135.381 6.36035L134.722 7.44434C133.228 6.96826 132.136 5.97949 131.558 4.73438C130.986 6.16992 129.837 7.30518 128.262 7.85449L127.544 6.74121C129.595 6.06738 130.833 4.37549 130.84 2.55176V2.18555H127.954V1.05762H135.059V2.18555H132.232V2.53711ZM129.317 10.7549C129.317 9.2168 130.994 8.31592 133.726 8.32324C136.428 8.31592 138.076 9.2168 138.076 10.7549C138.076 12.3149 136.428 13.2231 133.726 13.2158C130.994 13.2231 129.317 12.3149 129.317 10.7549ZM130.708 10.7549C130.701 11.6338 131.829 12.1245 133.726 12.1172C135.608 12.1245 136.721 11.6338 136.714 10.7549C136.721 9.89795 135.608 9.41455 133.726 9.42188C131.829 9.41455 130.701 9.89795 130.708 10.7549ZM136.568 8.00098V0.120117H137.959V3.37207H139.863V4.51465H137.959V8.00098H136.568ZM150.603 0.134766V4.35352H152.507V5.51074H150.603V9.94922H149.211V0.134766H150.603ZM140.305 2.78613V1.6582H143.528V0.120117H144.919V1.6582H148.127V2.78613H140.305ZM141.023 5.8916C141.016 4.39014 142.312 3.40869 144.216 3.41602C146.099 3.40869 147.395 4.39014 147.395 5.8916C147.395 7.37842 146.099 8.34521 144.216 8.35254C142.312 8.34521 141.016 7.37842 141.023 5.8916ZM142.283 12.9668V9.17285H143.674V11.8389H151.16V12.9668H142.283ZM142.371 5.8916C142.356 6.74854 143.103 7.27588 144.216 7.26855C145.33 7.27588 146.077 6.74854 146.091 5.8916C146.077 5.02734 145.33 4.49268 144.216 4.48535C143.103 4.49268 142.356 5.02734 142.371 5.8916ZM163.161 1.37988V10.0078H157.009V1.37988H163.161ZM158.386 8.87988H161.814V2.47852H158.386V8.87988ZM165.754 13.2744V0.120117H167.146V13.2744H165.754ZM173.549 2.49316C173.557 4.38281 174.728 6.19189 176.684 6.94629L175.922 8.03027C174.494 7.45166 173.432 6.30176 172.875 4.88086C172.311 6.41162 171.198 7.62744 169.667 8.23535L168.92 7.12207C170.942 6.375 172.165 4.50732 172.172 2.49316V0.867188H173.549V2.49316ZM171.293 12.9668V8.92383H172.7V11.8389H180.156V12.9668H171.293ZM175.922 5.77441V4.64648H178.471V3.12305H175.922V1.99512H178.471V0.134766H179.863V9.90527H178.471V5.77441H175.922ZM193.547 5.49609V6.60938H181.564V5.49609H193.547ZM183 8.71875V7.64941H192.023V10.8281H184.377V12H192.389V13.0986H183.014V9.80273H190.646V8.71875H183ZM183.132 4.54395V0.500977H191.994V1.62891H184.523V3.43066H192.126V4.54395H183.132ZM200.185 0.339844C203.144 0.33252 204.865 1.13086 204.872 2.5957C204.865 4.06787 203.144 4.86621 200.185 4.86621C197.226 4.86621 195.49 4.06787 195.497 2.5957C195.49 1.13086 197.226 0.33252 200.185 0.339844ZM194.208 6.78516V5.67188H206.176V6.78516H194.208ZM195.644 8.83594V7.7959H204.667V10.8721H197.021V12.0439H205.033V13.1133H195.658V9.86133H203.29V8.83594H195.644ZM196.947 2.5957C196.94 3.40869 198.097 3.82617 200.185 3.82617C202.287 3.82617 203.444 3.40869 203.437 2.5957C203.444 1.81934 202.287 1.36523 200.185 1.36523C198.097 1.36523 196.94 1.81934 196.947 2.5957ZM216.918 1.27734C216.91 3.02051 219.042 4.65381 221.62 4.99805L221.078 6.14062C218.932 5.79639 217.05 4.68311 216.193 3.1377C215.336 4.68311 213.453 5.79639 211.322 6.14062L210.765 4.99805C213.336 4.65381 215.46 3.04248 215.467 1.27734V0.55957H216.918V1.27734ZM210.194 8.57227V7.42969H222.162V8.57227H216.83V13.2451H215.467V8.57227H210.194ZM234.029 0.120117V8.39648H232.711V4.73438H231.188V7.94238H229.884V0.369141H231.188V3.5918H232.711V0.120117H234.029ZM222.765 2.71289V1.61426H225.416V0.222656H226.793V1.61426H229.4V2.71289H222.765ZM223.277 5.58398C223.277 4.22168 224.449 3.32812 226.09 3.32812C227.767 3.32812 228.932 4.22168 228.932 5.58398C228.932 6.94629 227.767 7.83984 226.09 7.83984C224.449 7.83984 223.277 6.94629 223.277 5.58398ZM224.523 5.58398C224.523 6.33105 225.16 6.82178 226.09 6.8291C227.035 6.82178 227.679 6.33105 227.672 5.58398C227.679 4.83691 227.035 4.34619 226.09 4.35352C225.16 4.34619 224.523 4.83691 224.523 5.58398ZM225.196 10.916C225.182 9.4292 226.852 8.58691 229.635 8.58691C232.425 8.58691 234.095 9.4292 234.103 10.916C234.095 12.3882 232.425 13.2231 229.635 13.2158C226.852 13.2231 225.182 12.3882 225.196 10.916ZM226.573 10.916C226.559 11.707 227.687 12.1611 229.635 12.1465C231.59 12.1611 232.704 11.707 232.711 10.916C232.704 10.0884 231.59 9.64893 229.635 9.65625C227.687 9.64893 226.559 10.0884 226.573 10.916ZM245.794 0.134766V4.35352H247.699V5.51074H245.794V9.94922H244.403V0.134766H245.794ZM235.496 2.78613V1.6582H238.719V0.120117H240.111V1.6582H243.319V2.78613H235.496ZM236.214 5.8916C236.207 4.39014 237.503 3.40869 239.408 3.41602C241.29 3.40869 242.586 4.39014 242.586 5.8916C242.586 7.37842 241.29 8.34521 239.408 8.35254C237.503 8.34521 236.207 7.37842 236.214 5.8916ZM237.474 12.9668V9.17285H238.866V11.8389H246.351V12.9668H237.474ZM237.562 5.8916C237.547 6.74854 238.294 7.27588 239.408 7.26855C240.521 7.27588 241.268 6.74854 241.283 5.8916C241.268 5.02734 240.521 4.49268 239.408 4.48535C238.294 4.49268 237.547 5.02734 237.562 5.8916ZM262.762 1.57031V2.71289H252.083V1.57031H256.756V0.0615234H258.133V1.57031H262.762ZM251.468 9.75879V8.61621H263.479V9.75879H258.133V13.2598H256.756V9.75879H251.468ZM253.079 5.59863C253.072 4.16309 254.712 3.37939 257.444 3.38672C260.169 3.37939 261.81 4.16309 261.81 5.59863C261.81 6.99756 260.169 7.78857 257.444 7.7959C254.712 7.78857 253.072 6.99756 253.079 5.59863ZM254.515 5.59863C254.515 6.33105 255.562 6.74854 257.444 6.74121C259.319 6.74854 260.367 6.33105 260.374 5.59863C260.367 4.84424 259.319 4.42676 257.444 4.42676C255.562 4.42676 254.515 4.84424 254.515 5.59863ZM266.47 10.9893L265.298 15.0322H264.053L264.829 10.9893H266.47ZM275.527 3.45996C275.513 5.78174 276.868 8.16211 278.823 9.11426L277.959 10.2275C276.531 9.48047 275.425 8.01562 274.846 6.26514C274.26 8.12549 273.11 9.7002 271.616 10.4766L270.752 9.34863C272.766 8.38184 274.128 5.8623 274.136 3.45996V1.21875H275.527V3.45996ZM279.805 13.2451V0.120117H281.196V5.34961H283.306V6.53613H281.196V13.2451H279.805ZM295.583 6.52148V7.64941H283.616V6.52148H286.487V4.75635C285.469 4.34619 284.897 3.68701 284.905 2.81543C284.897 1.25537 286.706 0.347168 289.592 0.354492C292.47 0.347168 294.272 1.25537 294.28 2.81543C294.272 3.68701 293.701 4.34619 292.683 4.76367V6.52148H295.583ZM285.036 10.8721C285.036 9.37061 286.736 8.54297 289.592 8.54297C292.412 8.54297 294.111 9.37061 294.118 10.8721C294.111 12.3882 292.412 13.2158 289.592 13.2158C286.736 13.2158 285.036 12.3882 285.036 10.8721ZM286.34 2.81543C286.333 3.69434 287.549 4.18506 289.592 4.19238C291.621 4.18506 292.851 3.69434 292.844 2.81543C292.851 1.93652 291.621 1.43115 289.592 1.42383C287.549 1.43115 286.333 1.93652 286.34 2.81543ZM286.443 10.8721C286.435 11.6924 287.585 12.1611 289.592 12.1465C291.57 12.1611 292.727 11.6924 292.727 10.8721C292.727 10.0664 291.57 9.6123 289.592 9.6123C287.585 9.6123 286.435 10.0664 286.443 10.8721ZM287.893 6.52148H291.306V5.12256C290.793 5.20312 290.215 5.24707 289.592 5.24707C288.977 5.24707 288.406 5.20312 287.893 5.12988V6.52148ZM300.83 3.9873C300.822 6.06006 302.192 8.37451 304.184 9.31934L303.393 10.4033C301.921 9.7002 300.749 8.2207 300.156 6.50684C299.555 8.37451 298.325 9.99316 296.831 10.7402L296.01 9.6416C298.003 8.68213 299.445 6.20654 299.453 3.9873V2.5957H296.494V1.43848H303.686V2.5957H300.83V3.9873ZM305.092 13.2451V0.120117H306.484V5.32031H308.593V6.49219H306.484V13.2451H305.092ZM319.128 0.120117V5.34961H321.164V6.50684H319.128V13.2305H317.736V0.120117H319.128ZM308.918 9.72949C312.206 8.08887 313.994 5.71582 314.279 2.6543H309.577V1.49707H315.7C315.685 5.29102 314.016 8.68213 309.694 10.8135L308.918 9.72949ZM329.753 2.47852C329.753 4.16309 331.005 5.78174 333.034 6.41895L332.316 7.50293C330.807 7.00488 329.665 5.97217 329.071 4.65381C328.478 6.07471 327.314 7.20264 325.753 7.75195L325.036 6.68262C327.079 5.97217 328.339 4.2583 328.346 2.47852V2.1123H325.402V0.984375H332.638V2.1123H329.753V2.47852ZM326.881 9.83203V8.7041H335.773V13.2451H334.381V9.83203H326.881ZM334.381 8.04492V0.120117H335.773V8.04492H334.381ZM348.461 0.120117V7.26855H347.084V4.36816H344.623V3.22559H347.084V0.120117H348.461ZM337.548 6.38965C339.562 5.68652 340.822 3.96533 340.814 2.15625V1.98047H337.973V0.852539H345.048V1.98047H342.235V2.1709C342.228 3.79688 343.414 5.44482 345.399 6.11133L344.682 7.19531C343.202 6.66797 342.118 5.62793 341.547 4.33887C340.975 5.78174 339.826 6.93896 338.266 7.48828L337.548 6.38965ZM339.921 13.084V7.85449H341.298V9.36328H347.084V7.85449H348.461V13.084H339.921ZM341.298 11.9561H347.084V10.4473H341.298V11.9561ZM8.08594 26.1748V27.2002H5.27344C5.33936 28.145 6.5918 28.9141 8.37891 29.1631L7.91016 30.1738C6.34277 29.9395 5.1709 29.2949 4.60693 28.4087C4.04297 29.3462 2.85645 30.0347 1.25977 30.291L0.791016 29.2949C2.59277 29.0312 3.84521 28.1963 3.91113 27.2002H1.09863V26.1748H3.91113V25.0762H5.27344V26.1748H8.08594ZM0.46875 31.0967C1.49414 31.0967 2.68066 31.0894 3.91113 31.0527V29.7344H5.27344V31.0015C6.42334 30.9429 7.57324 30.855 8.64258 30.7158L8.74512 31.6826C5.99121 32.1367 2.92969 32.166 0.615234 32.166L0.46875 31.0967ZM2.13867 34.0703V33.0449H10.8105V36.0039H3.55957V37.0586H11.2939V38.1133H2.16797V35.0371H9.43359V34.0703H2.13867ZM9.41895 32.5029V25.1201H10.8105V28.167H12.6855V29.2949H10.8105V32.5029H9.41895ZM16.7601 25.8818C17.8514 25.8745 18.7816 26.2847 19.3968 26.9658H22.678V25.1201H24.0696V32.8691H22.678V31.0967H19.3895C18.7742 31.7705 17.8441 32.1733 16.7601 32.166C14.7825 32.1733 13.3104 30.8623 13.3177 29.0312C13.3104 27.1782 14.7825 25.8745 16.7601 25.8818ZM14.6507 29.0312C14.6434 30.1812 15.5296 30.9941 16.7601 30.9795C17.9539 30.9941 18.8402 30.1812 18.8402 29.0312C18.8402 27.8521 17.9539 27.0684 16.7601 27.083C15.5296 27.0684 14.6434 27.8521 14.6507 29.0312ZM15.2366 35.6963C15.2293 34.0923 16.9285 33.1548 19.6751 33.1621C22.4071 33.1548 24.1063 34.0923 24.1136 35.6963C24.1063 37.293 22.4071 38.2231 19.6751 38.2158C16.9285 38.2231 15.2293 37.293 15.2366 35.6963ZM16.5989 35.6963C16.5916 36.5972 17.7488 37.1245 19.6751 37.1172C21.6014 37.1245 22.7513 36.5972 22.7513 35.6963C22.7513 34.7588 21.6014 34.2388 19.6751 34.2314C17.7488 34.2388 16.5916 34.7588 16.5989 35.6963ZM20.034 28.0791C20.1219 28.3721 20.1732 28.6943 20.1732 29.0312C20.1732 29.3535 20.1219 29.6685 20.034 29.9541H22.678V28.0791H20.034ZM36.0836 25.1348V29.3535H37.9879V30.5107H36.0836V34.9492H34.692V25.1348H36.0836ZM25.7858 27.7861V26.6582H29.0084V25.1201H30.4V26.6582H33.608V27.7861H25.7858ZM26.5036 30.8916C26.4962 29.3901 27.7926 28.4087 29.6969 28.416C31.5792 28.4087 32.8756 29.3901 32.8756 30.8916C32.8756 32.3784 31.5792 33.3452 29.6969 33.3525C27.7926 33.3452 26.4962 32.3784 26.5036 30.8916ZM27.7633 37.9668V34.1729H29.1549V36.8389H36.6403V37.9668H27.7633ZM27.8512 30.8916C27.8366 31.7485 28.5836 32.2759 29.6969 32.2686C30.8102 32.2759 31.5573 31.7485 31.5719 30.8916C31.5573 30.0273 30.8102 29.4927 29.6969 29.4854C28.5836 29.4927 27.8366 30.0273 27.8512 30.8916ZM46.3128 28.46C46.2981 30.7817 47.6531 33.1621 49.6087 34.1143L48.7444 35.2275C47.3162 34.4805 46.2102 33.0156 45.6316 31.2651C45.0457 33.1255 43.8958 34.7002 42.4016 35.4766L41.5374 34.3486C43.5515 33.3818 44.9138 30.8623 44.9212 28.46V26.2188H46.3128V28.46ZM50.5901 38.2451V25.1201H51.9817V30.3496H54.0911V31.5361H51.9817V38.2451H50.5901ZM59.2643 27.8594C59.2643 29.5586 60.5167 31.1553 62.5455 31.7998L61.8277 32.8838C60.3189 32.3857 59.1837 31.353 58.5831 30.042C57.9972 31.4702 56.8253 32.5981 55.2652 33.1475L54.5475 32.0488C56.5909 31.353 57.8507 29.6538 57.858 27.8594V27.2881H54.9137V26.1602H62.15V27.2881H59.2643V27.8594ZM56.7008 37.9668V33.8066H58.107V36.8389H65.6803V37.9668H56.7008ZM63.8932 34.7148V25.1348H65.2848V34.7148H63.8932ZM73.0214 25.3398C75.9804 25.3325 77.7016 26.1309 77.7089 27.5957C77.7016 29.0679 75.9804 29.8662 73.0214 29.8662C70.0624 29.8662 68.3266 29.0679 68.3339 27.5957C68.3266 26.1309 70.0624 25.3325 73.0214 25.3398ZM67.0448 31.7852V30.6719H79.0126V31.7852H67.0448ZM68.4804 33.8359V32.7959H77.5038V35.8721H69.8573V37.0439H77.87V38.1133H68.495V34.8613H76.1269V33.8359H68.4804ZM69.7841 27.5957C69.7768 28.4087 70.934 28.8262 73.0214 28.8262C75.1235 28.8262 76.2807 28.4087 76.2734 27.5957C76.2807 26.8193 75.1235 26.3652 73.0214 26.3652C70.934 26.3652 69.7768 26.8193 69.7841 27.5957ZM86.6636 25.7207C88.3922 25.7061 89.7325 26.7095 90.0181 28.1816H92.5816V25.1201H93.9732V32.166H92.5816V29.3242H90.0255C89.7545 30.833 88.4068 31.8438 86.6636 31.8438C84.6568 31.8438 83.2139 30.5767 83.2213 28.7676C83.2139 26.9805 84.6568 25.7061 86.6636 25.7207ZM84.5543 28.7676C84.5469 29.8882 85.4258 30.6719 86.6636 30.6719C87.8795 30.6719 88.7437 29.8882 88.7437 28.7676C88.7437 27.6396 87.8795 26.8706 86.6636 26.8779C85.4258 26.8706 84.5469 27.6396 84.5543 28.7676ZM85.4185 38.084V32.7959H86.7955V34.3193H92.5816V32.7959H93.9732V38.084H85.4185ZM86.7955 36.9414H92.5816V35.418H86.7955V36.9414ZM107.686 35.5059V36.6777H95.6747V35.5059H100.963V33.2061H97.1395V29.0312H104.845V27.1855H97.1102V26.043H106.222V30.1445H98.5165V32.0635H106.529V33.2061H102.34V35.5059H107.686ZM118.953 31.3457V32.4883H109.813V26.292H118.836V27.4346H111.19V31.3457H118.953ZM108.319 36.5166V35.3594H120.33V36.5166H108.319ZM131.187 25.1201V30.4375H133.296V31.5947H131.187V38.2451H129.81V25.1201H131.187ZM120.889 28.3135V27.1709H124.126V25.2959H125.518V27.1709H128.668V28.3135H120.889ZM121.563 32.3271C121.563 30.54 122.94 29.2803 124.83 29.2803C126.712 29.2803 128.089 30.54 128.096 32.3271C128.089 34.1289 126.712 35.3813 124.83 35.3887C122.94 35.3813 121.563 34.1289 121.563 32.3271ZM122.896 32.3271C122.889 33.4697 123.709 34.2314 124.83 34.2168C125.943 34.2314 126.756 33.4697 126.763 32.3271C126.756 31.2065 125.943 30.4302 124.83 30.4229C123.709 30.4302 122.889 31.2065 122.896 32.3271ZM144.226 26.3799V27.6689C144.219 29.2876 144.219 31.104 143.728 33.792L142.322 33.6455C142.827 31.104 142.827 29.2437 142.835 27.6689V27.5078H134.866V26.3799H144.226ZM133.606 36.4727V35.3154H138.162V30.6865H139.539V35.3154H145.574V36.4727H133.606ZM159.905 25.1201V29.002H161.809V30.1592H159.905V34.6562H158.499V25.1201H159.905ZM149.578 32.1074C152.654 31.1846 154.558 29.4341 154.829 27.2734H150.134V26.1162H156.345C156.345 29.5586 154.001 32.0562 150.164 33.2207L149.578 32.1074ZM151.57 37.9668V33.6748H152.976V36.8389H160.447V37.9668H151.57ZM172.549 25.1055V28.9141H174.468V30.0713H172.549V34.6123H171.157V25.1055H172.549ZM162.822 32.3418V26.2334H168.681V27.3613H164.199V31.1846C166.755 31.1919 168.191 31.1113 169.839 30.7744L170 31.9023C168.227 32.2539 166.675 32.3418 163.862 32.3418H162.822ZM164.228 37.9668V33.6309H165.62V36.8389H173.105V37.9668H164.228ZM185.193 25.1348V29.3535H187.097V30.5107H185.193V34.9492H183.801V25.1348H185.193ZM174.895 27.7861V26.6582H178.117V25.1201H179.509V26.6582H182.717V27.7861H174.895ZM175.612 30.8916C175.605 29.3901 176.901 28.4087 178.806 28.416C180.688 28.4087 181.984 29.3901 181.984 30.8916C181.984 32.3784 180.688 33.3452 178.806 33.3525C176.901 33.3452 175.605 32.3784 175.612 30.8916ZM176.872 37.9668V34.1729H178.264V36.8389H185.749V37.9668H176.872ZM176.96 30.8916C176.945 31.7485 177.693 32.2759 178.806 32.2686C179.919 32.2759 180.666 31.7485 180.681 30.8916C180.666 30.0273 179.919 29.4927 178.806 29.4854C177.693 29.4927 176.945 30.0273 176.96 30.8916ZM202.101 25.1201V38.2451H200.768V31.5215H199.084V37.5713H197.78V25.3838H199.084V30.3789H200.768V25.1201H202.101ZM191.481 34.9053V26.6729H192.873V33.6821C194.081 33.6675 195.407 33.5723 196.901 33.2793L197.048 34.4951C195.246 34.8174 193.744 34.9126 192.331 34.9053H191.481ZM215.478 31.5215V32.6494H203.51V31.5215H206.381V29.7563C205.363 29.3462 204.792 28.687 204.799 27.8154C204.792 26.2554 206.601 25.3472 209.486 25.3545C212.365 25.3472 214.167 26.2554 214.174 27.8154C214.167 28.687 213.595 29.3462 212.577 29.7637V31.5215H215.478ZM204.931 35.8721C204.931 34.3706 206.63 33.543 209.486 33.543C212.306 33.543 214.005 34.3706 214.013 35.8721C214.005 37.3882 212.306 38.2158 209.486 38.2158C206.63 38.2158 204.931 37.3882 204.931 35.8721ZM206.234 27.8154C206.227 28.6943 207.443 29.1851 209.486 29.1924C211.515 29.1851 212.746 28.6943 212.738 27.8154C212.746 26.9365 211.515 26.4312 209.486 26.4238C207.443 26.4312 206.227 26.9365 206.234 27.8154ZM206.337 35.8721C206.33 36.6924 207.48 37.1611 209.486 37.1465C211.464 37.1611 212.621 36.6924 212.621 35.8721C212.621 35.0664 211.464 34.6123 209.486 34.6123C207.48 34.6123 206.33 35.0664 206.337 35.8721ZM207.787 31.5215H211.2V30.1226C210.688 30.2031 210.109 30.2471 209.486 30.2471C208.871 30.2471 208.3 30.2031 207.787 30.1299V31.5215ZM222.13 25.3398C225.089 25.3325 226.81 26.1309 226.818 27.5957C226.81 29.0679 225.089 29.8662 222.13 29.8662C219.171 29.8662 217.435 29.0679 217.443 27.5957C217.435 26.1309 219.171 25.3325 222.13 25.3398ZM216.154 31.7852V30.6719H228.121V31.7852H216.154ZM217.589 33.8359V32.7959H226.613V35.8721H218.966V37.0439H226.979V38.1133H217.604V34.8613H225.236V33.8359H217.589ZM218.893 27.5957C218.886 28.4087 220.043 28.8262 222.13 28.8262C224.232 28.8262 225.39 28.4087 225.382 27.5957C225.39 26.8193 224.232 26.3652 222.13 26.3652C220.043 26.3652 218.886 26.8193 218.893 27.5957ZM236.725 27.4785C236.717 29.1558 237.882 30.7451 239.889 31.4189L239.186 32.5029C237.699 31.9902 236.607 30.9648 236.036 29.6758C235.465 31.0894 234.322 32.21 232.784 32.752L232.037 31.668C234.088 30.9722 235.326 29.2729 235.333 27.4639V27.1123H232.447V25.9844H239.552V27.1123H236.725V27.4785ZM233.78 34.8027V33.6748H242.452V38.2451H241.061V34.8027H233.78ZM241.061 33.0303V25.1201H242.452V28.4893H244.356V29.6611H242.452V33.0303H241.061ZM249.442 27.083C249.434 28.9214 250.628 30.562 252.62 31.2139L251.859 32.2979C250.416 31.7705 249.354 30.7598 248.783 29.4414C248.219 30.9429 247.076 32.1221 245.487 32.6934L244.74 31.5801C246.834 30.8623 248.05 29.1118 248.065 27.1416V25.8525H249.442V27.083ZM246.893 35.7402C246.886 34.1509 248.57 33.228 251.331 33.2354C254.078 33.228 255.763 34.1509 255.77 35.7402C255.763 37.3223 254.078 38.2231 251.331 38.2158C248.57 38.2231 246.886 37.3223 246.893 35.7402ZM248.27 35.7402C248.263 36.6118 249.405 37.1245 251.331 37.1172C253.243 37.1245 254.386 36.6118 254.393 35.7402C254.386 34.8394 253.243 34.3193 251.331 34.3193C249.405 34.3193 248.263 34.8394 248.27 35.7402ZM251.566 28.9287V27.7861H254.334V25.1201H255.726V32.8691H254.334V28.9287H251.566ZM267.652 25.1201V30.4375H269.761V31.5947H267.652V38.2451H266.275V25.1201H267.652ZM257.354 28.3135V27.1709H260.591V25.2959H261.983V27.1709H265.133V28.3135H257.354ZM258.028 32.3271C258.028 30.54 259.405 29.2803 261.295 29.2803C263.177 29.2803 264.554 30.54 264.561 32.3271C264.554 34.1289 263.177 35.3813 261.295 35.3887C259.405 35.3813 258.028 34.1289 258.028 32.3271ZM259.361 32.3271C259.354 33.4697 260.174 34.2314 261.295 34.2168C262.408 34.2314 263.221 33.4697 263.228 32.3271C263.221 31.2065 262.408 30.4302 261.295 30.4229C260.174 30.4302 259.354 31.2065 259.361 32.3271ZM276.766 26.2334V27.3467H279.622V25.1348H281.014V34.7002H279.622V31.3018H276.766V32.4443H270.672V26.2334H276.766ZM272.049 31.3457H275.403V27.3613H272.049V31.3457ZM272.444 37.9668V33.8213H273.851V36.8389H281.307V37.9668H272.444ZM276.766 30.1592H279.622V28.4893H276.766V30.1592ZM296.97 25.1348V32.6934H295.564V25.1348H296.97ZM286.087 31.3018C287.178 31.3018 288.438 31.2944 289.749 31.2578V29.9688H287.258V25.75H293.528V26.8926H288.65V28.8701H293.645V29.9688H291.126V31.1992C292.29 31.1406 293.469 31.0527 294.568 30.9062L294.641 31.8877C291.799 32.3711 288.643 32.415 286.292 32.4297L286.087 31.3018ZM288.211 38.084V33.2646H289.602V34.5244H295.593V33.2646H296.97V38.084H288.211ZM289.602 36.9561H295.593V35.5938H289.602V36.9561ZM309.6 25.1201V38.2451H308.208V25.1201H309.6ZM299.507 34.9053V26.3945H300.884V33.7041C302.803 33.6968 304.817 33.5283 306.919 33.1035L307.109 34.2754C304.788 34.7515 302.678 34.9126 300.605 34.9053H299.507ZM321.57 25.1201V30.2031H323.679V31.3457H321.57V38.2744H320.178V25.1201H321.57ZM311.902 35.0078V26.3799H318.039V27.5078H313.293V33.8506C315.498 33.8433 317.146 33.748 319.021 33.4111L319.197 34.583C317.138 34.9492 315.395 35.0151 312.956 35.0078H311.902ZM325.483 37.1025C324.912 37.0952 324.436 36.6338 324.443 36.0625C324.436 35.4912 324.912 35.0225 325.483 35.0225C326.047 35.0225 326.516 35.4912 326.523 36.0625C326.516 36.6338 326.047 37.0952 325.483 37.1025ZM4.11621 50.7207C5.84473 50.7061 7.18506 51.7095 7.4707 53.1816H10.0342V50.1201H11.4258V57.166H10.0342V54.3242H7.47803C7.20703 55.833 5.85938 56.8438 4.11621 56.8438C2.10938 56.8438 0.666504 55.5767 0.673828 53.7676C0.666504 51.9805 2.10938 50.7061 4.11621 50.7207ZM2.00684 53.7676C1.99951 54.8882 2.87842 55.6719 4.11621 55.6719C5.33203 55.6719 6.19629 54.8882 6.19629 53.7676C6.19629 52.6396 5.33203 51.8706 4.11621 51.8779C2.87842 51.8706 1.99951 52.6396 2.00684 53.7676ZM2.87109 63.084V57.7959H4.24805V59.3193H10.0342V57.7959H11.4258V63.084H2.87109ZM4.24805 61.9414H10.0342V60.418H4.24805V61.9414ZM25.139 60.5059V61.6777H13.1273V60.5059H18.4154V58.2061H14.5921V54.0312H22.2972V52.1855H14.5628V51.043H23.6741V55.1445H15.9691V57.0635H23.9818V58.2061H19.7923V60.5059H25.139ZM36.4059 56.3457V57.4883H27.2653V51.292H36.2887V52.4346H28.6422V56.3457H36.4059ZM25.7711 61.5166V60.3594H37.7829V61.5166H25.7711ZM46.0615 54.3242V55.4521H43.498V57.1147C44.6626 57.0562 45.8198 56.9756 46.8964 56.8584L46.999 57.8838C44.2011 58.2646 41.1323 58.3452 38.664 58.3379L38.4736 57.2246C39.5942 57.2173 40.8393 57.2026 42.1211 57.166V55.4521H39.6455V50.9551H45.9443V52.083H41.0371V54.3242H46.0615ZM40.6416 62.9668V59.2607H42.0332V61.8389H49.7089V62.9668H40.6416ZM47.9072 59.9639V50.1201H49.2988V59.9639H47.9072ZM65.6363 50.1201V63.2451H64.3033V56.5215H62.6188V62.5713H61.315V50.3838H62.6188V55.3789H64.3033V50.1201H65.6363ZM55.0162 59.9053V51.6729H56.4078V58.6821C57.6163 58.6675 58.942 58.5723 60.4361 58.2793L60.5826 59.4951C58.7809 59.8174 57.2794 59.9126 55.8658 59.9053H55.0162ZM79.0126 56.5215V57.6494H67.0448V56.5215H69.9159V54.7563C68.8979 54.3462 68.3266 53.687 68.3339 52.8154C68.3266 51.2554 70.1357 50.3472 73.0214 50.3545C75.8998 50.3472 77.7016 51.2554 77.7089 52.8154C77.7016 53.687 77.1303 54.3462 76.1122 54.7637V56.5215H79.0126ZM68.4657 60.8721C68.4657 59.3706 70.165 58.543 73.0214 58.543C75.8412 58.543 77.5405 59.3706 77.5478 60.8721C77.5405 62.3882 75.8412 63.2158 73.0214 63.2158C70.165 63.2158 68.4657 62.3882 68.4657 60.8721ZM69.7695 52.8154C69.7621 53.6943 70.978 54.1851 73.0214 54.1924C75.0502 54.1851 76.2807 53.6943 76.2734 52.8154C76.2807 51.9365 75.0502 51.4312 73.0214 51.4238C70.978 51.4312 69.7621 51.9365 69.7695 52.8154ZM69.872 60.8721C69.8647 61.6924 71.0146 62.1611 73.0214 62.1465C74.9989 62.1611 76.1562 61.6924 76.1562 60.8721C76.1562 60.0664 74.9989 59.6123 73.0214 59.6123C71.0146 59.6123 69.8647 60.0664 69.872 60.8721ZM71.3222 56.5215H74.7353V55.1226C74.2226 55.2031 73.644 55.2471 73.0214 55.2471C72.4062 55.2471 71.8349 55.2031 71.3222 55.1299V56.5215ZM91.6565 56.9756V58.0889H79.6887V56.9756H91.6565ZM80.9778 53.1816C80.9705 51.5337 82.8088 50.5522 85.6653 50.5596C88.5071 50.5522 90.3455 51.5337 90.3528 53.1816C90.3455 54.8369 88.5071 55.8403 85.6653 55.8477C82.8088 55.8403 80.9705 54.8369 80.9778 53.1816ZM81.1975 62.9668V59.1582H82.6038V61.8389H90.3088V62.9668H81.1975ZM82.4133 53.1816C82.406 54.1558 83.6511 54.7051 85.6653 54.7051C87.6721 54.7051 88.9246 54.1558 88.9172 53.1816C88.9246 52.2441 87.6721 51.6729 85.6653 51.6729C83.6511 51.6729 82.406 52.2441 82.4133 53.1816ZM102.984 51.1162V51.8486C102.97 52.7275 102.97 54.0312 102.647 55.7305L101.27 55.5986C101.556 54.1484 101.6 53.0864 101.615 52.2588H96.3632V51.1162H102.984ZM95.5722 56.8584C96.3778 56.8584 97.2933 56.8511 98.2528 56.8291V54.0605H99.6298V56.7852C101.036 56.7266 102.486 56.624 103.805 56.4336L103.892 57.4443C101.153 57.9277 98.0184 57.979 95.704 57.9863L95.5722 56.8584ZM97.5643 62.9668V59.085H98.9559V61.8389H106.485V62.9668H97.5643ZM104.64 59.9785V50.1201H106.06V54.2949H107.862V55.4668H106.06V59.9785H104.64ZM119.217 50.1201V63.2744H117.825V50.1201H119.217ZM109.051 52.4346V51.3066H115.203V56.0967H110.487V58.9678C112.618 58.9604 114.471 58.8579 116.668 58.499L116.8 59.6416C114.478 60.0298 112.501 60.1177 110.179 60.125H109.066V54.9834H113.782V52.4346H109.051ZM125.533 53.9873C125.525 56.0601 126.895 58.3745 128.887 59.3193L128.096 60.4033C126.624 59.7002 125.452 58.2207 124.859 56.5068C124.258 58.3745 123.028 59.9932 121.534 60.7402L120.713 59.6416C122.706 58.6821 124.148 56.2065 124.156 53.9873V52.5957H121.197V51.4385H128.389V52.5957H125.533V53.9873ZM129.795 63.2451V50.1201H131.187V55.3203H133.296V56.4922H131.187V63.2451H129.795ZM143.831 50.1201V55.3496H145.867V56.5068H143.831V63.2305H142.439V50.1201H143.831ZM133.621 59.7295C136.91 58.0889 138.697 55.7158 138.982 52.6543H134.28V51.4971H140.403C140.389 55.291 138.719 58.6821 134.397 60.8135L133.621 59.7295ZM159.919 50.1348V54.0312H161.794V55.1738H159.919V58.9678H158.528V50.1348H159.919ZM149.504 57.5029C150.522 57.5029 151.702 57.5029 152.932 57.4736V56.5874C151.438 56.4189 150.486 55.7158 150.5 54.6611C150.486 53.46 151.738 52.7129 153.621 52.7275C155.503 52.7129 156.733 53.46 156.741 54.6611C156.733 55.7085 155.803 56.4116 154.324 56.5874V57.4224C155.496 57.3638 156.682 57.2686 157.781 57.1074L157.898 58.1035C155.078 58.5942 151.965 58.6162 149.651 58.6162L149.504 57.5029ZM149.841 52.2881V51.248H152.932V50.0176H154.324V51.248H157.415V52.2881H149.841ZM151.145 60.667V59.583H159.919V63.2451H158.528V60.667H151.145ZM151.819 54.6611C151.819 55.2764 152.5 55.6792 153.621 55.6719C154.727 55.6792 155.415 55.2764 155.408 54.6611C155.415 54.0312 154.727 53.665 153.621 53.6797C152.5 53.665 151.819 54.0312 151.819 54.6611ZM173.12 50.1348V59.6709H171.728V50.1348H173.12ZM162.5 54.2656C162.507 52.3687 164.016 51.021 166.001 51.0137C167.978 51.021 169.487 52.3687 169.487 54.2656C169.487 56.1919 167.978 57.5322 166.001 57.5322C164.016 57.5322 162.507 56.1919 162.5 54.2656ZM163.862 54.2656C163.855 55.5034 164.778 56.3164 166.001 56.3164C167.202 56.3164 168.125 55.5034 168.125 54.2656C168.125 53.0571 167.202 52.2295 166.001 52.2295C164.778 52.2295 163.855 53.0571 163.862 54.2656ZM164.536 62.9668V58.7041H165.942V61.8389H173.515V62.9668H164.536ZM189.516 51.5703V52.7129H178.837V51.5703H183.51V50.0615H184.887V51.5703H189.516ZM178.222 59.7588V58.6162H190.234V59.7588H184.887V63.2598H183.51V59.7588H178.222ZM179.833 55.5986C179.826 54.1631 181.467 53.3794 184.199 53.3867C186.923 53.3794 188.564 54.1631 188.564 55.5986C188.564 56.9976 186.923 57.7886 184.199 57.7959C181.467 57.7886 179.826 56.9976 179.833 55.5986ZM181.269 55.5986C181.269 56.3311 182.316 56.7485 184.199 56.7412C186.074 56.7485 187.121 56.3311 187.128 55.5986C187.121 54.8442 186.074 54.4268 184.199 54.4268C182.316 54.4268 181.269 54.8442 181.269 55.5986ZM205.092 50.1348V59.6709H203.7V50.1348H205.092ZM194.472 54.2656C194.479 52.3687 195.988 51.021 197.973 51.0137C199.95 51.021 201.459 52.3687 201.459 54.2656C201.459 56.1919 199.95 57.5322 197.973 57.5322C195.988 57.5322 194.479 56.1919 194.472 54.2656ZM195.834 54.2656C195.827 55.5034 196.75 56.3164 197.973 56.3164C199.174 56.3164 200.097 55.5034 200.097 54.2656C200.097 53.0571 199.174 52.2295 197.973 52.2295C196.75 52.2295 195.827 53.0571 195.834 54.2656ZM196.508 62.9668V58.7041H197.914V61.8389H205.487V62.9668H196.508ZM218.82 56.3018V57.4297H206.852V56.3018H218.82ZM207.482 54.5146C209.862 54.2583 211.745 53.189 211.898 51.9072H207.951V50.7646H217.75V51.9072H213.759C213.92 53.1816 215.773 54.2583 218.204 54.5146L217.706 55.6133C215.429 55.3496 213.546 54.3901 212.836 53.0059C212.111 54.3901 210.243 55.3496 207.965 55.6133L207.482 54.5146ZM208.273 60.8428C208.273 59.3193 209.979 58.4404 212.829 58.4404C215.656 58.4404 217.348 59.3193 217.355 60.8428C217.348 62.3662 215.656 63.2231 212.829 63.2158C209.979 63.2231 208.273 62.3662 208.273 60.8428ZM209.679 60.8428C209.672 61.6704 210.822 62.1245 212.829 62.1172C214.806 62.1245 215.963 61.6704 215.963 60.8428C215.963 59.9932 214.806 59.5391 212.829 59.5244C210.822 59.5391 209.672 59.9932 209.679 60.8428ZM226.398 51.1016C227.599 51.1089 228.58 51.79 229.159 52.9766H232.403V50.1201H233.78V63.2744H232.403V58.2354H229.254C228.69 59.5537 227.665 60.3228 226.398 60.3154C224.442 60.3228 223.058 58.5356 223.072 55.7012C223.058 52.896 224.442 51.1089 226.398 51.1016ZM224.391 55.7012C224.398 57.7886 225.211 59.0703 226.398 59.0703C227.584 59.0703 228.397 57.7886 228.404 55.7012C228.397 53.6431 227.584 52.354 226.398 52.3467C225.211 52.354 224.398 53.6431 224.391 55.7012ZM229.554 54.1191C229.657 54.6025 229.723 55.1299 229.723 55.7012C229.723 56.1992 229.679 56.6606 229.591 57.0928H232.403V54.1191H229.554ZM247.479 57.8398V58.9385H242.118V63.2451H240.755V58.9385H235.467V57.8398H247.479ZM236.961 56.3457V50.6475H238.338V52.3613H244.578V50.6475H245.97V56.3457H236.961ZM238.338 55.2324H244.578V53.4746H238.338V55.2324ZM260.123 56.1406V57.21H248.111V56.1406H260.123ZM249.532 59.1289V58.1328H258.643V61.0186H250.938V62.1025H259.053V63.084H249.547V60.0957H257.266V59.1289H249.532ZM249.62 51.4385V50.457H258.614V53.2988H251.026V54.2949H258.834V55.2764H249.649V52.376H257.222V51.4385H249.62ZM275.054 50.1201V56.7998H273.662V55.54H270.337V54.4561H273.662V53.0352H270.498C269.685 55.0713 267.701 56.4189 264.8 57.0928L264.317 55.9502C267.466 55.2544 269.165 53.7896 269.392 51.8633H265.005V50.7207H270.923C270.923 51.1455 270.887 51.5483 270.813 51.9365H273.662V50.1201H275.054ZM266.47 58.4551V57.3564H275.054V60.6816H267.876V62H275.45V63.1133H266.499V59.627H273.662V58.4551H266.47ZM287.698 50.1201V57.9277H286.306V54.6025H283.86V53.46H286.306V50.1201H287.698ZM276.755 56.7412C278.792 56.0308 280.044 54.2583 280.037 52.4492V52.1562H277.195V51.0283H284.27V52.1562H281.458V52.4346C281.45 54.0972 282.637 55.7158 284.622 56.3896L283.904 57.4883C282.432 56.9829 281.348 55.9282 280.776 54.6318C280.205 56.0967 279.055 57.2759 277.488 57.8545L276.755 56.7412ZM278.865 60.7695C278.858 59.2095 280.542 58.3013 283.303 58.2939C286.05 58.3013 287.734 59.2095 287.742 60.7695C287.734 62.3296 286.05 63.2378 283.303 63.2451C280.542 63.2378 278.858 62.3296 278.865 60.7695ZM280.242 60.7695C280.234 61.6558 281.377 62.1611 283.303 62.1465C285.215 62.1611 286.358 61.6558 286.365 60.7695C286.358 59.876 285.215 59.3706 283.303 59.3779C281.377 59.3706 280.234 59.876 280.242 60.7695ZM299.624 50.1201V55.4375H301.733V56.5947H299.624V63.2451H298.247V50.1201H299.624ZM289.326 53.3135V52.1709H292.563V50.2959H293.955V52.1709H297.104V53.3135H289.326ZM290 57.3271C290 55.54 291.377 54.2803 293.267 54.2803C295.149 54.2803 296.526 55.54 296.533 57.3271C296.526 59.1289 295.149 60.3813 293.267 60.3887C291.377 60.3813 290 59.1289 290 57.3271ZM291.333 57.3271C291.326 58.4697 292.146 59.2314 293.267 59.2168C294.38 59.2314 295.193 58.4697 295.2 57.3271C295.193 56.2065 294.38 55.4302 293.267 55.4229C292.146 55.4302 291.326 56.2065 291.333 57.3271ZM308.65 51.3799V53.2109H311.609V50.1201H312.986V63.2744H311.609V57.9424H308.65V59.9639H302.556V51.3799H308.65ZM303.933 58.8506H307.287V52.4639H303.933V58.8506ZM308.65 56.8145H311.609V54.3535H308.65V56.8145ZM317.046 60.9893L315.874 65.0322H314.629L315.405 60.9893H317.046ZM332.431 50.1348V59.6709H331.039V50.1348H332.431ZM321.811 54.2656C321.818 52.3687 323.327 51.021 325.312 51.0137C327.289 51.021 328.798 52.3687 328.798 54.2656C328.798 56.1919 327.289 57.5322 325.312 57.5322C323.327 57.5322 321.818 56.1919 321.811 54.2656ZM323.173 54.2656C323.166 55.5034 324.089 56.3164 325.312 56.3164C326.513 56.3164 327.436 55.5034 327.436 54.2656C327.436 53.0571 326.513 52.2295 325.312 52.2295C324.089 52.2295 323.166 53.0571 323.173 54.2656ZM323.847 62.9668V58.7041H325.253V61.8389H332.826V62.9668H323.847ZM346.159 56.3018V57.4297H334.191V56.3018H346.159ZM334.821 54.5146C337.201 54.2583 339.084 53.189 339.237 51.9072H335.29V50.7646H345.089V51.9072H341.098C341.259 53.1816 343.112 54.2583 345.544 54.5146L345.045 55.6133C342.768 55.3496 340.885 54.3901 340.175 53.0059C339.45 54.3901 337.582 55.3496 335.304 55.6133L334.821 54.5146ZM335.612 60.8428C335.612 59.3193 337.318 58.4404 340.168 58.4404C342.995 58.4404 344.687 59.3193 344.694 60.8428C344.687 62.3662 342.995 63.2231 340.168 63.2158C337.318 63.2231 335.612 62.3662 335.612 60.8428ZM337.018 60.8428C337.011 61.6704 338.161 62.1245 340.168 62.1172C342.145 62.1245 343.302 61.6704 343.302 60.8428C343.302 59.9932 342.145 59.5391 340.168 59.5244C338.161 59.5391 337.011 59.9932 337.018 60.8428ZM11.3525 75.1201V88.2744H9.96094V75.1201H11.3525ZM0.9375 80.7012C0.9375 77.896 2.35107 76.1089 4.33594 76.1016C6.28418 76.1089 7.71973 77.896 7.71973 80.7012C7.71973 83.5356 6.28418 85.3228 4.33594 85.3154C2.35107 85.3228 0.9375 83.5356 0.9375 80.7012ZM2.28516 80.7012C2.27783 82.7886 3.11279 84.0703 4.33594 84.0703C5.53711 84.0703 6.37207 82.7886 6.37207 80.7012C6.37207 78.6431 5.53711 77.354 4.33594 77.3467C3.11279 77.354 2.27783 78.6431 2.28516 80.7012ZM20.4537 75.7061C22.3727 75.7061 23.7204 76.7607 23.735 78.3281C23.7204 79.6611 22.7096 80.6353 21.1862 80.877V82.0488C22.3434 81.9829 23.5153 81.873 24.5993 81.7119L24.7018 82.7373C21.9479 83.2354 18.8571 83.2866 16.6012 83.2793L16.4547 82.1514C17.4362 82.1587 18.5861 82.1514 19.7946 82.1074V80.8916C18.2272 80.6719 17.1798 79.6831 17.1871 78.3281C17.1798 76.7607 18.5275 75.7061 20.4537 75.7061ZM18.3151 87.9668V84.29H19.7067V86.8242H27.2653V87.9668H18.3151ZM18.4909 78.3281C18.4762 79.2583 19.2965 79.8662 20.4537 79.8662C21.6183 79.8662 22.4166 79.2583 22.4166 78.3281C22.4166 77.376 21.6183 76.7754 20.4537 76.7754C19.2965 76.7754 18.4762 77.376 18.4909 78.3281ZM25.4049 85.1689V75.1348H26.7965V79.4707H28.6715V80.6426H26.7965V85.1689H25.4049ZM41.125 85.5059V86.6777H29.1132V85.5059H32.3945V83.1914H30.5781V79.0166H38.2832V77.1855H30.5488V76.043H39.6601V80.1445H31.955V82.0488H39.9677V83.1914H37.9755V85.5059H41.125ZM33.7421 85.5059H36.6132V83.1914H33.7421V85.5059ZM49.5794 80.6719V81.8145H46.8108V84.2461C48.0266 84.1948 49.2498 84.1143 50.3997 83.9824L50.5022 85.0078C47.6092 85.4399 44.5037 85.4839 42.0061 85.4912L41.8304 84.334C42.9363 84.334 44.1595 84.3267 45.4192 84.2974V81.8145H42.7825V76.3359H49.5208V77.4639H44.1595V80.6719H49.5794ZM51.22 88.2744V75.1201H52.6116V88.2744H51.22ZM61.0953 76.2334V77.3467H63.9518V75.1348H65.3434V84.7002H63.9518V81.3018H61.0953V82.4443H55.0016V76.2334H61.0953ZM56.3785 81.3457H59.733V77.3613H56.3785V81.3457ZM56.774 87.9668V83.8213H58.1803V86.8389H65.6363V87.9668H56.774ZM61.0953 80.1592H63.9518V78.4893H61.0953V80.1592ZM82.3987 85.4912V86.6777H70.387V85.4912H75.6604V82.6934H71.4416V81.5947H73.4045V77.4639H71.4123V76.3359H81.3V77.4639H79.2932V81.5947H81.2561V82.6934H77.0373V85.4912H82.3987ZM74.7815 81.5947H77.9309V77.4639H74.7815V81.5947ZM93.9146 75.1348V84.6709H92.523V75.1348H93.9146ZM83.2945 79.2656C83.3018 77.3687 84.8106 76.021 86.7955 76.0137C88.773 76.021 90.2818 77.3687 90.2818 79.2656C90.2818 81.1919 88.773 82.5322 86.7955 82.5322C84.8106 82.5322 83.3018 81.1919 83.2945 79.2656ZM84.6568 79.2656C84.6495 80.5034 85.5723 81.3164 86.7955 81.3164C87.9966 81.3164 88.9195 80.5034 88.9195 79.2656C88.9195 78.0571 87.9966 77.2295 86.7955 77.2295C85.5723 77.2295 84.6495 78.0571 84.6568 79.2656ZM85.3306 87.9668V83.7041H86.7369V86.8389H94.3101V87.9668H85.3306ZM106.324 82.1074V83.2207H97.1835V76.2041H106.192V77.332H98.5897V79.1045H105.914V80.2031H98.5897V82.1074H106.324ZM95.6747 86.5898V85.4473H107.686V86.5898H95.6747ZM118.543 75.1201V80.3496H120.579V81.5068H118.543V88.2305H117.152V75.1201H118.543ZM108.333 84.7295C111.622 83.0889 113.409 80.7158 113.695 77.6543H108.992V76.4971H115.115C115.101 80.291 113.431 83.6821 109.11 85.8135L108.333 84.7295ZM129.007 77.4492C128.999 79.1045 130.186 80.7231 132.171 81.4043L131.453 82.4883C129.981 81.9829 128.889 80.9282 128.318 79.6318C127.747 81.0747 126.597 82.2319 125.037 82.7812L124.319 81.6826C126.333 80.9941 127.593 79.2437 127.586 77.4639V77.0977H124.744V75.9697H131.819V77.0977H129.007V77.4492ZM126.355 84.7588V83.6309H135.247V88.2451H133.855V84.7588H126.355ZM131.424 79.6025V78.46H133.855V75.1201H135.247V82.9717H133.855V79.6025H131.424ZM147.832 75.1348V82.3711H146.441V75.1348H147.832ZM137.608 76.8779V75.75H143.643V79.4121H138.999V80.9648C141.299 80.9575 142.976 80.8989 144.976 80.5693L145.152 81.6973C143.006 82.0488 141.218 82.1074 138.736 82.1221H137.637V78.3281H142.266V76.8779H137.608ZM139.219 88.084V82.9863H140.611V84.4072H146.455V82.9863H147.832V88.084H139.219ZM140.611 86.9561H146.455V85.5059H140.611V86.9561ZM160.505 75.1348V82.6934H159.099V75.1348H160.505ZM149.622 81.3018C150.713 81.3018 151.973 81.2944 153.284 81.2578V79.9688H150.793V75.75H157.063V76.8926H152.185V78.8701H157.18V79.9688H154.661V81.1992C155.825 81.1406 157.004 81.0527 158.103 80.9062L158.176 81.8877C155.334 82.3711 152.178 82.415 149.827 82.4297L149.622 81.3018ZM151.746 88.084V83.2646H153.137V84.5244H159.128V83.2646H160.505V88.084H151.746ZM153.137 86.9561H159.128V85.5938H153.137V86.9561ZM173.135 75.1201V88.2451H171.743V75.1201H173.135ZM163.042 84.9053V76.3945H164.419V83.7041C166.338 83.6968 168.352 83.5283 170.454 83.1035L170.644 84.2754C168.323 84.7515 166.213 84.9126 164.14 84.9053H163.042ZM185.105 75.1201V80.2031H187.214V81.3457H185.105V88.2744H183.713V75.1201H185.105ZM175.437 85.0078V76.3799H181.574V77.5078H176.828V83.8506C179.033 83.8433 180.681 83.748 182.556 83.4111L182.732 84.583C180.673 84.9492 178.93 85.0151 176.491 85.0078H175.437ZM189.018 87.1025C188.447 87.0952 187.971 86.6338 187.978 86.0625C187.971 85.4912 188.447 85.0225 189.018 85.0225C189.582 85.0225 190.051 85.4912 190.058 86.0625C190.051 86.6338 189.582 87.0952 189.018 87.1025ZM7.36816 126.38V135.008H1.21582V126.38H7.36816ZM2.59277 133.88H6.02051V127.479H2.59277V133.88ZM9.96094 138.274V125.12H11.3525V138.274H9.96094ZM17.7562 127.493C17.7635 129.383 18.9354 131.192 20.8909 131.946L20.1292 133.03C18.701 132.452 17.639 131.302 17.0823 129.881C16.5184 131.412 15.4051 132.627 13.8743 133.235L13.1273 132.122C15.1488 131.375 16.3719 129.507 16.3792 127.493V125.867H17.7562V127.493ZM15.5003 137.967V133.924H16.9066V136.839H24.3626V137.967H15.5003ZM20.1292 130.774V129.646H22.678V128.123H20.1292V126.995H22.678V125.135H24.0696V134.905H22.678V130.774H20.1292ZM37.7389 131.976V133.089H25.7711V131.976H37.7389ZM27.0602 128.182C27.0529 126.534 28.8913 125.552 31.7477 125.56C34.5895 125.552 36.4279 126.534 36.4352 128.182C36.4279 129.837 34.5895 130.84 31.7477 130.848C28.8913 130.84 27.0529 129.837 27.0602 128.182ZM27.2799 137.967V134.158H28.6862V136.839H36.3913V137.967H27.2799ZM28.4957 128.182C28.4884 129.156 29.7335 129.705 31.7477 129.705C33.7545 129.705 35.007 129.156 34.9996 128.182C35.007 127.244 33.7545 126.673 31.7477 126.673C29.7335 126.673 28.4884 127.244 28.4957 128.182ZM45.3167 126.102C46.5179 126.109 47.4993 126.79 48.0779 127.977H51.3225V125.12H52.6995V138.274H51.3225V133.235H48.1731C47.6092 134.554 46.5838 135.323 45.3167 135.315C43.3611 135.323 41.9768 133.536 41.9915 130.701C41.9768 127.896 43.3611 126.109 45.3167 126.102ZM43.3098 130.701C43.3172 132.789 44.1302 134.07 45.3167 134.07C46.5032 134.07 47.3162 132.789 47.3235 130.701C47.3162 128.643 46.5032 127.354 45.3167 127.347C44.1302 127.354 43.3172 128.643 43.3098 130.701ZM48.4734 129.119C48.576 129.603 48.6419 130.13 48.6419 130.701C48.6419 131.199 48.5979 131.661 48.51 132.093H51.3225V129.119H48.4734ZM65.5924 125.12V133.396H64.274V129.734H62.7506V132.942H61.4469V125.369H62.7506V128.592H64.274V125.12H65.5924ZM54.3277 127.713V126.614H56.9791V125.223H58.3561V126.614H60.9635V127.713H54.3277ZM54.8404 130.584C54.8404 129.222 56.0123 128.328 57.6529 128.328C59.3302 128.328 60.4947 129.222 60.4947 130.584C60.4947 131.946 59.3302 132.84 57.6529 132.84C56.0123 132.84 54.8404 131.946 54.8404 130.584ZM56.0855 130.584C56.0855 131.331 56.7228 131.822 57.6529 131.829C58.5978 131.822 59.2423 131.331 59.235 130.584C59.2423 129.837 58.5978 129.346 57.6529 129.354C56.7228 129.346 56.0855 129.837 56.0855 130.584ZM56.7594 135.916C56.7447 134.429 58.4146 133.587 61.1979 133.587C63.9884 133.587 65.6583 134.429 65.6656 135.916C65.6583 137.388 63.9884 138.223 61.1979 138.216C58.4146 138.223 56.7447 137.388 56.7594 135.916ZM58.1363 135.916C58.1217 136.707 59.2496 137.161 61.1979 137.146C63.1534 137.161 64.2667 136.707 64.274 135.916C64.2667 135.088 63.1534 134.649 61.1979 134.656C59.2496 134.649 58.1217 135.088 58.1363 135.916ZM82.3547 131.199V132.327H77.052V133.587C79.4543 133.719 80.8826 134.524 80.8899 135.901C80.8826 137.388 79.1833 138.223 76.3635 138.216C73.5071 138.223 71.8079 137.388 71.8079 135.901C71.8079 134.524 73.2361 133.711 75.675 133.587V132.327H70.387V131.199H82.3547ZM71.0168 129.412C73.3752 129.17 75.2356 128.101 75.426 126.834H71.4856V125.721H81.2854V126.834H77.301C77.4914 128.108 79.3372 129.17 81.7395 129.412L81.2414 130.511C78.9636 130.247 77.0813 129.288 76.3708 127.896C75.6457 129.288 73.7781 130.247 71.5002 130.511L71.0168 129.412ZM73.2141 135.901C73.2068 136.7 74.3567 137.161 76.3635 137.146C78.3411 137.161 79.4983 136.7 79.4983 135.901C79.4983 135.088 78.3411 134.649 76.3635 134.642C74.3567 134.649 73.2068 135.088 73.2141 135.901ZM94.3248 125.12V138.245H92.9918V125.12H94.3248ZM83.1773 130.789C83.1773 127.947 84.2906 126.167 86.0045 126.175C87.6011 126.167 88.6778 127.684 88.8389 130.145H90.3257V125.369H91.6588V137.601H90.3257V131.272H88.8463C88.7217 133.836 87.6304 135.425 86.0045 135.418C84.2906 135.425 83.1773 133.638 83.1773 130.789ZM84.4664 130.789C84.4664 132.876 85.0596 134.107 86.0045 134.1C86.9713 134.107 87.5718 132.876 87.5718 130.789C87.5718 128.694 86.9713 127.471 86.0045 127.479C85.0596 127.471 84.4664 128.694 84.4664 130.789ZM106.309 131.17V132.283H102.34V135.491H107.686V136.634H95.6747V135.491H100.963V132.283H97.1688V126.131H106.192V127.259H98.5604V131.17H106.309ZM122.544 125.135V134.671H121.153V125.135H122.544ZM111.924 129.266C111.932 127.369 113.44 126.021 115.425 126.014C117.403 126.021 118.912 127.369 118.912 129.266C118.912 131.192 117.403 132.532 115.425 132.532C113.44 132.532 111.932 131.192 111.924 129.266ZM113.287 129.266C113.279 130.503 114.202 131.316 115.425 131.316C116.626 131.316 117.549 130.503 117.549 129.266C117.549 128.057 116.626 127.229 115.425 127.229C114.202 127.229 113.279 128.057 113.287 129.266ZM113.96 137.967V133.704H115.367V136.839H122.94V137.967H113.96ZM136.272 131.302V132.43H124.305V131.302H136.272ZM124.934 129.515C127.315 129.258 129.197 128.189 129.351 126.907H125.403V125.765H135.203V126.907H131.211C131.372 128.182 133.225 129.258 135.657 129.515L135.159 130.613C132.881 130.35 130.999 129.39 130.288 128.006C129.563 129.39 127.696 130.35 125.418 130.613L124.934 129.515ZM125.725 135.843C125.725 134.319 127.432 133.44 130.281 133.44C133.108 133.44 134.8 134.319 134.807 135.843C134.8 137.366 133.108 138.223 130.281 138.216C127.432 138.223 125.725 137.366 125.725 135.843ZM127.132 135.843C127.124 136.67 128.274 137.125 130.281 137.117C132.259 137.125 133.416 136.67 133.416 135.843C133.416 134.993 132.259 134.539 130.281 134.524C128.274 134.539 127.124 134.993 127.132 135.843ZM147.261 125.076V128.152H149.18V129.295H147.261V132.298H145.869V125.076H147.261ZM136.963 127.332V126.233H140.186V125.003H141.577V126.233H144.785V127.332H136.963ZM137.681 129.983C137.673 128.658 138.948 127.83 140.874 127.83C142.8 127.83 144.053 128.658 144.053 129.983C144.053 131.316 142.8 132.129 140.874 132.122C138.948 132.129 137.673 131.316 137.681 129.983ZM138.779 133.953V132.913H147.261V135.96H140.171V137.059H147.715V138.113H138.809V134.979H145.884V133.953H138.779ZM139.028 129.983C139.014 130.694 139.739 131.111 140.874 131.111C142.002 131.111 142.735 130.694 142.749 129.983C142.735 129.273 142.002 128.833 140.874 128.826C139.739 128.833 139.014 129.273 139.028 129.983ZM159.658 126.277C159.651 128.021 161.782 129.654 164.36 129.998L163.818 131.141C161.672 130.796 159.79 129.683 158.933 128.138C158.076 129.683 156.194 130.796 154.062 131.141L153.506 129.998C156.076 129.654 158.2 128.042 158.208 126.277V125.56H159.658V126.277ZM152.934 133.572V132.43H164.902V133.572H159.57V138.245H158.208V133.572H152.934ZM173.476 133.792C173.476 134.92 174.033 136.114 175.227 136.824C176.428 136.055 177.021 134.803 177.021 133.792V133.162H178.383V133.792C178.376 135.154 179.277 136.473 180.991 137.029L180.302 138.055C179.006 137.608 178.12 136.729 177.665 135.66C177.248 136.714 176.464 137.674 175.263 138.172C174.003 137.696 173.205 136.766 172.802 135.696C172.326 136.729 171.462 137.601 170.224 138.055L169.521 137.029C171.206 136.429 172.121 135.059 172.128 133.792V133.162H173.476V133.792ZM169.184 128.958C169.191 127.12 170.671 125.86 172.685 125.853C174.692 125.86 176.171 127.12 176.171 128.958C176.171 130.774 174.692 132.034 172.685 132.034C170.671 132.034 169.191 130.774 169.184 128.958ZM170.546 128.958C170.539 130.101 171.44 130.877 172.685 130.877C173.915 130.877 174.809 130.101 174.809 128.958C174.809 127.808 173.915 127.032 172.685 127.039C171.44 127.032 170.539 127.808 170.546 128.958ZM178.413 132.605V125.135H179.804V132.605H178.413ZM184.421 132.986V134.378H190.588V132.986H191.979V138.084H183.044V132.986H184.421ZM181.564 132.166V131.009H193.532V132.166H181.564ZM182.209 129.104C184.75 128.775 186.83 127.376 186.838 125.823V125.267H188.259V125.823C188.266 127.332 190.361 128.797 192.873 129.104L192.375 130.203C190.251 129.91 188.398 128.899 187.555 127.5C186.706 128.907 184.845 129.91 182.736 130.203L182.209 129.104ZM184.421 136.971H190.588V135.462H184.421V136.971ZM205.107 125.12V138.245H203.715V125.12H205.107ZM195.014 134.905V126.395H196.391V133.704C198.31 133.697 200.324 133.528 202.426 133.104L202.616 134.275C200.295 134.751 198.185 134.913 196.112 134.905H195.014ZM217.077 125.12V130.203H219.186V131.346H217.077V138.274H215.685V125.12H217.077ZM207.409 135.008V126.38H213.546V127.508H208.8V133.851C211.005 133.843 212.653 133.748 214.528 133.411L214.704 134.583C212.645 134.949 210.902 135.015 208.463 135.008H207.409ZM220.99 137.103C220.419 137.095 219.943 136.634 219.95 136.062C219.943 135.491 220.419 135.022 220.99 135.022C221.554 135.022 222.023 135.491 222.03 136.062C222.023 136.634 221.554 137.095 220.99 137.103ZM237.386 131.067V132.181H232.64V126.307H237.254V127.435H234.032V131.067H237.386ZM226.297 136.604V135.477H231.571V132.811H232.933V135.477H238.309V136.604H226.297ZM227.293 132.181V126.321H231.82V127.449H228.685V131.038C229.776 131.023 230.802 130.943 231.937 130.687L232.054 131.844C230.648 132.151 229.461 132.188 228.07 132.181H227.293ZM249.254 125.135V129.354H251.158V130.511H249.254V134.949H247.862V125.135H249.254ZM238.956 127.786V126.658H242.178V125.12H243.57V126.658H246.778V127.786H238.956ZM239.674 130.892C239.666 129.39 240.963 128.409 242.867 128.416C244.749 128.409 246.046 129.39 246.046 130.892C246.046 132.378 244.749 133.345 242.867 133.353C240.963 133.345 239.666 132.378 239.674 130.892ZM240.933 137.967V134.173H242.325V136.839H249.81V137.967H240.933ZM241.021 130.892C241.007 131.749 241.754 132.276 242.867 132.269C243.98 132.276 244.727 131.749 244.742 130.892C244.727 130.027 243.98 129.493 242.867 129.485C241.754 129.493 241.007 130.027 241.021 130.892ZM253.943 135.989L252.771 140.032H251.526L252.303 135.989H253.943ZM265.33 126.38V135.008H259.177V126.38H265.33ZM260.554 133.88H263.982V127.479H260.554V133.88ZM267.922 138.274V125.12H269.314V138.274H267.922ZM275.718 127.493C275.725 129.383 276.897 131.192 278.853 131.946L278.091 133.03C276.663 132.452 275.601 131.302 275.044 129.881C274.48 131.412 273.367 132.627 271.836 133.235L271.089 132.122C273.11 131.375 274.333 129.507 274.341 127.493V125.867H275.718V127.493ZM273.462 137.967V133.924H274.868V136.839H282.324V137.967H273.462ZM278.091 130.774V129.646H280.64V128.123H278.091V126.995H280.64V125.135H282.031V134.905H280.64V130.774H278.091ZM297.959 125.135V134.671H296.567V125.135H297.959ZM287.338 129.266C287.346 127.369 288.855 126.021 290.839 126.014C292.817 126.021 294.326 127.369 294.326 129.266C294.326 131.192 292.817 132.532 290.839 132.532C288.855 132.532 287.346 131.192 287.338 129.266ZM288.701 129.266C288.693 130.503 289.616 131.316 290.839 131.316C292.041 131.316 292.963 130.503 292.963 129.266C292.963 128.057 292.041 127.229 290.839 127.229C289.616 127.229 288.693 128.057 288.701 129.266ZM289.375 137.967V133.704H290.781V136.839H298.354V137.967H289.375ZM311.686 131.302V132.43H299.719V131.302H311.686ZM300.349 129.515C302.729 129.258 304.611 128.189 304.765 126.907H300.817V125.765H310.617V126.907H306.625C306.787 128.182 308.64 129.258 311.071 129.515L310.573 130.613C308.295 130.35 306.413 129.39 305.703 128.006C304.977 129.39 303.11 130.35 300.832 130.613L300.349 129.515ZM301.14 135.843C301.14 134.319 302.846 133.44 305.695 133.44C308.522 133.44 310.214 134.319 310.222 135.843C310.214 137.366 308.522 138.223 305.695 138.216C302.846 138.223 301.14 137.366 301.14 135.843ZM302.546 135.843C302.538 136.67 303.688 137.125 305.695 137.117C307.673 137.125 308.83 136.67 308.83 135.843C308.83 134.993 307.673 134.539 305.695 134.524C303.688 134.539 302.538 134.993 302.546 135.843ZM318.339 125.34C321.298 125.333 323.019 126.131 323.027 127.596C323.019 129.068 321.298 129.866 318.339 129.866C315.38 129.866 313.644 129.068 313.652 127.596C313.644 126.131 315.38 125.333 318.339 125.34ZM312.363 131.785V130.672H324.33V131.785H312.363ZM313.798 133.836V132.796H322.822V135.872H315.175V137.044H323.188V138.113H313.813V134.861H321.445V133.836H313.798ZM315.102 127.596C315.094 128.409 316.252 128.826 318.339 128.826C320.441 128.826 321.598 128.409 321.591 127.596C321.598 126.819 320.441 126.365 318.339 126.365C316.252 126.365 315.094 126.819 315.102 127.596ZM338.573 125.12V130.438H340.682V131.595H338.573V138.245H337.196V125.12H338.573ZM328.275 128.313V127.171H331.513V125.296H332.904V127.171H336.054V128.313H328.275ZM328.949 132.327C328.949 130.54 330.326 129.28 332.216 129.28C334.098 129.28 335.475 130.54 335.482 132.327C335.475 134.129 334.098 135.381 332.216 135.389C330.326 135.381 328.949 134.129 328.949 132.327ZM330.282 132.327C330.275 133.47 331.095 134.231 332.216 134.217C333.329 134.231 334.142 133.47 334.149 132.327C334.142 131.207 333.329 130.43 332.216 130.423C331.095 130.43 330.275 131.207 330.282 132.327ZM12.7441 155.276V156.419H10.708V163.23H9.31641V150.12H10.708V155.276H12.7441ZM0.981445 159.935V151.395H2.3584V158.777C4.18945 158.77 6.10107 158.616 8.18848 158.191L8.34961 159.363C6.10107 159.81 4.03564 159.942 2.06543 159.935H0.981445ZM24.2015 158.47V163.245H22.8099V159.583H15.0609V158.47H24.2015ZM12.9954 156.199C14.5189 155.291 15.0169 153.467 15.0169 152.098V150.896H16.3353V152.098C16.3353 153.167 16.5696 154.654 17.4998 155.716C18.4154 154.676 18.6571 153.211 18.6644 152.098V150.896H19.9681V152.098C19.9608 153.592 20.4808 155.35 22.0189 156.199L21.2425 157.195C20.2611 156.631 19.6678 155.694 19.3309 154.639C19.0306 155.716 18.4739 156.727 17.5071 157.342C16.5184 156.727 15.9617 155.687 15.6614 154.595C15.3245 155.657 14.7313 156.617 13.7718 157.195L12.9954 156.199ZM22.8099 157.811V150.12H24.2015V157.811H22.8099ZM41.0957 156.287V157.43H29.1132V156.287H41.0957ZM30.5341 160.843C30.5341 159.319 32.2407 158.455 35.0898 158.455C37.917 158.455 39.6088 159.319 39.6162 160.843C39.6088 162.366 37.917 163.223 35.0898 163.216C32.2407 163.223 30.5341 162.366 30.5341 160.843ZM30.6074 155.145V150.589H39.6162V151.731H31.9843V154.017H39.7041V155.145H30.6074ZM31.9404 160.843C31.9331 161.685 33.083 162.139 35.0898 162.146C37.0673 162.139 38.2246 161.685 38.2246 160.843C38.2246 160.008 37.0673 159.539 35.0898 159.524C33.083 159.539 31.9331 160.008 31.9404 160.843ZM53.7542 157.283V158.411H41.7425V157.283H47.0598V156.038H43.2805V152.698H50.8538V151.526H43.2513V150.428H52.2454V153.724H44.6575V154.954H52.5091V156.038H48.4368V157.283H53.7542ZM43.0901 160.447V159.334H52.3186V163.143H50.9124V160.447H43.0901ZM64.7135 150.076V153.152H66.6324V154.295H64.7135V157.298H63.3219V150.076H64.7135ZM54.4156 152.332V151.233H57.6383V150.003H59.0299V151.233H62.2379V152.332H54.4156ZM55.1334 154.983C55.1261 153.658 56.4005 152.83 58.3268 152.83C60.253 152.83 61.5055 153.658 61.5055 154.983C61.5055 156.316 60.253 157.129 58.3268 157.122C56.4005 157.129 55.1261 156.316 55.1334 154.983ZM56.232 158.953V157.913H64.7135V160.96H57.6236V162.059H65.1676V163.113H56.2613V159.979H63.3365V158.953H56.232ZM56.4811 154.983C56.4664 155.694 57.1915 156.111 58.3268 156.111C59.4547 156.111 60.1871 155.694 60.2018 154.983C60.1871 154.273 59.4547 153.833 58.3268 153.826C57.1915 153.833 56.4664 154.273 56.4811 154.983ZM77.1106 151.277C77.1033 153.021 79.2346 154.654 81.8127 154.998L81.2707 156.141C79.1247 155.796 77.2424 154.683 76.3855 153.138C75.5286 154.683 73.6462 155.796 71.5149 156.141L70.9582 154.998C73.529 154.654 75.6531 153.042 75.6604 151.277V150.56H77.1106V151.277ZM70.387 158.572V157.43H82.3547V158.572H77.0227V163.245H75.6604V158.572H70.387ZM90.9286 158.792C90.9286 159.92 91.4852 161.114 92.6791 161.824C93.8803 161.055 94.4735 159.803 94.4735 158.792V158.162H95.8358V158.792C95.8285 160.154 96.7294 161.473 98.4432 162.029L97.7548 163.055C96.4584 162.608 95.5722 161.729 95.118 160.66C94.7006 161.714 93.9169 162.674 92.7157 163.172C91.4559 162.696 90.6576 161.766 90.2548 160.696C89.7787 161.729 88.9144 162.601 87.6766 163.055L86.9735 162.029C88.6581 161.429 89.5736 160.059 89.5809 158.792V158.162H90.9286V158.792ZM86.6366 153.958C86.6439 152.12 88.1234 150.86 90.1376 150.853C92.1444 150.86 93.6239 152.12 93.6239 153.958C93.6239 155.774 92.1444 157.034 90.1376 157.034C88.1234 157.034 86.6439 155.774 86.6366 153.958ZM87.9989 153.958C87.9916 155.101 88.8925 155.877 90.1376 155.877C91.368 155.877 92.2616 155.101 92.2616 153.958C92.2616 152.808 91.368 152.032 90.1376 152.039C88.8925 152.032 87.9916 152.808 87.9989 153.958ZM95.8651 157.605V150.135H97.2567V157.605H95.8651ZM101.873 157.986V159.378H108.04V157.986H109.432V163.084H100.496V157.986H101.873ZM99.0168 157.166V156.009H110.985V157.166H99.0168ZM99.6613 154.104C102.203 153.775 104.283 152.376 104.29 150.823V150.267H105.711V150.823C105.718 152.332 107.813 153.797 110.325 154.104L109.827 155.203C107.703 154.91 105.85 153.899 105.008 152.5C104.158 153.907 102.298 154.91 100.189 155.203L99.6613 154.104ZM101.873 161.971H108.04V160.462H101.873V161.971ZM122.559 150.12V163.245H121.168V150.12H122.559ZM112.466 159.905V151.395H113.843V158.704C115.762 158.697 117.776 158.528 119.878 158.104L120.069 159.275C117.747 159.751 115.638 159.913 113.565 159.905H112.466ZM134.529 150.12V155.203H136.639V156.346H134.529V163.274H133.138V150.12H134.529ZM124.861 160.008V151.38H130.999V152.508H126.253V158.851C128.457 158.843 130.105 158.748 131.98 158.411L132.156 159.583C130.098 159.949 128.355 160.015 125.916 160.008H124.861ZM138.443 162.103C137.871 162.095 137.395 161.634 137.402 161.062C137.395 160.491 137.871 160.022 138.443 160.022C139.007 160.022 139.475 160.491 139.483 161.062C139.475 161.634 139.007 162.095 138.443 162.103ZM156.011 155.276V156.419H153.974V163.23H152.583V150.12H153.974V155.276H156.011ZM144.248 159.935V151.395H145.625V158.777C147.456 158.77 149.367 158.616 151.455 158.191L151.616 159.363C149.367 159.81 147.302 159.942 145.332 159.935H144.248ZM168.361 156.199V157.327H163.059V158.587C165.461 158.719 166.889 159.524 166.897 160.901C166.889 162.388 165.19 163.223 162.37 163.216C159.514 163.223 157.815 162.388 157.815 160.901C157.815 159.524 159.243 158.711 161.682 158.587V157.327H156.394V156.199H168.361ZM157.024 154.412C159.382 154.17 161.242 153.101 161.433 151.834H157.492V150.721H167.292V151.834H163.308C163.498 153.108 165.344 154.17 167.746 154.412L167.248 155.511C164.97 155.247 163.088 154.288 162.378 152.896C161.652 154.288 159.785 155.247 157.507 155.511L157.024 154.412ZM159.221 160.901C159.214 161.7 160.363 162.161 162.37 162.146C164.348 162.161 165.505 161.7 165.505 160.901C165.505 160.088 164.348 159.649 162.37 159.642C160.363 159.649 159.214 160.088 159.221 160.901ZM180.331 150.12V163.245H178.998V150.12H180.331ZM169.184 155.789C169.184 152.947 170.297 151.167 172.011 151.175C173.608 151.167 174.685 152.684 174.846 155.145H176.332V150.369H177.665V162.601H176.332V156.272H174.853C174.728 158.836 173.637 160.425 172.011 160.418C170.297 160.425 169.184 158.638 169.184 155.789ZM170.473 155.789C170.473 157.876 171.066 159.107 172.011 159.1C172.978 159.107 173.579 157.876 173.579 155.789C173.579 153.694 172.978 152.471 172.011 152.479C171.066 152.471 170.473 153.694 170.473 155.789ZM195.336 150.135V154.354H197.24V155.511H195.336V159.949H193.944V150.135H195.336ZM185.038 152.786V151.658H188.261V150.12H189.652V151.658H192.86V152.786H185.038ZM185.756 155.892C185.749 154.39 187.045 153.409 188.949 153.416C190.832 153.409 192.128 154.39 192.128 155.892C192.128 157.378 190.832 158.345 188.949 158.353C187.045 158.345 185.749 157.378 185.756 155.892ZM187.016 162.967V159.173H188.407V161.839H195.893V162.967H187.016ZM187.104 155.892C187.089 156.749 187.836 157.276 188.949 157.269C190.063 157.276 190.81 156.749 190.824 155.892C190.81 155.027 190.063 154.493 188.949 154.485C187.836 154.493 187.089 155.027 187.104 155.892ZM208.537 150.12V163.245H207.16V156.302H204.757C204.362 158.03 203.644 159.7 202.384 161.194L201.271 160.433C203.226 158.147 203.798 155.467 203.9 152.669H202.018V151.526H205.211C205.211 152.735 205.153 153.958 204.97 155.174H207.16V150.12H208.537ZM197.55 159.554C199.469 157.554 200.165 155.298 200.304 152.669H198.019V151.526H201.622C201.615 154.808 201.029 157.796 198.649 160.33L197.55 159.554ZM221.254 150.135V159.832H219.862V154.881H216.991V157.649H210.941V150.999H212.333V153.226H215.614V150.999H216.991V153.753H219.862V150.135H221.254ZM212.333 156.521H215.614V154.295H212.333V156.521ZM212.684 162.967V158.88H214.091V161.839H221.547V162.967H212.684ZM234.249 150.12V163.245H232.916V150.12H234.249ZM223.102 155.789C223.102 152.947 224.215 151.167 225.929 151.175C227.525 151.167 228.602 152.684 228.763 155.145H230.25V150.369H231.583V162.601H230.25V156.272H228.771C228.646 158.836 227.555 160.425 225.929 160.418C224.215 160.425 223.102 158.638 223.102 155.789ZM224.391 155.789C224.391 157.876 224.984 159.107 225.929 159.1C226.896 159.107 227.496 157.876 227.496 155.789C227.496 153.694 226.896 152.471 225.929 152.479C224.984 152.471 224.391 153.694 224.391 155.789ZM245.826 151.38V160.008H239.674V151.38H245.826ZM241.05 158.88H244.478V152.479H241.05V158.88ZM248.419 163.274V150.12H249.81V163.274H248.419ZM256.214 152.493C256.221 154.383 257.393 156.192 259.349 156.946L258.587 158.03C257.159 157.452 256.097 156.302 255.54 154.881C254.976 156.412 253.863 157.627 252.332 158.235L251.585 157.122C253.606 156.375 254.83 154.507 254.837 152.493V150.867H256.214V152.493ZM253.958 162.967V158.924H255.364V161.839H262.82V162.967H253.958ZM258.587 155.774V154.646H261.136V153.123H258.587V151.995H261.136V150.135H262.527V159.905H261.136V155.774H258.587ZM270.205 150.34C273.164 150.333 274.886 151.131 274.893 152.596C274.886 154.068 273.164 154.866 270.205 154.866C267.246 154.866 265.511 154.068 265.518 152.596C265.511 151.131 267.246 150.333 270.205 150.34ZM264.229 156.785V155.672H276.197V156.785H264.229ZM265.664 158.836V157.796H274.688V160.872H267.041V162.044H275.054V163.113H265.679V159.861H273.311V158.836H265.664ZM266.968 152.596C266.961 153.409 268.118 153.826 270.205 153.826C272.307 153.826 273.465 153.409 273.457 152.596C273.465 151.819 272.307 151.365 270.205 151.365C268.118 151.365 266.961 151.819 266.968 152.596ZM291.099 150.135V159.671H289.707V150.135H291.099ZM280.478 154.266C280.486 152.369 281.995 151.021 283.979 151.014C285.957 151.021 287.466 152.369 287.466 154.266C287.466 156.192 285.957 157.532 283.979 157.532C281.995 157.532 280.486 156.192 280.478 154.266ZM281.841 154.266C281.833 155.503 282.756 156.316 283.979 156.316C285.181 156.316 286.103 155.503 286.103 154.266C286.103 153.057 285.181 152.229 283.979 152.229C282.756 152.229 281.833 153.057 281.841 154.266ZM282.515 162.967V158.704H283.921V161.839H291.494V162.967H282.515ZM304.826 156.302V157.43H292.859V156.302H304.826ZM293.489 154.515C295.869 154.258 297.751 153.189 297.905 151.907H293.957V150.765H303.757V151.907H299.765C299.927 153.182 301.78 154.258 304.211 154.515L303.713 155.613C301.435 155.35 299.553 154.39 298.843 153.006C298.117 154.39 296.25 155.35 293.972 155.613L293.489 154.515ZM294.28 160.843C294.28 159.319 295.986 158.44 298.835 158.44C301.662 158.44 303.354 159.319 303.362 160.843C303.354 162.366 301.662 163.223 298.835 163.216C295.986 163.223 294.28 162.366 294.28 160.843ZM295.686 160.843C295.678 161.67 296.828 162.125 298.835 162.117C300.813 162.125 301.97 161.67 301.97 160.843C301.97 159.993 300.813 159.539 298.835 159.524C296.828 159.539 295.678 159.993 295.686 160.843ZM315.727 150.12V155.438H317.837V156.595H315.727V163.245H314.35V150.12H315.727ZM305.429 153.313V152.171H308.667V150.296H310.058V152.171H313.208V153.313H305.429ZM306.103 157.327C306.103 155.54 307.48 154.28 309.37 154.28C311.252 154.28 312.629 155.54 312.636 157.327C312.629 159.129 311.252 160.381 309.37 160.389C307.48 160.381 306.103 159.129 306.103 157.327ZM307.436 157.327C307.429 158.47 308.249 159.231 309.37 159.217C310.483 159.231 311.296 158.47 311.303 157.327C311.296 156.207 310.483 155.43 309.37 155.423C308.249 155.43 307.429 156.207 307.436 157.327ZM322.98 153.987C322.973 156.185 324.416 158.455 326.437 159.319L325.676 160.403C324.13 159.722 322.9 158.272 322.292 156.521C321.684 158.396 320.454 159.993 318.923 160.74L318.117 159.642C320.095 158.711 321.559 156.25 321.574 153.987V152.596H318.571V151.438H325.969V152.596H322.98V153.987ZM327.624 163.245V150.12H329.016V163.245H327.624ZM337.78 150.823C339.765 150.831 341.222 152.09 341.222 153.87C341.222 155.657 339.765 156.91 337.78 156.917C335.802 156.91 334.323 155.657 334.337 153.87C334.323 152.09 335.802 150.831 337.78 150.823ZM335.451 162.894V158.016H336.813V161.751C337.582 161.714 338.468 161.604 339.303 161.326L339.508 162.425C338.285 162.842 337.106 162.894 336.125 162.894H335.451ZM335.685 153.87C335.678 154.991 336.593 155.774 337.78 155.774C338.974 155.774 339.875 154.991 339.875 153.87C339.875 152.757 338.974 151.98 337.78 151.98C336.593 151.98 335.678 152.757 335.685 153.87ZM339.054 159.129V158.06H341.706V156.99H343.068V158.06H345.675V159.129H339.054ZM339.889 161.385C339.875 160.242 340.885 159.517 342.365 159.51C343.815 159.517 344.84 160.242 344.84 161.385C344.84 162.513 343.815 163.223 342.365 163.216C340.885 163.223 339.875 162.513 339.889 161.385ZM341.12 161.385C341.12 161.919 341.64 162.249 342.365 162.249C343.075 162.249 343.588 161.919 343.595 161.385C343.588 160.85 343.075 160.506 342.365 160.506C341.64 160.506 341.12 160.85 341.12 161.385ZM343.053 156.653V150.12H344.445V152.991H346.349V154.148H344.445V156.653H343.053ZM3.99902 176.102C5.96191 176.109 7.36084 177.896 7.36816 180.701C7.36084 183.536 5.96191 185.323 3.99902 185.315C2.03613 185.323 0.637207 183.536 0.644531 180.701C0.637207 177.896 2.03613 176.109 3.99902 176.102ZM1.97754 180.701C1.97021 182.789 2.80518 184.07 3.99902 184.07C5.21484 184.07 6.03516 182.789 6.03516 180.701C6.03516 178.643 5.21484 177.354 3.99902 177.347C2.80518 177.354 1.97021 178.643 1.97754 180.701ZM9.31641 188.245V175.12H10.708V180.262H12.8174V181.434H10.708V188.245H9.31641ZM23.762 181.17V182.283H19.7923V185.491H25.139V186.634H13.1273V185.491H18.4154V182.283H14.6214V176.131H23.6448V177.259H16.013V181.17H23.762ZM40.0263 175.135V182.693H38.6201V175.135H40.0263ZM29.1425 181.302C30.2338 181.302 31.4936 181.294 32.8046 181.258V179.969H30.3144V175.75H36.5839V176.893H31.706V178.87H36.7011V179.969H34.1816V181.199C35.3462 181.141 36.5254 181.053 37.624 180.906L37.6972 181.888C34.8554 182.371 31.6987 182.415 29.3476 182.43L29.1425 181.302ZM31.2666 188.084V183.265H32.6582V184.524H38.6494V183.265H40.0263V188.084H31.2666ZM32.6582 186.956H38.6494V185.594H32.6582V186.956ZM52.6555 175.12V188.245H51.2639V175.12H52.6555ZM42.5628 184.905V176.395H43.9397V183.704C45.8587 183.697 47.8728 183.528 49.9749 183.104L50.1653 184.275C47.8435 184.751 45.7342 184.913 43.6614 184.905H42.5628ZM64.6256 175.12V180.203H66.735V181.346H64.6256V188.274H63.234V175.12H64.6256ZM54.9576 185.008V176.38H61.0953V177.508H56.3492V183.851C58.5538 183.843 60.2018 183.748 62.0768 183.411L62.2525 184.583C60.1944 184.949 58.4513 185.015 56.0123 185.008H54.9576ZM68.539 187.103C67.9677 187.095 67.4916 186.634 67.4989 186.062C67.4916 185.491 67.9677 185.022 68.539 185.022C69.103 185.022 69.5717 185.491 69.579 186.062C69.5717 186.634 69.103 187.095 68.539 187.103ZM7.20703 226.277C7.19971 228.021 9.33105 229.654 11.9092 229.998L11.3672 231.141C9.22119 230.796 7.33887 229.683 6.48193 228.138C5.625 229.683 3.74268 230.796 1.61133 231.141L1.05469 229.998C3.62549 229.654 5.74951 228.042 5.75684 226.277V225.56H7.20703V226.277ZM0.483398 233.572V232.43H12.4512V233.572H7.11914V238.245H5.75684V233.572H0.483398ZM24.3187 225.12V233.396H23.0003V229.734H21.4769V232.942H20.1732V225.369H21.4769V228.592H23.0003V225.12H24.3187ZM13.054 227.713V226.614H15.7054V225.223H17.0823V226.614H19.6898V227.713H13.054ZM13.5667 230.584C13.5667 229.222 14.7386 228.328 16.3792 228.328C18.0565 228.328 19.221 229.222 19.221 230.584C19.221 231.946 18.0565 232.84 16.3792 232.84C14.7386 232.84 13.5667 231.946 13.5667 230.584ZM14.8118 230.584C14.8118 231.331 15.449 231.822 16.3792 231.829C17.324 231.822 17.9686 231.331 17.9613 230.584C17.9686 229.837 17.324 229.346 16.3792 229.354C15.449 229.346 14.8118 229.837 14.8118 230.584ZM15.4857 235.916C15.471 234.429 17.1409 233.587 19.9241 233.587C22.7147 233.587 24.3846 234.429 24.3919 235.916C24.3846 237.388 22.7147 238.223 19.9241 238.216C17.1409 238.223 15.471 237.388 15.4857 235.916ZM16.8626 235.916C16.848 236.707 17.9759 237.161 19.9241 237.146C21.8797 237.161 22.993 236.707 23.0003 235.916C22.993 235.088 21.8797 234.649 19.9241 234.656C17.9759 234.649 16.848 235.088 16.8626 235.916ZM35.9957 225.12V230.438H38.1051V231.595H35.9957V238.245H34.6188V225.12H35.9957ZM25.6979 228.313V227.171H28.9352V225.296H30.3268V227.171H33.4762V228.313H25.6979ZM26.3717 232.327C26.3717 230.54 27.7487 229.28 29.6383 229.28C31.5206 229.28 32.8976 230.54 32.9049 232.327C32.8976 234.129 31.5206 235.381 29.6383 235.389C27.7487 235.381 26.3717 234.129 26.3717 232.327ZM27.7047 232.327C27.6974 233.47 28.5177 234.231 29.6383 234.217C30.7516 234.231 31.5646 233.47 31.5719 232.327C31.5646 231.207 30.7516 230.43 29.6383 230.423C28.5177 230.43 27.6974 231.207 27.7047 232.327ZM49.3281 225.12V238.245H47.9218V225.12H49.3281ZM38.5468 234.729C42.0332 233.067 43.7397 230.701 44.0107 227.64H39.1767V226.526H45.417C45.417 230.372 43.7837 233.697 39.2793 235.857L38.5468 234.729ZM57.9605 226.102C59.7477 226.109 61.044 227.618 61.2564 230.042H63.9664V225.12H65.3434V238.274H63.9664V231.17H61.2711C61.1173 233.733 59.7916 235.323 57.9605 235.315C56.005 235.323 54.6207 233.536 54.6354 230.701C54.6207 227.896 56.005 226.109 57.9605 226.102ZM55.9537 230.701C55.961 232.789 56.774 234.07 57.9605 234.07C59.1471 234.07 59.9601 232.789 59.9674 230.701C59.9601 228.643 59.1471 227.354 57.9605 227.347C56.774 227.354 55.961 228.643 55.9537 230.701ZM77.9726 225.12V238.274H76.5956V232.781H74.0322V231.624H76.5956V229.192H74.1054V228.05H76.5956V225.12H77.9726ZM67.4989 227.405V226.277H73.3144V231.067H68.9198V234.085C70.7729 234.078 72.3403 233.99 74.2079 233.719L74.3251 234.861C72.2743 235.184 70.5971 235.242 68.5243 235.242H67.5282V229.969H71.9521V227.405H67.4989ZM91.6858 231.697V232.825H86.4856V235.374H85.0793V232.825H79.6741V231.697H91.6858ZM80.9924 228.094C80.9851 226.453 82.8455 225.435 85.6653 225.428C88.4851 225.435 90.3308 226.453 90.3235 228.094C90.3308 229.727 88.4851 230.745 85.6653 230.745C82.8455 230.745 80.9851 229.727 80.9924 228.094ZM81.1829 237.967V234.114H82.5745V236.824H90.3528V237.967H81.1829ZM82.4866 228.094C82.4719 229.039 83.7463 229.617 85.6653 229.617C87.5915 229.617 88.8513 229.039 88.8586 228.094C88.8513 227.12 87.5915 226.548 85.6653 226.541C83.7463 226.548 82.4719 227.12 82.4866 228.094ZM102.559 226.38V235.008H96.4071V226.38H102.559ZM97.7841 233.88H101.212V227.479H97.7841V233.88ZM105.152 238.274V225.12H106.544V238.274H105.152ZM112.947 227.493C112.955 229.383 114.127 231.192 116.082 231.946L115.321 233.03C113.892 232.452 112.83 231.302 112.274 229.881C111.71 231.412 110.596 232.627 109.066 233.235L108.319 232.122C110.34 231.375 111.563 229.507 111.571 227.493V225.867H112.947V227.493ZM110.692 237.967V233.924H112.098V236.839H119.554V237.967H110.692ZM115.321 230.774V229.646H117.869V228.123H115.321V226.995H117.869V225.135H119.261V234.905H117.869V230.774H115.321ZM132.93 231.976V233.089H120.962V231.976H132.93ZM122.251 228.182C122.244 226.534 124.083 225.552 126.939 225.56C129.781 225.552 131.619 226.534 131.626 228.182C131.619 229.837 129.781 230.84 126.939 230.848C124.083 230.84 122.244 229.837 122.251 228.182ZM122.471 237.967V234.158H123.877V236.839H131.583V237.967H122.471ZM123.687 228.182C123.68 229.156 124.925 229.705 126.939 229.705C128.946 229.705 130.198 229.156 130.191 228.182C130.198 227.244 128.946 226.673 126.939 226.673C124.925 226.673 123.68 227.244 123.687 228.182ZM140.962 227.64C140.962 229.075 141.878 230.525 143.584 231.17L142.852 232.239C141.629 231.771 140.772 230.877 140.303 229.8C139.819 231.016 138.926 232.071 137.652 232.62L136.89 231.536C138.662 230.767 139.614 229.097 139.614 227.64V225.94H140.962V227.64ZM139.307 235.843C139.292 234.349 140.999 233.462 143.745 233.455C146.485 233.462 148.206 234.349 148.213 235.843C148.206 237.337 146.485 238.223 143.745 238.216C140.999 238.223 139.292 237.337 139.307 235.843ZM140.684 235.843C140.669 236.678 141.834 237.161 143.745 237.146C145.65 237.161 146.814 236.678 146.821 235.843C146.814 235 145.65 234.517 143.745 234.524C141.834 234.517 140.669 235 140.684 235.843ZM143.994 232.796V225.369H145.283V228.548H146.821V225.135H148.14V233.206H146.821V229.69H145.283V232.796H143.994ZM161.809 227.127V228.27H159.905V229.896H161.809V231.053H159.905V233.104H158.513V225.135H159.905V227.127H161.809ZM150.12 227.024V225.896H156.096V229.646H151.526V231.331C153.804 231.316 155.415 231.243 157.327 230.921L157.473 232.049C155.444 232.393 153.708 232.481 151.189 232.474H150.134V228.562H154.734V227.024H150.12ZM151.233 234.891V233.763H159.905V238.23H158.513V234.891H151.233ZM172.461 225.12V230.438H174.57V231.595H172.461V238.245H171.084V225.12H172.461ZM162.163 228.313V227.171H165.4V225.296H166.792V227.171H169.941V228.313H162.163ZM162.837 232.327C162.837 230.54 164.214 229.28 166.103 229.28C167.986 229.28 169.363 230.54 169.37 232.327C169.363 234.129 167.986 235.381 166.103 235.389C164.214 235.381 162.837 234.129 162.837 232.327ZM164.17 232.327C164.162 233.47 164.983 234.231 166.103 234.217C167.217 234.231 168.03 233.47 168.037 232.327C168.03 231.207 167.217 230.43 166.103 230.423C164.983 230.43 164.162 231.207 164.17 232.327ZM185.5 226.38V227.669C185.493 229.288 185.493 231.104 185.002 233.792L183.596 233.646C184.101 231.104 184.101 229.244 184.109 227.669V227.508H176.14V226.38H185.5ZM174.88 236.473V235.315H179.436V230.687H180.813V235.315H186.848V236.473H174.88ZM197.751 226.38V235.008H191.598V226.38H197.751ZM192.975 233.88H196.403V227.479H192.975V233.88ZM200.344 238.274V225.12H201.735V238.274H200.344ZM208.139 227.493C208.146 229.383 209.318 231.192 211.274 231.946L210.512 233.03C209.084 232.452 208.022 231.302 207.465 229.881C206.901 231.412 205.788 232.627 204.257 233.235L203.51 232.122C205.531 231.375 206.754 229.507 206.762 227.493V225.867H208.139V227.493ZM205.883 237.967V233.924H207.289V236.839H214.745V237.967H205.883ZM210.512 230.774V229.646H213.061V228.123H210.512V226.995H213.061V225.135H214.452V234.905H213.061V230.774H210.512ZM230.38 225.135V234.671H228.988V225.135H230.38ZM219.759 229.266C219.767 227.369 221.276 226.021 223.26 226.014C225.238 226.021 226.747 227.369 226.747 229.266C226.747 231.192 225.238 232.532 223.26 232.532C221.276 232.532 219.767 231.192 219.759 229.266ZM221.122 229.266C221.114 230.503 222.037 231.316 223.26 231.316C224.462 231.316 225.384 230.503 225.384 229.266C225.384 228.057 224.462 227.229 223.26 227.229C222.037 227.229 221.114 228.057 221.122 229.266ZM221.796 237.967V233.704H223.202V236.839H230.775V237.967H221.796ZM244.107 231.302V232.43H232.14V231.302H244.107ZM232.77 229.515C235.15 229.258 237.032 228.189 237.186 226.907H233.238V225.765H243.038V226.907H239.046C239.208 228.182 241.061 229.258 243.492 229.515L242.994 230.613C240.716 230.35 238.834 229.39 238.124 228.006C237.398 229.39 235.531 230.35 233.253 230.613L232.77 229.515ZM233.561 235.843C233.561 234.319 235.267 233.44 238.116 233.44C240.943 233.44 242.635 234.319 242.643 235.843C242.635 237.366 240.943 238.223 238.116 238.216C235.267 238.223 233.561 237.366 233.561 235.843ZM234.967 235.843C234.96 236.67 236.109 237.125 238.116 237.117C240.094 237.125 241.251 236.67 241.251 235.843C241.251 234.993 240.094 234.539 238.116 234.524C236.109 234.539 234.96 234.993 234.967 235.843ZM250.76 225.34C253.719 225.333 255.44 226.131 255.448 227.596C255.44 229.068 253.719 229.866 250.76 229.866C247.801 229.866 246.065 229.068 246.073 227.596C246.065 226.131 247.801 225.333 250.76 225.34ZM244.784 231.785V230.672H256.751V231.785H244.784ZM246.219 233.836V232.796H255.243V235.872H247.596V237.044H255.609V238.113H246.234V234.861H253.866V233.836H246.219ZM247.523 227.596C247.515 228.409 248.673 228.826 250.76 228.826C252.862 228.826 254.019 228.409 254.012 227.596C254.019 226.819 252.862 226.365 250.76 226.365C248.673 226.365 247.515 226.819 247.523 227.596ZM264.754 225.706C266.673 225.706 268.021 226.761 268.035 228.328C268.021 229.661 267.01 230.635 265.486 230.877V232.049C266.644 231.983 267.815 231.873 268.899 231.712L269.002 232.737C266.248 233.235 263.157 233.287 260.901 233.279L260.755 232.151C261.736 232.159 262.886 232.151 264.095 232.107V230.892C262.527 230.672 261.48 229.683 261.487 228.328C261.48 226.761 262.828 225.706 264.754 225.706ZM262.615 237.967V234.29H264.007V236.824H271.565V237.967H262.615ZM262.791 228.328C262.776 229.258 263.597 229.866 264.754 229.866C265.918 229.866 266.717 229.258 266.717 228.328C266.717 227.376 265.918 226.775 264.754 226.775C263.597 226.775 262.776 227.376 262.791 228.328ZM269.705 235.169V225.135H271.097V229.471H272.972V230.643H271.097V235.169H269.705ZM285.425 235.506V236.678H273.413V235.506H276.695V233.191H274.878V229.017H282.583V227.186H274.849V226.043H283.96V230.145H276.255V232.049H284.268V233.191H282.276V235.506H285.425ZM278.042 235.506H280.913V233.191H278.042V235.506ZM296.37 225.076V228.152H298.289V229.295H296.37V232.298H294.978V225.076H296.37ZM286.072 227.332V226.233H289.295V225.003H290.686V226.233H293.894V227.332H286.072ZM286.79 229.983C286.782 228.658 288.057 227.83 289.983 227.83C291.909 227.83 293.162 228.658 293.162 229.983C293.162 231.316 291.909 232.129 289.983 232.122C288.057 232.129 286.782 231.316 286.79 229.983ZM287.888 233.953V232.913H296.37V235.96H289.28V237.059H296.824V238.113H287.918V234.979H294.993V233.953H287.888ZM288.137 229.983C288.123 230.694 288.848 231.111 289.983 231.111C291.111 231.111 291.843 230.694 291.858 229.983C291.843 229.273 291.111 228.833 289.983 228.826C288.848 228.833 288.123 229.273 288.137 229.983ZM308.767 226.277C308.76 228.021 310.891 229.654 313.469 229.998L312.927 231.141C310.781 230.796 308.899 229.683 308.042 228.138C307.185 229.683 305.303 230.796 303.171 231.141L302.615 229.998C305.185 229.654 307.309 228.042 307.317 226.277V225.56H308.767V226.277ZM302.043 233.572V232.43H314.011V233.572H308.679V238.245H307.317V233.572H302.043ZM322.585 233.792C322.585 234.92 323.142 236.114 324.335 236.824C325.537 236.055 326.13 234.803 326.13 233.792V233.162H327.492V233.792C327.485 235.154 328.386 236.473 330.1 237.029L329.411 238.055C328.115 237.608 327.228 236.729 326.774 235.66C326.357 236.714 325.573 237.674 324.372 238.172C323.112 237.696 322.314 236.766 321.911 235.696C321.435 236.729 320.571 237.601 319.333 238.055L318.63 237.029C320.314 236.429 321.23 235.059 321.237 233.792V233.162H322.585V233.792ZM318.293 228.958C318.3 227.12 319.78 225.86 321.794 225.853C323.801 225.86 325.28 227.12 325.28 228.958C325.28 230.774 323.801 232.034 321.794 232.034C319.78 232.034 318.3 230.774 318.293 228.958ZM319.655 228.958C319.648 230.101 320.549 230.877 321.794 230.877C323.024 230.877 323.918 230.101 323.918 228.958C323.918 227.808 323.024 227.032 321.794 227.039C320.549 227.032 319.648 227.808 319.655 228.958ZM327.521 232.605V225.135H328.913V232.605H327.521ZM333.53 232.986V234.378H339.697V232.986H341.088V238.084H332.153V232.986H333.53ZM330.673 232.166V231.009H342.641V232.166H330.673ZM331.318 229.104C333.859 228.775 335.939 227.376 335.947 225.823V225.267H337.367V225.823C337.375 227.332 339.469 228.797 341.982 229.104L341.484 230.203C339.36 229.91 337.507 228.899 336.664 227.5C335.815 228.907 333.954 229.91 331.845 230.203L331.318 229.104ZM333.53 236.971H339.697V235.462H333.53V236.971ZM11.3818 250.12V263.245H9.99023V250.12H11.3818ZM1.28906 259.905V251.395H2.66602V258.704C4.58496 258.697 6.59912 258.528 8.70117 258.104L8.8916 259.275C6.56982 259.751 4.46045 259.913 2.3877 259.905H1.28906ZM23.3519 250.12V255.203H25.4613V256.346H23.3519V263.274H21.9603V250.12H23.3519ZM13.6839 260.008V251.38H19.8216V252.508H15.0755V258.851C17.2801 258.843 18.928 258.748 20.803 258.411L20.9788 259.583C18.9207 259.949 17.1776 260.015 14.7386 260.008H13.6839ZM27.2653 262.103C26.694 262.095 26.2179 261.634 26.2252 261.062C26.2179 260.491 26.694 260.022 27.2653 260.022C27.8292 260.022 28.298 260.491 28.3053 261.062C28.298 261.634 27.8292 262.095 27.2653 262.103ZM42.9729 251.453V252.859C42.9729 254.559 42.9729 256.397 42.4895 259.202L41.0686 259.07C41.596 256.441 41.596 254.515 41.596 252.859V252.596H33.8616V251.453H42.9729ZM32.5725 261.385V260.228H44.5403V261.385H32.5725ZM56.1441 250.12V263.274H54.7672V256.214H52.3648V255.057H54.7672V250.12H56.1441ZM45.6705 252.435V251.307H51.5885V255.994H47.0914V258.982C49.1861 258.968 50.7975 258.902 52.6285 258.572L52.7457 259.715C50.7828 260.059 49.0543 260.14 46.7398 260.154H45.6998V254.866H50.2408V252.435H45.6705ZM69.872 260.403V261.546H57.8603V260.403H69.872ZM59.2372 257.518V251.219H68.4364V257.518H59.2372ZM60.5849 256.419H67.0741V252.347H60.5849V256.419ZM82.5159 260.506V261.678H70.5041V260.506H75.7922V258.206H71.969V254.031H79.6741V252.186H71.9397V251.043H81.051V255.145H73.3459V257.063H81.3586V258.206H77.1692V260.506H82.5159ZM98.7509 255.276V256.419H96.7147V263.23H95.3231V250.12H96.7147V255.276H98.7509ZM86.9882 259.935V251.395H88.3651V258.777C90.1962 258.77 92.1078 258.616 94.1952 258.191L94.3563 259.363C92.1078 259.81 90.0424 259.942 88.0722 259.935H86.9882ZM105.74 251.38V254.837H108.699V250.12H110.076V263.274H108.699V255.965H105.74V259.964H99.6467V251.38H105.74ZM101.024 258.851H104.378V252.464H101.024V258.851ZM116.612 253.987C116.605 256.185 118.047 258.455 120.069 259.319L119.307 260.403C117.762 259.722 116.531 258.272 115.923 256.521C115.315 258.396 114.085 259.993 112.554 260.74L111.749 259.642C113.726 258.711 115.191 256.25 115.206 253.987V252.596H112.203V251.438H119.6V252.596H116.612V253.987ZM121.255 263.245V250.12H122.647V263.245H121.255ZM134.649 251.38V260.008H128.496V251.38H134.649ZM129.873 258.88H133.301V252.479H129.873V258.88ZM137.241 263.274V250.12H138.633V263.274H137.241ZM145.037 252.493C145.044 254.383 146.216 256.192 148.171 256.946L147.41 258.03C145.981 257.452 144.919 256.302 144.363 254.881C143.799 256.412 142.686 257.627 141.155 258.235L140.408 257.122C142.429 256.375 143.652 254.507 143.66 252.493V250.867H145.037V252.493ZM142.781 262.967V258.924H144.187V261.839H151.643V262.967H142.781ZM147.41 255.774V254.646H149.958V253.123H147.41V251.995H149.958V250.135H151.35V259.905H149.958V255.774H147.41ZM164.346 250.12V263.245H163.012V250.12H164.346ZM153.198 255.789C153.198 252.947 154.311 251.167 156.025 251.175C157.622 251.167 158.699 252.684 158.86 255.145H160.346V250.369H161.679V262.601H160.346V256.272H158.867C158.742 258.836 157.651 260.425 156.025 260.418C154.311 260.425 153.198 258.638 153.198 255.789ZM154.487 255.789C154.487 257.876 155.08 259.107 156.025 259.1C156.992 259.107 157.593 257.876 157.593 255.789C157.593 253.694 156.992 252.471 156.025 252.479C155.08 252.471 154.487 253.694 154.487 255.789ZM180.302 250.12V263.245H178.969V256.463H177.27V262.571H175.996V250.384H177.27V255.32H178.969V250.12H180.302ZM169.477 260.096V251.702H174.399V252.83H170.869V258.909C172.48 258.902 173.696 258.829 175.102 258.558L175.205 259.7C173.63 260.03 172.268 260.081 170.356 260.096H169.477ZM191.994 250.135V254.354H193.898V255.511H191.994V259.949H190.602V250.135H191.994ZM181.696 252.786V251.658H184.919V250.12H186.31V251.658H189.518V252.786H181.696ZM182.414 255.892C182.407 254.39 183.703 253.409 185.607 253.416C187.49 253.409 188.786 254.39 188.786 255.892C188.786 257.378 187.49 258.345 185.607 258.353C183.703 258.345 182.407 257.378 182.414 255.892ZM183.674 262.967V259.173H185.065V261.839H192.551V262.967H183.674ZM183.761 255.892C183.747 256.749 184.494 257.276 185.607 257.269C186.72 257.276 187.468 256.749 187.482 255.892C187.468 255.027 186.72 254.493 185.607 254.485C184.494 254.493 183.747 255.027 183.761 255.892ZM208.551 250.135V259.671H207.16V250.135H208.551ZM197.931 254.266C197.938 252.369 199.447 251.021 201.432 251.014C203.41 251.021 204.918 252.369 204.918 254.266C204.918 256.192 203.41 257.532 201.432 257.532C199.447 257.532 197.938 256.192 197.931 254.266ZM199.293 254.266C199.286 255.503 200.209 256.316 201.432 256.316C202.633 256.316 203.556 255.503 203.556 254.266C203.556 253.057 202.633 252.229 201.432 252.229C200.209 252.229 199.286 253.057 199.293 254.266ZM199.967 262.967V258.704H201.373V261.839H208.947V262.967H199.967ZM222.279 256.302V257.43H210.311V256.302H222.279ZM210.941 254.515C213.322 254.258 215.204 253.189 215.358 251.907H211.41V250.765H221.21V251.907H217.218C217.379 253.182 219.232 254.258 221.664 254.515L221.166 255.613C218.888 255.35 217.006 254.39 216.295 253.006C215.57 254.39 213.702 255.35 211.425 255.613L210.941 254.515ZM211.732 260.843C211.732 259.319 213.439 258.44 216.288 258.44C219.115 258.44 220.807 259.319 220.814 260.843C220.807 262.366 219.115 263.223 216.288 263.216C213.439 263.223 211.732 262.366 211.732 260.843ZM213.138 260.843C213.131 261.67 214.281 262.125 216.288 262.117C218.265 262.125 219.423 261.67 219.423 260.843C219.423 259.993 218.265 259.539 216.288 259.524C214.281 259.539 213.131 259.993 213.138 260.843ZM238.309 260.491V261.678H226.297V260.491H231.571V257.693H227.352V256.595H229.315V252.464H227.323V251.336H237.21V252.464H235.203V256.595H237.166V257.693H232.948V260.491H238.309ZM230.692 256.595H233.841V252.464H230.692V256.595ZM249.825 250.135V259.671H248.433V250.135H249.825ZM239.205 254.266C239.212 252.369 240.721 251.021 242.706 251.014C244.683 251.021 246.192 252.369 246.192 254.266C246.192 256.192 244.683 257.532 242.706 257.532C240.721 257.532 239.212 256.192 239.205 254.266ZM240.567 254.266C240.56 255.503 241.483 256.316 242.706 256.316C243.907 256.316 244.83 255.503 244.83 254.266C244.83 253.057 243.907 252.229 242.706 252.229C241.483 252.229 240.56 253.057 240.567 254.266ZM241.241 262.967V258.704H242.647V261.839H250.22V262.967H241.241ZM262.234 257.107V258.221H253.094V251.204H262.103V252.332H254.5V254.104H261.824V255.203H254.5V257.107H262.234ZM251.585 261.59V260.447H263.597V261.59H251.585ZM276.226 256.141V257.21H264.214V256.141H276.226ZM265.635 259.129V258.133H274.746V261.019H267.041V262.103H275.157V263.084H265.65V260.096H273.369V259.129H265.635ZM265.723 251.438V250.457H274.717V253.299H267.129V254.295H274.937V255.276H265.752V252.376H273.326V251.438H265.723ZM284.917 252.449C284.91 254.104 286.096 255.723 288.081 256.404L287.363 257.488C285.891 256.983 284.8 255.928 284.228 254.632C283.657 256.075 282.507 257.232 280.947 257.781L280.229 256.683C282.244 255.994 283.503 254.244 283.496 252.464V252.098H280.654V250.97H287.729V252.098H284.917V252.449ZM282.266 259.759V258.631H291.157V263.245H289.766V259.759H282.266ZM287.334 254.603V253.46H289.766V250.12H291.157V257.972H289.766V254.603H287.334ZM303.742 250.135V257.371H302.351V250.135H303.742ZM293.518 251.878V250.75H299.553V254.412H294.909V255.965C297.209 255.958 298.887 255.899 300.886 255.569L301.062 256.697C298.916 257.049 297.129 257.107 294.646 257.122H293.547V253.328H298.176V251.878H293.518ZM295.129 263.084V257.986H296.521V259.407H302.366V257.986H303.742V263.084H295.129ZM296.521 261.956H302.366V260.506H296.521V261.956ZM319.157 250.12V253.226H321.061V254.383H319.157V257.781H317.766V250.12H319.157ZM309.357 257.02V250.867H310.72V252.771H314.162V250.867H315.539V257.02H309.357ZM310.72 255.921H314.162V253.87H310.72V255.921ZM310.793 263.055V258.47H319.26V259.583H312.184V261.956H319.494V263.055H310.793ZM327.465 250.34C330.424 250.333 332.145 251.131 332.153 252.596C332.145 254.068 330.424 254.866 327.465 254.866C324.506 254.866 322.77 254.068 322.778 252.596C322.77 251.131 324.506 250.333 327.465 250.34ZM321.489 256.785V255.672H333.456V256.785H321.489ZM322.924 258.836V257.796H331.948V260.872H324.301V262.044H332.314V263.113H322.939V259.861H330.571V258.836H322.924ZM324.228 252.596C324.22 253.409 325.378 253.826 327.465 253.826C329.567 253.826 330.724 253.409 330.717 252.596C330.724 251.819 329.567 251.365 327.465 251.365C325.378 251.365 324.22 251.819 324.228 252.596ZM344.198 251.277C344.191 253.021 346.322 254.654 348.9 254.998L348.358 256.141C346.212 255.796 344.33 254.683 343.473 253.138C342.616 254.683 340.734 255.796 338.602 256.141L338.046 254.998C340.617 254.654 342.741 253.042 342.748 251.277V250.56H344.198V251.277ZM337.474 258.572V257.43H349.442V258.572H344.11V263.245H342.748V258.572H337.474ZM5.03906 283.792C5.03906 284.92 5.5957 286.114 6.78955 286.824C7.99072 286.055 8.58398 284.803 8.58398 283.792V283.162H9.94629V283.792C9.93896 285.154 10.8398 286.473 12.5537 287.029L11.8652 288.055C10.5688 287.608 9.68262 286.729 9.22852 285.66C8.81104 286.714 8.02734 287.674 6.82617 288.172C5.56641 287.696 4.76807 286.766 4.36523 285.696C3.88916 286.729 3.0249 287.601 1.78711 288.055L1.08398 287.029C2.76855 286.429 3.68408 285.059 3.69141 283.792V283.162H5.03906V283.792ZM0.74707 278.958C0.754395 277.12 2.23389 275.86 4.24805 275.853C6.25488 275.86 7.73438 277.12 7.73438 278.958C7.73438 280.774 6.25488 282.034 4.24805 282.034C2.23389 282.034 0.754395 280.774 0.74707 278.958ZM2.10938 278.958C2.10205 280.101 3.00293 280.877 4.24805 280.877C5.47852 280.877 6.37207 280.101 6.37207 278.958C6.37207 277.808 5.47852 277.032 4.24805 277.039C3.00293 277.032 2.10205 277.808 2.10938 278.958ZM9.97559 282.605V275.135H11.3672V282.605H9.97559ZM23.3519 275.12V280.203H25.4613V281.346H23.3519V288.274H21.9603V275.12H23.3519ZM13.6839 285.008V276.38H19.8216V277.508H15.0755V283.851C17.2801 283.843 18.928 283.748 20.803 283.411L20.9788 284.583C18.9207 284.949 17.1776 285.015 14.7386 285.008H13.6839ZM36.3913 278.958V280.071H27.3532V275.589H28.7301V278.958H36.3913ZM25.7565 282.84V281.727H37.7682V282.84H25.7565ZM27.2506 287.938V284.085H28.6422V286.795H36.4791V287.938H27.2506ZM52.6995 275.12V282.767H51.3079V279.471H48.847V278.313H51.3079V275.12H52.6995ZM41.7718 281.595C43.7859 280.906 45.0457 279.156 45.0384 277.361V277.054H42.1966V275.911H49.2718V277.054H46.4593V277.361C46.4519 278.995 47.6385 280.628 49.6233 281.316L48.9055 282.415C47.4334 281.902 46.3421 280.848 45.7708 279.544C45.1995 280.994 44.0496 282.144 42.4895 282.693L41.7718 281.595ZM44.0423 288.084V283.382H52.6995V288.084H44.0423ZM45.4192 286.956H51.3372V284.48H45.4192V286.956ZM62.3427 277.83C62.3427 279.346 63.5292 280.752 65.5361 281.331L64.8915 282.415C63.3754 281.976 62.2548 281.045 61.6689 279.852C61.0903 281.163 59.9477 282.181 58.3876 282.664L57.7138 281.58C59.7206 280.987 60.9657 279.493 60.9657 277.83V277.698H58.1093V276.585H60.9657V275.062H62.3573V276.585H65.1991V277.698H62.3427V277.83ZM59.6767 288.084V283.455H68.0556V288.084H59.6767ZM61.039 286.956H66.6786V284.554H61.039V286.956ZM66.664 282.869V275.12H68.0556V278.372H69.9599V279.529H68.0556V282.869H66.664ZM81.0071 276.38V277.669C80.9997 279.288 80.9997 281.104 80.509 283.792L79.1028 283.646C79.6081 281.104 79.6081 279.244 79.6155 277.669V277.508H71.6467V276.38H81.0071ZM70.387 286.473V285.315H74.9426V280.687H76.3196V285.315H82.3547V286.473H70.387ZM98.37 282.84V283.938H93.0087V288.245H91.6464V283.938H86.3583V282.84H98.37ZM87.8524 281.346V275.647H89.2294V277.361H95.4696V275.647H96.8612V281.346H87.8524ZM89.2294 280.232H95.4696V278.475H89.2294V280.232ZM105.682 275.999V277.127H100.98V278.636H105.433V279.72H100.98V281.302C103.389 281.302 104.825 281.229 106.502 280.936L106.649 282.049C104.854 282.364 103.309 282.43 100.613 282.415H99.5881V275.999H105.682ZM100.657 284.803V283.675H109.329V288.245H107.938V284.803H100.657ZM107.938 283.074V275.12H109.329V278.519H111.234V279.69H109.329V283.074H107.938ZM122.295 281.346V282.488H113.155V276.292H122.178V277.435H114.532V281.346H122.295ZM111.661 286.517V285.359H123.672V286.517H111.661ZM135.188 275.135V282.371H133.797V275.135H135.188ZM124.964 276.878V275.75H130.999V279.412H126.355V280.965C128.655 280.958 130.332 280.899 132.332 280.569L132.508 281.697C130.362 282.049 128.575 282.107 126.092 282.122H124.993V278.328H129.622V276.878H124.964ZM126.575 288.084V282.986H127.967V284.407H133.811V282.986H135.188V288.084H126.575ZM127.967 286.956H133.811V285.506H127.967V286.956ZM147.847 275.12V288.245H146.455V275.12H147.847ZM137.754 284.905V276.395H139.131V283.704C141.05 283.697 143.064 283.528 145.166 283.104L145.357 284.275C143.035 284.751 140.925 284.913 138.853 284.905H137.754ZM159.817 275.12V280.203H161.926V281.346H159.817V288.274H158.425V275.12H159.817ZM150.149 285.008V276.38H156.287V277.508H151.541V283.851C153.745 283.843 155.393 283.748 157.268 283.411L157.444 284.583C155.386 284.949 153.643 285.015 151.204 285.008H150.149ZM163.73 287.103C163.159 287.095 162.683 286.634 162.69 286.062C162.683 285.491 163.159 285.022 163.73 285.022C164.294 285.022 164.763 285.491 164.77 286.062C164.763 286.634 164.294 287.095 163.73 287.103Z" fill="#262626"/>
</svg>
