<svg width="350" height="64" viewBox="0 0 350 64" fill="none" xmlns="http://www.w3.org/2000/svg">
<path d="M10.7959 0.120117V3.35742H12.7002V4.5293H10.7959V7.7959H9.4043V0.120117H10.7959ZM0.410156 6.60938C3.55957 5.78174 5.42725 4.11914 5.66895 2.05371H1.04004V0.925781H7.16309C7.15576 4.30225 4.87793 6.67529 0.981445 7.67871L0.410156 6.60938ZM2.12402 9.49512V8.36719H10.7959V13.2451H9.4043V9.49512H2.12402ZM23.3541 1.37988V10.0078H17.2018V1.37988H23.3541ZM18.5787 8.87988H22.0065V2.47852H18.5787V8.87988ZM25.9469 13.2744V0.120117H27.3385V13.2744H25.9469ZM33.7421 2.49316C33.7495 4.38281 34.9213 6.19189 36.8769 6.94629L36.1152 8.03027C34.687 7.45166 33.625 6.30176 33.0683 4.88086C32.5044 6.41162 31.3911 7.62744 29.8603 8.23535L29.1132 7.12207C31.1347 6.375 32.3579 4.50732 32.3652 2.49316V0.867188H33.7421V2.49316ZM31.4863 12.9668V8.92383H32.8925V11.8389H40.3486V12.9668H31.4863ZM36.1152 5.77441V4.64648H38.664V3.12305H36.1152V1.99512H38.664V0.134766H40.0556V9.90527H38.664V5.77441H36.1152ZM48.3929 1.42383V9.94922H42.2552V1.42383H48.3929ZM43.6175 8.82129H47.0159V2.52246H43.6175V8.82129ZM50.5901 13.2451V0.120117H51.9817V5.26172H54.0911V6.43359H51.9817V13.2451H50.5901ZM64.6256 0.120117V5.20312H66.735V6.3457H64.6256V13.2744H63.234V0.120117H64.6256ZM54.9576 10.0078V1.37988H61.0953V2.50781H56.3492V8.85059C58.5538 8.84326 60.2018 8.74805 62.0768 8.41113L62.2525 9.58301C60.1944 9.94922 58.4513 10.0151 56.0123 10.0078H54.9576ZM74.8694 1.39453V12H73.2434V3.00586H73.1848L70.6506 4.66113V3.12305L73.2873 1.39453H74.8694ZM80.9361 12.1465C78.4825 12.1465 77.0396 10.1689 77.0396 6.69727C77.0396 3.24756 78.4971 1.24805 80.9361 1.24805C83.3677 1.24805 84.8253 3.24756 84.8326 6.69727C84.8253 10.1689 83.3897 12.1465 80.9361 12.1465ZM78.6509 6.69727C78.6436 9.34131 79.5005 10.7549 80.9361 10.7549C82.3643 10.7549 83.2213 9.34131 83.2213 6.69727C83.2213 4.06055 82.357 2.61768 80.9361 2.61035C79.5079 2.61768 78.6509 4.06055 78.6509 6.69727ZM89.8739 12.1465C87.4203 12.1465 85.9774 10.1689 85.9774 6.69727C85.9774 3.24756 87.4349 1.24805 89.8739 1.24805C92.3055 1.24805 93.7631 3.24756 93.7704 6.69727C93.7631 10.1689 92.3275 12.1465 89.8739 12.1465ZM87.5888 6.69727C87.5814 9.34131 88.4384 10.7549 89.8739 10.7549C91.3021 10.7549 92.1591 9.34131 92.1591 6.69727C92.1591 4.06055 91.2948 2.61768 89.8739 2.61035C88.4457 2.61768 87.5888 4.06055 87.5888 6.69727ZM106.678 10.4912V11.6777H94.6662V10.4912H99.9397V7.69336H95.7209V6.59473H97.6838V2.46387H95.6916V1.33594H105.579V2.46387H103.572V6.59473H105.535V7.69336H101.317V10.4912H106.678ZM99.0607 6.59473H102.21V2.46387H99.0607V6.59473ZM118.194 0.134766V9.6709H116.802V0.134766H118.194ZM107.574 4.26562C107.581 2.36865 109.09 1.021 111.075 1.01367C113.052 1.021 114.561 2.36865 114.561 4.26562C114.561 6.19189 113.052 7.53223 111.075 7.53223C109.09 7.53223 107.581 6.19189 107.574 4.26562ZM108.936 4.26562C108.929 5.50342 109.852 6.31641 111.075 6.31641C112.276 6.31641 113.199 5.50342 113.199 4.26562C113.199 3.05713 112.276 2.22949 111.075 2.22949C109.852 2.22949 108.929 3.05713 108.936 4.26562ZM109.61 12.9668V8.7041H111.016V11.8389H118.589V12.9668H109.61ZM130.603 7.10742V8.2207H121.463V1.2041H130.472V2.33203H122.869V4.10449H130.193V5.20312H122.869V7.10742H130.603ZM119.954 11.5898V10.4473H131.966V11.5898H119.954ZM142.822 0.120117V5.34961H144.859V6.50684H142.822V13.2305H141.431V0.120117H142.822ZM132.612 9.72949C135.901 8.08887 137.688 5.71582 137.974 2.6543H133.272V1.49707H139.395C139.38 5.29102 137.71 8.68213 133.389 10.8135L132.612 9.72949ZM153.286 2.44922C153.279 4.10449 154.465 5.72314 156.45 6.4043L155.732 7.48828C154.26 6.98291 153.169 5.92822 152.597 4.63184C152.026 6.07471 150.876 7.23193 149.316 7.78125L148.598 6.68262C150.613 5.99414 151.872 4.24365 151.865 2.46387V2.09766H149.023V0.969727H156.098V2.09766H153.286V2.44922ZM150.635 9.75879V8.63086H159.526V13.2451H158.135V9.75879H150.635ZM155.703 4.60254V3.45996H158.135V0.120117H159.526V7.97168H158.135V4.60254H155.703ZM172.111 0.134766V7.37109H170.72V0.134766H172.111ZM161.887 1.87793V0.75H167.922V4.41211H163.278V5.96484C165.578 5.95752 167.255 5.89893 169.255 5.56934L169.431 6.69727C167.285 7.04883 165.498 7.10742 163.015 7.12207H161.916V3.32812H166.545V1.87793H161.887ZM163.498 13.084V7.98633H164.89V9.40723H170.734V7.98633H172.111V13.084H163.498ZM164.89 11.9561H170.734V10.5059H164.89V11.9561ZM184.785 0.134766V7.69336H183.378V0.134766H184.785ZM173.901 6.30176C174.992 6.30176 176.252 6.29443 177.563 6.25781V4.96875H175.073V0.75H181.342V1.89258H176.464V3.87012H181.459V4.96875H178.94V6.19922C180.104 6.14062 181.284 6.05273 182.382 5.90625L182.456 6.8877C179.614 7.37109 176.457 7.41504 174.106 7.42969L173.901 6.30176ZM176.025 13.084V8.26465H177.416V9.52441H183.408V8.26465H184.785V13.084H176.025ZM177.416 11.9561H183.408V10.5938H177.416V11.9561ZM197.414 0.120117V13.2451H196.022V0.120117H197.414ZM187.321 9.90527V1.39453H188.698V8.7041C190.617 8.69678 192.631 8.52832 194.733 8.10352L194.924 9.27539C192.602 9.75146 190.492 9.9126 188.42 9.90527H187.321ZM209.384 0.120117V5.20312H211.493V6.3457H209.384V13.2744H207.992V0.120117H209.384ZM199.716 10.0078V1.37988H205.854V2.50781H201.107V8.85059C203.312 8.84326 204.96 8.74805 206.835 8.41113L207.011 9.58301C204.953 9.94922 203.21 10.0151 200.771 10.0078H199.716ZM213.297 12.1025C212.726 12.0952 212.25 11.6338 212.257 11.0625C212.25 10.4912 212.726 10.0225 213.297 10.0225C213.861 10.0225 214.33 10.4912 214.337 11.0625C214.33 11.6338 213.861 12.0952 213.297 12.1025ZM228.829 0.120117V5.4375H230.939V6.59473H228.829V13.2451H227.452V0.120117H228.829ZM218.531 3.31348V2.1709H221.769V0.295898H223.16V2.1709H226.31V3.31348H218.531ZM219.205 7.32715C219.205 5.54004 220.582 4.28027 222.472 4.28027C224.354 4.28027 225.731 5.54004 225.738 7.32715C225.731 9.12891 224.354 10.3813 222.472 10.3887C220.582 10.3813 219.205 9.12891 219.205 7.32715ZM220.538 7.32715C220.531 8.46973 221.351 9.23145 222.472 9.2168C223.585 9.23145 224.398 8.46973 224.405 7.32715C224.398 6.20654 223.585 5.43018 222.472 5.42285C221.351 5.43018 220.531 6.20654 220.538 7.32715ZM241.825 0.603516V4.17773H234.09V5.68652H242.103V6.81445H232.699V3.1084H240.404V1.73145H232.655V0.603516H241.825ZM231.234 9.17285V8.05957H243.245V9.17285H237.913V13.2744H236.522V9.17285H231.234ZM255.186 0.120117V13.2451H253.853V0.120117H255.186ZM244.039 5.78906C244.039 2.94727 245.152 1.16748 246.866 1.1748C248.463 1.16748 249.539 2.68359 249.7 5.14453H251.187V0.369141H252.52V12.6006H251.187V6.27246H249.708C249.583 8.83594 248.492 10.4253 246.866 10.418C245.152 10.4253 244.039 8.63818 244.039 5.78906ZM245.328 5.78906C245.328 7.87646 245.921 9.10693 246.866 9.09961C247.833 9.10693 248.433 7.87646 248.433 5.78906C248.433 3.69434 247.833 2.47119 246.866 2.47852C245.921 2.47119 245.328 3.69434 245.328 5.78906ZM266.602 1.27734C266.595 3.02051 268.726 4.65381 271.304 4.99805L270.762 6.14062C268.616 5.79639 266.734 4.68311 265.877 3.1377C265.02 4.68311 263.138 5.79639 261.006 6.14062L260.45 4.99805C263.02 4.65381 265.144 3.04248 265.152 1.27734V0.55957H266.602V1.27734ZM259.878 8.57227V7.42969H271.846V8.57227H266.514V13.2451H265.152V8.57227H259.878ZM283.714 0.120117V8.39648H282.395V4.73438H280.872V7.94238H279.568V0.369141H280.872V3.5918H282.395V0.120117H283.714ZM272.449 2.71289V1.61426H275.1V0.222656H276.477V1.61426H279.085V2.71289H272.449ZM272.962 5.58398C272.962 4.22168 274.133 3.32812 275.774 3.32812C277.451 3.32812 278.616 4.22168 278.616 5.58398C278.616 6.94629 277.451 7.83984 275.774 7.83984C274.133 7.83984 272.962 6.94629 272.962 5.58398ZM274.207 5.58398C274.207 6.33105 274.844 6.82178 275.774 6.8291C276.719 6.82178 277.363 6.33105 277.356 5.58398C277.363 4.83691 276.719 4.34619 275.774 4.35352C274.844 4.34619 274.207 4.83691 274.207 5.58398ZM274.88 10.916C274.866 9.4292 276.536 8.58691 279.319 8.58691C282.109 8.58691 283.779 9.4292 283.787 10.916C283.779 12.3882 282.109 13.2231 279.319 13.2158C276.536 13.2231 274.866 12.3882 274.88 10.916ZM276.257 10.916C276.243 11.707 277.371 12.1611 279.319 12.1465C281.275 12.1611 282.388 11.707 282.395 10.916C282.388 10.0884 281.275 9.64893 279.319 9.65625C277.371 9.64893 276.243 10.0884 276.257 10.916ZM295.478 0.0761719V3.15234H297.397V4.29492H295.478V7.29785H294.087V0.0761719H295.478ZM285.181 2.33203V1.2334H288.403V0.00292969H289.795V1.2334H293.003V2.33203H285.181ZM285.898 4.9834C285.891 3.65771 287.165 2.83008 289.092 2.83008C291.018 2.83008 292.27 3.65771 292.27 4.9834C292.27 6.31641 291.018 7.12939 289.092 7.12207C287.165 7.12939 285.891 6.31641 285.898 4.9834ZM286.997 8.95312V7.91309H295.478V10.96H288.389V12.0586H295.933V13.1133H287.026V9.97852H294.102V8.95312H286.997ZM287.246 4.9834C287.231 5.69385 287.957 6.11133 289.092 6.11133C290.22 6.11133 290.952 5.69385 290.967 4.9834C290.952 4.27295 290.22 3.8335 289.092 3.82617C287.957 3.8335 287.231 4.27295 287.246 4.9834ZM307.876 1.27734C307.868 3.02051 310 4.65381 312.578 4.99805L312.036 6.14062C309.89 5.79639 308.007 4.68311 307.15 3.1377C306.294 4.68311 304.411 5.79639 302.28 6.14062L301.723 4.99805C304.294 4.65381 306.418 3.04248 306.425 1.27734V0.55957H307.876V1.27734ZM301.152 8.57227V7.42969H313.12V8.57227H307.788V13.2451H306.425V8.57227H301.152ZM321.694 8.79199C321.694 9.91992 322.25 11.1138 323.444 11.8242C324.645 11.0552 325.239 9.80273 325.239 8.79199V8.16211H326.601V8.79199C326.594 10.1543 327.494 11.4727 329.208 12.0293L328.52 13.0547C327.223 12.6079 326.337 11.729 325.883 10.6597C325.466 11.7144 324.682 12.6738 323.481 13.1719C322.221 12.6958 321.423 11.7656 321.02 10.6963C320.544 11.729 319.679 12.6006 318.442 13.0547L317.739 12.0293C319.423 11.4287 320.339 10.0591 320.346 8.79199V8.16211H321.694V8.79199ZM317.402 3.95801C317.409 2.11963 318.888 0.859863 320.903 0.852539C322.909 0.859863 324.389 2.11963 324.389 3.95801C324.389 5.77441 322.909 7.03418 320.903 7.03418C318.888 7.03418 317.409 5.77441 317.402 3.95801ZM318.764 3.95801C318.757 5.10059 319.657 5.87695 320.903 5.87695C322.133 5.87695 323.027 5.10059 323.027 3.95801C323.027 2.80811 322.133 2.03174 320.903 2.03906C319.657 2.03174 318.757 2.80811 318.764 3.95801ZM326.63 7.60547V0.134766H328.022V7.60547H326.63ZM340.402 3.95801V5.07129H331.364V0.588867H332.741V3.95801H340.402ZM329.767 7.83984V6.72656H341.779V7.83984H329.767ZM331.261 12.9375V9.08496H332.653V11.7949H340.49V12.9375H331.261ZM7.36816 26.3799V35.0078H1.21582V26.3799H7.36816ZM2.59277 33.8799H6.02051V27.4785H2.59277V33.8799ZM9.96094 38.2744V25.1201H11.3525V38.2744H9.96094ZM17.7562 27.4932C17.7635 29.3828 18.9354 31.1919 20.8909 31.9463L20.1292 33.0303C18.701 32.4517 17.639 31.3018 17.0823 29.8809C16.5184 31.4116 15.4051 32.6274 13.8743 33.2354L13.1273 32.1221C15.1488 31.375 16.3719 29.5073 16.3792 27.4932V25.8672H17.7562V27.4932ZM15.5003 37.9668V33.9238H16.9066V36.8389H24.3626V37.9668H15.5003ZM20.1292 30.7744V29.6465H22.678V28.123H20.1292V26.9951H22.678V25.1348H24.0696V34.9053H22.678V30.7744H20.1292ZM37.7389 31.9756V33.0889H25.7711V31.9756H37.7389ZM27.0602 28.1816C27.0529 26.5337 28.8913 25.5522 31.7477 25.5596C34.5895 25.5522 36.4279 26.5337 36.4352 28.1816C36.4279 29.8369 34.5895 30.8403 31.7477 30.8477C28.8913 30.8403 27.0529 29.8369 27.0602 28.1816ZM27.2799 37.9668V34.1582H28.6862V36.8389H36.3913V37.9668H27.2799ZM28.4957 28.1816C28.4884 29.1558 29.7335 29.7051 31.7477 29.7051C33.7545 29.7051 35.007 29.1558 34.9996 28.1816C35.007 27.2441 33.7545 26.6729 31.7477 26.6729C29.7335 26.6729 28.4884 27.2441 28.4957 28.1816ZM46.8401 32.0928V34.3633C48.0413 34.2974 49.2571 34.1948 50.3997 34.0264L50.5022 35.0518C47.5359 35.6011 44.3499 35.623 42.0061 35.623L41.8304 34.4805C42.885 34.4731 44.1375 34.4658 45.4485 34.4219V32.0928H46.8401ZM42.1819 31.4629C44.1375 30.8989 45.3606 29.5293 45.4339 27.918H42.5335V26.79H45.4485V25.2227H46.8401V26.79H49.7845V27.918H46.8401C46.9134 29.4634 48.1585 30.7891 50.1214 31.3164L49.4768 32.4004C47.9095 31.9536 46.7376 31.0015 46.1443 29.7563C45.573 31.0674 44.4158 32.0708 42.8411 32.5176L42.1819 31.4629ZM51.22 38.2744V25.1201H52.6116V38.2744H51.22ZM65.6656 25.1201V38.2451H64.3326V31.4629H62.6334V37.5713H61.359V25.3838H62.6334V30.3203H64.3326V25.1201H65.6656ZM54.8404 35.0957V26.7021H59.7623V27.8301H56.232V33.9092C57.8434 33.9019 59.0592 33.8286 60.4654 33.5576L60.568 34.7002C58.9933 35.0298 57.631 35.0811 55.7193 35.0957H54.8404ZM74.8694 26.3945V37H73.2434V28.0059H73.1848L70.6506 29.6611V28.123L73.2873 26.3945H74.8694ZM80.9361 37.1465C78.4825 37.1465 77.0396 35.1689 77.0396 31.6973C77.0396 28.2476 78.4971 26.248 80.9361 26.248C83.3677 26.248 84.8253 28.2476 84.8326 31.6973C84.8253 35.1689 83.3897 37.1465 80.9361 37.1465ZM78.6509 31.6973C78.6436 34.3413 79.5005 35.7549 80.9361 35.7549C82.3643 35.7549 83.2213 34.3413 83.2213 31.6973C83.2213 29.0605 82.357 27.6177 80.9361 27.6104C79.5079 27.6177 78.6509 29.0605 78.6509 31.6973ZM96.9638 25.1201V38.2451H95.6307V31.4336H94.0048V37.6152H92.7011V25.4717H94.0048V30.3057H95.6307V25.1201H96.9638ZM85.6845 34.4951C88.5995 32.8398 89.8226 30.606 90.0424 27.9326H86.2411V26.79H91.3973C91.39 30.2397 90.2474 33.3452 86.4901 35.4619L85.6845 34.4951ZM109.241 25.1201V38.2744H107.85V25.1201H109.241ZM98.8264 30.7012C98.8264 27.896 100.24 26.1089 102.225 26.1016C104.173 26.1089 105.609 27.896 105.609 30.7012C105.609 33.5356 104.173 35.3228 102.225 35.3154C100.24 35.3228 98.8264 33.5356 98.8264 30.7012ZM100.174 30.7012C100.167 32.7886 101.002 34.0703 102.225 34.0703C103.426 34.0703 104.261 32.7886 104.261 30.7012C104.261 28.6431 103.426 27.354 102.225 27.3467C101.002 27.354 100.167 28.6431 100.174 30.7012ZM123.028 35.4033V36.5459H111.016V35.4033H123.028ZM112.393 32.5176V26.2188H121.592V32.5176H112.393ZM113.741 31.4189H120.23V27.3467H113.741V31.4189ZM135.672 35.5059V36.6777H123.66V35.5059H128.948V33.2061H125.125V29.0312H132.83V27.1855H125.096V26.043H134.207V30.1445H126.502V32.0635H134.514V33.2061H130.325V35.5059H135.672ZM138.662 35.9893L137.49 40.0322H136.245L137.022 35.9893H138.662ZM147.72 28.46C147.705 30.7817 149.06 33.1621 151.015 34.1143L150.151 35.2275C148.723 34.4805 147.617 33.0156 147.038 31.2651C146.452 33.1255 145.303 34.7002 143.808 35.4766L142.944 34.3486C144.958 33.3818 146.321 30.8623 146.328 28.46V26.2188H147.72V28.46ZM151.997 38.2451V25.1201H153.388V30.3496H155.498V31.5361H153.388V38.2451H151.997ZM167.776 31.5215V32.6494H155.808V31.5215H158.679V29.7563C157.661 29.3462 157.089 28.687 157.097 27.8154C157.089 26.2554 158.899 25.3472 161.784 25.3545C164.663 25.3472 166.464 26.2554 166.472 27.8154C166.464 28.687 165.893 29.3462 164.875 29.7637V31.5215H167.776ZM157.229 35.8721C157.229 34.3706 158.928 33.543 161.784 33.543C164.604 33.543 166.303 34.3706 166.311 35.8721C166.303 37.3882 164.604 38.2158 161.784 38.2158C158.928 38.2158 157.229 37.3882 157.229 35.8721ZM158.532 27.8154C158.525 28.6943 159.741 29.1851 161.784 29.1924C163.813 29.1851 165.044 28.6943 165.036 27.8154C165.044 26.9365 163.813 26.4312 161.784 26.4238C159.741 26.4312 158.525 26.9365 158.532 27.8154ZM158.635 35.8721C158.628 36.6924 159.777 37.1611 161.784 37.1465C163.762 37.1611 164.919 36.6924 164.919 35.8721C164.919 35.0664 163.762 34.6123 161.784 34.6123C159.777 34.6123 158.628 35.0664 158.635 35.8721ZM160.085 31.5215H163.498V30.1226C162.985 30.2031 162.407 30.2471 161.784 30.2471C161.169 30.2471 160.598 30.2031 160.085 30.1299V31.5215ZM173.022 28.9873C173.015 31.0601 174.384 33.3745 176.376 34.3193L175.585 35.4033C174.113 34.7002 172.941 33.2207 172.348 31.5068C171.747 33.3745 170.517 34.9932 169.023 35.7402L168.203 34.6416C170.195 33.6821 171.638 31.2065 171.645 28.9873V27.5957H168.686V26.4385H175.878V27.5957H173.022V28.9873ZM177.285 38.2451V25.1201H178.676V30.3203H180.786V31.4922H178.676V38.2451H177.285ZM191.32 25.1201V30.3496H193.356V31.5068H191.32V38.2305H189.928V25.1201H191.32ZM181.11 34.7295C184.399 33.0889 186.186 30.7158 186.471 27.6543H181.769V26.4971H187.892C187.878 30.291 186.208 33.6821 181.886 35.8135L181.11 34.7295ZM197.536 37V35.8281L201.212 32.1221C202.377 30.9136 202.955 30.2397 202.955 29.3096C202.955 28.2622 202.106 27.5957 200.993 27.5957C199.813 27.5957 199.066 28.3428 199.059 29.4707H197.536C197.521 27.5298 199 26.248 201.022 26.248C203.065 26.248 204.479 27.5444 204.494 29.2656C204.479 30.4521 203.922 31.397 201.93 33.3525L199.777 35.5352V35.623H204.669V37H197.536ZM215.995 25.1201V28.4746H217.899V29.6172H215.995V33.0303H214.603V25.1201H215.995ZM206.195 32.1953V25.9404H207.557V27.9033H211V25.9404H212.377V32.1953H206.195ZM207.323 34.8174V33.6895H215.995V38.2451H214.603V34.8174H207.323ZM207.557 31.082H211V29.002H207.557V31.082ZM225.887 37.1465C223.69 37.1465 222.13 35.9673 222.064 34.2314H223.704C223.763 35.1616 224.686 35.7549 225.872 35.7549C227.154 35.7549 228.084 35.0591 228.084 34.0264C228.084 32.979 227.213 32.2319 225.697 32.2246H224.788V30.9062H225.697C226.905 30.9136 227.747 30.2397 227.747 29.2217C227.747 28.2549 227.022 27.5957 225.902 27.5957C224.84 27.5957 223.888 28.189 223.851 29.1484H222.298C222.342 27.4199 223.939 26.248 225.916 26.248C228.004 26.248 229.315 27.5664 229.3 29.1338C229.315 30.3423 228.568 31.2065 227.425 31.4922V31.5654C228.875 31.7705 229.718 32.7446 229.71 34.085C229.718 35.8501 228.084 37.1465 225.887 37.1465ZM234.429 25.5596C236.407 25.5742 237.864 26.7827 237.872 28.5039C237.864 30.2324 236.407 31.4336 234.429 31.4336C232.43 31.4336 230.98 30.2324 230.972 28.5039C230.98 26.7827 232.43 25.5742 234.429 25.5596ZM232.335 28.5039C232.327 29.5879 233.221 30.3057 234.429 30.3057C235.631 30.3057 236.524 29.5879 236.524 28.5039C236.524 27.4346 235.631 26.7168 234.429 26.7314C233.221 26.7168 232.327 27.4346 232.335 28.5039ZM232.965 33.5137V32.4004H241.592V35.7109H234.356V36.9707H242.032V38.084H233.008V34.6709H240.216V33.5137H232.965ZM240.201 31.7998V25.1201H241.592V31.7998H240.201ZM250.254 26.1016C251.455 26.1089 252.437 26.79 253.015 27.9766H256.26V25.1201H257.637V38.2744H256.26V33.2354H253.111C252.547 34.5537 251.521 35.3228 250.254 35.3154C248.299 35.3228 246.914 33.5356 246.929 30.7012C246.914 27.896 248.299 26.1089 250.254 26.1016ZM248.247 30.7012C248.255 32.7886 249.068 34.0703 250.254 34.0703C251.441 34.0703 252.254 32.7886 252.261 30.7012C252.254 28.6431 251.441 27.354 250.254 27.3467C249.068 27.354 248.255 28.6431 248.247 30.7012ZM253.411 29.1191C253.513 29.6025 253.579 30.1299 253.579 30.7012C253.579 31.1992 253.535 31.6606 253.448 32.0928H256.26V29.1191H253.411ZM270.53 25.1201V33.3965H269.212V29.7344H267.688V32.9424H266.384V25.3691H267.688V28.5918H269.212V25.1201H270.53ZM259.265 27.7129V26.6143H261.917V25.2227H263.294V26.6143H265.901V27.7129H259.265ZM259.778 30.584C259.778 29.2217 260.95 28.3281 262.59 28.3281C264.268 28.3281 265.432 29.2217 265.432 30.584C265.432 31.9463 264.268 32.8398 262.59 32.8398C260.95 32.8398 259.778 31.9463 259.778 30.584ZM261.023 30.584C261.023 31.3311 261.66 31.8218 262.59 31.8291C263.535 31.8218 264.18 31.3311 264.172 30.584C264.18 29.8369 263.535 29.3462 262.59 29.3535C261.66 29.3462 261.023 29.8369 261.023 30.584ZM261.697 35.916C261.682 34.4292 263.352 33.5869 266.135 33.5869C268.926 33.5869 270.596 34.4292 270.603 35.916C270.596 37.3882 268.926 38.2231 266.135 38.2158C263.352 38.2231 261.682 37.3882 261.697 35.916ZM263.074 35.916C263.059 36.707 264.187 37.1611 266.135 37.1465C268.091 37.1611 269.204 36.707 269.212 35.916C269.204 35.0884 268.091 34.6489 266.135 34.6562C264.187 34.6489 263.059 35.0884 263.074 35.916ZM277.959 25.3398C280.918 25.3325 282.639 26.1309 282.646 27.5957C282.639 29.0679 280.918 29.8662 277.959 29.8662C275 29.8662 273.264 29.0679 273.271 27.5957C273.264 26.1309 275 25.3325 277.959 25.3398ZM271.982 31.7852V30.6719H283.95V31.7852H271.982ZM273.418 33.8359V32.7959H282.441V35.8721H274.795V37.0439H282.808V38.1133H273.433V34.8613H281.064V33.8359H273.418ZM274.722 27.5957C274.714 28.4087 275.872 28.8262 277.959 28.8262C280.061 28.8262 281.218 28.4087 281.211 27.5957C281.218 26.8193 280.061 26.3652 277.959 26.3652C275.872 26.3652 274.714 26.8193 274.722 27.5957ZM298.281 25.1201V27.9619H300.185V29.1191H298.281V31.7559H296.889V25.1201H298.281ZM287.954 30.9502C291.169 30.2544 292.956 28.731 293.161 26.8486H288.569V25.7061H294.707C294.707 29.0825 292.356 31.2285 288.481 32.1074L287.954 30.9502ZM289.799 33.4404V32.3271H298.281V35.6963H291.191V37H298.735V38.1133H289.829V34.627H296.904V33.4404H289.799ZM314.897 25.1348V32.8984H313.505V31.3018H310.195V30.1592H313.505V28.5625H310.334C309.484 30.6719 307.514 32.1587 304.672 32.9717L304.115 31.8877C307.221 31.0015 309.037 29.3315 309.286 27.2148H304.789V26.0723H310.795C310.795 26.5557 310.744 27.0244 310.656 27.4639H313.505V25.1348H314.897ZM306.152 35.6084C306.152 34.019 307.88 33.0522 310.575 33.0449C313.234 33.0522 314.977 34.019 314.985 35.6084C314.977 37.2051 313.234 38.1865 310.575 38.1865C307.88 38.1865 306.152 37.2051 306.152 35.6084ZM307.529 35.6084C307.529 36.5312 308.7 37.0659 310.575 37.0732C312.414 37.0659 313.586 36.5312 313.593 35.6084C313.586 34.6709 312.414 34.1362 310.575 34.1436C308.7 34.1362 307.529 34.6709 307.529 35.6084ZM328.595 32.5762V33.7334H323.234V38.2451H321.872V33.7334H316.584V32.5762H328.595ZM317.887 28.5332C317.895 26.7461 319.784 25.6182 322.56 25.6182C325.336 25.6182 327.24 26.7461 327.233 28.5332C327.24 30.2983 325.336 31.4189 322.56 31.4189C319.784 31.4189 317.895 30.2983 317.887 28.5332ZM319.323 28.5332C319.315 29.6245 320.612 30.3057 322.56 30.3057C324.516 30.3057 325.805 29.6245 325.812 28.5332C325.805 27.4272 324.516 26.7388 322.56 26.7314C320.612 26.7388 319.315 27.4272 319.323 28.5332ZM333.038 37V35.8281L336.715 32.1221C337.88 30.9136 338.458 30.2397 338.458 29.3096C338.458 28.2622 337.609 27.5957 336.495 27.5957C335.316 27.5957 334.569 28.3428 334.562 29.4707H333.038C333.024 27.5298 334.503 26.248 336.525 26.248C338.568 26.248 339.982 27.5444 339.996 29.2656C339.982 30.4521 339.425 31.397 337.433 33.3525L335.279 35.5352V35.623H340.172V37H333.038ZM345.331 37.1465C342.877 37.1465 341.434 35.1689 341.434 31.6973C341.434 28.2476 342.892 26.248 345.331 26.248C347.762 26.248 349.22 28.2476 349.227 31.6973C349.22 35.1689 347.784 37.1465 345.331 37.1465ZM343.045 31.6973C343.038 34.3413 343.895 35.7549 345.331 35.7549C346.759 35.7549 347.616 34.3413 347.616 31.6973C347.616 29.0605 346.751 27.6177 345.331 27.6104C343.902 27.6177 343.045 29.0605 343.045 31.6973ZM11.7188 50.1201V63.2451H10.3857V56.4336H8.75977V62.6152H7.45605V50.4717H8.75977V55.3057H10.3857V50.1201H11.7188ZM0.439453 59.4951C3.35449 57.8398 4.57764 55.606 4.79736 52.9326H0.996094V51.79H6.15234C6.14502 55.2397 5.00244 58.3452 1.24512 60.4619L0.439453 59.4951ZM23.3541 51.3799V60.0078H17.2018V51.3799H23.3541ZM18.5787 58.8799H22.0065V52.4785H18.5787V58.8799ZM25.9469 63.2744V50.1201H27.3385V63.2744H25.9469ZM33.7421 52.4932C33.7495 54.3828 34.9213 56.1919 36.8769 56.9463L36.1152 58.0303C34.687 57.4517 33.625 56.3018 33.0683 54.8809C32.5044 56.4116 31.3911 57.6274 29.8603 58.2354L29.1132 57.1221C31.1347 56.375 32.3579 54.5073 32.3652 52.4932V50.8672H33.7421V52.4932ZM31.4863 62.9668V58.9238H32.8925V61.8389H40.3486V62.9668H31.4863ZM36.1152 55.7744V54.6465H38.664V53.123H36.1152V51.9951H38.664V50.1348H40.0556V59.9053H38.664V55.7744H36.1152ZM47.7337 50.3398C50.6927 50.3325 52.4138 51.1309 52.4212 52.5957C52.4138 54.0679 50.6927 54.8662 47.7337 54.8662C44.7747 54.8662 43.0388 54.0679 43.0462 52.5957C43.0388 51.1309 44.7747 50.3325 47.7337 50.3398ZM41.7571 56.7852V55.6719H53.7249V56.7852H41.7571ZM43.1927 58.8359V57.7959H52.2161V60.8721H44.5696V62.0439H52.5823V63.1133H43.2073V59.8613H50.8391V58.8359H43.1927ZM44.4964 52.5957C44.489 53.4087 45.6463 53.8262 47.7337 53.8262C49.8357 53.8262 50.993 53.4087 50.9856 52.5957C50.993 51.8193 49.8357 51.3652 47.7337 51.3652C45.6463 51.3652 44.489 51.8193 44.4964 52.5957ZM68.7001 50.1201V63.2744H67.3085V55.9795H64.5986V54.8369H67.3085V50.1201H68.7001ZM57.5966 59.6123C59.6034 58.6528 61.017 56.1699 61.0243 53.8115V52.5811H58.1239V51.4385H65.3456V52.5811H62.4306V53.8115C62.4306 56.0308 63.8295 58.4258 65.8437 59.3193L65.0087 60.4326C63.4926 59.7002 62.328 58.1694 61.7421 56.3823C61.1562 58.2866 59.9623 59.9199 58.4462 60.6963L57.5966 59.6123ZM74.9719 52.5371C74.9646 54.207 76.1291 55.7305 78.1213 56.3604L77.4622 57.4443C75.968 56.9683 74.8767 55.9795 74.2981 54.7344C73.7268 56.1699 72.5769 57.3052 71.0022 57.8545L70.2844 56.7412C72.3352 56.0674 73.573 54.3755 73.5803 52.5518V52.1855H70.6946V51.0576H77.7991V52.1855H74.9719V52.5371ZM72.0569 60.7549C72.0569 59.2168 73.7341 58.3159 76.4661 58.3232C79.1687 58.3159 80.8166 59.2168 80.8166 60.7549C80.8166 62.3149 79.1687 63.2231 76.4661 63.2158C73.7341 63.2231 72.0569 62.3149 72.0569 60.7549ZM73.4485 60.7549C73.4412 61.6338 74.5691 62.1245 76.4661 62.1172C78.3484 62.1245 79.4617 61.6338 79.4543 60.7549C79.4617 59.8979 78.3484 59.4146 76.4661 59.4219C74.5691 59.4146 73.4412 59.8979 73.4485 60.7549ZM79.3079 58.001V50.1201H80.6995V53.3721H82.6038V54.5146H80.6995V58.001H79.3079ZM93.3433 50.0762V53.1523H95.2623V54.2949H93.3433V57.2979H91.9517V50.0762H93.3433ZM83.0455 52.332V51.2334H86.2681V50.0029H87.6597V51.2334H90.8677V52.332H83.0455ZM83.7632 54.9834C83.7559 53.6577 85.0303 52.8301 86.9566 52.8301C88.8829 52.8301 90.1353 53.6577 90.1353 54.9834C90.1353 56.3164 88.8829 57.1294 86.9566 57.1221C85.0303 57.1294 83.7559 56.3164 83.7632 54.9834ZM84.8619 58.9531V57.9131H93.3433V60.96H86.2535V62.0586H93.7974V63.1133H84.8912V59.9785H91.9664V58.9531H84.8619ZM85.1109 54.9834C85.0963 55.6938 85.8214 56.1113 86.9566 56.1113C88.0845 56.1113 88.817 55.6938 88.8316 54.9834C88.817 54.2729 88.0845 53.8335 86.9566 53.8262C85.8214 53.8335 85.0963 54.2729 85.1109 54.9834ZM105.74 51.2773C105.733 53.0205 107.864 54.6538 110.443 54.998L109.901 56.1406C107.755 55.7964 105.872 54.6831 105.015 53.1377C104.158 54.6831 102.276 55.7964 100.145 56.1406L99.5881 54.998C102.159 54.6538 104.283 53.0425 104.29 51.2773V50.5596H105.74V51.2773ZM99.0168 58.5723V57.4297H110.985V58.5723H105.653V63.2451H104.29V58.5723H99.0168ZM119.558 58.792C119.558 59.9199 120.115 61.1138 121.309 61.8242C122.51 61.0552 123.103 59.8027 123.103 58.792V58.1621H124.466V58.792C124.458 60.1543 125.359 61.4727 127.073 62.0293L126.385 63.0547C125.088 62.6079 124.202 61.729 123.748 60.6597C123.33 61.7144 122.547 62.6738 121.346 63.1719C120.086 62.6958 119.287 61.7656 118.885 60.6963C118.409 61.729 117.544 62.6006 116.306 63.0547L115.603 62.0293C117.288 61.4287 118.203 60.0591 118.211 58.792V58.1621H119.558V58.792ZM115.266 53.958C115.274 52.1196 116.753 50.8599 118.767 50.8525C120.774 50.8599 122.254 52.1196 122.254 53.958C122.254 55.7744 120.774 57.0342 118.767 57.0342C116.753 57.0342 115.274 55.7744 115.266 53.958ZM116.629 53.958C116.621 55.1006 117.522 55.877 118.767 55.877C119.998 55.877 120.891 55.1006 120.891 53.958C120.891 52.8081 119.998 52.0317 118.767 52.0391C117.522 52.0317 116.621 52.8081 116.629 53.958ZM124.495 57.6055V50.1348H125.887V57.6055H124.495ZM130.503 57.9863V59.3779H136.67V57.9863H138.062V63.084H129.126V57.9863H130.503ZM127.647 57.166V56.0088H139.614V57.166H127.647ZM128.291 54.1045C130.833 53.7749 132.913 52.376 132.92 50.8232V50.2666H134.341V50.8232C134.348 52.332 136.443 53.7969 138.955 54.1045L138.457 55.2031C136.333 54.9102 134.48 53.8994 133.638 52.5005C132.788 53.9067 130.928 54.9102 128.819 55.2031L128.291 54.1045ZM130.503 61.9707H136.67V60.4619H130.503V61.9707ZM151.189 50.1201V63.2451H149.797V50.1201H151.189ZM141.096 59.9053V51.3945H142.473V58.7041C144.392 58.6968 146.406 58.5283 148.508 58.1035L148.699 59.2754C146.377 59.7515 144.268 59.9126 142.195 59.9053H141.096ZM163.159 50.1201V55.2031H165.268V56.3457H163.159V63.2744H161.767V50.1201H163.159ZM153.491 60.0078V51.3799H159.629V52.5078H154.883V58.8506C157.087 58.8433 158.735 58.748 160.61 58.4111L160.786 59.583C158.728 59.9492 156.985 60.0151 154.546 60.0078H153.491ZM167.072 62.1025C166.501 62.0952 166.025 61.6338 166.032 61.0625C166.025 60.4912 166.501 60.0225 167.072 60.0225C167.636 60.0225 168.105 60.4912 168.112 61.0625C168.105 61.6338 167.636 62.0952 167.072 62.1025Z" fill="#262626"/>
</svg>
