<svg width="347" height="89" viewBox="0 0 347 89" fill="none" xmlns="http://www.w3.org/2000/svg">
<path d="M5.18555 2.44922C5.17822 4.10449 6.36475 5.72314 8.34961 6.4043L7.63184 7.48828C6.15967 6.98291 5.06836 5.92822 4.49707 4.63184C3.92578 6.07471 2.77588 7.23193 1.21582 7.78125L0.498047 6.68262C2.51221 5.99414 3.77197 4.24365 3.76465 2.46387V2.09766H0.922852V0.969727H7.99805V2.09766H5.18555V2.44922ZM2.53418 9.75879V8.63086H11.4258V13.2451H10.0342V9.75879H2.53418ZM7.60254 4.60254V3.45996H10.0342V0.120117H11.4258V7.97168H10.0342V4.60254H7.60254ZM24.0111 0.134766V7.37109H22.6195V0.134766H24.0111ZM13.7864 1.87793V0.75H19.8216V4.41211H15.178V5.96484C17.4779 5.95752 19.1551 5.89893 21.1546 5.56934L21.3304 6.69727C19.1844 7.04883 17.3973 7.10742 14.9144 7.12207H13.8157V3.32812H18.4446V1.87793H13.7864ZM15.3978 13.084V7.98633H16.7894V9.40723H22.6341V7.98633H24.0111V13.084H15.3978ZM16.7894 11.9561H22.6341V10.5059H16.7894V11.9561ZM33.4176 4.32422V5.45215H30.8541V7.11475C32.0187 7.05615 33.1759 6.97559 34.2526 6.8584L34.3551 7.88379C31.5573 8.26465 28.4884 8.34521 26.0202 8.33789L25.8297 7.22461C26.9503 7.21729 28.1954 7.20264 29.4772 7.16602V5.45215H27.0016V0.955078H33.3004V2.08301H28.3932V4.32422H33.4176ZM27.9977 12.9668V9.26074H29.3893V11.8389H37.0651V12.9668H27.9977ZM35.2633 9.96387V0.120117H36.6549V9.96387H35.2633ZM53.7688 10.4912V11.6777H41.7571V10.4912H47.0305V7.69336H42.8118V6.59473H44.7747V2.46387H42.7825V1.33594H52.6702V2.46387H50.6634V6.59473H52.6263V7.69336H48.4075V10.4912H53.7688ZM46.1516 6.59473H49.3011V2.46387H46.1516V6.59473ZM65.2848 0.134766V9.6709H63.8932V0.134766H65.2848ZM54.6646 4.26562C54.672 2.36865 56.1808 1.021 58.1656 1.01367C60.1432 1.021 61.652 2.36865 61.652 4.26562C61.652 6.19189 60.1432 7.53223 58.1656 7.53223C56.1808 7.53223 54.672 6.19189 54.6646 4.26562ZM56.027 4.26562C56.0196 5.50342 56.9425 6.31641 58.1656 6.31641C59.3668 6.31641 60.2896 5.50342 60.2896 4.26562C60.2896 3.05713 59.3668 2.22949 58.1656 2.22949C56.9425 2.22949 56.0196 3.05713 56.027 4.26562ZM56.7008 12.9668V8.7041H58.107V11.8389H65.6803V12.9668H56.7008ZM77.6943 7.10742V8.2207H68.5536V1.2041H77.5624V2.33203H69.9599V4.10449H77.2841V5.20312H69.9599V7.10742H77.6943ZM67.0448 11.5898V10.4473H79.0566V11.5898H67.0448ZM90.3088 3.95801V5.07129H81.2707V0.588867H82.6477V3.95801H90.3088ZM79.6741 7.83984V6.72656H91.6858V7.83984H79.6741ZM81.1682 12.9375V9.08496H82.5598V11.7949H90.3967V12.9375H81.1682ZM106.588 0.120117V13.2451H105.182V0.120117H106.588ZM95.8065 9.72949C99.2929 8.06689 100.999 5.70117 101.27 2.63965H96.4364V1.52637H102.677C102.677 5.37158 101.043 8.69678 96.5389 10.8574L95.8065 9.72949ZM120.33 10.4326V11.6045H108.319V10.4326H120.33ZM109.344 2.52246V1.37988H119.232V2.52246H117.225V6.90234H119.188V8.01562H109.373V6.90234H111.336V2.52246H109.344ZM112.713 6.90234H115.863V2.52246H112.713V6.90234ZM128.257 1.27734V2.41992H123.145V4.9541H127.759V6.06738H123.145V9.01172C125.438 8.99707 127.1 8.9165 129.048 8.60156L129.195 9.72949C127.115 10.0664 125.313 10.1323 122.837 10.1396H121.768V1.27734H128.257ZM130.469 13.2451V0.120117H131.876V13.2451H130.469ZM144.124 0.706055V1.86328C144.124 3.10107 144.124 4.41943 143.758 6.21387L142.381 6.09668C142.527 5.38623 142.622 4.75635 142.674 4.17041L134.866 4.5293L134.676 3.35742L142.732 3.1377C142.747 2.69092 142.747 2.27344 142.747 1.86328V1.83398H135.013V0.706055H144.124ZM133.621 8.13281V7.01953H138.352V5.17383H139.759V7.01953H145.559V8.13281H133.621ZM135.1 13.04V9.14355H136.492V11.9121H144.402V13.04H135.1ZM161.575 6.28711V7.42969H149.592V6.28711H161.575ZM151.013 10.8428C151.013 9.31934 152.72 8.45508 155.569 8.45508C158.396 8.45508 160.088 9.31934 160.095 10.8428C160.088 12.3662 158.396 13.2231 155.569 13.2158C152.72 13.2231 151.013 12.3662 151.013 10.8428ZM151.086 5.14453V0.588867H160.095V1.73145H152.463V4.0166H160.183V5.14453H151.086ZM152.419 10.8428C152.412 11.6851 153.562 12.1392 155.569 12.1465C157.546 12.1392 158.704 11.6851 158.704 10.8428C158.704 10.0078 157.546 9.53906 155.569 9.52441C153.562 9.53906 152.412 10.0078 152.419 10.8428ZM175.803 0.120117V5.20312H177.912V6.3457H175.803V13.2744H174.411V0.120117H175.803ZM166.135 10.0078V1.37988H172.273V2.50781H167.526V8.85059C169.731 8.84326 171.379 8.74805 173.254 8.41113L173.43 9.58301C171.372 9.94922 169.629 10.0151 167.19 10.0078H166.135ZM190.395 1.98047V3.12305H188.535V4.79297H190.395V5.9502H188.535V7.86914H187.143V0.120117H188.535V1.98047H190.395ZM178.427 4.00195C178.413 2.15625 179.907 0.881836 181.914 0.881836C183.928 0.881836 185.4 2.15625 185.414 4.00195C185.4 5.83301 183.928 7.11475 181.914 7.12207C179.907 7.11475 178.413 5.83301 178.427 4.00195ZM179.789 4.00195C179.775 5.1665 180.683 5.93555 181.914 5.9502C183.144 5.93555 184.045 5.1665 184.052 4.00195C184.045 2.84473 183.144 2.04639 181.914 2.05371C180.683 2.04639 179.775 2.84473 179.789 4.00195ZM179.892 10.7256C179.892 9.15088 181.591 8.22803 184.301 8.2207C186.982 8.22803 188.652 9.15088 188.652 10.7256C188.652 12.293 186.982 13.2231 184.301 13.2158C181.591 13.2231 179.892 12.293 179.892 10.7256ZM181.284 10.7256C181.276 11.6191 182.404 12.1099 184.301 12.1025C186.184 12.1099 187.297 11.6191 187.289 10.7256C187.297 9.84668 186.184 9.34131 184.301 9.34863C182.404 9.34131 181.276 9.84668 181.284 10.7256ZM201.178 0.134766V4.35352H203.083V5.51074H201.178V9.94922H199.787V0.134766H201.178ZM190.881 2.78613V1.6582H194.103V0.120117H195.495V1.6582H198.703V2.78613H190.881ZM191.598 5.8916C191.591 4.39014 192.887 3.40869 194.792 3.41602C196.674 3.40869 197.97 4.39014 197.97 5.8916C197.97 7.37842 196.674 8.34521 194.792 8.35254C192.887 8.34521 191.591 7.37842 191.598 5.8916ZM192.858 12.9668V9.17285H194.25V11.8389H201.735V12.9668H192.858ZM192.946 5.8916C192.931 6.74854 193.678 7.27588 194.792 7.26855C195.905 7.27588 196.652 6.74854 196.667 5.8916C196.652 5.02734 195.905 4.49268 194.792 4.48535C193.678 4.49268 192.931 5.02734 192.946 5.8916ZM217.75 0.120117V13.2744H216.359V0.120117H217.75ZM207.584 2.43457V1.30664H213.737V6.09668H209.02V8.96777C211.151 8.96045 213.004 8.85791 215.202 8.49902L215.333 9.6416C213.012 10.0298 211.034 10.1177 208.712 10.125H207.599V4.9834H212.316V2.43457H207.584ZM230.467 0.134766V13.2451H229.061V10.1104H226.161V9.05566H229.061V0.134766H230.467ZM219.437 6.96094C221.927 6.94629 225.231 6.93896 228.109 6.53613L228.182 7.56152C226.93 7.78125 225.634 7.91309 224.374 7.99365V12.835H222.982V8.05957C221.781 8.10352 220.638 8.11816 219.628 8.11816L219.437 6.96094ZM220.404 3.35742C220.411 1.80469 221.788 0.735352 223.759 0.735352C225.699 0.735352 227.084 1.80469 227.084 3.35742C227.084 4.93945 225.699 5.95752 223.759 5.96484C221.788 5.95752 220.411 4.93945 220.404 3.35742ZM221.722 3.35742C221.715 4.29492 222.55 4.90283 223.759 4.89551C224.923 4.90283 225.758 4.29492 225.765 3.35742C225.758 2.43457 224.93 1.81201 223.759 1.80469C222.55 1.81201 221.715 2.43457 221.722 3.35742ZM242.774 6.3457V7.48828H233.634V1.29199H242.657V2.43457H235.011V6.3457H242.774ZM232.14 11.5166V10.3594H244.151V11.5166H232.14ZM256.795 10.5059V11.6777H244.784V10.5059H250.072V8.20605H246.248V4.03125H253.953V2.18555H246.219V1.04297H255.33V5.14453H247.625V7.06348H255.638V8.20605H251.449V10.5059H256.795ZM271.434 1.37988V2.78613C271.419 4.43408 271.419 6.1626 270.95 8.6748L269.588 8.52832C270.049 6.15527 270.049 4.39746 270.042 2.78613V2.50781H262V1.37988H271.434ZM260.77 11.4727V10.3154H263.597V6.06738H264.988V10.3154H266.878V6.06738H268.24V10.3154H272.737V11.4727H260.77ZM283.741 0.120117V4.61719H285.616V5.77441H283.741V10.374H282.349V0.120117H283.741ZM273.326 7.8252C274.336 7.8252 275.515 7.8252 276.753 7.78125V6.86572C275.259 6.68994 274.307 5.97217 274.322 4.89551C274.307 3.62109 275.559 2.85938 277.442 2.87402C279.324 2.85938 280.555 3.62109 280.562 4.89551C280.555 5.97217 279.624 6.68994 278.145 6.8584V7.71533C279.317 7.64941 280.503 7.53955 281.602 7.37109L281.719 8.35254C278.921 8.87988 275.764 8.9165 273.472 8.93848L273.326 7.8252ZM273.662 2.36133V1.33594H276.753V0.0761719H278.145V1.33594H281.236V2.36133H273.662ZM275.259 12.9668V9.68555H276.651V11.8389H284.209V12.9668H275.259ZM275.64 4.89551C275.64 5.53271 276.321 5.93555 277.442 5.93555C278.548 5.93555 279.236 5.53271 279.229 4.89551C279.236 4.21436 278.548 3.81885 277.442 3.82617C276.321 3.81885 275.64 4.21436 275.64 4.89551ZM296.37 0.0761719V3.15234H298.289V4.29492H296.37V7.29785H294.978V0.0761719H296.37ZM286.072 2.33203V1.2334H289.295V0.00292969H290.686V1.2334H293.894V2.33203H286.072ZM286.79 4.9834C286.782 3.65771 288.057 2.83008 289.983 2.83008C291.909 2.83008 293.162 3.65771 293.162 4.9834C293.162 6.31641 291.909 7.12939 289.983 7.12207C288.057 7.12939 286.782 6.31641 286.79 4.9834ZM287.888 8.95312V7.91309H296.37V10.96H289.28V12.0586H296.824V13.1133H287.918V9.97852H294.993V8.95312H287.888ZM288.137 4.9834C288.123 5.69385 288.848 6.11133 289.983 6.11133C291.111 6.11133 291.843 5.69385 291.858 4.9834C291.843 4.27295 291.111 3.8335 289.983 3.82617C288.848 3.8335 288.123 4.27295 288.137 4.9834ZM308.767 1.27734C308.76 3.02051 310.891 4.65381 313.469 4.99805L312.927 6.14062C310.781 5.79639 308.899 4.68311 308.042 3.1377C307.185 4.68311 305.303 5.79639 303.171 6.14062L302.615 4.99805C305.185 4.65381 307.309 3.04248 307.317 1.27734V0.55957H308.767V1.27734ZM302.043 8.57227V7.42969H314.011V8.57227H308.679V13.2451H307.317V8.57227H302.043ZM322.585 8.79199C322.585 9.91992 323.142 11.1138 324.335 11.8242C325.537 11.0552 326.13 9.80273 326.13 8.79199V8.16211H327.492V8.79199C327.485 10.1543 328.386 11.4727 330.1 12.0293L329.411 13.0547C328.115 12.6079 327.228 11.729 326.774 10.6597C326.357 11.7144 325.573 12.6738 324.372 13.1719C323.112 12.6958 322.314 11.7656 321.911 10.6963C321.435 11.729 320.571 12.6006 319.333 13.0547L318.63 12.0293C320.314 11.4287 321.23 10.0591 321.237 8.79199V8.16211H322.585V8.79199ZM318.293 3.95801C318.3 2.11963 319.78 0.859863 321.794 0.852539C323.801 0.859863 325.28 2.11963 325.28 3.95801C325.28 5.77441 323.801 7.03418 321.794 7.03418C319.78 7.03418 318.3 5.77441 318.293 3.95801ZM319.655 3.95801C319.648 5.10059 320.549 5.87695 321.794 5.87695C323.024 5.87695 323.918 5.10059 323.918 3.95801C323.918 2.80811 323.024 2.03174 321.794 2.03906C320.549 2.03174 319.648 2.80811 319.655 3.95801ZM327.521 7.60547V0.134766H328.913V7.60547H327.521ZM333.53 7.98633V9.37793H339.697V7.98633H341.088V13.084H332.153V7.98633H333.53ZM330.673 7.16602V6.00879H342.641V7.16602H330.673ZM331.318 4.10449C333.859 3.7749 335.939 2.37598 335.947 0.823242V0.266602H337.367V0.823242C337.375 2.33203 339.469 3.79688 341.982 4.10449L341.484 5.20312C339.36 4.91016 337.507 3.89941 336.664 2.50049C335.815 3.90674 333.954 4.91016 331.845 5.20312L331.318 4.10449ZM333.53 11.9707H339.697V10.4619H333.53V11.9707ZM11.3818 25.1201V38.2451H9.99023V25.1201H11.3818ZM1.28906 34.9053V26.3945H2.66602V33.7041C4.58496 33.6968 6.59912 33.5283 8.70117 33.1035L8.8916 34.2754C6.56982 34.7515 4.46045 34.9126 2.3877 34.9053H1.28906ZM23.3519 25.1201V30.2031H25.4613V31.3457H23.3519V38.2744H21.9603V25.1201H23.3519ZM13.6839 35.0078V26.3799H19.8216V27.5078H15.0755V33.8506C17.2801 33.8433 18.928 33.748 20.803 33.4111L20.9788 34.583C18.9207 34.9492 17.1776 35.0151 14.7386 35.0078H13.6839ZM27.2653 37.1025C26.694 37.0952 26.2179 36.6338 26.2252 36.0625C26.2179 35.4912 26.694 35.0225 27.2653 35.0225C27.8292 35.0225 28.298 35.4912 28.3053 36.0625C28.298 36.6338 27.8292 37.0952 27.2653 37.1025ZM37.1282 28.46C37.1136 30.7817 38.4685 33.1621 40.4241 34.1143L39.5598 35.2275C38.1316 34.4805 37.0257 33.0156 36.4471 31.2651C35.8611 33.1255 34.7112 34.7002 33.2171 35.4766L32.3528 34.3486C34.367 33.3818 35.7293 30.8623 35.7366 28.46V26.2188H37.1282V28.46ZM41.4055 38.2451V25.1201H42.7971V30.3496H44.9065V31.5361H42.7971V38.2451H41.4055ZM57.1842 31.5215V32.6494H45.2164V31.5215H48.0875V29.7563C47.0694 29.3462 46.4981 28.687 46.5055 27.8154C46.4981 26.2554 48.3072 25.3472 51.193 25.3545C54.0714 25.3472 55.8731 26.2554 55.8805 27.8154C55.8731 28.687 55.3019 29.3462 54.2838 29.7637V31.5215H57.1842ZM46.6373 35.8721C46.6373 34.3706 48.3365 33.543 51.193 33.543C54.0128 33.543 55.712 34.3706 55.7193 35.8721C55.712 37.3882 54.0128 38.2158 51.193 38.2158C48.3365 38.2158 46.6373 37.3882 46.6373 35.8721ZM47.941 27.8154C47.9337 28.6943 49.1495 29.1851 51.193 29.1924C53.2218 29.1851 54.4522 28.6943 54.4449 27.8154C54.4522 26.9365 53.2218 26.4312 51.193 26.4238C49.1495 26.4312 47.9337 26.9365 47.941 27.8154ZM48.0436 35.8721C48.0362 36.6924 49.1861 37.1611 51.193 37.1465C53.1705 37.1611 54.3277 36.6924 54.3277 35.8721C54.3277 35.0664 53.1705 34.6123 51.193 34.6123C49.1861 34.6123 48.0362 35.0664 48.0436 35.8721ZM49.4938 31.5215H52.9068V30.1226C52.3941 30.2031 51.8155 30.2471 51.193 30.2471C50.5777 30.2471 50.0064 30.2031 49.4938 30.1299V31.5215ZM71.427 25.1201V30.3496H73.4631V31.5068H71.427V38.2305H70.0354V25.1201H71.427ZM61.217 34.7295C64.5056 33.0889 66.2927 30.7158 66.5784 27.6543H61.8762V26.4971H67.9993C67.9846 30.291 66.3147 33.6821 61.9934 35.8135L61.217 34.7295ZM84.4517 28.665V29.793H75.4429V25.3545H76.8199V28.665H84.4517ZM73.8463 32.3271V31.1846H85.8287V32.3271H73.8463ZM75.2672 35.7842C75.2672 34.2534 76.9737 33.3892 79.8228 33.3965C82.65 33.3892 84.3419 34.2534 84.3492 35.7842C84.3419 37.3223 82.65 38.1865 79.8228 38.1865C76.9737 38.1865 75.2672 37.3223 75.2672 35.7842ZM76.6734 35.7842C76.6661 36.6265 77.816 37.1099 79.8228 37.1172C81.8004 37.1099 82.9576 36.6265 82.9576 35.7842C82.9576 34.9346 81.8004 34.4878 79.8228 34.4805C77.816 34.4878 76.6661 34.9346 76.6734 35.7842ZM96.8026 25.1348V29.3535H98.7069V30.5107H96.8026V34.9492H95.411V25.1348H96.8026ZM86.5048 27.7861V26.6582H89.7274V25.1201H91.119V26.6582H94.327V27.7861H86.5048ZM87.2225 30.8916C87.2152 29.3901 88.5116 28.4087 90.4159 28.416C92.2982 28.4087 93.5946 29.3901 93.5946 30.8916C93.5946 32.3784 92.2982 33.3452 90.4159 33.3525C88.5116 33.3452 87.2152 32.3784 87.2225 30.8916ZM88.4823 37.9668V34.1729H89.8739V36.8389H97.3593V37.9668H88.4823ZM88.5702 30.8916C88.5555 31.7485 89.3026 32.2759 90.4159 32.2686C91.5292 32.2759 92.2763 31.7485 92.2909 30.8916C92.2763 30.0273 91.5292 29.4927 90.4159 29.4854C89.3026 29.4927 88.5555 30.0273 88.5702 30.8916ZM113.375 25.1201V38.2744H111.983V25.1201H113.375ZM103.209 27.4346V26.3066H109.361V31.0967H104.644V33.9678C106.775 33.9604 108.628 33.8579 110.826 33.499L110.958 34.6416C108.636 35.0298 106.658 35.1177 104.336 35.125H103.223V29.9834H107.94V27.4346H103.209ZM126.092 25.1348V38.2451H124.685V35.1104H121.785V34.0557H124.685V25.1348H126.092ZM115.061 31.9609C117.552 31.9463 120.855 31.939 123.733 31.5361L123.806 32.5615C122.554 32.7812 121.258 32.9131 119.998 32.9937V37.835H118.606V33.0596C117.405 33.1035 116.263 33.1182 115.252 33.1182L115.061 31.9609ZM116.028 28.3574C116.035 26.8047 117.412 25.7354 119.383 25.7354C121.324 25.7354 122.708 26.8047 122.708 28.3574C122.708 29.9395 121.324 30.9575 119.383 30.9648C117.412 30.9575 116.035 29.9395 116.028 28.3574ZM117.347 28.3574C117.339 29.2949 118.174 29.9028 119.383 29.8955C120.547 29.9028 121.382 29.2949 121.389 28.3574C121.382 27.4346 120.555 26.812 119.383 26.8047C118.174 26.812 117.339 27.4346 117.347 28.3574ZM138.399 31.3457V32.4883H129.258V26.292H138.281V27.4346H130.635V31.3457H138.399ZM127.764 36.5166V35.3594H139.776V36.5166H127.764ZM151.028 28.958V30.0713H141.99V25.5889H143.367V28.958H151.028ZM140.393 32.8398V31.7266H152.405V32.8398H140.393ZM141.887 37.9375V34.085H143.279V36.7949H151.116V37.9375H141.887ZM167.292 25.1201V38.2744H165.901V25.1201H167.292ZM157.126 27.4346V26.3066H163.278V31.0967H158.562V33.9678C160.693 33.9604 162.546 33.8579 164.743 33.499L164.875 34.6416C162.553 35.0298 160.576 35.1177 158.254 35.125H157.141V29.9834H161.858V27.4346H157.126ZM180.009 25.1348V38.2451H178.603V35.1104H175.703V34.0557H178.603V25.1348H180.009ZM168.979 31.9609C171.469 31.9463 174.772 31.939 177.651 31.5361L177.724 32.5615C176.472 32.7812 175.175 32.9131 173.915 32.9937V37.835H172.524V33.0596C171.323 33.1035 170.18 33.1182 169.169 33.1182L168.979 31.9609ZM169.946 28.3574C169.953 26.8047 171.33 25.7354 173.3 25.7354C175.241 25.7354 176.625 26.8047 176.625 28.3574C176.625 29.9395 175.241 30.9575 173.3 30.9648C171.33 30.9575 169.953 29.9395 169.946 28.3574ZM171.264 28.3574C171.257 29.2949 172.092 29.9028 173.3 29.8955C174.465 29.9028 175.3 29.2949 175.307 28.3574C175.3 27.4346 174.472 26.812 173.3 26.8047C172.092 26.812 171.257 27.4346 171.264 28.3574ZM192.316 31.3457V32.4883H183.176V26.292H192.199V27.4346H184.553V31.3457H192.316ZM181.681 36.5166V35.3594H193.693V36.5166H181.681ZM209.02 25.1201V38.2451H207.687V25.1201H209.02ZM197.521 33.9092C197.902 33.9092 198.341 33.9092 198.81 33.9019V27.874H197.799V26.7314H203.82V27.874H202.809V33.7407C203.256 33.7041 203.688 33.6528 204.083 33.6016L204.186 34.6123C202.106 35.0225 199.381 35.0811 197.682 35.0811L197.521 33.9092ZM200.07 33.8799C200.546 33.8726 201.037 33.8506 201.52 33.8286V27.874H200.07V33.8799ZM203.468 31.2871V30.042H205.109V25.4131H206.427V37.5713H205.109V31.2871H203.468ZM221.18 25.1201V38.2744H219.789V25.1201H221.18ZM210.765 30.7012C210.765 27.896 212.179 26.1089 214.164 26.1016C216.112 26.1089 217.548 27.896 217.548 30.7012C217.548 33.5356 216.112 35.3228 214.164 35.3154C212.179 35.3228 210.765 33.5356 210.765 30.7012ZM212.113 30.7012C212.106 32.7886 212.941 34.0703 214.164 34.0703C215.365 34.0703 216.2 32.7886 216.2 30.7012C216.2 28.6431 215.365 27.354 214.164 27.3467C212.941 27.354 212.106 28.6431 212.113 30.7012ZM227.789 28.9873C227.782 31.1846 229.225 33.4551 231.246 34.3193L230.484 35.4033C228.939 34.7222 227.709 33.272 227.101 31.5215C226.493 33.3965 225.262 34.9932 223.731 35.7402L222.926 34.6416C224.903 33.7114 226.368 31.2505 226.383 28.9873V27.5957H223.38V26.4385H230.777V27.5957H227.789V28.9873ZM232.433 38.2451V25.1201H233.824V38.2451H232.433ZM246.893 25.1201V38.2451H245.56V25.1201H246.893ZM235.745 30.7891C235.745 27.9473 236.859 26.1675 238.573 26.1748C240.169 26.1675 241.246 27.6836 241.407 30.1445H242.894V25.3691H244.227V37.6006H242.894V31.2725H241.414C241.29 33.8359 240.199 35.4253 238.573 35.418C236.859 35.4253 235.745 33.6382 235.745 30.7891ZM237.035 30.7891C237.035 32.8765 237.628 34.1069 238.573 34.0996C239.539 34.1069 240.14 32.8765 240.14 30.7891C240.14 28.6943 239.539 27.4712 238.573 27.4785C237.628 27.4712 237.035 28.6943 237.035 30.7891ZM252.974 28.46C252.974 30.8623 254.322 33.2573 256.329 34.1582L255.479 35.2715C253.992 34.5244 252.864 33.0449 252.286 31.2505C251.707 33.1401 250.565 34.7368 249.049 35.5205L248.17 34.3926C250.206 33.4185 251.561 30.8916 251.568 28.46V26.2188H252.974V28.46ZM254.879 30.6133V29.4854H257.808V25.1201H259.185V38.2744H257.808V30.6133H254.879ZM274.556 25.1348V29.0312H276.431V30.1738H274.556V33.9678H273.164V25.1348H274.556ZM264.141 32.5029C265.159 32.5029 266.338 32.5029 267.569 32.4736V31.5874C266.075 31.4189 265.122 30.7158 265.137 29.6611C265.122 28.46 266.375 27.7129 268.257 27.7275C270.139 27.7129 271.37 28.46 271.377 29.6611C271.37 30.7085 270.44 31.4116 268.96 31.5874V32.4224C270.132 32.3638 271.319 32.2686 272.417 32.1074L272.534 33.1035C269.715 33.5942 266.602 33.6162 264.287 33.6162L264.141 32.5029ZM264.478 27.2881V26.248H267.569V25.0176H268.96V26.248H272.051V27.2881H264.478ZM265.782 35.667V34.583H274.556V38.2451H273.164V35.667H265.782ZM266.455 29.6611C266.455 30.2764 267.137 30.6792 268.257 30.6719C269.363 30.6792 270.052 30.2764 270.044 29.6611C270.052 29.0312 269.363 28.665 268.257 28.6797C267.137 28.665 266.455 29.0312 266.455 29.6611ZM287.756 25.1348V34.6709H286.365V25.1348H287.756ZM277.136 29.2656C277.144 27.3687 278.652 26.021 280.637 26.0137C282.615 26.021 284.124 27.3687 284.124 29.2656C284.124 31.1919 282.615 32.5322 280.637 32.5322C278.652 32.5322 277.144 31.1919 277.136 29.2656ZM278.499 29.2656C278.491 30.5034 279.414 31.3164 280.637 31.3164C281.839 31.3164 282.761 30.5034 282.761 29.2656C282.761 28.0571 281.839 27.2295 280.637 27.2295C279.414 27.2295 278.491 28.0571 278.499 29.2656ZM279.172 37.9668V33.7041H280.579V36.8389H288.152V37.9668H279.172ZM299.829 25.0762V28.1523H301.748V29.2949H299.829V32.2979H298.437V25.0762H299.829ZM289.531 27.332V26.2334H292.754V25.0029H294.145V26.2334H297.353V27.332H289.531ZM290.249 29.9834C290.242 28.6577 291.516 27.8301 293.442 27.8301C295.369 27.8301 296.621 28.6577 296.621 29.9834C296.621 31.3164 295.369 32.1294 293.442 32.1221C291.516 32.1294 290.242 31.3164 290.249 29.9834ZM291.348 33.9531V32.9131H299.829V35.96H292.739V37.0586H300.283V38.1133H291.377V34.9785H298.452V33.9531H291.348ZM291.597 29.9834C291.582 30.6938 292.307 31.1113 293.442 31.1113C294.57 31.1113 295.303 30.6938 295.317 29.9834C295.303 29.2729 294.57 28.8335 293.442 28.8262C292.307 28.8335 291.582 29.2729 291.597 29.9834ZM312.226 26.2773C312.219 28.0205 314.35 29.6538 316.928 29.998L316.386 31.1406C314.24 30.7964 312.358 29.6831 311.501 28.1377C310.644 29.6831 308.762 30.7964 306.63 31.1406L306.074 29.998C308.645 29.6538 310.769 28.0425 310.776 26.2773V25.5596H312.226V26.2773ZM305.503 33.5723V32.4297H317.47V33.5723H312.138V38.2451H310.776V33.5723H305.503ZM326.044 33.792C326.044 34.9199 326.601 36.1138 327.795 36.8242C328.996 36.0552 329.589 34.8027 329.589 33.792V33.1621H330.951V33.792C330.944 35.1543 331.845 36.4727 333.559 37.0293L332.87 38.0547C331.574 37.6079 330.688 36.729 330.234 35.6597C329.816 36.7144 329.032 37.6738 327.831 38.1719C326.572 37.6958 325.773 36.7656 325.37 35.6963C324.894 36.729 324.03 37.6006 322.792 38.0547L322.089 37.0293C323.774 36.4287 324.689 35.0591 324.697 33.792V33.1621H326.044V33.792ZM321.752 28.958C321.76 27.1196 323.239 25.8599 325.253 25.8525C327.26 25.8599 328.74 27.1196 328.74 28.958C328.74 30.7744 327.26 32.0342 325.253 32.0342C323.239 32.0342 321.76 30.7744 321.752 28.958ZM323.115 28.958C323.107 30.1006 324.008 30.877 325.253 30.877C326.484 30.877 327.377 30.1006 327.377 28.958C327.377 27.8081 326.484 27.0317 325.253 27.0391C324.008 27.0317 323.107 27.8081 323.115 28.958ZM330.981 32.6055V25.1348H332.372V32.6055H330.981ZM340.109 25.9111C342.863 25.9111 344.958 27.3687 344.958 29.5732C344.958 31.7925 342.863 33.2427 340.109 33.2354C337.362 33.2427 335.268 31.7925 335.275 29.5732C335.268 27.3687 337.362 25.9111 340.109 25.9111ZM334.132 36.5459V35.3887H346.144V36.5459H334.132ZM336.608 29.5732C336.601 31.104 338.095 32.0928 340.109 32.0928C342.116 32.0928 343.603 31.104 343.61 29.5732C343.603 28.0498 342.116 27.0317 340.109 27.0391C338.095 27.0317 336.601 28.0498 336.608 29.5732ZM7.08984 51.3799V53.2109H10.0488V50.1201H11.4258V63.2744H10.0488V57.9424H7.08984V59.9639H0.996094V51.3799H7.08984ZM2.37305 58.8506H5.72754V52.4639H2.37305V58.8506ZM7.08984 56.8145H10.0488V54.3535H7.08984V56.8145ZM15.4857 60.9893L14.3138 65.0322H13.0687L13.845 60.9893H15.4857ZM31.999 60.4912V61.6777H19.9873V60.4912H25.2607V57.6934H21.042V56.5947H23.0048V52.4639H21.0127V51.3359H30.9004V52.4639H28.8935V56.5947H30.8564V57.6934H26.6377V60.4912H31.999ZM24.3818 56.5947H27.5312V52.4639H24.3818V56.5947ZM43.5149 50.1348V59.6709H42.1233V50.1348H43.5149ZM32.8948 54.2656C32.9021 52.3687 34.4109 51.021 36.3958 51.0137C38.3733 51.021 39.8821 52.3687 39.8821 54.2656C39.8821 56.1919 38.3733 57.5322 36.3958 57.5322C34.4109 57.5322 32.9021 56.1919 32.8948 54.2656ZM34.2571 54.2656C34.2498 55.5034 35.1726 56.3164 36.3958 56.3164C37.597 56.3164 38.5198 55.5034 38.5198 54.2656C38.5198 53.0571 37.597 52.2295 36.3958 52.2295C35.1726 52.2295 34.2498 53.0571 34.2571 54.2656ZM34.9309 62.9668V58.7041H36.3372V61.8389H43.9104V62.9668H34.9309ZM55.9244 57.1074V58.2207H46.7838V51.2041H55.7926V52.332H48.19V54.1045H55.5143V55.2031H48.19V57.1074H55.9244ZM45.275 61.5898V60.4473H57.2867V61.5898H45.275ZM69.9306 60.5059V61.6777H57.9189V60.5059H63.207V58.2061H59.3837V54.0312H67.0888V52.1855H59.3544V51.043H68.4657V55.1445H60.7607V57.0635H68.7734V58.2061H64.5839V60.5059H69.9306ZM84.5689 51.3799V52.7861C84.5543 54.4341 84.5543 56.1626 84.0855 58.6748L82.7232 58.5283C83.1846 56.1553 83.1846 54.3975 83.1773 52.7861V52.5078H75.1353V51.3799H84.5689ZM73.9048 61.4727V60.3154H76.732V56.0674H78.1236V60.3154H80.0132V56.0674H81.3755V60.3154H85.8726V61.4727H73.9048ZM96.8759 50.1201V54.6172H98.7509V55.7744H96.8759V60.374H95.4843V50.1201H96.8759ZM86.4608 57.8252C87.4716 57.8252 88.6508 57.8252 89.8886 57.7812V56.8657C88.3944 56.6899 87.4423 55.9722 87.4569 54.8955C87.4423 53.6211 88.6947 52.8594 90.577 52.874C92.4594 52.8594 93.6898 53.6211 93.6972 54.8955C93.6898 55.9722 92.7597 56.6899 91.2802 56.8584V57.7153C92.452 57.6494 93.6386 57.5396 94.7372 57.3711L94.8544 58.3525C92.0565 58.8799 88.8998 58.9165 86.6073 58.9385L86.4608 57.8252ZM86.7977 52.3613V51.3359H89.8886V50.0762H91.2802V51.3359H94.371V52.3613H86.7977ZM88.3944 62.9668V59.6855H89.786V61.8389H97.3446V62.9668H88.3944ZM88.7753 54.8955C88.7753 55.5327 89.4564 55.9355 90.577 55.9355C91.683 55.9355 92.3715 55.5327 92.3641 54.8955C92.3715 54.2144 91.683 53.8188 90.577 53.8262C89.4564 53.8188 88.7753 54.2144 88.7753 54.8955ZM109.505 50.1348V54.3535H111.409V55.5107H109.505V59.9492H108.113V50.1348H109.505ZM99.2072 52.7861V51.6582H102.43V50.1201H103.821V51.6582H107.029V52.7861H99.2072ZM99.925 55.8916C99.9177 54.3901 101.214 53.4087 103.118 53.416C105.001 53.4087 106.297 54.3901 106.297 55.8916C106.297 57.3784 105.001 58.3452 103.118 58.3525C101.214 58.3452 99.9177 57.3784 99.925 55.8916ZM101.185 62.9668V59.1729H102.576V61.8389H110.062V62.9668H101.185ZM101.273 55.8916C101.258 56.7485 102.005 57.2759 103.118 57.2686C104.232 57.2759 104.979 56.7485 104.993 55.8916C104.979 55.0273 104.232 54.4927 103.118 54.4854C102.005 54.4927 101.258 55.0273 101.273 55.8916ZM126.077 50.1201V63.2744H124.685V50.1201H126.077ZM115.911 52.4346V51.3066H122.063V56.0967H117.347V58.9678C119.478 58.9604 121.331 58.8579 123.528 58.499L123.66 59.6416C121.338 60.0298 119.361 60.1177 117.039 60.125H115.926V54.9834H120.642V52.4346H115.911ZM138.794 50.1348V63.2451H137.388V60.1104H134.487V59.0557H137.388V50.1348H138.794ZM127.764 56.9609C130.254 56.9463 133.557 56.939 136.436 56.5361L136.509 57.5615C135.257 57.7812 133.96 57.9131 132.7 57.9937V62.835H131.309V58.0596C130.108 58.1035 128.965 58.1182 127.954 58.1182L127.764 56.9609ZM128.731 53.3574C128.738 51.8047 130.115 50.7354 132.085 50.7354C134.026 50.7354 135.41 51.8047 135.41 53.3574C135.41 54.9395 134.026 55.9575 132.085 55.9648C130.115 55.9575 128.738 54.9395 128.731 53.3574ZM130.049 53.3574C130.042 54.2949 130.877 54.9028 132.085 54.8955C133.25 54.9028 134.085 54.2949 134.092 53.3574C134.085 52.4346 133.257 51.812 132.085 51.8047C130.877 51.812 130.042 52.4346 130.049 53.3574ZM151.101 56.3457V57.4883H141.96V51.292H150.984V52.4346H143.337V56.3457H151.101ZM140.466 61.5166V60.3594H152.478V61.5166H140.466ZM163.73 53.958V55.0713H154.692V50.5889H156.069V53.958H163.73ZM153.096 57.8398V56.7266H165.107V57.8398H153.096ZM154.59 62.9375V59.085H155.981V61.7949H163.818V62.9375H154.59ZM179.321 50.1201V55.3496H181.357V56.5068H179.321V63.2305H177.929V50.1201H179.321ZM169.111 59.7295C172.399 58.0889 174.186 55.7158 174.472 52.6543H169.77V51.4971H175.893C175.878 55.291 174.208 58.6821 169.887 60.8135L169.111 59.7295ZM192.624 50.1201V57.166H191.232V50.1201H192.624ZM182.004 53.7676C182.011 51.9658 183.49 50.7134 185.505 50.7207C187.511 50.7134 188.991 51.9658 188.991 53.7676C188.991 55.562 187.511 56.8145 185.505 56.7998C183.49 56.8145 182.011 55.562 182.004 53.7676ZM183.366 53.7676C183.359 54.9028 184.26 55.6572 185.505 55.6572C186.735 55.6572 187.629 54.9028 187.629 53.7676C187.629 52.647 186.735 51.8853 185.505 51.8926C184.26 51.8853 183.359 52.647 183.366 53.7676ZM184.04 63.084V57.7959H185.402V59.2754H191.247V57.7959H192.624V63.084H184.04ZM185.402 61.9414H191.247V60.374H185.402V61.9414ZM202.545 53.46C202.531 55.855 203.981 58.272 206.017 59.1729L205.182 60.2715C203.673 59.5537 202.479 58.0815 201.864 56.2871C201.256 58.2134 200.048 59.7954 198.473 60.5645L197.623 59.3926C199.689 58.4771 201.139 55.9648 201.139 53.46V51.2188H202.545V53.46ZM207.204 63.2744V50.1201H208.595V63.2744H207.204ZM217.228 51.1016C219.19 51.1089 220.589 52.896 220.597 55.7012C220.589 58.5356 219.19 60.3228 217.228 60.3154C215.265 60.3228 213.866 58.5356 213.873 55.7012C213.866 52.896 215.265 51.1089 217.228 51.1016ZM215.206 55.7012C215.199 57.7886 216.034 59.0703 217.228 59.0703C218.443 59.0703 219.264 57.7886 219.264 55.7012C219.264 53.6431 218.443 52.354 217.228 52.3467C216.034 52.354 215.199 53.6431 215.206 55.7012ZM222.545 63.2451V50.1201H223.937V55.2617H226.046V56.4336H223.937V63.2451H222.545ZM237.225 50.1201V63.2744H235.833V50.1201H237.225ZM226.81 55.7012C226.81 52.896 228.223 51.1089 230.208 51.1016C232.157 51.1089 233.592 52.896 233.592 55.7012C233.592 58.5356 232.157 60.3228 230.208 60.3154C228.223 60.3228 226.81 58.5356 226.81 55.7012ZM228.158 55.7012C228.15 57.7886 228.985 59.0703 230.208 59.0703C231.41 59.0703 232.244 57.7886 232.244 55.7012C232.244 53.6431 231.41 52.354 230.208 52.3467C228.985 52.354 228.15 53.6431 228.158 55.7012ZM249.869 50.1201V63.2744H248.477V50.1201H249.869ZM239.835 60.0518V51.3359H246.119V52.4932H241.241V58.8652C243.724 58.8579 245.32 58.7847 247.174 58.4551L247.32 59.6123C245.357 59.9712 243.643 60.0444 240.919 60.0518H239.835ZM263.655 60.5059V61.6777H251.644V60.5059H256.932V58.2061H253.108V54.0312H260.813V52.1855H253.079V51.043H262.19V55.1445H254.485V57.0635H262.498V58.2061H258.309V60.5059H263.655ZM279.641 60.5059V61.6777H267.63V60.5059H272.918V58.2061H269.094V54.0312H276.799V52.1855H269.065V51.043H278.176V55.1445H270.471V57.0635H278.484V58.2061H274.295V60.5059H279.641ZM290.674 51.4531V52.8594C290.674 54.5586 290.674 56.397 290.19 59.2021L288.77 59.0703C289.297 56.4409 289.297 54.5146 289.297 52.8594V52.5957H281.562V51.4531H290.674ZM280.273 61.3848V60.2275H292.241V61.3848H280.273ZM303.801 50.1348V59.6709H302.409V50.1348H303.801ZM293.181 54.2656C293.188 52.3687 294.697 51.021 296.682 51.0137C298.659 51.021 300.168 52.3687 300.168 54.2656C300.168 56.1919 298.659 57.5322 296.682 57.5322C294.697 57.5322 293.188 56.1919 293.181 54.2656ZM294.543 54.2656C294.536 55.5034 295.459 56.3164 296.682 56.3164C297.883 56.3164 298.806 55.5034 298.806 54.2656C298.806 53.0571 297.883 52.2295 296.682 52.2295C295.459 52.2295 294.536 53.0571 294.543 54.2656ZM295.217 62.9668V58.7041H296.623V61.8389H304.197V62.9668H295.217ZM315.874 50.1348V54.3535H317.778V55.5107H315.874V59.9492H314.482V50.1348H315.874ZM305.576 52.7861V51.6582H308.798V50.1201H310.19V51.6582H313.398V52.7861H305.576ZM306.294 55.8916C306.286 54.3901 307.583 53.4087 309.487 53.416C311.369 53.4087 312.666 54.3901 312.666 55.8916C312.666 57.3784 311.369 58.3452 309.487 58.3525C307.583 58.3452 306.286 57.3784 306.294 55.8916ZM307.553 62.9668V59.1729H308.945V61.8389H316.43V62.9668H307.553ZM307.641 55.8916C307.627 56.7485 308.374 57.2759 309.487 57.2686C310.6 57.2759 311.347 56.7485 311.362 55.8916C311.347 55.0273 310.6 54.4927 309.487 54.4854C308.374 54.4927 307.627 55.0273 307.641 55.8916ZM332.416 50.1201V63.2744H331.025V50.1201H332.416ZM322.001 55.7012C322.001 52.896 323.415 51.1089 325.4 51.1016C327.348 51.1089 328.783 52.896 328.783 55.7012C328.783 58.5356 327.348 60.3228 325.4 60.3154C323.415 60.3228 322.001 58.5356 322.001 55.7012ZM323.349 55.7012C323.342 57.7886 324.177 59.0703 325.4 59.0703C326.601 59.0703 327.436 57.7886 327.436 55.7012C327.436 53.6431 326.601 52.354 325.4 52.3467C324.177 52.354 323.342 53.6431 323.349 55.7012ZM339.728 51.5996V55.0127H341.486V50.3691H342.819V62.6006H341.486V56.1553H339.728V59.7881H334.63V51.5996H339.728ZM335.949 58.6748H338.424V52.6982H335.949V58.6748ZM344.152 63.2451V50.1201H345.485V63.2451H344.152ZM4.2041 75.5596C6.18164 75.5742 7.63916 76.7827 7.64648 78.5039C7.63916 80.2324 6.18164 81.4336 4.2041 81.4336C2.20459 81.4336 0.754395 80.2324 0.74707 78.5039C0.754395 76.7827 2.20459 75.5742 4.2041 75.5596ZM2.10938 78.5039C2.10205 79.5879 2.99561 80.3057 4.2041 80.3057C5.40527 80.3057 6.29883 79.5879 6.29883 78.5039C6.29883 77.4346 5.40527 76.7168 4.2041 76.7314C2.99561 76.7168 2.10205 77.4346 2.10938 78.5039ZM2.73926 83.5137V82.4004H11.3672V85.7109H4.13086V86.9707H11.8066V88.084H2.7832V84.6709H9.99023V83.5137H2.73926ZM9.97559 81.7998V75.1201H11.3672V81.7998H9.97559ZM25.139 85.5059V86.6777H13.1273V85.5059H18.4154V83.2061H14.5921V79.0312H22.2972V77.1855H14.5628V76.043H23.6741V80.1445H15.9691V82.0635H23.9818V83.2061H19.7923V85.5059H25.139ZM30.9882 75.6768V77.4639H34.4306V75.6768H35.8076V81.4043H29.6259V75.6768H30.9882ZM30.9443 83.543V82.4443H39.4257V85.7549H32.3359V87H39.8798V88.1133H30.9736V84.7295H38.0488V83.543H30.9443ZM30.9882 80.291H34.4306V78.5332H30.9882V80.291ZM38.0341 81.873V75.1201H39.4257V77.874H41.33V79.002H39.4257V81.873H38.0341ZM48.4221 79.7197V81.5508H53.7249V82.6787H41.7571V81.5508H47.0452V79.7197H48.4221ZM42.4456 79.3389C44.9578 79.0166 47.0232 77.5371 47.0305 75.8818V75.3252H48.4368V75.8818C48.4295 77.5591 50.4876 79.0166 53.0218 79.3389L52.4798 80.4375C50.3997 80.1006 48.5613 79.0898 47.7263 77.6396C46.8914 79.0898 45.053 80.1006 42.9583 80.4375L42.4456 79.3389ZM43.178 85.9453C43.178 84.4731 44.8772 83.6455 47.7337 83.6455C50.5681 83.6455 52.2527 84.4731 52.26 85.9453C52.2527 87.4102 50.5681 88.2231 47.7337 88.2158C44.8772 88.2231 43.178 87.4102 43.178 85.9453ZM44.5843 85.9453C44.5769 86.729 45.7049 87.1611 47.7337 87.1611C49.7332 87.1611 50.8684 86.729 50.8684 85.9453C50.8684 85.147 49.7332 84.7222 47.7337 84.7148C45.7049 84.7222 44.5769 85.147 44.5843 85.9453ZM65.3141 75.1348V82.6934H63.9078V75.1348H65.3141ZM54.4303 81.3018C55.5216 81.3018 56.7813 81.2944 58.0924 81.2578V79.9688H55.6021V75.75H61.8717V76.8926H56.9938V78.8701H61.9889V79.9688H59.4693V81.1992C60.6339 81.1406 61.8131 81.0527 62.9117 80.9062L62.985 81.8877C60.1432 82.3711 56.9864 82.415 54.6354 82.4297L54.4303 81.3018ZM56.5543 88.084V83.2646H57.9459V84.5244H63.9371V83.2646H65.3141V88.084H56.5543ZM57.9459 86.9561H63.9371V85.5938H57.9459V86.9561ZM77.9433 75.1201V88.2451H76.5517V75.1201H77.9433ZM67.8505 84.9053V76.3945H69.2275V83.7041C71.1464 83.6968 73.1606 83.5283 75.2626 83.1035L75.453 84.2754C73.1313 84.7515 71.0219 84.9126 68.9491 84.9053H67.8505ZM89.9133 75.1201V80.2031H92.0227V81.3457H89.9133V88.2744H88.5217V75.1201H89.9133ZM80.2454 85.0078V76.3799H86.383V77.5078H81.637V83.8506C83.8415 83.8433 85.4895 83.748 87.3645 83.4111L87.5403 84.583C85.4822 84.9492 83.739 85.0151 81.3 85.0078H80.2454ZM93.8267 87.1025C93.2554 87.0952 92.7794 86.6338 92.7867 86.0625C92.7794 85.4912 93.2554 85.0225 93.8267 85.0225C94.3907 85.0225 94.8594 85.4912 94.8668 86.0625C94.8594 86.6338 94.3907 87.0952 93.8267 87.1025Z" fill="#262626"/>
</svg>
