<svg width="349" height="114" viewBox="0 0 349 114" fill="none" xmlns="http://www.w3.org/2000/svg">
<path d="M4.04297 1.10156C5.24414 1.10889 6.22559 1.79004 6.8042 2.97656H10.0488V0.120117H11.4258V13.2744H10.0488V8.23535H6.89941C6.33545 9.55371 5.31006 10.3228 4.04297 10.3154C2.0874 10.3228 0.703125 8.53564 0.717773 5.70117C0.703125 2.896 2.0874 1.10889 4.04297 1.10156ZM2.03613 5.70117C2.04346 7.78857 2.85645 9.07031 4.04297 9.07031C5.22949 9.07031 6.04248 7.78857 6.0498 5.70117C6.04248 3.64307 5.22949 2.354 4.04297 2.34668C2.85645 2.354 2.04346 3.64307 2.03613 5.70117ZM7.19971 4.11914C7.30225 4.60254 7.36816 5.12988 7.36816 5.70117C7.36816 6.19922 7.32422 6.66064 7.23633 7.09277H10.0488V4.11914H7.19971ZM24.3187 0.120117V8.39648H23.0003V4.73438H21.4769V7.94238H20.1732V0.369141H21.4769V3.5918H23.0003V0.120117H24.3187ZM13.054 2.71289V1.61426H15.7054V0.222656H17.0823V1.61426H19.6898V2.71289H13.054ZM13.5667 5.58398C13.5667 4.22168 14.7386 3.32812 16.3792 3.32812C18.0565 3.32812 19.221 4.22168 19.221 5.58398C19.221 6.94629 18.0565 7.83984 16.3792 7.83984C14.7386 7.83984 13.5667 6.94629 13.5667 5.58398ZM14.8118 5.58398C14.8118 6.33105 15.449 6.82178 16.3792 6.8291C17.324 6.82178 17.9686 6.33105 17.9613 5.58398C17.9686 4.83691 17.324 4.34619 16.3792 4.35352C15.449 4.34619 14.8118 4.83691 14.8118 5.58398ZM15.4857 10.916C15.471 9.4292 17.1409 8.58691 19.9241 8.58691C22.7147 8.58691 24.3846 9.4292 24.3919 10.916C24.3846 12.3882 22.7147 13.2231 19.9241 13.2158C17.1409 13.2231 15.471 12.3882 15.4857 10.916ZM16.8626 10.916C16.848 11.707 17.9759 12.1611 19.9241 12.1465C21.8797 12.1611 22.993 11.707 23.0003 10.916C22.993 10.0884 21.8797 9.64893 19.9241 9.65625C17.9759 9.64893 16.848 10.0884 16.8626 10.916ZM30.6051 3.9873C30.5978 6.18457 32.0407 8.45508 34.0621 9.31934L33.3004 10.4033C31.755 9.72217 30.5246 8.27197 29.9166 6.52148C29.3087 8.39648 28.0783 9.99316 26.5475 10.7402L25.7418 9.6416C27.7194 8.71143 29.1842 6.25049 29.1989 3.9873V2.5957H26.1959V1.43848H33.5934V2.5957H30.6051V3.9873ZM35.2487 13.2451V0.120117H36.6403V13.2451H35.2487ZM50.4121 6.14062V7.20996H38.4004V6.14062H50.4121ZM39.8213 9.12891V8.13281H48.9326V11.0186H41.2275V12.1025H49.3427V13.084H39.8359V10.0957H47.5556V9.12891H39.8213ZM39.9091 1.43848V0.457031H48.9033V3.29883H41.3154V4.29492H49.123V5.27637H39.9384V2.37598H47.5117V1.43848H39.9091ZM66.3688 8.03027V9.17285H61.066V13.2598H59.6891V9.17285H54.401V8.03027H66.3688ZM55.1041 6.00879C57.5943 5.69385 59.6012 4.30225 59.6891 2.83008H55.5289V1.70215H59.6891V0.120117H61.066V1.70215H65.2262V2.83008H61.0807C61.1539 4.2876 63.1388 5.69385 65.6363 6.00879L65.1383 7.12207C63.0289 6.8291 61.2345 5.84033 60.3849 4.5C59.5353 5.85498 57.7335 6.8291 55.6168 7.12207L55.1041 6.00879ZM71.6445 3.24023C71.6445 4.89551 72.8822 6.41895 74.8964 7.04883L74.2226 8.14746C72.7138 7.67139 71.5785 6.67529 70.978 5.39355C70.4067 6.76318 69.2714 7.83984 67.7187 8.35254L67.0448 7.26855C69.0517 6.62402 70.2675 5.00537 70.2675 3.24023V2.93262H67.4111V1.80469H70.2675V0.208008H71.6591V1.80469H74.5009V2.93262H71.6445V3.24023ZM69.4618 12.9668V9.04102H70.8534V11.8389H78.3388V12.9668H69.4618ZM74.0468 5.23242V4.10449H76.5956V0.134766H77.9872V9.90527H76.5956V5.23242H74.0468ZM90.0012 0.120117V3.22559H91.9055V4.38281H90.0012V7.78125H88.6096V0.120117H90.0012ZM80.2014 7.01953V0.867188H81.5637V2.77148H85.0061V0.867188H86.383V7.01953H80.2014ZM81.5637 5.9209H85.0061V3.87012H81.5637V5.9209ZM81.637 13.0547V8.46973H90.1038V9.58301H83.0286V11.9561H90.3381V13.0547H81.637ZM102.953 3.95801V5.07129H93.9146V0.588867H95.2916V3.95801H102.953ZM92.3179 7.83984V6.72656H104.33V7.83984H92.3179ZM93.8121 12.9375V9.08496H95.2037V11.7949H103.041V12.9375H93.8121ZM119.202 0.120117V9.77344H117.811V0.120117H119.202ZM108.377 7.50293C109.454 7.50293 110.699 7.49561 111.981 7.45898V6.51416C110.457 6.36035 109.498 5.67188 109.505 4.64648C109.498 3.46729 110.758 2.73486 112.684 2.74219C114.581 2.73486 115.87 3.46729 115.877 4.64648C115.87 5.6792 114.888 6.36035 113.372 6.51416V7.40039C114.537 7.3418 115.709 7.24658 116.8 7.09277L116.903 8.08887C114.061 8.54297 110.926 8.58691 108.568 8.58691L108.377 7.50293ZM108.802 2.25879V1.2334H111.981V0.0322266H113.372V1.2334H116.566V2.25879H108.802ZM109.696 12.1318C112.252 11.8608 114.031 10.7109 114.046 9.29004V9.14355H115.452V9.29004C115.452 10.7109 117.247 11.8608 119.803 12.1318L119.32 13.1865C117.247 12.9375 115.54 12.1465 114.742 10.9307C113.936 12.1465 112.244 12.9375 110.194 13.1865L109.696 12.1318ZM110.823 4.64648C110.831 5.26172 111.556 5.60596 112.684 5.61328C113.797 5.60596 114.544 5.26172 114.544 4.64648C114.544 4.03857 113.797 3.69434 112.684 3.69434C111.556 3.69434 110.831 4.03857 110.823 4.64648ZM127.686 1.27734C127.679 3.02051 129.81 4.65381 132.388 4.99805L131.846 6.14062C129.7 5.79639 127.818 4.68311 126.961 3.1377C126.104 4.68311 124.222 5.79639 122.09 6.14062L121.534 4.99805C124.105 4.65381 126.229 3.04248 126.236 1.27734V0.55957H127.686V1.27734ZM120.962 8.57227V7.42969H132.93V8.57227H127.598V13.2451H126.236V8.57227H120.962ZM144.9 0.120117V13.2451H143.567V0.120117H144.9ZM133.753 5.78906C133.753 2.94727 134.866 1.16748 136.58 1.1748C138.177 1.16748 139.253 2.68359 139.414 5.14453H140.901V0.369141H142.234V12.6006H140.901V6.27246H139.422C139.297 8.83594 138.206 10.4253 136.58 10.418C134.866 10.4253 133.753 8.63818 133.753 5.78906ZM135.042 5.78906C135.042 7.87646 135.635 9.10693 136.58 9.09961C137.547 9.10693 138.147 7.87646 138.147 5.78906C138.147 3.69434 137.547 2.47119 136.58 2.47852C135.635 2.47119 135.042 3.69434 135.042 5.78906ZM156.87 3.95801V5.07129H147.832V0.588867H149.209V3.95801H156.87ZM146.236 7.83984V6.72656H158.247V7.83984H146.236ZM147.73 12.9375V9.08496H149.121V11.7949H156.958V12.9375H147.73ZM173.501 0.120117V13.2451H172.168V0.120117H173.501ZM162.046 9.62695C163.906 8.50635 164.851 6.11865 164.858 3.78223V2.72754H162.441V1.59961H168.447V2.72754H166.191V3.78223C166.191 6.02344 167.099 8.27197 168.945 9.33398L168.11 10.3594C166.858 9.6123 166.001 8.27197 165.539 6.68994C165.071 8.40381 164.177 9.86865 162.895 10.667L162.046 9.62695ZM167.48 5.90625V4.76367H169.516V0.398438H170.835V12.5859H169.516V5.90625H167.48ZM185.193 0.134766V4.35352H187.097V5.51074H185.193V9.94922H183.801V0.134766H185.193ZM174.895 2.78613V1.6582H178.117V0.120117H179.509V1.6582H182.717V2.78613H174.895ZM175.612 5.8916C175.605 4.39014 176.901 3.40869 178.806 3.41602C180.688 3.40869 181.984 4.39014 181.984 5.8916C181.984 7.37842 180.688 8.34521 178.806 8.35254C176.901 8.34521 175.605 7.37842 175.612 5.8916ZM176.872 12.9668V9.17285H178.264V11.8389H185.749V12.9668H176.872ZM176.96 5.8916C176.945 6.74854 177.693 7.27588 178.806 7.26855C179.919 7.27588 180.666 6.74854 180.681 5.8916C180.666 5.02734 179.919 4.49268 178.806 4.48535C177.693 4.49268 176.945 5.02734 176.96 5.8916ZM198.393 0.120117V13.2744H197.001V0.120117H198.393ZM187.978 5.70117C187.978 2.896 189.392 1.10889 191.376 1.10156C193.325 1.10889 194.76 2.896 194.76 5.70117C194.76 8.53564 193.325 10.3228 191.376 10.3154C189.392 10.3228 187.978 8.53564 187.978 5.70117ZM189.326 5.70117C189.318 7.78857 190.153 9.07031 191.376 9.07031C192.578 9.07031 193.413 7.78857 193.413 5.70117C193.413 3.64307 192.578 2.354 191.376 2.34668C190.153 2.354 189.318 3.64307 189.326 5.70117ZM206.308 7.81055V9.33398H208.358V7.81055H209.648V13.084H205.004V7.81055H206.308ZM203.7 3.70898C203.693 1.91455 205.136 0.676758 207.143 0.676758C208.871 0.676758 210.212 1.65088 210.497 3.12305H213.061V0.120117H214.452V7.07812H213.061V4.26562H210.504C210.233 5.76709 208.886 6.76318 207.143 6.75586C205.136 6.76318 203.693 5.51807 203.7 3.70898ZM205.033 3.70898C205.026 4.84424 205.905 5.62061 207.143 5.62793C208.358 5.62061 209.223 4.84424 209.223 3.70898C209.223 2.58838 208.358 1.82666 207.143 1.83398C205.905 1.82666 205.026 2.58838 205.033 3.70898ZM206.308 12H208.358V10.3887H206.308V12ZM209.721 12.1318C211.303 11.48 212.079 10.103 212.079 8.79199V7.72266H213.456V8.79199C213.449 10.1689 214.225 11.5605 215.844 12.1318L215.126 13.1865C213.94 12.7324 213.17 11.8755 212.753 10.8354C212.321 11.8462 211.552 12.7178 210.424 13.1865L209.721 12.1318ZM219.01 7.98633V9.37793H225.177V7.98633H226.569V13.084H217.633V7.98633H219.01ZM216.154 7.16602V6.00879H228.121V7.16602H216.154ZM216.798 4.10449C219.34 3.7749 221.42 2.37598 221.427 0.823242V0.266602H222.848V0.823242C222.855 2.33203 224.95 3.79688 227.462 4.10449L226.964 5.20312C224.84 4.91016 222.987 3.89941 222.145 2.50049C221.295 3.90674 219.435 4.91016 217.326 5.20312L216.798 4.10449ZM219.01 11.9707H225.177V10.4619H219.01V11.9707ZM239.696 0.120117V13.2451H238.304V0.120117H239.696ZM229.603 9.90527V1.39453H230.98V8.7041C232.899 8.69678 234.913 8.52832 237.015 8.10352L237.206 9.27539C234.884 9.75146 232.775 9.9126 230.702 9.90527H229.603ZM251.666 0.120117V5.20312H253.775V6.3457H251.666V13.2744H250.274V0.120117H251.666ZM241.998 10.0078V1.37988H248.136V2.50781H243.39V8.85059C245.594 8.84326 247.242 8.74805 249.117 8.41113L249.293 9.58301C247.235 9.94922 245.492 10.0151 243.053 10.0078H241.998ZM255.579 12.1025C255.008 12.0952 254.532 11.6338 254.539 11.0625C254.532 10.4912 255.008 10.0225 255.579 10.0225C256.143 10.0225 256.612 10.4912 256.619 11.0625C256.612 11.6338 256.143 12.0952 255.579 12.1025ZM5.03906 28.46C5.02441 30.7817 6.37939 33.1621 8.33496 34.1143L7.4707 35.2275C6.04248 34.4805 4.93652 33.0156 4.35791 31.2651C3.77197 33.1255 2.62207 34.7002 1.12793 35.4766L0.263672 34.3486C2.27783 33.3818 3.64014 30.8623 3.64746 28.46V26.2188H5.03906V28.46ZM9.31641 38.2451V25.1201H10.708V30.3496H12.8174V31.5361H10.708V38.2451H9.31641ZM25.095 31.5215V32.6494H13.1273V31.5215H15.9984V29.7563C14.9803 29.3462 14.409 28.687 14.4163 27.8154C14.409 26.2554 16.2181 25.3472 19.1038 25.3545C21.9822 25.3472 23.784 26.2554 23.7913 27.8154C23.784 28.687 23.2127 29.3462 22.1946 29.7637V31.5215H25.095ZM14.5482 35.8721C14.5482 34.3706 16.2474 33.543 19.1038 33.543C21.9237 33.543 23.6229 34.3706 23.6302 35.8721C23.6229 37.3882 21.9237 38.2158 19.1038 38.2158C16.2474 38.2158 14.5482 37.3882 14.5482 35.8721ZM15.8519 27.8154C15.8446 28.6943 17.0604 29.1851 19.1038 29.1924C21.1326 29.1851 22.3631 28.6943 22.3558 27.8154C22.3631 26.9365 21.1326 26.4312 19.1038 26.4238C17.0604 26.4312 15.8446 26.9365 15.8519 27.8154ZM15.9544 35.8721C15.9471 36.6924 17.097 37.1611 19.1038 37.1465C21.0814 37.1611 22.2386 36.6924 22.2386 35.8721C22.2386 35.0664 21.0814 34.6123 19.1038 34.6123C17.097 34.6123 15.9471 35.0664 15.9544 35.8721ZM17.4046 31.5215H20.8177V30.1226C20.305 30.2031 19.7264 30.2471 19.1038 30.2471C18.4886 30.2471 17.9173 30.2031 17.4046 30.1299V31.5215ZM30.3414 28.9873C30.3341 31.0601 31.7038 33.3745 33.6959 34.3193L32.9049 35.4033C31.4328 34.7002 30.2609 33.2207 29.6676 31.5068C29.067 33.3745 27.8366 34.9932 26.3424 35.7402L25.5221 34.6416C27.5143 33.6821 28.9572 31.2065 28.9645 28.9873V27.5957H26.0055V26.4385H33.1979V27.5957H30.3414V28.9873ZM34.6041 38.2451V25.1201H35.9957V30.3203H38.1051V31.4922H35.9957V38.2451H34.6041ZM49.0351 28.958V30.0713H39.997V25.5889H41.374V28.958H49.0351ZM38.4004 32.8398V31.7266H50.4121V32.8398H38.4004ZM39.8945 37.9375V34.085H41.2861V36.7949H49.123V37.9375H39.8945ZM65.3141 25.1348V35.0811H63.9225V33.8213H61.2857V32.8398H63.9225V25.1348H65.3141ZM54.3424 31.126C56.7667 31.104 60.0406 31.082 62.8385 30.7305L62.9264 31.7266C61.8058 31.917 60.6266 32.0342 59.4693 32.1147V34.6709H58.0777V32.188C56.8033 32.2393 55.5802 32.2393 54.5182 32.2393L54.3424 31.126ZM55.3678 27.9473C55.3605 26.5557 56.6861 25.6328 58.6344 25.6328C60.5533 25.6328 61.8863 26.5557 61.8863 27.9473C61.8863 29.3462 60.5533 30.2324 58.6344 30.2324C56.6935 30.2324 55.3605 29.3462 55.3678 27.9473ZM56.1588 37.9668V34.1143H57.5357V36.8389H65.6363V37.9668H56.1588ZM56.6861 27.9473C56.6788 28.7236 57.4698 29.207 58.6344 29.207C59.755 29.207 60.5606 28.7236 60.568 27.9473C60.5606 27.1636 59.755 26.6582 58.6344 26.6729C57.4698 26.6582 56.6788 27.1636 56.6861 27.9473ZM77.2695 25.1201V30.4375H79.3788V31.5947H77.2695V38.2451H75.8925V25.1201H77.2695ZM66.9716 28.3135V27.1709H70.2089V25.2959H71.6005V27.1709H74.7499V28.3135H66.9716ZM67.6454 32.3271C67.6454 30.54 69.0224 29.2803 70.912 29.2803C72.7944 29.2803 74.1713 30.54 74.1786 32.3271C74.1713 34.1289 72.7944 35.3813 70.912 35.3887C69.0224 35.3813 67.6454 34.1289 67.6454 32.3271ZM68.9784 32.3271C68.9711 33.4697 69.7914 34.2314 70.912 34.2168C72.0253 34.2314 72.8383 33.4697 72.8456 32.3271C72.8383 31.2065 72.0253 30.4302 70.912 30.4229C69.7914 30.4302 68.9711 31.2065 68.9784 32.3271ZM90.3088 28.958V30.0713H81.2707V25.5889H82.6477V28.958H90.3088ZM79.6741 32.8398V31.7266H91.6858V32.8398H79.6741ZM81.1682 37.9375V34.085H82.5598V36.7949H90.3967V37.9375H81.1682ZM102.325 26.2773V32.4004H96.1874V26.2773H102.325ZM97.5497 31.3018H100.963V27.4053H97.5497V31.3018ZM97.6669 37.9668V33.8066H99.0585V36.8389H106.544V37.9668H97.6669ZM104.596 34.7295V25.1055H105.987V29.0312H107.891V30.2031H105.987V34.7295H104.596ZM118.807 25.6475V26.7607C118.814 27.9253 118.814 29.251 118.448 31.0674H120.316V32.21H108.319V31.0674H117.042C117.188 30.3789 117.283 29.7637 117.335 29.1997L109.666 29.5586L109.49 28.4014L117.408 28.1816C117.43 27.6836 117.43 27.2295 117.43 26.79H109.827V25.6475H118.807ZM109.783 38.084V33.5723H118.821V38.084H109.783ZM111.146 36.9561H117.445V34.6855H111.146V36.9561ZM124.378 30.4375L125.55 26.3945H126.795L126.018 30.4375H124.378ZM138.706 25.1348V34.8906H137.388V30.1299H135.777V34.5391H134.473V25.3691H135.777V28.9873H137.388V25.1348H138.706ZM128.071 27.3467V26.2334H133.052V30.0859H129.448V31.8584C131.074 31.8511 132.312 31.7705 133.755 31.4922L133.902 32.6055C132.246 32.9131 130.884 32.979 128.965 32.9717H128.101V29.0312H131.719V27.3467H128.071ZM130.005 37.9668V33.9824H131.382V36.8389H139.087V37.9668H130.005ZM146.882 25.9404V27.0684H142.253V30.9941C144.583 30.9868 145.967 30.9209 147.571 30.5986L147.703 31.7266C145.974 32.0635 144.48 32.144 141.873 32.1514H140.876V25.9404H146.882ZM142.444 38.0693V33.3379H151.101V38.0693H142.444ZM143.821 36.9414H149.739V34.4365H143.821V36.9414ZM146.15 29.3975V28.2549H149.709V25.1201H151.101V32.708H149.709V29.3975H146.15ZM166.706 28.4746V29.5879H162.824V30.7158H168.112V31.8291H156.145V30.7158H161.433V29.5879H157.712V25.6035H166.574V26.7314H159.104V28.4746H166.706ZM157.58 33.8506V32.8105H166.604V35.8721H158.957V37.0293H166.97V38.1133H157.595V34.876H165.227V33.8506H157.58ZM179.687 25.1201V38.2744H178.295V25.1201H179.687ZM169.521 27.4346V26.3066H175.673V31.0967H170.956V33.9678C173.088 33.9604 174.941 33.8579 177.138 33.499L177.27 34.6416C174.948 35.0298 172.971 35.1177 170.649 35.125H169.536V29.9834H174.252V27.4346H169.521ZM192.345 25.1201V38.2451H190.939V25.1201H192.345ZM181.564 34.7295C185.051 33.0669 186.757 30.7012 187.028 27.6396H182.194V26.5264H188.434C188.434 30.3716 186.801 33.6968 182.297 35.8574L181.564 34.7295ZM196.566 26.4092L195.395 30.4521H194.149L194.926 26.4092H196.566ZM211.571 25.1201V38.2744H210.194V31.0527H207.294V35.0225H201.141V26.1309H202.548V29.4854H205.931V26.1309H207.294V29.9102H210.194V25.1201H211.571ZM202.548 33.8799H205.931V30.584H202.548V33.8799ZM225.24 32.3271V33.4404H213.243V32.3271H225.24ZM214.781 37.9668V34.3047H216.158V36.8389H223.995V37.9668H214.781ZM214.811 31.2285V25.5889H223.775V26.6729H216.217V27.874H223.439V28.9287H216.217V30.1592H223.863V31.2285H214.811ZM231.893 25.3398C234.852 25.3325 236.573 26.1309 236.58 27.5957C236.573 29.0679 234.852 29.8662 231.893 29.8662C228.934 29.8662 227.198 29.0679 227.205 27.5957C227.198 26.1309 228.934 25.3325 231.893 25.3398ZM225.916 31.7852V30.6719H237.884V31.7852H225.916ZM227.352 33.8359V32.7959H236.375V35.8721H228.729V37.0439H236.742V38.1133H227.367V34.8613H234.998V33.8359H227.352ZM228.656 27.5957C228.648 28.4087 229.806 28.8262 231.893 28.8262C233.995 28.8262 235.152 28.4087 235.145 27.5957C235.152 26.8193 233.995 26.3652 231.893 26.3652C229.806 26.3652 228.648 26.8193 228.656 27.5957ZM252.493 28.1084V29.2363H243.484V25.3105H244.847V28.1084H252.493ZM241.888 31.3896V30.2471H253.899V31.3896H248.538V32.6494H252.391V35.7842H244.773V37.0293H252.845V38.1133H243.382V34.8027H251.014V33.7188H243.353V32.6494H247.19V31.3896H241.888ZM265.474 25.1201V38.2744H264.097V31.2139H261.695V30.0566H264.097V25.1201H265.474ZM255 27.4346V26.3066H260.918V30.9941H256.421V33.9824C258.516 33.9678 260.127 33.9019 261.958 33.5723L262.076 34.7148C260.113 35.0591 258.384 35.1396 256.07 35.1543H255.03V29.8662H259.571V27.4346H255ZM280.757 25.1201V30.2031H282.866V31.3457H280.757V38.2744H279.365V25.1201H280.757ZM271.089 35.0078V26.3799H277.227V27.5078H272.48V33.8506C274.685 33.8433 276.333 33.748 278.208 33.4111L278.384 34.583C276.326 34.9492 274.582 35.0151 272.144 35.0078H271.089ZM295.349 26.9805V28.123H293.489V29.793H295.349V30.9502H293.489V32.8691H292.097V25.1201H293.489V26.9805H295.349ZM283.381 29.002C283.366 27.1562 284.861 25.8818 286.867 25.8818C288.882 25.8818 290.354 27.1562 290.368 29.002C290.354 30.833 288.882 32.1147 286.867 32.1221C284.861 32.1147 283.366 30.833 283.381 29.002ZM284.743 29.002C284.729 30.1665 285.637 30.9355 286.867 30.9502C288.098 30.9355 288.999 30.1665 289.006 29.002C288.999 27.8447 288.098 27.0464 286.867 27.0537C285.637 27.0464 284.729 27.8447 284.743 29.002ZM284.846 35.7256C284.846 34.1509 286.545 33.228 289.255 33.2207C291.936 33.228 293.606 34.1509 293.606 35.7256C293.606 37.293 291.936 38.2231 289.255 38.2158C286.545 38.2231 284.846 37.293 284.846 35.7256ZM286.238 35.7256C286.23 36.6191 287.358 37.1099 289.255 37.1025C291.137 37.1099 292.251 36.6191 292.243 35.7256C292.251 34.8467 291.137 34.3413 289.255 34.3486C287.358 34.3413 286.23 34.8467 286.238 35.7256ZM306.132 25.1348V29.3535H308.037V30.5107H306.132V34.9492H304.741V25.1348H306.132ZM295.835 27.7861V26.6582H299.057V25.1201H300.449V26.6582H303.657V27.7861H295.835ZM296.552 30.8916C296.545 29.3901 297.841 28.4087 299.746 28.416C301.628 28.4087 302.924 29.3901 302.924 30.8916C302.924 32.3784 301.628 33.3452 299.746 33.3525C297.841 33.3452 296.545 32.3784 296.552 30.8916ZM297.812 37.9668V34.1729H299.204V36.8389H306.689V37.9668H297.812ZM297.9 30.8916C297.885 31.7485 298.632 32.2759 299.746 32.2686C300.859 32.2759 301.606 31.7485 301.621 30.8916C301.606 30.0273 300.859 29.4927 299.746 29.4854C298.632 29.4927 297.885 30.0273 297.9 30.8916ZM315.365 26.1016C316.567 26.1089 317.548 26.79 318.127 27.9766H321.371V25.1201H322.748V38.2744H321.371V33.2354H318.222C317.658 34.5537 316.633 35.3228 315.365 35.3154C313.41 35.3228 312.026 33.5356 312.04 30.7012C312.026 27.896 313.41 26.1089 315.365 26.1016ZM313.359 30.7012C313.366 32.7886 314.179 34.0703 315.365 34.0703C316.552 34.0703 317.365 32.7886 317.372 30.7012C317.365 28.6431 316.552 27.354 315.365 27.3467C314.179 27.354 313.366 28.6431 313.359 30.7012ZM318.522 29.1191C318.625 29.6025 318.691 30.1299 318.691 30.7012C318.691 31.1992 318.647 31.6606 318.559 32.0928H321.371V29.1191H318.522ZM335.641 25.1201V33.3965H334.323V29.7344H332.799V32.9424H331.496V25.3691H332.799V28.5918H334.323V25.1201H335.641ZM324.377 27.7129V26.6143H327.028V25.2227H328.405V26.6143H331.012V27.7129H324.377ZM324.889 30.584C324.889 29.2217 326.061 28.3281 327.702 28.3281C329.379 28.3281 330.544 29.2217 330.544 30.584C330.544 31.9463 329.379 32.8398 327.702 32.8398C326.061 32.8398 324.889 31.9463 324.889 30.584ZM326.134 30.584C326.134 31.3311 326.772 31.8218 327.702 31.8291C328.647 31.8218 329.291 31.3311 329.284 30.584C329.291 29.8369 328.647 29.3462 327.702 29.3535C326.772 29.3462 326.134 29.8369 326.134 30.584ZM326.808 35.916C326.794 34.4292 328.463 33.5869 331.247 33.5869C334.037 33.5869 335.707 34.4292 335.714 35.916C335.707 37.3882 334.037 38.2231 331.247 38.2158C328.463 38.2231 326.794 37.3882 326.808 35.916ZM328.185 35.916C328.17 36.707 329.298 37.1611 331.247 37.1465C333.202 37.1611 334.315 36.707 334.323 35.916C334.315 35.0884 333.202 34.6489 331.247 34.6562C329.298 34.6489 328.17 35.0884 328.185 35.916ZM341.928 28.9873C341.92 31.1846 343.363 33.4551 345.385 34.3193L344.623 35.4033C343.078 34.7222 341.847 33.272 341.239 31.5215C340.631 33.3965 339.401 34.9932 337.87 35.7402L337.064 34.6416C339.042 33.7114 340.507 31.2505 340.521 28.9873V27.5957H337.518V26.4385H344.916V27.5957H341.928V28.9873ZM346.571 38.2451V25.1201H347.963V38.2451H346.571ZM12.4805 56.1406V57.21H0.46875V56.1406H12.4805ZM1.88965 59.1289V58.1328H11.001V61.0186H3.2959V62.1025H11.4111V63.084H1.9043V60.0957H9.62402V59.1289H1.88965ZM1.97754 51.4385V50.457H10.9717V53.2988H3.38379V54.2949H11.1914V55.2764H2.00684V52.376H9.58008V51.4385H1.97754ZM28.4371 58.0303V59.1729H23.1344V63.2598H21.7575V59.1729H16.4694V58.0303H28.4371ZM17.1725 56.0088C19.6627 55.6938 21.6696 54.3022 21.7575 52.8301H17.5973V51.7021H21.7575V50.1201H23.1344V51.7021H27.2946V52.8301H23.1491C23.2223 54.2876 25.2072 55.6938 27.7047 56.0088L27.2067 57.1221C25.0973 56.8291 23.3029 55.8403 22.4533 54.5C21.6037 55.855 19.8019 56.8291 17.6852 57.1221L17.1725 56.0088ZM33.7129 53.2402C33.7129 54.8955 34.9506 56.4189 36.9648 57.0488L36.291 58.1475C34.7822 57.6714 33.6469 56.6753 33.0463 55.3936C32.4751 56.7632 31.3398 57.8398 29.7871 58.3525L29.1132 57.2686C31.1201 56.624 32.3359 55.0054 32.3359 53.2402V52.9326H29.4795V51.8047H32.3359V50.208H33.7275V51.8047H36.5693V52.9326H33.7129V53.2402ZM31.5302 62.9668V59.041H32.9218V61.8389H40.4072V62.9668H31.5302ZM36.1152 55.2324V54.1045H38.664V50.1348H40.0556V59.9053H38.664V55.2324H36.1152ZM52.0696 50.1201V53.2256H53.9739V54.3828H52.0696V57.7812H50.678V50.1201H52.0696ZM42.2698 57.0195V50.8672H43.6321V52.7715H47.0745V50.8672H48.4514V57.0195H42.2698ZM43.6321 55.9209H47.0745V53.8701H43.6321V55.9209ZM43.7054 63.0547V58.4697H52.1721V59.583H45.097V61.9561H52.4065V63.0547H43.7054ZM60.3775 50.3398C63.3365 50.3325 65.0577 51.1309 65.065 52.5957C65.0577 54.0679 63.3365 54.8662 60.3775 54.8662C57.4186 54.8662 55.6827 54.0679 55.69 52.5957C55.6827 51.1309 57.4186 50.3325 60.3775 50.3398ZM54.401 56.7852V55.6719H66.3688V56.7852H54.401ZM55.8365 58.8359V57.7959H64.86V60.8721H57.2135V62.0439H65.2262V63.1133H55.8512V59.8613H63.483V58.8359H55.8365ZM57.1402 52.5957C57.1329 53.4087 58.2901 53.8262 60.3775 53.8262C62.4796 53.8262 63.6368 53.4087 63.6295 52.5957C63.6368 51.8193 62.4796 51.3652 60.3775 51.3652C58.2901 51.3652 57.1329 51.8193 57.1402 52.5957ZM77.1106 51.2773C77.1033 53.0205 79.2346 54.6538 81.8127 54.998L81.2707 56.1406C79.1247 55.7964 77.2424 54.6831 76.3855 53.1377C75.5286 54.6831 73.6462 55.7964 71.5149 56.1406L70.9582 54.998C73.529 54.6538 75.6531 53.0425 75.6604 51.2773V50.5596H77.1106V51.2773ZM70.387 58.5723V57.4297H82.3547V58.5723H77.0227V63.2451H75.6604V58.5723H70.387ZM90.9286 58.792C90.9286 59.9199 91.4852 61.1138 92.6791 61.8242C93.8803 61.0552 94.4735 59.8027 94.4735 58.792V58.1621H95.8358V58.792C95.8285 60.1543 96.7294 61.4727 98.4432 62.0293L97.7548 63.0547C96.4584 62.6079 95.5722 61.729 95.118 60.6597C94.7006 61.7144 93.9169 62.6738 92.7157 63.1719C91.4559 62.6958 90.6576 61.7656 90.2548 60.6963C89.7787 61.729 88.9144 62.6006 87.6766 63.0547L86.9735 62.0293C88.6581 61.4287 89.5736 60.0591 89.5809 58.792V58.1621H90.9286V58.792ZM86.6366 53.958C86.6439 52.1196 88.1234 50.8599 90.1376 50.8525C92.1444 50.8599 93.6239 52.1196 93.6239 53.958C93.6239 55.7744 92.1444 57.0342 90.1376 57.0342C88.1234 57.0342 86.6439 55.7744 86.6366 53.958ZM87.9989 53.958C87.9916 55.1006 88.8925 55.877 90.1376 55.877C91.368 55.877 92.2616 55.1006 92.2616 53.958C92.2616 52.8081 91.368 52.0317 90.1376 52.0391C88.8925 52.0317 87.9916 52.8081 87.9989 53.958ZM95.8651 57.6055V50.1348H97.2567V57.6055H95.8651ZM101.873 57.9863V59.3779H108.04V57.9863H109.432V63.084H100.496V57.9863H101.873ZM99.0168 57.166V56.0088H110.985V57.166H99.0168ZM99.6613 54.1045C102.203 53.7749 104.283 52.376 104.29 50.8232V50.2666H105.711V50.8232C105.718 52.332 107.813 53.7969 110.325 54.1045L109.827 55.2031C107.703 54.9102 105.85 53.8994 105.008 52.5005C104.158 53.9067 102.298 54.9102 100.189 55.2031L99.6613 54.1045ZM101.873 61.9707H108.04V60.4619H101.873V61.9707ZM122.559 50.1201V63.2451H121.168V50.1201H122.559ZM112.466 59.9053V51.3945H113.843V58.7041C115.762 58.6968 117.776 58.5283 119.878 58.1035L120.069 59.2754C117.747 59.7515 115.638 59.9126 113.565 59.9053H112.466ZM134.529 50.1201V55.2031H136.639V56.3457H134.529V63.2744H133.138V50.1201H134.529ZM124.861 60.0078V51.3799H130.999V52.5078H126.253V58.8506C128.457 58.8433 130.105 58.748 131.98 58.4111L132.156 59.583C130.098 59.9492 128.355 60.0151 125.916 60.0078H124.861ZM138.443 62.1025C137.871 62.0952 137.395 61.6338 137.402 61.0625C137.395 60.4912 137.871 60.0225 138.443 60.0225C139.007 60.0225 139.475 60.4912 139.483 61.0625C139.475 61.6338 139.007 62.0952 138.443 62.1025ZM10.708 75.1201V80.2031H12.8174V81.3457H10.708V88.2744H9.31641V75.1201H10.708ZM1.04004 85.0078V76.3799H7.17773V77.5078H2.43164V83.8506C4.63623 83.8433 6.28418 83.748 8.15918 83.4111L8.33496 84.583C6.27686 84.9492 4.53369 85.0151 2.09473 85.0078H1.04004ZM19.7777 76.2773V82.4004H13.64V76.2773H19.7777ZM15.0023 81.3018H18.4154V77.4053H15.0023V81.3018ZM15.1195 87.9668V83.8066H16.5111V86.8389H23.9964V87.9668H15.1195ZM22.0482 84.7295V75.1055H23.4398V79.0312H25.3441V80.2031H23.4398V84.7295H22.0482ZM32.6728 76.1016C33.874 76.1089 34.8554 76.79 35.434 77.9766H38.6787V75.1201H40.0556V88.2744H38.6787V83.2354H35.5293C34.9653 84.5537 33.9399 85.3228 32.6728 85.3154C30.7172 85.3228 29.333 83.5356 29.3476 80.7012C29.333 77.896 30.7172 76.1089 32.6728 76.1016ZM30.666 80.7012C30.6733 82.7886 31.4863 84.0703 32.6728 84.0703C33.8593 84.0703 34.6723 82.7886 34.6796 80.7012C34.6723 78.6431 33.8593 77.354 32.6728 77.3467C31.4863 77.354 30.6733 78.6431 30.666 80.7012ZM35.8296 79.1191C35.9321 79.6025 35.998 80.1299 35.998 80.7012C35.998 81.1992 35.9541 81.6606 35.8662 82.0928H38.6787V79.1191H35.8296ZM52.9485 75.1201V83.3965H51.6302V79.7344H50.1067V82.9424H48.803V75.3691H50.1067V78.5918H51.6302V75.1201H52.9485ZM41.6839 77.7129V76.6143H44.3352V75.2227H45.7122V76.6143H48.3196V77.7129H41.6839ZM42.1966 80.584C42.1966 79.2217 43.3684 78.3281 45.0091 78.3281C46.6863 78.3281 47.8509 79.2217 47.8509 80.584C47.8509 81.9463 46.6863 82.8398 45.0091 82.8398C43.3684 82.8398 42.1966 81.9463 42.1966 80.584ZM43.4417 80.584C43.4417 81.3311 44.0789 81.8218 45.0091 81.8291C45.9539 81.8218 46.5984 81.3311 46.5911 80.584C46.5984 79.8369 45.9539 79.3462 45.0091 79.3535C44.0789 79.3462 43.4417 79.8369 43.4417 80.584ZM44.1155 85.916C44.1009 84.4292 45.7708 83.5869 48.554 83.5869C51.3445 83.5869 53.0144 84.4292 53.0218 85.916C53.0144 87.3882 51.3445 88.2231 48.554 88.2158C45.7708 88.2231 44.1009 87.3882 44.1155 85.916ZM45.4925 85.916C45.4778 86.707 46.6057 87.1611 48.554 87.1465C50.5096 87.1611 51.6228 86.707 51.6302 85.916C51.6228 85.0884 50.5096 84.6489 48.554 84.6562C46.6057 84.6489 45.4778 85.0884 45.4925 85.916ZM59.235 78.9873C59.2276 81.1846 60.6705 83.4551 62.692 84.3193L61.9303 85.4033C60.3849 84.7222 59.1544 83.272 58.5465 81.5215C57.9386 83.3965 56.7081 84.9932 55.1773 85.7402L54.3717 84.6416C56.3492 83.7114 57.8141 81.2505 57.8287 78.9873V77.5957H54.8258V76.4385H62.2232V77.5957H59.235V78.9873ZM63.8785 88.2451V75.1201H65.2701V88.2451H63.8785ZM79.0419 81.1406V82.21H67.0302V81.1406H79.0419ZM68.4511 84.1289V83.1328H77.5624V86.0186H69.8573V87.1025H77.9726V88.084H68.4657V85.0957H76.1855V84.1289H68.4511ZM68.539 76.4385V75.457H77.5331V78.2988H69.9452V79.2949H77.7529V80.2764H68.5683V77.376H76.1415V76.4385H68.539ZM87.6597 77.5225C87.6671 79.3022 88.8463 81.0161 90.8238 81.7119L90.0621 82.7959C88.6339 82.2466 87.5572 81.1626 86.9932 79.8076C86.4293 81.3164 85.3087 82.5103 83.7632 83.1035L83.0162 82.0049C85.0596 81.2798 86.2755 79.4561 86.2828 77.4785V75.9258H87.6597V77.5225ZM85.4039 87.9668V83.8213H86.8101V86.8389H94.2662V87.9668H85.4039ZM89.813 79.2656V78.123H92.5816V75.1348H93.9732V84.9199H92.5816V79.2656H89.813ZM101.344 76.0576V77.1855H97.5497V78.6504H101.197V79.7197H97.5497V81.3164C99.3075 81.3018 100.457 81.2358 101.812 80.9795L101.944 82.1221C100.406 82.4077 99.1537 82.4663 97.0663 82.459H96.2167V76.0576H101.344ZM97.9452 84.8613V83.7334H106.866V88.2451H105.489V84.8613H97.9452ZM102.633 83.001V75.3691H103.936V78.4746H105.548V75.1348H106.866V83.1035H105.548V79.6025H103.936V83.001H102.633ZM118.543 75.1201V80.4375H120.653V81.5947H118.543V88.2451H117.166V75.1201H118.543ZM108.245 78.3135V77.1709H111.483V75.2959H112.874V77.1709H116.024V78.3135H108.245ZM108.919 82.3271C108.919 80.54 110.296 79.2803 112.186 79.2803C114.068 79.2803 115.445 80.54 115.452 82.3271C115.445 84.1289 114.068 85.3813 112.186 85.3887C110.296 85.3813 108.919 84.1289 108.919 82.3271ZM110.252 82.3271C110.245 83.4697 111.065 84.2314 112.186 84.2168C113.299 84.2314 114.112 83.4697 114.119 82.3271C114.112 81.2065 113.299 80.4302 112.186 80.4229C111.065 80.4302 110.245 81.2065 110.252 82.3271ZM131.583 76.3799V77.6689C131.575 79.2876 131.575 81.104 131.084 83.792L129.678 83.6455C130.184 81.104 130.184 79.2437 130.191 77.6689V77.5078H122.222V76.3799H131.583ZM120.962 86.4727V85.3154H125.518V80.6865H126.895V85.3154H132.93V86.4727H120.962ZM137.022 80.4375L138.194 76.3945H139.439L138.662 80.4375H137.022ZM143.718 76.1016C144.919 76.1089 145.901 76.79 146.479 77.9766H149.724V75.1201H151.101V88.2744H149.724V83.2354H146.575C146.011 84.5537 144.985 85.3228 143.718 85.3154C141.763 85.3228 140.378 83.5356 140.393 80.7012C140.378 77.896 141.763 76.1089 143.718 76.1016ZM141.711 80.7012C141.719 82.7886 142.532 84.0703 143.718 84.0703C144.905 84.0703 145.718 82.7886 145.725 80.7012C145.718 78.6431 144.905 77.354 143.718 77.3467C142.532 77.354 141.719 78.6431 141.711 80.7012ZM146.875 79.1191C146.978 79.6025 147.043 80.1299 147.043 80.7012C147.043 81.1992 146.999 81.6606 146.912 82.0928H149.724V79.1191H146.875ZM163.716 75.1201V88.2451H162.309V75.1201H163.716ZM152.934 84.7295C156.421 83.0669 158.127 80.7012 158.398 77.6396H153.564V76.5264H159.804C159.804 80.3716 158.171 83.6968 153.667 85.8574L152.934 84.7295ZM177.458 85.5059V86.6777H165.446V85.5059H170.734V83.2061H166.911V79.0312H174.616V77.1855H166.882V76.043H175.993V80.1445H168.288V82.0635H176.301V83.2061H172.111V85.5059H177.458ZM191.745 75.1201V77.9619H193.649V79.1191H191.745V81.7559H190.353V75.1201H191.745ZM181.418 80.9502C184.633 80.2544 186.42 78.731 186.625 76.8486H182.033V75.7061H188.171C188.171 79.0825 185.82 81.2285 181.945 82.1074L181.418 80.9502ZM183.263 83.4404V82.3271H191.745V85.6963H184.655V87H192.199V88.1133H183.293V84.627H190.368V83.4404H183.263ZM199.438 76.4971V81.2432H195.834V84.0117C197.255 84.0044 198.603 83.9385 200.185 83.6895L200.302 84.8027C198.478 85.125 197.013 85.1689 195.38 85.1836H194.486V80.1006H198.09V77.6396H194.472V76.4971H199.438ZM201.034 87.5713V75.3838H202.309V80.2324H204.008V75.1201H205.341V88.2451H204.008V81.3604H202.309V87.5713H201.034ZM218.732 85.4473V86.6045H206.72V85.4473H209.591V82.0195C208.515 81.4263 207.855 80.4888 207.863 79.3096C207.855 77.2441 209.884 75.8892 212.697 75.8818C215.517 75.8892 217.545 77.2441 217.545 79.3096C217.545 80.4668 216.915 81.397 215.861 81.9902V85.4473H218.732ZM209.21 79.3096C209.21 80.7158 210.639 81.6313 212.697 81.6387C214.74 81.6313 216.19 80.7158 216.198 79.3096C216.19 77.896 214.74 76.9951 212.697 76.9951C210.639 76.9951 209.21 77.896 209.21 79.3096ZM210.968 85.4473H214.454V82.5322C213.92 82.6567 213.327 82.7227 212.697 82.7227C212.081 82.7227 211.496 82.6567 210.968 82.5322V85.4473ZM221.854 76.4092L220.682 80.4521H219.437L220.214 76.4092H221.854ZM236.859 75.1201V88.2744H235.482V81.0527H232.581V85.0225H226.429V76.1309H227.835V79.4854H231.219V76.1309H232.581V79.9102H235.482V75.1201H236.859ZM227.835 83.8799H231.219V80.584H227.835V83.8799ZM250.528 82.3271V83.4404H238.531V82.3271H250.528ZM240.069 87.9668V84.3047H241.446V86.8389H249.283V87.9668H240.069ZM240.098 81.2285V75.5889H249.063V76.6729H241.505V77.874H248.726V78.9287H241.505V80.1592H249.151V81.2285H240.098ZM257.181 75.3398C260.14 75.3325 261.861 76.1309 261.868 77.5957C261.861 79.0679 260.14 79.8662 257.181 79.8662C254.222 79.8662 252.486 79.0679 252.493 77.5957C252.486 76.1309 254.222 75.3325 257.181 75.3398ZM251.204 81.7852V80.6719H263.172V81.7852H251.204ZM252.64 83.8359V82.7959H261.663V85.8721H254.017V87.0439H262.029V88.1133H252.654V84.8613H260.286V83.8359H252.64ZM253.943 77.5957C253.936 78.4087 255.093 78.8262 257.181 78.8262C259.283 78.8262 260.44 78.4087 260.433 77.5957C260.44 76.8193 259.283 76.3652 257.181 76.3652C255.093 76.3652 253.936 76.8193 253.943 77.5957ZM277.839 79.4414V80.5693H268.714V75.7646H270.105V79.4414H277.839ZM267.19 83.5283V82.3857H279.202V83.5283H273.826V88.2451H272.449V83.5283H267.19ZM291.846 85.4912V86.6338H279.834V85.4912H291.846ZM281.27 77.2148V76.0869H290.381V80.1885H282.676V82.1074H290.688V83.2207H281.299V79.0605H289.004V77.2148H281.27ZM297.312 78.9873C297.304 81.1846 298.747 83.4551 300.769 84.3193L300.007 85.4033C298.462 84.7222 297.231 83.272 296.623 81.5215C296.015 83.3965 294.785 84.9932 293.254 85.7402L292.449 84.6416C294.426 83.7114 295.891 81.2505 295.906 78.9873V77.5957H292.903V76.4385H300.3V77.5957H297.312V78.9873ZM301.955 88.2451V75.1201H303.347V88.2451H301.955ZM312.111 75.8232C314.096 75.8306 315.554 77.0903 315.554 78.8701C315.554 80.6572 314.096 81.9097 312.111 81.917C310.134 81.9097 308.654 80.6572 308.669 78.8701C308.654 77.0903 310.134 75.8306 312.111 75.8232ZM309.782 87.8936V83.0156H311.144V86.751C311.913 86.7144 312.8 86.6045 313.635 86.3262L313.84 87.4248C312.617 87.8423 311.437 87.8936 310.456 87.8936H309.782ZM310.017 78.8701C310.009 79.9907 310.925 80.7744 312.111 80.7744C313.305 80.7744 314.206 79.9907 314.206 78.8701C314.206 77.7568 313.305 76.9805 312.111 76.9805C310.925 76.9805 310.009 77.7568 310.017 78.8701ZM313.386 84.1289V83.0596H316.037V81.9902H317.399V83.0596H320.007V84.1289H313.386ZM314.221 86.3848C314.206 85.2422 315.217 84.5171 316.696 84.5098C318.146 84.5171 319.172 85.2422 319.172 86.3848C319.172 87.5127 318.146 88.2231 316.696 88.2158C315.217 88.2231 314.206 87.5127 314.221 86.3848ZM315.451 86.3848C315.451 86.9194 315.971 87.249 316.696 87.249C317.407 87.249 317.919 86.9194 317.927 86.3848C317.919 85.8501 317.407 85.5059 316.696 85.5059C315.971 85.5059 315.451 85.8501 315.451 86.3848ZM317.385 81.6533V75.1201H318.776V77.9912H320.681V79.1484H318.776V81.6533H317.385ZM331.728 76.3799V77.6689C331.72 79.2876 331.72 81.104 331.23 83.792L329.823 83.6455C330.329 81.104 330.329 79.2437 330.336 77.6689V77.5078H322.367V76.3799H331.728ZM321.108 86.4727V85.3154H325.663V80.6865H327.04V85.3154H333.075V86.4727H321.108ZM348.446 75.1201V88.2451H347.113V75.1201H348.446ZM336.947 83.9092C337.328 83.9092 337.767 83.9092 338.236 83.9019V77.874H337.225V76.7314H343.246V77.874H342.235V83.7407C342.682 83.7041 343.114 83.6528 343.51 83.6016L343.612 84.6123C341.532 85.0225 338.807 85.0811 337.108 85.0811L336.947 83.9092ZM339.496 83.8799C339.972 83.8726 340.463 83.8506 340.946 83.8286V77.874H339.496V83.8799ZM342.894 81.2871V80.042H344.535V75.4131H345.853V87.5713H344.535V81.2871H342.894ZM11.3525 100.12V113.274H9.96094V100.12H11.3525ZM0.9375 105.701C0.9375 102.896 2.35107 101.109 4.33594 101.102C6.28418 101.109 7.71973 102.896 7.71973 105.701C7.71973 108.536 6.28418 110.323 4.33594 110.315C2.35107 110.323 0.9375 108.536 0.9375 105.701ZM2.28516 105.701C2.27783 107.789 3.11279 109.07 4.33594 109.07C5.53711 109.07 6.37207 107.789 6.37207 105.701C6.37207 103.643 5.53711 102.354 4.33594 102.347C3.11279 102.354 2.27783 103.643 2.28516 105.701ZM17.9613 103.987C17.9539 106.185 19.3968 108.455 21.4183 109.319L20.6566 110.403C19.1112 109.722 17.8807 108.272 17.2728 106.521C16.6649 108.396 15.4344 109.993 13.9036 110.74L13.098 109.642C15.0755 108.711 16.5404 106.25 16.555 103.987V102.596H13.5521V101.438H20.9495V102.596H17.9613V103.987ZM22.6048 113.245V100.12H23.9964V113.245H22.6048ZM37.7682 106.141V107.21H25.7565V106.141H37.7682ZM27.1774 109.129V108.133H36.2887V111.019H28.5836V112.103H36.6989V113.084H27.192V110.096H34.9118V109.129H27.1774ZM27.2653 101.438V100.457H36.2594V103.299H28.6715V104.295H36.4791V105.276H27.2946V102.376H34.8678V101.438H27.2653ZM54.0179 105.276V106.419H51.9817V113.23H50.5901V100.12H51.9817V105.276H54.0179ZM42.2552 109.935V101.395H43.6321V108.777C45.4632 108.77 47.3748 108.616 49.4622 108.191L49.6233 109.363C47.3748 109.81 45.3094 109.942 43.3391 109.935H42.2552ZM64.6256 100.12V105.35H66.6617V106.507H64.6256V113.23H63.234V100.12H64.6256ZM54.4156 109.729C57.7042 108.089 59.4913 105.716 59.777 102.654H55.0748V101.497H61.1979C61.1832 105.291 59.5133 108.682 55.192 110.813L54.4156 109.729ZM73.7392 101.233V102.347H76.5956V100.135H77.9872V109.7H76.5956V106.302H73.7392V107.444H67.6454V101.233H73.7392ZM69.0224 106.346H72.3769V102.361H69.0224V106.346ZM69.4179 112.967V108.821H70.8241V111.839H78.2802V112.967H69.4179ZM73.7392 105.159H76.5956V103.489H73.7392V105.159ZM93.9879 100.12V113.274H92.5963V105.979H89.8863V104.837H92.5963V100.12H93.9879ZM82.8843 109.612C84.8912 108.653 86.3047 106.17 86.3121 103.812V102.581H83.4117V101.438H90.6334V102.581H87.7183V103.812C87.7183 106.031 89.1172 108.426 91.1314 109.319L90.2964 110.433C88.7803 109.7 87.6158 108.169 87.0298 106.382C86.4439 108.287 85.2501 109.92 83.7339 110.696L82.8843 109.612ZM100.26 102.537C100.252 104.207 101.417 105.73 103.409 106.36L102.75 107.444C101.256 106.968 100.164 105.979 99.5858 104.734C99.0145 106.17 97.8646 107.305 96.2899 107.854L95.5722 106.741C97.6229 106.067 98.8607 104.375 98.868 102.552V102.186H95.9823V101.058H103.087V102.186H100.26V102.537ZM97.3446 110.755C97.3446 109.217 99.0219 108.316 101.754 108.323C104.456 108.316 106.104 109.217 106.104 110.755C106.104 112.315 104.456 113.223 101.754 113.216C99.0219 113.223 97.3446 112.315 97.3446 110.755ZM98.7362 110.755C98.7289 111.634 99.8568 112.125 101.754 112.117C103.636 112.125 104.749 111.634 104.742 110.755C104.749 109.898 103.636 109.415 101.754 109.422C99.8568 109.415 98.7289 109.898 98.7362 110.755ZM104.596 108.001V100.12H105.987V103.372H107.891V104.515H105.987V108.001H104.596ZM116.141 105.672V106.814H113.372V109.246C114.588 109.195 115.811 109.114 116.961 108.982L117.064 110.008C114.171 110.44 111.065 110.484 108.568 110.491L108.392 109.334C109.498 109.334 110.721 109.327 111.981 109.297V106.814H109.344V101.336H116.082V102.464H110.721V105.672H116.141ZM117.781 113.274V100.12H119.173V113.274H117.781ZM125.796 103.987C125.789 106.185 127.232 108.455 129.253 109.319L128.492 110.403C126.946 109.722 125.716 108.272 125.108 106.521C124.5 108.396 123.27 109.993 121.739 110.74L120.933 109.642C122.911 108.711 124.376 106.25 124.39 103.987V102.596H121.387V101.438H128.785V102.596H125.796V103.987ZM130.44 113.245V100.12H131.832V113.245H130.44ZM140.596 100.823C142.581 100.831 144.038 102.09 144.038 103.87C144.038 105.657 142.581 106.91 140.596 106.917C138.618 106.91 137.139 105.657 137.153 103.87C137.139 102.09 138.618 100.831 140.596 100.823ZM138.267 112.894V108.016H139.629V111.751C140.398 111.714 141.284 111.604 142.119 111.326L142.324 112.425C141.101 112.842 139.922 112.894 138.941 112.894H138.267ZM138.501 103.87C138.494 104.991 139.409 105.774 140.596 105.774C141.79 105.774 142.691 104.991 142.691 103.87C142.691 102.757 141.79 101.98 140.596 101.98C139.409 101.98 138.494 102.757 138.501 103.87ZM141.87 109.129V108.06H144.522V106.99H145.884V108.06H148.491V109.129H141.87ZM142.705 111.385C142.691 110.242 143.701 109.517 145.181 109.51C146.631 109.517 147.656 110.242 147.656 111.385C147.656 112.513 146.631 113.223 145.181 113.216C143.701 113.223 142.691 112.513 142.705 111.385ZM143.936 111.385C143.936 111.919 144.456 112.249 145.181 112.249C145.891 112.249 146.404 111.919 146.411 111.385C146.404 110.85 145.891 110.506 145.181 110.506C144.456 110.506 143.936 110.85 143.936 111.385ZM145.869 106.653V100.12H147.261V102.991H149.165V104.148H147.261V106.653H145.869ZM155.569 100.911C158.323 100.911 160.417 102.369 160.417 104.573C160.417 106.792 158.323 108.243 155.569 108.235C152.822 108.243 150.728 106.792 150.735 104.573C150.728 102.369 152.822 100.911 155.569 100.911ZM149.592 111.546V110.389H161.604V111.546H149.592ZM152.068 104.573C152.061 106.104 153.555 107.093 155.569 107.093C157.576 107.093 159.062 106.104 159.07 104.573C159.062 103.05 157.576 102.032 155.569 102.039C153.555 102.032 152.061 103.05 152.068 104.573ZM173.135 100.12V113.245H171.743V100.12H173.135ZM163.042 109.905V101.395H164.419V108.704C166.338 108.697 168.352 108.528 170.454 108.104L170.644 109.275C168.323 109.751 166.213 109.913 164.14 109.905H163.042ZM182.822 102.83C182.822 104.346 184.008 105.752 186.015 106.331L185.371 107.415C183.854 106.976 182.734 106.045 182.148 104.852C181.569 106.163 180.427 107.181 178.867 107.664L178.193 106.58C180.2 105.987 181.445 104.493 181.445 102.83V102.698H178.588V101.585H181.445V100.062H182.836V101.585H185.678V102.698H182.822V102.83ZM180.156 113.084V108.455H188.535V113.084H180.156ZM181.518 111.956H187.158V109.554H181.518V111.956ZM187.143 107.869V100.12H188.535V103.372H190.439V104.529H188.535V107.869H187.143ZM201.486 101.38V102.669C201.479 104.288 201.479 106.104 200.988 108.792L199.582 108.646C200.087 106.104 200.087 104.244 200.094 102.669V102.508H192.126V101.38H201.486ZM190.866 111.473V110.315H195.422V105.687H196.799V110.315H202.834V111.473H190.866ZM217.077 100.12V105.203H219.186V106.375H217.077V113.245H215.685V100.12H217.077ZM207.35 110.125V101.219H208.727V104.588H212.199V101.219H213.576V110.125H207.35ZM208.727 108.982H212.199V105.687H208.727V108.982ZM229.808 100.135V103.196H231.727V104.368H229.808V107.371H228.417V100.135H229.808ZM220.023 101.893V100.75H226V104.383H221.429V105.965C223.707 105.943 225.319 105.877 227.23 105.525L227.377 106.668C225.348 107.02 223.612 107.1 221.092 107.107H220.038V103.313H224.637V101.893H220.023ZM221.415 113.084V107.928H222.792V109.407H228.417V107.928H229.808V113.084H221.415ZM222.792 111.956H228.417V110.506H222.792V111.956ZM243.038 100.12V113.245H241.647V100.12H243.038ZM232.945 109.905V101.395H234.322V108.704C236.241 108.697 238.255 108.528 240.357 108.104L240.548 109.275C238.226 109.751 236.117 109.913 234.044 109.905H232.945ZM255.008 100.12V105.203H257.118V106.346H255.008V113.274H253.617V100.12H255.008ZM245.34 110.008V101.38H251.478V102.508H246.732V108.851C248.936 108.843 250.584 108.748 252.459 108.411L252.635 109.583C250.577 109.949 248.834 110.015 246.395 110.008H245.34ZM258.922 112.103C258.35 112.095 257.874 111.634 257.882 111.062C257.874 110.491 258.35 110.022 258.922 110.022C259.486 110.022 259.954 110.491 259.962 111.062C259.954 111.634 259.486 112.095 258.922 112.103Z" fill="#262626"/>
</svg>
