<svg width="352" height="64" viewBox="0 0 352 64" fill="none" xmlns="http://www.w3.org/2000/svg">
<path d="M4.2041 0.55957C6.18164 0.574219 7.63916 1.78271 7.64648 3.50391C7.63916 5.23242 6.18164 6.43359 4.2041 6.43359C2.20459 6.43359 0.754395 5.23242 0.74707 3.50391C0.754395 1.78271 2.20459 0.574219 4.2041 0.55957ZM2.10938 3.50391C2.10205 4.58789 2.99561 5.30566 4.2041 5.30566C5.40527 5.30566 6.29883 4.58789 6.29883 3.50391C6.29883 2.43457 5.40527 1.7168 4.2041 1.73145C2.99561 1.7168 2.10205 2.43457 2.10938 3.50391ZM2.73926 8.51367V7.40039H11.3672V10.7109H4.13086V11.9707H11.8066V13.084H2.7832V9.6709H9.99023V8.51367H2.73926ZM9.97559 6.7998V0.120117H11.3672V6.7998H9.97559ZM24.0696 0.120117V7.92773H22.678V4.60254H20.2318V3.45996H22.678V0.120117H24.0696ZM13.1273 6.74121C15.1634 6.03076 16.4158 4.2583 16.4085 2.44922V2.15625H13.5667V1.02832H20.6419V2.15625H17.8294V2.43457C17.8221 4.09717 19.0086 5.71582 20.9935 6.38965L20.2757 7.48828C18.8035 6.98291 17.7196 5.92822 17.1483 4.63184C16.577 6.09668 15.4271 7.27588 13.8597 7.85449L13.1273 6.74121ZM15.2366 10.7695C15.2293 9.20947 16.9139 8.30127 19.6751 8.29395C22.4217 8.30127 24.1063 9.20947 24.1136 10.7695C24.1063 12.3296 22.4217 13.2378 19.6751 13.2451C16.9139 13.2378 15.2293 12.3296 15.2366 10.7695ZM16.6136 10.7695C16.6063 11.6558 17.7488 12.1611 19.6751 12.1465C21.5867 12.1611 22.7293 11.6558 22.7366 10.7695C22.7293 9.87598 21.5867 9.37061 19.6751 9.37793C17.7488 9.37061 16.6063 9.87598 16.6136 10.7695ZM31.7477 0.339844C34.7067 0.33252 36.4279 1.13086 36.4352 2.5957C36.4279 4.06787 34.7067 4.86621 31.7477 4.86621C28.7887 4.86621 27.0529 4.06787 27.0602 2.5957C27.0529 1.13086 28.7887 0.33252 31.7477 0.339844ZM25.7711 6.78516V5.67188H37.7389V6.78516H25.7711ZM27.2067 8.83594V7.7959H36.2301V10.8721H28.5836V12.0439H36.5963V13.1133H27.2213V9.86133H34.8532V8.83594H27.2067ZM28.5104 2.5957C28.5031 3.40869 29.6603 3.82617 31.7477 3.82617C33.8497 3.82617 35.007 3.40869 34.9996 2.5957C35.007 1.81934 33.8497 1.36523 31.7477 1.36523C29.6603 1.36523 28.5031 1.81934 28.5104 2.5957ZM45.7708 2.63965C45.7708 4.0752 46.6863 5.52539 48.3929 6.16992L47.6604 7.23926C46.4373 6.77051 45.5804 5.87695 45.1116 4.80029C44.6282 6.01611 43.7346 7.0708 42.4602 7.62012L41.6985 6.53613C43.471 5.76709 44.4231 4.09717 44.4231 2.63965V0.94043H45.7708V2.63965ZM44.1155 10.8428C44.1009 9.34863 45.8074 8.4624 48.554 8.45508C51.2932 8.4624 53.0144 9.34863 53.0218 10.8428C53.0144 12.3369 51.2932 13.2231 48.554 13.2158C45.8074 13.2231 44.1009 12.3369 44.1155 10.8428ZM45.4925 10.8428C45.4778 11.6777 46.6424 12.1611 48.554 12.1465C50.4583 12.1611 51.6228 11.6777 51.6302 10.8428C51.6228 10.0005 50.4583 9.51709 48.554 9.52441C46.6424 9.51709 45.4778 10.0005 45.4925 10.8428ZM48.803 7.7959V0.369141H50.0921V3.54785H51.6302V0.134766H52.9485V8.20605H51.6302V4.69043H50.0921V7.7959H48.803ZM59.0592 2.08301C59.0519 3.92139 60.2457 5.56201 62.2379 6.21387L61.4762 7.29785C60.0333 6.77051 58.9713 5.75977 58.4 4.44141C57.836 5.94287 56.6935 7.12207 55.1041 7.69336L54.357 6.58008C56.4518 5.8623 57.6676 4.11182 57.6822 2.1416V0.852539H59.0592V2.08301ZM56.5104 10.7402C56.503 9.15088 58.1876 8.22803 60.9488 8.23535C63.6954 8.22803 65.38 9.15088 65.3873 10.7402C65.38 12.3223 63.6954 13.2231 60.9488 13.2158C58.1876 13.2231 56.503 12.3223 56.5104 10.7402ZM57.8873 10.7402C57.88 11.6118 59.0226 12.1245 60.9488 12.1172C62.8605 12.1245 64.003 11.6118 64.0104 10.7402C64.003 9.83936 62.8605 9.31934 60.9488 9.31934C59.0226 9.31934 57.88 9.83936 57.8873 10.7402ZM61.1832 3.92871V2.78613H63.9518V0.120117H65.3434V7.86914H63.9518V3.92871H61.1832ZM78.2363 0.134766V8.25H76.9179V4.79297H75.4238V8.05957H74.12V0.325195H75.4238V3.66504H76.9179V0.134766H78.2363ZM66.9716 2.6543V1.54102H69.623V0.178711H70.9999V1.54102H73.6073V2.6543H66.9716ZM67.4843 5.51074C67.4843 4.12646 68.6562 3.24023 70.2968 3.24023C71.974 3.24023 73.1386 4.12646 73.1386 5.51074C73.1386 6.85107 71.974 7.7666 70.2968 7.7666C68.6562 7.7666 67.4843 6.85107 67.4843 5.51074ZM67.8505 12.0293C69.5131 11.502 70.4506 10.2129 70.4579 9.02637V8.63086H71.8202V9.02637C71.8129 10.0957 72.3549 11.209 73.5268 11.8682C74.7133 11.1504 75.2919 9.96387 75.2919 9.02637V8.63086H76.6689V9.02637C76.6615 10.2861 77.5771 11.5459 79.2763 12.0293L78.6171 13.084C77.3134 12.6592 76.4272 11.8096 75.9657 10.7695C75.5629 11.7876 74.7792 12.7324 73.5634 13.2012C72.3036 12.7471 71.5126 11.8608 71.1098 10.8281C70.6337 11.8169 69.7475 12.6519 68.5097 13.084L67.8505 12.0293ZM68.7294 5.51074C68.7294 6.25781 69.3666 6.73389 70.2968 6.74121C71.2416 6.73389 71.8862 6.25781 71.8788 5.51074C71.8862 4.72705 71.2416 4.2583 70.2968 4.26562C69.3666 4.2583 68.7294 4.72705 68.7294 5.51074ZM89.9133 0.120117V5.20312H92.0227V6.3457H89.9133V13.2744H88.5217V0.120117H89.9133ZM80.2454 10.0078V1.37988H86.383V2.50781H81.637V8.85059C83.8415 8.84326 85.4895 8.74805 87.3645 8.41113L87.5403 9.58301C85.4822 9.94922 83.739 10.0151 81.3 10.0078H80.2454ZM99.0269 1.2334V2.34668H101.883V0.134766H103.275V9.7002H101.883V6.30176H99.0269V7.44434H92.9332V1.2334H99.0269ZM94.3101 6.3457H97.6646V2.36133H94.3101V6.3457ZM94.7056 12.9668V8.82129H96.1119V11.8389H103.568V12.9668H94.7056ZM99.0269 5.15918H101.883V3.48926H99.0269V5.15918ZM111.878 1.10156C113.079 1.10889 114.061 1.79004 114.639 2.97656H117.884V0.120117H119.261V13.2744H117.884V8.23535H114.735C114.171 9.55371 113.145 10.3228 111.878 10.3154C109.923 10.3228 108.538 8.53564 108.553 5.70117C108.538 2.896 109.923 1.10889 111.878 1.10156ZM109.871 5.70117C109.879 7.78857 110.692 9.07031 111.878 9.07031C113.065 9.07031 113.878 7.78857 113.885 5.70117C113.878 3.64307 113.065 2.354 111.878 2.34668C110.692 2.354 109.879 3.64307 109.871 5.70117ZM115.035 4.11914C115.137 4.60254 115.203 5.12988 115.203 5.70117C115.203 6.19922 115.159 6.66064 115.071 7.09277H117.884V4.11914H115.035ZM132.154 0.120117V8.39648H130.835V4.73438H129.312V7.94238H128.008V0.369141H129.312V3.5918H130.835V0.120117H132.154ZM120.889 2.71289V1.61426H123.541V0.222656H124.918V1.61426H127.525V2.71289H120.889ZM121.402 5.58398C121.402 4.22168 122.574 3.32812 124.214 3.32812C125.892 3.32812 127.056 4.22168 127.056 5.58398C127.056 6.94629 125.892 7.83984 124.214 7.83984C122.574 7.83984 121.402 6.94629 121.402 5.58398ZM122.647 5.58398C122.647 6.33105 123.284 6.82178 124.214 6.8291C125.159 6.82178 125.804 6.33105 125.796 5.58398C125.804 4.83691 125.159 4.34619 124.214 4.35352C123.284 4.34619 122.647 4.83691 122.647 5.58398ZM123.321 10.916C123.306 9.4292 124.976 8.58691 127.759 8.58691C130.55 8.58691 132.22 9.4292 132.227 10.916C132.22 12.3882 130.55 13.2231 127.759 13.2158C124.976 13.2231 123.306 12.3882 123.321 10.916ZM124.698 10.916C124.683 11.707 125.811 12.1611 127.759 12.1465C129.715 12.1611 130.828 11.707 130.835 10.916C130.828 10.0884 129.715 9.64893 127.759 9.65625C125.811 9.64893 124.683 10.0884 124.698 10.916ZM138.44 3.9873C138.433 6.18457 139.876 8.45508 141.897 9.31934L141.136 10.4033C139.59 9.72217 138.36 8.27197 137.752 6.52148C137.144 8.39648 135.913 9.99316 134.383 10.7402L133.577 9.6416C135.555 8.71143 137.019 6.25049 137.034 3.9873V2.5957H134.031V1.43848H141.429V2.5957H138.44V3.9873ZM143.084 13.2451V0.120117H144.475V13.2451H143.084ZM156.87 3.95801V5.07129H147.832V0.588867H149.209V3.95801H156.87ZM146.236 7.83984V6.72656H158.247V7.83984H146.236ZM147.73 12.9375V9.08496H149.121V11.7949H156.958V12.9375H147.73ZM173.179 0.134766V9.83203H171.787V6.41895H168.916V7.64941H162.866V0.999023H164.258V3.22559H167.539V0.999023H168.916V2.46387H171.787V0.134766H173.179ZM164.258 6.52148H167.539V4.29492H164.258V6.52148ZM164.609 12.9668V8.87988H166.015V11.8389H173.471V12.9668H164.609ZM168.916 5.29102H171.787V3.60645H168.916V5.29102ZM185.822 0.134766V7.89844H184.431V6.30176H181.12V5.15918H184.431V3.5625H181.259C180.41 5.67188 178.44 7.15869 175.598 7.97168L175.041 6.8877C178.147 6.00146 179.963 4.33154 180.212 2.21484H175.715V1.07227H181.721C181.721 1.55566 181.67 2.02441 181.582 2.46387H184.431V0.134766H185.822ZM177.077 10.6084C177.077 9.01904 178.806 8.05225 181.501 8.04492C184.16 8.05225 185.903 9.01904 185.91 10.6084C185.903 12.2051 184.16 13.1865 181.501 13.1865C178.806 13.1865 177.077 12.2051 177.077 10.6084ZM178.454 10.6084C178.454 11.5312 179.626 12.0659 181.501 12.0732C183.339 12.0659 184.511 11.5312 184.519 10.6084C184.511 9.6709 183.339 9.13623 181.501 9.14355C179.626 9.13623 178.454 9.6709 178.454 10.6084ZM197.836 0.0761719V3.15234H199.755V4.29492H197.836V7.29785H196.445V0.0761719H197.836ZM187.539 2.33203V1.2334H190.761V0.00292969H192.153V1.2334H195.361V2.33203H187.539ZM188.256 4.9834C188.249 3.65771 189.523 2.83008 191.45 2.83008C193.376 2.83008 194.628 3.65771 194.628 4.9834C194.628 6.31641 193.376 7.12939 191.45 7.12207C189.523 7.12939 188.249 6.31641 188.256 4.9834ZM189.355 8.95312V7.91309H197.836V10.96H190.747V12.0586H198.29V13.1133H189.384V9.97852H196.459V8.95312H189.355ZM189.604 4.9834C189.589 5.69385 190.314 6.11133 191.45 6.11133C192.578 6.11133 193.31 5.69385 193.325 4.9834C193.31 4.27295 192.578 3.8335 191.45 3.82617C190.314 3.8335 189.589 4.27295 189.604 4.9834ZM210.233 1.27734C210.226 3.02051 212.357 4.65381 214.936 4.99805L214.394 6.14062C212.248 5.79639 210.365 4.68311 209.508 3.1377C208.651 4.68311 206.769 5.79639 204.638 6.14062L204.081 4.99805C206.652 4.65381 208.776 3.04248 208.783 1.27734V0.55957H210.233V1.27734ZM203.51 8.57227V7.42969H215.478V8.57227H210.146V13.2451H208.783V8.57227H203.51ZM222.294 7.81055V9.33398H224.344V7.81055H225.634V13.084H220.99V7.81055H222.294ZM219.686 3.70898C219.679 1.91455 221.122 0.676758 223.129 0.676758C224.857 0.676758 226.197 1.65088 226.483 3.12305H229.047V0.120117H230.438V7.07812H229.047V4.26562H226.49C226.219 5.76709 224.872 6.76318 223.129 6.75586C221.122 6.76318 219.679 5.51807 219.686 3.70898ZM221.019 3.70898C221.012 4.84424 221.891 5.62061 223.129 5.62793C224.344 5.62061 225.209 4.84424 225.209 3.70898C225.209 2.58838 224.344 1.82666 223.129 1.83398C221.891 1.82666 221.012 2.58838 221.019 3.70898ZM222.294 12H224.344V10.3887H222.294V12ZM225.707 12.1318C227.289 11.48 228.065 10.103 228.065 8.79199V7.72266H229.442V8.79199C229.435 10.1689 230.211 11.5605 231.83 12.1318L231.112 13.1865C229.926 12.7324 229.156 11.8755 228.739 10.8354C228.307 11.8462 227.538 12.7178 226.41 13.1865L225.707 12.1318ZM234.996 7.98633V9.37793H241.163V7.98633H242.555V13.084H233.619V7.98633H234.996ZM232.14 7.16602V6.00879H244.107V7.16602H232.14ZM232.784 4.10449C235.326 3.7749 237.406 2.37598 237.413 0.823242V0.266602H238.834V0.823242C238.841 2.33203 240.936 3.79688 243.448 4.10449L242.95 5.20312C240.826 4.91016 238.973 3.89941 238.131 2.50049C237.281 3.90674 235.421 4.91016 233.312 5.20312L232.784 4.10449ZM234.996 11.9707H241.163V10.4619H234.996V11.9707ZM255.682 0.120117V13.2451H254.29V0.120117H255.682ZM245.589 9.90527V1.39453H246.966V8.7041C248.885 8.69678 250.899 8.52832 253.001 8.10352L253.192 9.27539C250.87 9.75146 248.761 9.9126 246.688 9.90527H245.589ZM267.652 0.120117V5.20312H269.761V6.3457H267.652V13.2744H266.26V0.120117H267.652ZM257.984 10.0078V1.37988H264.122V2.50781H259.376V8.85059C261.58 8.84326 263.228 8.74805 265.103 8.41113L265.279 9.58301C263.221 9.94922 261.478 10.0151 259.039 10.0078H257.984ZM271.565 12.1025C270.994 12.0952 270.518 11.6338 270.525 11.0625C270.518 10.4912 270.994 10.0225 271.565 10.0225C272.129 10.0225 272.598 10.4912 272.605 11.0625C272.598 11.6338 272.129 12.0952 271.565 12.1025ZM4.04297 26.1016C5.24414 26.1089 6.22559 26.79 6.8042 27.9766H10.0488V25.1201H11.4258V38.2744H10.0488V33.2354H6.89941C6.33545 34.5537 5.31006 35.3228 4.04297 35.3154C2.0874 35.3228 0.703125 33.5356 0.717773 30.7012C0.703125 27.896 2.0874 26.1089 4.04297 26.1016ZM2.03613 30.7012C2.04346 32.7886 2.85645 34.0703 4.04297 34.0703C5.22949 34.0703 6.04248 32.7886 6.0498 30.7012C6.04248 28.6431 5.22949 27.354 4.04297 27.3467C2.85645 27.354 2.04346 28.6431 2.03613 30.7012ZM7.19971 29.1191C7.30225 29.6025 7.36816 30.1299 7.36816 30.7012C7.36816 31.1992 7.32422 31.6606 7.23633 32.0928H10.0488V29.1191H7.19971ZM24.3187 25.1201V33.3965H23.0003V29.7344H21.4769V32.9424H20.1732V25.3691H21.4769V28.5918H23.0003V25.1201H24.3187ZM13.054 27.7129V26.6143H15.7054V25.2227H17.0823V26.6143H19.6898V27.7129H13.054ZM13.5667 30.584C13.5667 29.2217 14.7386 28.3281 16.3792 28.3281C18.0565 28.3281 19.221 29.2217 19.221 30.584C19.221 31.9463 18.0565 32.8398 16.3792 32.8398C14.7386 32.8398 13.5667 31.9463 13.5667 30.584ZM14.8118 30.584C14.8118 31.3311 15.449 31.8218 16.3792 31.8291C17.324 31.8218 17.9686 31.3311 17.9613 30.584C17.9686 29.8369 17.324 29.3462 16.3792 29.3535C15.449 29.3462 14.8118 29.8369 14.8118 30.584ZM15.4857 35.916C15.471 34.4292 17.1409 33.5869 19.9241 33.5869C22.7147 33.5869 24.3846 34.4292 24.3919 35.916C24.3846 37.3882 22.7147 38.2231 19.9241 38.2158C17.1409 38.2231 15.471 37.3882 15.4857 35.916ZM16.8626 35.916C16.848 36.707 17.9759 37.1611 19.9241 37.1465C21.8797 37.1611 22.993 36.707 23.0003 35.916C22.993 35.0884 21.8797 34.6489 19.9241 34.6562C17.9759 34.6489 16.848 35.0884 16.8626 35.916ZM30.6051 28.9873C30.5978 31.1846 32.0407 33.4551 34.0621 34.3193L33.3004 35.4033C31.755 34.7222 30.5246 33.272 29.9166 31.5215C29.3087 33.3965 28.0783 34.9932 26.5475 35.7402L25.7418 34.6416C27.7194 33.7114 29.1842 31.2505 29.1989 28.9873V27.5957H26.1959V26.4385H33.5934V27.5957H30.6051V28.9873ZM35.2487 38.2451V25.1201H36.6403V38.2451H35.2487ZM50.4121 31.1406V32.21H38.4004V31.1406H50.4121ZM39.8213 34.1289V33.1328H48.9326V36.0186H41.2275V37.1025H49.3427V38.084H39.8359V35.0957H47.5556V34.1289H39.8213ZM39.9091 26.4385V25.457H48.9033V28.2988H41.3154V29.2949H49.123V30.2764H39.9384V27.376H47.5117V26.4385H39.9091ZM65.3434 25.1348V34.832H63.9518V31.4189H61.0807V32.6494H55.0309V25.999H56.4225V28.2256H59.7037V25.999H61.0807V27.4639H63.9518V25.1348H65.3434ZM56.4225 31.5215H59.7037V29.2949H56.4225V31.5215ZM56.774 37.9668V33.8799H58.1803V36.8389H65.6363V37.9668H56.774ZM61.0807 30.291H63.9518V28.6064H61.0807V30.291ZM77.9872 25.1348V32.8984H76.5956V31.3018H73.2851V30.1592H76.5956V28.5625H73.4242C72.5746 30.6719 70.6044 32.1587 67.7626 32.9717L67.206 31.8877C70.3114 31.0015 72.1279 29.3315 72.3769 27.2148H67.8798V26.0723H73.8857C73.8857 26.5557 73.8344 27.0244 73.7465 27.4639H76.5956V25.1348H77.9872ZM69.2421 35.6084C69.2421 34.019 70.9706 33.0522 73.6659 33.0449C76.3246 33.0522 78.0678 34.019 78.0751 35.6084C78.0678 37.2051 76.3246 38.1865 73.6659 38.1865C70.9706 38.1865 69.2421 37.2051 69.2421 35.6084ZM70.6191 35.6084C70.6191 36.5312 71.7909 37.0659 73.6659 37.0732C75.5043 37.0659 76.6762 36.5312 76.6835 35.6084C76.6762 34.6709 75.5043 34.1362 73.6659 34.1436C71.7909 34.1362 70.6191 34.6709 70.6191 35.6084ZM89.9133 25.1201V30.4375H92.0227V31.5947H89.9133V38.2451H88.5364V25.1201H89.9133ZM79.6155 28.3135V27.1709H82.8528V25.2959H84.2444V27.1709H87.3938V28.3135H79.6155ZM80.2893 32.3271C80.2893 30.54 81.6663 29.2803 83.5559 29.2803C85.4382 29.2803 86.8152 30.54 86.8225 32.3271C86.8152 34.1289 85.4382 35.3813 83.5559 35.3887C81.6663 35.3813 80.2893 34.1289 80.2893 32.3271ZM81.6223 32.3271C81.615 33.4697 82.4353 34.2314 83.5559 34.2168C84.6692 34.2314 85.4822 33.4697 85.4895 32.3271C85.4822 31.2065 84.6692 30.4302 83.5559 30.4229C82.4353 30.4302 81.615 31.2065 81.6223 32.3271ZM103.26 25.1201V38.2744H101.883V32.7812H99.3199V31.624H101.883V29.1924H99.3931V28.0498H101.883V25.1201H103.26ZM92.7867 27.4053V26.2773H98.6021V31.0674H94.2076V34.085C96.0606 34.0776 97.628 33.9897 99.4957 33.7188L99.6129 34.8613C97.5621 35.1836 95.8848 35.2422 93.8121 35.2422H92.816V29.9688H97.2398V27.4053H92.7867ZM111.671 26.2334V27.3467H114.527V25.1348H115.919V34.7002H114.527V31.3018H111.671V32.4443H105.577V26.2334H111.671ZM106.954 31.3457H110.308V27.3613H106.954V31.3457ZM107.349 37.9668V33.8213H108.756V36.8389H116.212V37.9668H107.349ZM111.671 30.1592H114.527V28.4893H111.671V30.1592ZM127.452 27.2881V28.416H120.933V27.2881H123.511V25.501H124.888V27.2881H127.452ZM121.358 32.2246C121.351 30.4595 122.552 29.207 124.2 29.207C125.862 29.207 127.049 30.4595 127.056 32.2246C127.049 34.019 125.862 35.2788 124.2 35.2715C122.552 35.2788 121.351 34.019 121.358 32.2246ZM122.588 32.2246C122.581 33.3379 123.255 34.085 124.2 34.085C125.145 34.085 125.826 33.3379 125.826 32.2246C125.826 31.1333 125.145 30.3716 124.2 30.3643C123.255 30.3716 122.581 31.1333 122.588 32.2246ZM128.052 37.6299V25.4131H129.371V30.584H130.879V25.1201H132.198V38.2451H130.879V31.7266H129.371V37.6299H128.052ZM143.933 25.1201V28.4453H145.823V29.5879H143.933V32.8691H142.527V25.1201H143.933ZM134.163 31.917V26.0869H140.022V27.2148H135.54V30.7891C138.125 30.7744 139.583 30.7012 141.238 30.3643L141.37 31.4922C139.612 31.8511 138.045 31.917 135.203 31.917H134.163ZM135.276 35.667C135.276 34.063 136.975 33.1255 139.685 33.1182C142.366 33.1255 144.036 34.063 144.036 35.667C144.036 37.2856 142.366 38.2231 139.685 38.2158C136.975 38.2231 135.276 37.2856 135.276 35.667ZM136.653 35.667C136.646 36.5752 137.788 37.1099 139.685 37.1025C141.546 37.1099 142.696 36.5752 142.703 35.667C142.696 34.7588 141.546 34.2388 139.685 34.2461C137.788 34.2388 136.646 34.7588 136.653 35.667ZM153.313 25.5596C155.291 25.5742 156.748 26.7827 156.755 28.5039C156.748 30.2324 155.291 31.4336 153.313 31.4336C151.313 31.4336 149.863 30.2324 149.856 28.5039C149.863 26.7827 151.313 25.5742 153.313 25.5596ZM151.218 28.5039C151.211 29.5879 152.104 30.3057 153.313 30.3057C154.514 30.3057 155.408 29.5879 155.408 28.5039C155.408 27.4346 154.514 26.7168 153.313 26.7314C152.104 26.7168 151.211 27.4346 151.218 28.5039ZM151.848 33.5137V32.4004H160.476V35.7109H153.24V36.9707H160.916V38.084H151.892V34.6709H159.099V33.5137H151.848ZM159.084 31.7998V25.1201H160.476V31.7998H159.084ZM173.179 25.1201V32.9277H171.787V29.6025H169.341V28.46H171.787V25.1201H173.179ZM162.236 31.7412C164.272 31.0308 165.525 29.2583 165.517 27.4492V27.1562H162.676V26.0283H169.751V27.1562H166.938V27.4346C166.931 29.0972 168.117 30.7158 170.102 31.3896L169.385 32.4883C167.912 31.9829 166.828 30.9282 166.257 29.6318C165.686 31.0967 164.536 32.2759 162.969 32.8545L162.236 31.7412ZM164.346 35.7695C164.338 34.2095 166.023 33.3013 168.784 33.2939C171.531 33.3013 173.215 34.2095 173.222 35.7695C173.215 37.3296 171.531 38.2378 168.784 38.2451C166.023 38.2378 164.338 37.3296 164.346 35.7695ZM165.722 35.7695C165.715 36.6558 166.858 37.1611 168.784 37.1465C170.696 37.1611 171.838 36.6558 171.846 35.7695C171.838 34.876 170.696 34.3706 168.784 34.3779C166.858 34.3706 165.715 34.876 165.722 35.7695ZM180.857 25.3398C183.816 25.3325 185.537 26.1309 185.544 27.5957C185.537 29.0679 183.816 29.8662 180.857 29.8662C177.898 29.8662 176.162 29.0679 176.169 27.5957C176.162 26.1309 177.898 25.3325 180.857 25.3398ZM174.88 31.7852V30.6719H186.848V31.7852H174.88ZM176.316 33.8359V32.7959H185.339V35.8721H177.693V37.0439H185.705V38.1133H176.33V34.8613H183.962V33.8359H176.316ZM177.619 27.5957C177.612 28.4087 178.769 28.8262 180.857 28.8262C182.959 28.8262 184.116 28.4087 184.109 27.5957C184.116 26.8193 182.959 26.3652 180.857 26.3652C178.769 26.3652 177.612 26.8193 177.619 27.5957ZM195.422 27.2148C195.422 28.9214 196.63 30.5254 198.615 31.1846L197.897 32.2686C196.418 31.7705 195.326 30.7305 194.755 29.4194C194.184 30.8477 193.063 31.9609 191.511 32.5029L190.793 31.4043C192.851 30.7085 194.037 29.002 194.045 27.0977V25.7939H195.422V27.2148ZM192.507 34.8027V33.6748H201.178V38.2451H199.787V34.8027H192.507ZM199.787 33.0742V25.1201H201.178V28.5039H203.083V29.6758H201.178V33.0742H199.787ZM214.774 25.1201V38.2451H213.441V25.1201H214.774ZM203.319 34.627C205.18 33.5063 206.125 31.1187 206.132 28.7822V27.7275H203.715V26.5996H209.721V27.7275H207.465V28.7822C207.465 31.0234 208.373 33.272 210.219 34.334L209.384 35.3594C208.131 34.6123 207.274 33.272 206.813 31.6899C206.344 33.4038 205.451 34.8687 204.169 35.667L203.319 34.627ZM208.754 30.9062V29.7637H210.79V25.3984H212.108V37.5859H210.79V30.9062H208.754ZM226.378 25.1201V30.4375H228.488V31.5947H226.378V38.2451H225.001V25.1201H226.378ZM216.08 28.3135V27.1709H219.318V25.2959H220.709V27.1709H223.859V28.3135H216.08ZM216.754 32.3271C216.754 30.54 218.131 29.2803 220.021 29.2803C221.903 29.2803 223.28 30.54 223.288 32.3271C223.28 34.1289 221.903 35.3813 220.021 35.3887C218.131 35.3813 216.754 34.1289 216.754 32.3271ZM218.087 32.3271C218.08 33.4697 218.9 34.2314 220.021 34.2168C221.134 34.2314 221.947 33.4697 221.954 32.3271C221.947 31.2065 221.134 30.4302 220.021 30.4229C218.9 30.4302 218.08 31.2065 218.087 32.3271ZM239.418 26.3799V27.6689C239.41 29.2876 239.41 31.104 238.92 33.792L237.513 33.6455C238.019 31.104 238.019 29.2437 238.026 27.6689V27.5078H230.057V26.3799H239.418ZM228.798 36.4727V35.3154H233.353V30.6865H234.73V35.3154H240.765V36.4727H228.798ZM255.008 25.1201V30.2031H257.118V31.3457H255.008V38.2744H253.617V25.1201H255.008ZM245.34 35.0078V26.3799H251.478V27.5078H246.732V33.8506C248.936 33.8433 250.584 33.748 252.459 33.4111L252.635 34.583C250.577 34.9492 248.834 35.0151 246.395 35.0078H245.34ZM262.247 28.46C262.232 30.855 263.682 33.272 265.718 34.1729L264.883 35.2715C263.375 34.5537 262.181 33.0815 261.566 31.2871C260.958 33.2134 259.749 34.7954 258.174 35.5645L257.325 34.3926C259.39 33.4771 260.841 30.9648 260.841 28.46V26.2188H262.247V28.46ZM266.905 38.2744V25.1201H268.297V38.2744H266.905ZM276.973 26.1016C278.174 26.1089 279.156 26.79 279.734 27.9766H282.979V25.1201H284.356V38.2744H282.979V33.2354H279.829C279.265 34.5537 278.24 35.3228 276.973 35.3154C275.017 35.3228 273.633 33.5356 273.648 30.7012C273.633 27.896 275.017 26.1089 276.973 26.1016ZM274.966 30.7012C274.973 32.7886 275.786 34.0703 276.973 34.0703C278.159 34.0703 278.972 32.7886 278.98 30.7012C278.972 28.6431 278.159 27.354 276.973 27.3467C275.786 27.354 274.973 28.6431 274.966 30.7012ZM280.13 29.1191C280.232 29.6025 280.298 30.1299 280.298 30.7012C280.298 31.1992 280.254 31.6606 280.166 32.0928H282.979V29.1191H280.13ZM297.249 25.1201V33.3965H295.93V29.7344H294.407V32.9424H293.103V25.3691H294.407V28.5918H295.93V25.1201H297.249ZM285.984 27.7129V26.6143H288.635V25.2227H290.012V26.6143H292.62V27.7129H285.984ZM286.497 30.584C286.497 29.2217 287.669 28.3281 289.309 28.3281C290.986 28.3281 292.151 29.2217 292.151 30.584C292.151 31.9463 290.986 32.8398 289.309 32.8398C287.669 32.8398 286.497 31.9463 286.497 30.584ZM287.742 30.584C287.742 31.3311 288.379 31.8218 289.309 31.8291C290.254 31.8218 290.899 31.3311 290.891 30.584C290.899 29.8369 290.254 29.3462 289.309 29.3535C288.379 29.3462 287.742 29.8369 287.742 30.584ZM288.416 35.916C288.401 34.4292 290.071 33.5869 292.854 33.5869C295.645 33.5869 297.315 34.4292 297.322 35.916C297.315 37.3882 295.645 38.2231 292.854 38.2158C290.071 38.2231 288.401 37.3882 288.416 35.916ZM289.793 35.916C289.778 36.707 290.906 37.1611 292.854 37.1465C294.81 37.1611 295.923 36.707 295.93 35.916C295.923 35.0884 294.81 34.6489 292.854 34.6562C290.906 34.6489 289.778 35.0884 289.793 35.916ZM303.535 28.9873C303.528 31.1846 304.971 33.4551 306.992 34.3193L306.23 35.4033C304.685 34.7222 303.455 33.272 302.847 31.5215C302.239 33.3965 301.008 34.9932 299.478 35.7402L298.672 34.6416C300.649 33.7114 302.114 31.2505 302.129 28.9873V27.5957H299.126V26.4385H306.523V27.5957H303.535V28.9873ZM308.179 38.2451V25.1201H309.57V38.2451H308.179ZM323.342 31.1406V32.21H311.33V31.1406H323.342ZM312.751 34.1289V33.1328H321.863V36.0186H314.158V37.1025H322.273V38.084H312.766V35.0957H320.486V34.1289H312.751ZM312.839 26.4385V25.457H321.833V28.2988H314.245V29.2949H322.053V30.2764H312.868V27.376H320.442V26.4385H312.839ZM339.299 33.0303V34.1729H333.996V38.2598H332.619V34.1729H327.331V33.0303H339.299ZM328.034 31.0088C330.524 30.6938 332.531 29.3022 332.619 27.8301H328.459V26.7021H332.619V25.1201H333.996V26.7021H338.156V27.8301H334.011C334.084 29.2876 336.069 30.6938 338.566 31.0088L338.068 32.1221C335.959 31.8291 334.164 30.8403 333.315 29.5C332.465 30.855 330.663 31.8291 328.547 32.1221L328.034 31.0088ZM344.574 28.2402C344.574 29.8955 345.812 31.4189 347.826 32.0488L347.153 33.1475C345.644 32.6714 344.509 31.6753 343.908 30.3936C343.337 31.7632 342.201 32.8398 340.649 33.3525L339.975 32.2686C341.982 31.624 343.198 30.0054 343.198 28.2402V27.9326H340.341V26.8047H343.198V25.208H344.589V26.8047H347.431V27.9326H344.574V28.2402ZM342.392 37.9668V34.041H343.783V36.8389H351.269V37.9668H342.392ZM346.977 30.2324V29.1045H349.526V25.1348H350.917V34.9053H349.526V30.2324H346.977ZM10.7959 50.1201V53.2256H12.7002V54.3828H10.7959V57.7812H9.4043V50.1201H10.7959ZM0.996094 57.0195V50.8672H2.3584V52.7715H5.80078V50.8672H7.17773V57.0195H0.996094ZM2.3584 55.9209H5.80078V53.8701H2.3584V55.9209ZM2.43164 63.0547V58.4697H10.8984V59.583H3.82324V61.9561H11.1328V63.0547H2.43164ZM16.6429 51.1016C18.6058 51.1089 20.0047 52.896 20.012 55.7012C20.0047 58.5356 18.6058 60.3228 16.6429 60.3154C14.68 60.3228 13.2811 58.5356 13.2884 55.7012C13.2811 52.896 14.68 51.1089 16.6429 51.1016ZM14.6214 55.7012C14.6141 57.7886 15.449 59.0703 16.6429 59.0703C17.8587 59.0703 18.679 57.7886 18.679 55.7012C18.679 53.6431 17.8587 52.354 16.6429 52.3467C15.449 52.354 14.6141 53.6431 14.6214 55.7012ZM21.9603 63.2451V50.1201H23.3519V55.2617H25.4613V56.4336H23.3519V63.2451H21.9603ZM29.2868 51.1016C31.2496 51.1089 32.6486 52.896 32.6559 55.7012C32.6486 58.5356 31.2496 60.3228 29.2868 60.3154C27.3239 60.3228 25.9249 58.5356 25.9323 55.7012C25.9249 52.896 27.3239 51.1089 29.2868 51.1016ZM27.2653 55.7012C27.2579 57.7886 28.0929 59.0703 29.2868 59.0703C30.5026 59.0703 31.3229 57.7886 31.3229 55.7012C31.3229 53.6431 30.5026 52.354 29.2868 52.3467C28.0929 52.354 27.2579 53.6431 27.2653 55.7012ZM34.6041 63.2451V50.1201H35.9957V53.3281H38.0319V54.5146H35.9957V57.2393H38.0319V58.3818H35.9957V63.2451H34.6041ZM52.0696 50.1348V54.3535H53.9739V55.5107H52.0696V59.9492H50.678V50.1348H52.0696ZM41.7718 52.7861V51.6582H44.9944V50.1201H46.386V51.6582H49.594V52.7861H41.7718ZM42.4895 55.8916C42.4822 54.3901 43.7786 53.4087 45.6829 53.416C47.5652 53.4087 48.8616 54.3901 48.8616 55.8916C48.8616 57.3784 47.5652 58.3452 45.6829 58.3525C43.7786 58.3452 42.4822 57.3784 42.4895 55.8916ZM43.7493 62.9668V59.1729H45.1409V61.8389H52.6263V62.9668H43.7493ZM43.8372 55.8916C43.8225 56.7485 44.5696 57.2759 45.6829 57.2686C46.7962 57.2759 47.5432 56.7485 47.5579 55.8916C47.5432 55.0273 46.7962 54.4927 45.6829 54.4854C44.5696 54.4927 43.8225 55.0273 43.8372 55.8916ZM64.6256 50.1201V55.2031H66.735V56.3457H64.6256V63.2744H63.234V50.1201H64.6256ZM54.9576 60.0078V51.3799H61.0953V52.5078H56.3492V58.8506C58.5538 58.8433 60.2018 58.748 62.0768 58.4111L62.2525 59.583C60.1944 59.9492 58.4513 60.0151 56.0123 60.0078H54.9576ZM77.665 53.958V55.0713H68.6269V50.5889H70.0038V53.958H77.665ZM67.0302 57.8398V56.7266H79.0419V57.8398H67.0302ZM68.5243 62.9375V59.085H69.9159V61.7949H77.7529V62.9375H68.5243ZM93.9732 50.1201V57.7666H92.5816V54.4707H90.1207V53.3135H92.5816V50.1201H93.9732ZM83.0455 56.5947C85.0596 55.9062 86.3194 54.1558 86.3121 52.3613V52.0537H83.4703V50.9111H90.5455V52.0537H87.733V52.3613C87.7256 53.9946 88.9122 55.6279 90.897 56.3164L90.1793 57.415C88.7071 56.9023 87.6158 55.8477 87.0445 54.5439C86.4732 55.9941 85.3233 57.144 83.7632 57.6934L83.0455 56.5947ZM85.316 63.084V58.3818H93.9732V63.084H85.316ZM86.6929 61.9561H92.6109V59.4805H86.6929V61.9561ZM111.19 51.9805V53.123H109.329V54.793H111.19V55.9502H109.329V57.8691H107.938V50.1201H109.329V51.9805H111.19ZM99.2219 54.002C99.2072 52.1562 100.701 50.8818 102.708 50.8818C104.722 50.8818 106.195 52.1562 106.209 54.002C106.195 55.833 104.722 57.1147 102.708 57.1221C100.701 57.1147 99.2072 55.833 99.2219 54.002ZM100.584 54.002C100.57 55.1665 101.478 55.9355 102.708 55.9502C103.939 55.9355 104.84 55.1665 104.847 54.002C104.84 52.8447 103.939 52.0464 102.708 52.0537C101.478 52.0464 100.57 52.8447 100.584 54.002ZM100.687 60.7256C100.687 59.1509 102.386 58.228 105.096 58.2207C107.777 58.228 109.446 59.1509 109.446 60.7256C109.446 62.293 107.777 63.2231 105.096 63.2158C102.386 63.2231 100.687 62.293 100.687 60.7256ZM102.078 60.7256C102.071 61.6191 103.199 62.1099 105.096 62.1025C106.978 62.1099 108.092 61.6191 108.084 60.7256C108.092 59.8467 106.978 59.3413 105.096 59.3486C103.199 59.3413 102.071 59.8467 102.078 60.7256ZM118.15 52.2881V53.416H111.631V52.2881H114.209V50.501H115.586V52.2881H118.15ZM112.056 57.2246C112.049 55.4595 113.25 54.207 114.898 54.207C116.561 54.207 117.747 55.4595 117.754 57.2246C117.747 59.019 116.561 60.2788 114.898 60.2715C113.25 60.2788 112.049 59.019 112.056 57.2246ZM113.287 57.2246C113.279 58.3379 113.953 59.085 114.898 59.085C115.843 59.085 116.524 58.3379 116.524 57.2246C116.524 56.1333 115.843 55.3716 114.898 55.3643C113.953 55.3716 113.279 56.1333 113.287 57.2246ZM118.751 62.6299V50.4131H120.069V55.584H121.578V50.1201H122.896V63.2451H121.578V56.7266H120.069V62.6299H118.751ZM139.644 57.8398V58.9385H134.282V63.2451H132.92V58.9385H127.632V57.8398H139.644ZM129.126 56.3457V50.6475H130.503V52.3613H136.743V50.6475H138.135V56.3457H129.126ZM130.503 55.2324H136.743V53.4746H130.503V55.2324ZM146.956 50.999V52.127H142.253V53.6357H146.707V54.7197H142.253V56.3018C144.663 56.3018 146.099 56.2285 147.776 55.9355L147.922 57.0488C146.128 57.3638 144.583 57.4297 141.887 57.415H140.862V50.999H146.956ZM141.931 59.8027V58.6748H150.603V63.2451H149.211V59.8027H141.931ZM149.211 58.0742V50.1201H150.603V53.5186H152.507V54.6904H150.603V58.0742H149.211ZM163.569 56.3457V57.4883H154.429V51.292H163.452V52.4346H155.805V56.3457H163.569ZM152.934 61.5166V60.3594H164.946V61.5166H152.934ZM176.462 50.1348V57.3711H175.07V50.1348H176.462ZM166.237 51.8779V50.75H172.273V54.4121H167.629V55.9648C169.929 55.9575 171.606 55.8989 173.606 55.5693L173.781 56.6973C171.635 57.0488 169.848 57.1074 167.365 57.1221H166.267V53.3281H170.896V51.8779H166.237ZM167.849 63.084V57.9863H169.24V59.4072H175.085V57.9863H176.462V63.084H167.849ZM169.24 61.9561H175.085V60.5059H169.24V61.9561ZM189.121 50.1201V63.2451H187.729V50.1201H189.121ZM179.028 59.9053V51.3945H180.405V58.7041C182.324 58.6968 184.338 58.5283 186.44 58.1035L186.63 59.2754C184.309 59.7515 182.199 59.9126 180.126 59.9053H179.028ZM201.091 50.1201V55.2031H203.2V56.3457H201.091V63.2744H199.699V50.1201H201.091ZM191.423 60.0078V51.3799H197.56V52.5078H192.814V58.8506C195.019 58.8433 196.667 58.748 198.542 58.4111L198.718 59.583C196.659 59.9492 194.916 60.0151 192.477 60.0078H191.423ZM205.004 62.1025C204.433 62.0952 203.957 61.6338 203.964 61.0625C203.957 60.4912 204.433 60.0225 205.004 60.0225C205.568 60.0225 206.037 60.4912 206.044 61.0625C206.037 61.6338 205.568 62.0952 205.004 62.1025Z" fill="#262626"/>
</svg>
