<svg width="353" height="89" viewBox="0 0 353 89" fill="none" xmlns="http://www.w3.org/2000/svg">
<path d="M4.04297 1.10156C5.24414 1.10889 6.22559 1.79004 6.8042 2.97656H10.0488V0.120117H11.4258V13.2744H10.0488V8.23535H6.89941C6.33545 9.55371 5.31006 10.3228 4.04297 10.3154C2.0874 10.3228 0.703125 8.53564 0.717773 5.70117C0.703125 2.896 2.0874 1.10889 4.04297 1.10156ZM2.03613 5.70117C2.04346 7.78857 2.85645 9.07031 4.04297 9.07031C5.22949 9.07031 6.04248 7.78857 6.0498 5.70117C6.04248 3.64307 5.22949 2.354 4.04297 2.34668C2.85645 2.354 2.04346 3.64307 2.03613 5.70117ZM7.19971 4.11914C7.30225 4.60254 7.36816 5.12988 7.36816 5.70117C7.36816 6.19922 7.32422 6.66064 7.23633 7.09277H10.0488V4.11914H7.19971ZM24.3187 0.120117V8.39648H23.0003V4.73438H21.4769V7.94238H20.1732V0.369141H21.4769V3.5918H23.0003V0.120117H24.3187ZM13.054 2.71289V1.61426H15.7054V0.222656H17.0823V1.61426H19.6898V2.71289H13.054ZM13.5667 5.58398C13.5667 4.22168 14.7386 3.32812 16.3792 3.32812C18.0565 3.32812 19.221 4.22168 19.221 5.58398C19.221 6.94629 18.0565 7.83984 16.3792 7.83984C14.7386 7.83984 13.5667 6.94629 13.5667 5.58398ZM14.8118 5.58398C14.8118 6.33105 15.449 6.82178 16.3792 6.8291C17.324 6.82178 17.9686 6.33105 17.9613 5.58398C17.9686 4.83691 17.324 4.34619 16.3792 4.35352C15.449 4.34619 14.8118 4.83691 14.8118 5.58398ZM15.4857 10.916C15.471 9.4292 17.1409 8.58691 19.9241 8.58691C22.7147 8.58691 24.3846 9.4292 24.3919 10.916C24.3846 12.3882 22.7147 13.2231 19.9241 13.2158C17.1409 13.2231 15.471 12.3882 15.4857 10.916ZM16.8626 10.916C16.848 11.707 17.9759 12.1611 19.9241 12.1465C21.8797 12.1611 22.993 11.707 23.0003 10.916C22.993 10.0884 21.8797 9.64893 19.9241 9.65625C17.9759 9.64893 16.848 10.0884 16.8626 10.916ZM30.6051 3.9873C30.5978 6.18457 32.0407 8.45508 34.0621 9.31934L33.3004 10.4033C31.755 9.72217 30.5246 8.27197 29.9166 6.52148C29.3087 8.39648 28.0783 9.99316 26.5475 10.7402L25.7418 9.6416C27.7194 8.71143 29.1842 6.25049 29.1989 3.9873V2.5957H26.1959V1.43848H33.5934V2.5957H30.6051V3.9873ZM35.2487 13.2451V0.120117H36.6403V13.2451H35.2487ZM50.4121 6.14062V7.20996H38.4004V6.14062H50.4121ZM39.8213 9.12891V8.13281H48.9326V11.0186H41.2275V12.1025H49.3427V13.084H39.8359V10.0957H47.5556V9.12891H39.8213ZM39.9091 1.43848V0.457031H48.9033V3.29883H41.3154V4.29492H49.123V5.27637H39.9384V2.37598H47.5117V1.43848H39.9091ZM59.0299 2.52246C59.0372 4.30225 60.2164 6.01611 62.1939 6.71191L61.4322 7.7959C60.004 7.24658 58.9273 6.1626 58.3634 4.80762C57.7994 6.31641 56.6788 7.51025 55.1334 8.10352L54.3863 7.00488C56.4298 6.27979 57.6456 4.45605 57.6529 2.47852V0.925781H59.0299V2.52246ZM56.774 12.9668V8.82129H58.1803V11.8389H65.6363V12.9668H56.774ZM61.1832 4.26562V3.12305H63.9518V0.134766H65.3434V9.91992H63.9518V4.26562H61.1832ZM72.7138 1.05762V2.18555H68.9198V3.65039H72.5673V4.71973H68.9198V6.31641C70.6777 6.30176 71.8276 6.23584 73.1825 5.97949L73.3144 7.12207C71.7763 7.40771 70.5238 7.46631 68.4364 7.45898H67.5868V1.05762H72.7138ZM69.3154 9.86133V8.7334H78.2363V13.2451H76.8593V9.86133H69.3154ZM74.0029 8.00098V0.369141H75.3066V3.47461H76.9179V0.134766H78.2363V8.10352H76.9179V4.60254H75.3066V8.00098H74.0029ZM89.9133 0.120117V5.4375H92.0227V6.59473H89.9133V13.2451H88.5364V0.120117H89.9133ZM79.6155 3.31348V2.1709H82.8528V0.295898H84.2444V2.1709H87.3938V3.31348H79.6155ZM80.2893 7.32715C80.2893 5.54004 81.6663 4.28027 83.5559 4.28027C85.4382 4.28027 86.8152 5.54004 86.8225 7.32715C86.8152 9.12891 85.4382 10.3813 83.5559 10.3887C81.6663 10.3813 80.2893 9.12891 80.2893 7.32715ZM81.6223 7.32715C81.615 8.46973 82.4353 9.23145 83.5559 9.2168C84.6692 9.23145 85.4822 8.46973 85.4895 7.32715C85.4822 6.20654 84.6692 5.43018 83.5559 5.42285C82.4353 5.43018 81.615 6.20654 81.6223 7.32715ZM97.1666 3.9873C97.1592 6.18457 98.6021 8.45508 100.624 9.31934L99.8619 10.4033C98.3165 9.72217 97.086 8.27197 96.4781 6.52148C95.8702 8.39648 94.6397 9.99316 93.1089 10.7402L92.3033 9.6416C94.2808 8.71143 95.7457 6.25049 95.7603 3.9873V2.5957H92.7574V1.43848H100.155V2.5957H97.1666V3.9873ZM101.81 13.2451V0.120117H103.202V13.2451H101.81ZM111.966 0.823242C113.951 0.830566 115.408 2.09033 115.408 3.87012C115.408 5.65723 113.951 6.90967 111.966 6.91699C109.988 6.90967 108.509 5.65723 108.524 3.87012C108.509 2.09033 109.988 0.830566 111.966 0.823242ZM109.637 12.8936V8.01562H110.999V11.751C111.768 11.7144 112.654 11.6045 113.489 11.3262L113.695 12.4248C112.471 12.8423 111.292 12.8936 110.311 12.8936H109.637ZM109.871 3.87012C109.864 4.99072 110.779 5.77441 111.966 5.77441C113.16 5.77441 114.061 4.99072 114.061 3.87012C114.061 2.75684 113.16 1.98047 111.966 1.98047C110.779 1.98047 109.864 2.75684 109.871 3.87012ZM113.24 9.12891V8.05957H115.892V6.99023H117.254V8.05957H119.862V9.12891H113.24ZM114.075 11.3848C114.061 10.2422 115.071 9.51709 116.551 9.50977C118.001 9.51709 119.027 10.2422 119.027 11.3848C119.027 12.5127 118.001 13.2231 116.551 13.2158C115.071 13.2231 114.061 12.5127 114.075 11.3848ZM115.306 11.3848C115.306 11.9194 115.826 12.249 116.551 12.249C117.261 12.249 117.774 11.9194 117.781 11.3848C117.774 10.8501 117.261 10.5059 116.551 10.5059C115.826 10.5059 115.306 10.8501 115.306 11.3848ZM117.239 6.65332V0.120117H118.631V2.99121H120.535V4.14844H118.631V6.65332H117.239ZM131.583 1.37988V2.66895C131.575 4.2876 131.575 6.104 131.084 8.79199L129.678 8.64551C130.184 6.104 130.184 4.24365 130.191 2.66895V2.50781H122.222V1.37988H131.583ZM120.962 11.4727V10.3154H125.518V5.68652H126.895V10.3154H132.93V11.4727H120.962ZM140.069 0.852539C141.826 0.837891 143.086 2.06836 143.086 3.84082C143.086 5.59863 141.826 6.83643 140.069 6.8291C138.303 6.83643 137.058 5.59863 137.066 3.84082C137.058 2.06836 138.303 0.837891 140.069 0.852539ZM138.311 3.84082C138.303 4.93945 139.05 5.6792 140.069 5.68652C141.079 5.6792 141.812 4.93945 141.826 3.84082C141.812 2.72021 141.079 1.97314 140.069 1.98047C139.05 1.97314 138.303 2.72021 138.311 3.84082ZM139.38 13.084V7.83984H140.757V9.27539H146.777V7.83984H148.14V13.084H139.38ZM140.757 11.9561H146.777V10.4033H140.757V11.9561ZM143.994 7.18066V0.369141H145.283V3.0498H146.821V0.134766H148.14V7.26855H146.821V4.20703H145.283V7.18066H143.994ZM155.569 0.339844C158.528 0.33252 160.249 1.13086 160.256 2.5957C160.249 4.06787 158.528 4.86621 155.569 4.86621C152.61 4.86621 150.874 4.06787 150.881 2.5957C150.874 1.13086 152.61 0.33252 155.569 0.339844ZM149.592 6.78516V5.67188H161.56V6.78516H149.592ZM151.028 8.83594V7.7959H160.051V10.8721H152.405V12.0439H160.417V13.1133H151.042V9.86133H158.674V8.83594H151.028ZM152.332 2.5957C152.324 3.40869 153.481 3.82617 155.569 3.82617C157.671 3.82617 158.828 3.40869 158.821 2.5957C158.828 1.81934 157.671 1.36523 155.569 1.36523C153.481 1.36523 152.324 1.81934 152.332 2.5957ZM172.243 4.79297V6.56543H177.546V7.70801H165.578V6.56543H170.866V4.79297H172.243ZM166.193 4.38281C168.567 4.14111 170.427 3.10107 170.617 1.83398H166.677V0.720703H176.477V1.83398H172.492C172.69 3.09375 174.55 4.14111 176.931 4.38281L176.433 5.48145C174.155 5.21777 172.273 4.28027 171.555 2.896C170.837 4.28027 168.969 5.21777 166.692 5.48145L166.193 4.38281ZM166.999 10.9453C166.999 9.47314 168.698 8.66016 171.555 8.66016C174.389 8.66016 176.074 9.47314 176.081 10.9453C176.074 12.4102 174.389 13.2231 171.555 13.2158C168.698 13.2231 166.999 12.4102 166.999 10.9453ZM168.405 10.9453C168.398 11.729 169.526 12.1611 171.555 12.1611C173.554 12.1611 174.69 11.729 174.69 10.9453C174.69 10.1616 173.554 9.73682 171.555 9.72949C169.526 9.73682 168.398 10.1616 168.405 10.9453ZM190.234 10.5059V11.6777H178.222V10.5059H181.503V8.19141H179.687V4.0166H187.392V2.18555H179.658V1.04297H188.769V5.14453H181.064V7.04883H189.077V8.19141H187.084V10.5059H190.234ZM182.851 10.5059H185.722V8.19141H182.851V10.5059ZM201.091 0.120117V5.4375H203.2V6.59473H201.091V13.2451H199.714V0.120117H201.091ZM190.793 3.31348V2.1709H194.03V0.295898H195.422V2.1709H198.571V3.31348H190.793ZM191.467 7.32715C191.467 5.54004 192.844 4.28027 194.733 4.28027C196.615 4.28027 197.992 5.54004 198 7.32715C197.992 9.12891 196.615 10.3813 194.733 10.3887C192.844 10.3813 191.467 9.12891 191.467 7.32715ZM192.8 7.32715C192.792 8.46973 193.613 9.23145 194.733 9.2168C195.846 9.23145 196.659 8.46973 196.667 7.32715C196.659 6.20654 195.846 5.43018 194.733 5.42285C193.613 5.43018 192.792 6.20654 192.8 7.32715ZM214.438 0.120117V13.2451H213.061V6.46289H210.116V5.32031H213.061V0.120117H214.438ZM203.481 9.71484C206.96 8.01562 208.505 5.6499 208.747 2.63965H204.066V1.52637H210.16C210.146 5.32764 208.666 8.60889 204.213 10.8135L203.481 9.71484ZM228.414 5.27637V6.41895H226.378V13.2305H224.987V0.120117H226.378V5.27637H228.414ZM216.652 9.93457V1.39453H218.029V8.77734C219.86 8.77002 221.771 8.61621 223.859 8.19141L224.02 9.36328C221.771 9.81006 219.706 9.94189 217.736 9.93457H216.652ZM243.053 0.134766V13.2451H241.676V0.134766H243.053ZM232.096 7.22461C234.674 7.20996 237.926 7.19531 240.797 6.8877L240.87 7.91309C239.654 8.08887 238.417 8.19873 237.193 8.27197V12.835H235.802V8.33057C234.549 8.37451 233.348 8.38184 232.257 8.38184L232.096 7.22461ZM233.312 5.65723V0.852539H239.684V1.96582H234.703V4.51465H239.859V5.65723H233.312ZM256.795 10.5059V11.6777H244.784V10.5059H250.072V8.20605H246.248V4.03125H253.953V2.18555H246.219V1.04297H255.33V5.14453H247.625V7.06348H255.638V8.20605H251.449V10.5059H256.795ZM273.03 5.27637V6.41895H270.994V13.2305H269.603V0.120117H270.994V5.27637H273.03ZM261.268 9.93457V1.39453H262.645V8.77734C264.476 8.77002 266.387 8.61621 268.475 8.19141L268.636 9.36328C266.387 9.81006 264.322 9.94189 262.352 9.93457H261.268ZM283.726 0.120117V2.96191H285.63V4.11914H283.726V6.75586H282.334V0.120117H283.726ZM273.399 5.9502C276.614 5.25439 278.401 3.73096 278.606 1.84863H274.014V0.706055H280.152C280.152 4.08252 277.801 6.22852 273.926 7.10742L273.399 5.9502ZM275.244 8.44043V7.32715H283.726V10.6963H276.636V12H284.18V13.1133H275.274V9.62695H282.349V8.44043H275.244ZM300.342 0.134766V7.89844H298.95V6.30176H295.64V5.15918H298.95V3.5625H295.779C294.929 5.67188 292.959 7.15869 290.117 7.97168L289.561 6.8877C292.666 6.00146 294.482 4.33154 294.731 2.21484H290.234V1.07227H296.24C296.24 1.55566 296.189 2.02441 296.101 2.46387H298.95V0.134766H300.342ZM291.597 10.6084C291.597 9.01904 293.325 8.05225 296.02 8.04492C298.679 8.05225 300.422 9.01904 300.43 10.6084C300.422 12.2051 298.679 13.1865 296.02 13.1865C293.325 13.1865 291.597 12.2051 291.597 10.6084ZM292.974 10.6084C292.974 11.5312 294.145 12.0659 296.02 12.0732C297.859 12.0659 299.031 11.5312 299.038 10.6084C299.031 9.6709 297.859 9.13623 296.02 9.14355C294.145 9.13623 292.974 9.6709 292.974 10.6084ZM314.04 7.57617V8.7334H308.679V13.2451H307.317V8.7334H302.029V7.57617H314.04ZM303.332 3.5332C303.34 1.74609 305.229 0.618164 308.005 0.618164C310.781 0.618164 312.685 1.74609 312.678 3.5332C312.685 5.29834 310.781 6.41895 308.005 6.41895C305.229 6.41895 303.34 5.29834 303.332 3.5332ZM304.768 3.5332C304.761 4.62451 306.057 5.30566 308.005 5.30566C309.961 5.30566 311.25 4.62451 311.257 3.5332C311.25 2.42725 309.961 1.73877 308.005 1.73145C306.057 1.73877 304.761 2.42725 304.768 3.5332ZM317.046 10.9893L315.874 15.0322H314.629L315.405 10.9893H317.046ZM333.515 8.03027V9.17285H328.212V13.2598H326.835V9.17285H321.547V8.03027H333.515ZM322.25 6.00879C324.74 5.69385 326.747 4.30225 326.835 2.83008H322.675V1.70215H326.835V0.120117H328.212V1.70215H332.372V2.83008H328.227C328.3 4.2876 330.285 5.69385 332.782 6.00879L332.284 7.12207C330.175 6.8291 328.381 5.84033 327.531 4.5C326.681 5.85498 324.88 6.8291 322.763 7.12207L322.25 6.00879ZM338.791 3.24023C338.791 4.89551 340.028 6.41895 342.043 7.04883L341.369 8.14746C339.86 7.67139 338.725 6.67529 338.124 5.39355C337.553 6.76318 336.418 7.83984 334.865 8.35254L334.191 7.26855C336.198 6.62402 337.414 5.00537 337.414 3.24023V2.93262H334.557V1.80469H337.414V0.208008H338.805V1.80469H341.647V2.93262H338.791V3.24023ZM336.608 12.9668V9.04102H338V11.8389H345.485V12.9668H336.608ZM341.193 5.23242V4.10449H343.742V0.134766H345.133V9.90527H343.742V5.23242H341.193ZM10.7959 25.1201V28.2256H12.7002V29.3828H10.7959V32.7812H9.4043V25.1201H10.7959ZM0.996094 32.0195V25.8672H2.3584V27.7715H5.80078V25.8672H7.17773V32.0195H0.996094ZM2.3584 30.9209H5.80078V28.8701H2.3584V30.9209ZM2.43164 38.0547V33.4697H10.8984V34.583H3.82324V36.9561H11.1328V38.0547H2.43164ZM25.095 31.9756V33.0889H13.1273V31.9756H25.095ZM14.4163 28.1816C14.409 26.5337 16.2474 25.5522 19.1038 25.5596C21.9456 25.5522 23.784 26.5337 23.7913 28.1816C23.784 29.8369 21.9456 30.8403 19.1038 30.8477C16.2474 30.8403 14.409 29.8369 14.4163 28.1816ZM14.6361 37.9668V34.1582H16.0423V36.8389H23.7474V37.9668H14.6361ZM15.8519 28.1816C15.8446 29.1558 17.0897 29.7051 19.1038 29.7051C21.1107 29.7051 22.3631 29.1558 22.3558 28.1816C22.3631 27.2441 21.1107 26.6729 19.1038 26.6729C17.0897 26.6729 15.8446 27.2441 15.8519 28.1816ZM32.6728 26.1016C33.874 26.1089 34.8554 26.79 35.434 27.9766H38.6787V25.1201H40.0556V38.2744H38.6787V33.2354H35.5293C34.9653 34.5537 33.9399 35.3228 32.6728 35.3154C30.7172 35.3228 29.333 33.5356 29.3476 30.7012C29.333 27.896 30.7172 26.1089 32.6728 26.1016ZM30.666 30.7012C30.6733 32.7886 31.4863 34.0703 32.6728 34.0703C33.8593 34.0703 34.6723 32.7886 34.6796 30.7012C34.6723 28.6431 33.8593 27.354 32.6728 27.3467C31.4863 27.354 30.6733 28.6431 30.666 30.7012ZM35.8296 29.1191C35.9321 29.6025 35.998 30.1299 35.998 30.7012C35.998 31.1992 35.9541 31.6606 35.8662 32.0928H38.6787V29.1191H35.8296ZM52.9485 25.1201V33.3965H51.6302V29.7344H50.1067V32.9424H48.803V25.3691H50.1067V28.5918H51.6302V25.1201H52.9485ZM41.6839 27.7129V26.6143H44.3352V25.2227H45.7122V26.6143H48.3196V27.7129H41.6839ZM42.1966 30.584C42.1966 29.2217 43.3684 28.3281 45.0091 28.3281C46.6863 28.3281 47.8509 29.2217 47.8509 30.584C47.8509 31.9463 46.6863 32.8398 45.0091 32.8398C43.3684 32.8398 42.1966 31.9463 42.1966 30.584ZM43.4417 30.584C43.4417 31.3311 44.0789 31.8218 45.0091 31.8291C45.9539 31.8218 46.5984 31.3311 46.5911 30.584C46.5984 29.8369 45.9539 29.3462 45.0091 29.3535C44.0789 29.3462 43.4417 29.8369 43.4417 30.584ZM44.1155 35.916C44.1009 34.4292 45.7708 33.5869 48.554 33.5869C51.3445 33.5869 53.0144 34.4292 53.0218 35.916C53.0144 37.3882 51.3445 38.2231 48.554 38.2158C45.7708 38.2231 44.1009 37.3882 44.1155 35.916ZM45.4925 35.916C45.4778 36.707 46.6057 37.1611 48.554 37.1465C50.5096 37.1611 51.6228 36.707 51.6302 35.916C51.6228 35.0884 50.5096 34.6489 48.554 34.6562C46.6057 34.6489 45.4778 35.0884 45.4925 35.916ZM59.235 28.9873C59.2276 31.1846 60.6705 33.4551 62.692 34.3193L61.9303 35.4033C60.3849 34.7222 59.1544 33.272 58.5465 31.5215C57.9386 33.3965 56.7081 34.9932 55.1773 35.7402L54.3717 34.6416C56.3492 33.7114 57.8141 31.2505 57.8287 28.9873V27.5957H54.8258V26.4385H62.2232V27.5957H59.235V28.9873ZM63.8785 38.2451V25.1201H65.2701V38.2451H63.8785ZM77.665 28.958V30.0713H68.6269V25.5889H70.0038V28.958H77.665ZM67.0302 32.8398V31.7266H79.0419V32.8398H67.0302ZM68.5243 37.9375V34.085H69.9159V36.7949H77.7529V37.9375H68.5243ZM93.9879 25.1201V38.2744H92.5963V30.9795H89.8863V29.8369H92.5963V25.1201H93.9879ZM82.8843 34.6123C84.8912 33.6528 86.3047 31.1699 86.3121 28.8115V27.5811H83.4117V26.4385H90.6334V27.5811H87.7183V28.8115C87.7183 31.0308 89.1172 33.4258 91.1314 34.3193L90.2964 35.4326C88.7803 34.7002 87.6158 33.1694 87.0298 31.3823C86.4439 33.2866 85.2501 34.9199 83.7339 35.6963L82.8843 34.6123ZM100.26 27.5371C100.252 29.207 101.417 30.7305 103.409 31.3604L102.75 32.4443C101.256 31.9683 100.164 30.9795 99.5858 29.7344C99.0145 31.1699 97.8646 32.3052 96.2899 32.8545L95.5722 31.7412C97.6229 31.0674 98.8607 29.3755 98.868 27.5518V27.1855H95.9823V26.0576H103.087V27.1855H100.26V27.5371ZM97.3446 35.7549C97.3446 34.2168 99.0219 33.3159 101.754 33.3232C104.456 33.3159 106.104 34.2168 106.104 35.7549C106.104 37.3149 104.456 38.2231 101.754 38.2158C99.0219 38.2231 97.3446 37.3149 97.3446 35.7549ZM98.7362 35.7549C98.7289 36.6338 99.8568 37.1245 101.754 37.1172C103.636 37.1245 104.749 36.6338 104.742 35.7549C104.749 34.8979 103.636 34.4146 101.754 34.4219C99.8568 34.4146 98.7289 34.8979 98.7362 35.7549ZM104.596 33.001V25.1201H105.987V28.3721H107.891V29.5146H105.987V33.001H104.596ZM116.141 30.6719V31.8145H113.372V34.2461C114.588 34.1948 115.811 34.1143 116.961 33.9824L117.064 35.0078C114.171 35.4399 111.065 35.4839 108.568 35.4912L108.392 34.334C109.498 34.334 110.721 34.3267 111.981 34.2974V31.8145H109.344V26.3359H116.082V27.4639H110.721V30.6719H116.141ZM117.781 38.2744V25.1201H119.173V38.2744H117.781ZM125.796 28.9873C125.789 31.1846 127.232 33.4551 129.253 34.3193L128.492 35.4033C126.946 34.7222 125.716 33.272 125.108 31.5215C124.5 33.3965 123.27 34.9932 121.739 35.7402L120.933 34.6416C122.911 33.7114 124.376 31.2505 124.39 28.9873V27.5957H121.387V26.4385H128.785V27.5957H125.796V28.9873ZM130.44 38.2451V25.1201H131.832V38.2451H130.44ZM140.596 25.8232C142.581 25.8306 144.038 27.0903 144.038 28.8701C144.038 30.6572 142.581 31.9097 140.596 31.917C138.618 31.9097 137.139 30.6572 137.153 28.8701C137.139 27.0903 138.618 25.8306 140.596 25.8232ZM138.267 37.8936V33.0156H139.629V36.751C140.398 36.7144 141.284 36.6045 142.119 36.3262L142.324 37.4248C141.101 37.8423 139.922 37.8936 138.941 37.8936H138.267ZM138.501 28.8701C138.494 29.9907 139.409 30.7744 140.596 30.7744C141.79 30.7744 142.691 29.9907 142.691 28.8701C142.691 27.7568 141.79 26.9805 140.596 26.9805C139.409 26.9805 138.494 27.7568 138.501 28.8701ZM141.87 34.1289V33.0596H144.522V31.9902H145.884V33.0596H148.491V34.1289H141.87ZM142.705 36.3848C142.691 35.2422 143.701 34.5171 145.181 34.5098C146.631 34.5171 147.656 35.2422 147.656 36.3848C147.656 37.5127 146.631 38.2231 145.181 38.2158C143.701 38.2231 142.691 37.5127 142.705 36.3848ZM143.936 36.3848C143.936 36.9194 144.456 37.249 145.181 37.249C145.891 37.249 146.404 36.9194 146.411 36.3848C146.404 35.8501 145.891 35.5059 145.181 35.5059C144.456 35.5059 143.936 35.8501 143.936 36.3848ZM145.869 31.6533V25.1201H147.261V27.9912H149.165V29.1484H147.261V31.6533H145.869ZM152.449 32.9863V34.3779H158.616V32.9863H160.007V38.084H151.072V32.9863H152.449ZM149.592 32.166V31.0088H161.56V32.166H149.592ZM150.237 29.1045C152.778 28.7749 154.858 27.376 154.866 25.8232V25.2666H156.287V25.8232C156.294 27.332 158.389 28.7969 160.901 29.1045L160.403 30.2031C158.279 29.9102 156.426 28.8994 155.583 27.5005C154.734 28.9067 152.874 29.9102 150.764 30.2031L150.237 29.1045ZM152.449 36.9707H158.616V35.4619H152.449V36.9707ZM173.135 25.1201V38.2451H171.743V25.1201H173.135ZM163.042 34.9053V26.3945H164.419V33.7041C166.338 33.6968 168.352 33.5283 170.454 33.1035L170.644 34.2754C168.323 34.7515 166.213 34.9126 164.14 34.9053H163.042ZM185.105 25.1201V30.2031H187.214V31.3457H185.105V38.2744H183.713V25.1201H185.105ZM175.437 35.0078V26.3799H181.574V27.5078H176.828V33.8506C179.033 33.8433 180.681 33.748 182.556 33.4111L182.732 34.583C180.673 34.9492 178.93 35.0151 176.491 35.0078H175.437ZM189.018 37.1025C188.447 37.0952 187.971 36.6338 187.978 36.0625C187.971 35.4912 188.447 35.0225 189.018 35.0225C189.582 35.0225 190.051 35.4912 190.058 36.0625C190.051 36.6338 189.582 37.0952 189.018 37.1025ZM10.708 50.1201V55.2031H12.8174V56.3457H10.708V63.2744H9.31641V50.1201H10.708ZM1.04004 60.0078V51.3799H7.17773V52.5078H2.43164V58.8506C4.63623 58.8433 6.28418 58.748 8.15918 58.4111L8.33496 59.583C6.27686 59.9492 4.53369 60.0151 2.09473 60.0078H1.04004ZM17.9466 53.46C17.932 55.855 19.3821 58.272 21.4183 59.1729L20.5833 60.2715C19.0745 59.5537 17.8807 58.0815 17.2654 56.2871C16.6575 58.2134 15.449 59.7954 13.8743 60.5645L13.0247 59.3926C15.0902 58.4771 16.5404 55.9648 16.5404 53.46V51.2188H17.9466V53.46ZM22.6048 63.2744V50.1201H23.9964V63.2744H22.6048ZM32.2334 50.8525C33.9912 50.8379 35.2509 52.0684 35.2509 53.8408C35.2509 55.5986 33.9912 56.8364 32.2334 56.8291C30.4682 56.8364 29.2231 55.5986 29.2304 53.8408C29.2231 52.0684 30.4682 50.8379 32.2334 50.8525ZM30.4755 53.8408C30.4682 54.9395 31.2153 55.6792 32.2334 55.6865C33.2441 55.6792 33.9765 54.9395 33.9912 53.8408C33.9765 52.7202 33.2441 51.9731 32.2334 51.9805C31.2153 51.9731 30.4682 52.7202 30.4755 53.8408ZM31.5449 63.084V57.8398H32.9218V59.2754H38.9423V57.8398H40.3046V63.084H31.5449ZM32.9218 61.9561H38.9423V60.4033H32.9218V61.9561ZM36.1591 57.1807V50.3691H37.4482V53.0498H38.9863V50.1348H40.3046V57.2686H38.9863V54.207H37.4482V57.1807H36.1591ZM47.7337 50.3398C50.6927 50.3325 52.4138 51.1309 52.4212 52.5957C52.4138 54.0679 50.6927 54.8662 47.7337 54.8662C44.7747 54.8662 43.0388 54.0679 43.0462 52.5957C43.0388 51.1309 44.7747 50.3325 47.7337 50.3398ZM41.7571 56.7852V55.6719H53.7249V56.7852H41.7571ZM43.1927 58.8359V57.7959H52.2161V60.8721H44.5696V62.0439H52.5823V63.1133H43.2073V59.8613H50.8391V58.8359H43.1927ZM44.4964 52.5957C44.489 53.4087 45.6463 53.8262 47.7337 53.8262C49.8357 53.8262 50.993 53.4087 50.9856 52.5957C50.993 51.8193 49.8357 51.3652 47.7337 51.3652C45.6463 51.3652 44.489 51.8193 44.4964 52.5957ZM68.6122 50.1201V56.873H67.2353V50.1201H68.6122ZM57.787 55.7012C59.8378 55.02 61.0903 53.2988 61.0976 51.4824V50.4717H62.5185V51.4824C62.5112 53.2402 63.7709 54.8369 65.7851 55.4668L65.0966 56.5508C63.5658 56.0527 62.4159 55.02 61.8227 53.687C61.2294 55.1226 60.0575 56.2651 58.4902 56.7998L57.787 55.7012ZM59.9989 58.6016V57.5029H68.6269V60.7842H61.3905V62H69.0663V63.1133H60.0429V59.7295H67.2499V58.6016H59.9989ZM81.5784 50.1201V58.3965H80.26V54.7344H78.7366V57.9424H77.4329V50.3691H78.7366V53.5918H80.26V50.1201H81.5784ZM70.3137 52.7129V51.6143H72.9651V50.2227H74.342V51.6143H76.9495V52.7129H70.3137ZM70.8264 55.584C70.8264 54.2217 71.9983 53.3281 73.6389 53.3281C75.3162 53.3281 76.4807 54.2217 76.4807 55.584C76.4807 56.9463 75.3162 57.8398 73.6389 57.8398C71.9983 57.8398 70.8264 56.9463 70.8264 55.584ZM72.0715 55.584C72.0715 56.3311 72.7087 56.8218 73.6389 56.8291C74.5837 56.8218 75.2283 56.3311 75.2209 55.584C75.2283 54.8369 74.5837 54.3462 73.6389 54.3535C72.7087 54.3462 72.0715 54.8369 72.0715 55.584ZM72.7454 60.916C72.7307 59.4292 74.4006 58.5869 77.1838 58.5869C79.9744 58.5869 81.6443 59.4292 81.6516 60.916C81.6443 62.3882 79.9744 63.2231 77.1838 63.2158C74.4006 63.2231 72.7307 62.3882 72.7454 60.916ZM74.1223 60.916C74.1077 61.707 75.2356 62.1611 77.1838 62.1465C79.1394 62.1611 80.2527 61.707 80.26 60.916C80.2527 60.0884 79.1394 59.6489 77.1838 59.6562C75.2356 59.6489 74.1077 60.0884 74.1223 60.916ZM93.2554 50.1201V55.4375H95.3648V56.5947H93.2554V63.2451H91.8785V50.1201H93.2554ZM82.9576 53.3135V52.1709H86.1949V50.2959H87.5865V52.1709H90.7359V53.3135H82.9576ZM83.6314 57.3271C83.6314 55.54 85.0084 54.2803 86.898 54.2803C88.7803 54.2803 90.1573 55.54 90.1646 57.3271C90.1573 59.1289 88.7803 60.3813 86.898 60.3887C85.0084 60.3813 83.6314 59.1289 83.6314 57.3271ZM84.9644 57.3271C84.9571 58.4697 85.7774 59.2314 86.898 59.2168C88.0113 59.2314 88.8243 58.4697 88.8316 57.3271C88.8243 56.2065 88.0113 55.4302 86.898 55.4229C85.7774 55.4302 84.9571 56.2065 84.9644 57.3271ZM99.2343 51.1016C100.435 51.1089 101.417 51.79 101.995 52.9766H105.24V50.1201H106.617V63.2744H105.24V58.2354H102.091C101.527 59.5537 100.501 60.3228 99.2343 60.3154C97.2787 60.3228 95.8944 58.5356 95.9091 55.7012C95.8944 52.896 97.2787 51.1089 99.2343 51.1016ZM97.2274 55.7012C97.2347 57.7886 98.0477 59.0703 99.2343 59.0703C100.421 59.0703 101.234 57.7886 101.241 55.7012C101.234 53.6431 100.421 52.354 99.2343 52.3467C98.0477 52.354 97.2347 53.6431 97.2274 55.7012ZM102.391 54.1191C102.494 54.6025 102.559 55.1299 102.559 55.7012C102.559 56.1992 102.516 56.6606 102.428 57.0928H105.24V54.1191H102.391ZM122.618 50.1201V63.2744H121.226V56.4482H118.516V55.3203H121.226V50.1201H122.618ZM111.661 59.6562C113.646 58.7407 114.949 56.4995 114.942 54.3389V53.4746H112.027V52.3613H114.957V50.3838H116.348V52.3613H119.19V53.4746H116.319V54.3389C116.319 56.4116 117.659 58.543 119.673 59.4365L118.897 60.5059C117.396 59.8467 116.238 58.4697 115.652 56.8218C115.081 58.5649 113.931 60.0298 112.422 60.7256L111.661 59.6562ZM130.281 50.3984C133.16 50.3911 134.961 51.3286 134.969 52.918C134.961 54.478 133.16 55.4009 130.281 55.3936C127.41 55.4009 125.586 54.478 125.594 52.918C125.586 51.3286 127.41 50.3911 130.281 50.3984ZM124.305 57.5322V56.4043H136.272V57.5322H124.305ZM125.74 63.084V58.7041H134.807V63.084H125.74ZM127.029 52.918C127.022 53.7896 128.26 54.3022 130.281 54.3096C132.288 54.3022 133.54 53.7896 133.533 52.918C133.54 52.0098 132.288 51.4897 130.281 51.4971C128.26 51.4897 127.022 52.0098 127.029 52.918ZM127.117 61.9561H133.46V59.8174H127.117V61.9561ZM148.945 57.8398V58.9385H143.584V63.2451H142.222V58.9385H136.934V57.8398H148.945ZM138.428 56.3457V50.6475H139.805V52.3613H146.045V50.6475H147.437V56.3457H138.428ZM139.805 55.2324H146.045V53.4746H139.805V55.2324ZM160.535 50.1201V63.2744H159.158V56.1113H156.55V54.9688H159.158V50.1201H160.535ZM150.193 60.1689V51.292H156.331V52.4199H151.599V54.9688H155.774V56.082H151.599V59.0117C153.796 59.0117 155.32 58.9458 157.063 58.6455L157.209 59.7734C155.298 60.0811 153.65 60.1616 151.218 60.1689H150.193ZM176.491 50.1201V56.9023H175.085V50.1201H176.491ZM165.798 55.3936C166.296 55.3936 166.838 55.3862 167.395 55.3789V52.083H166.15V50.9844H173.283V52.083H172.024V55.1885C172.661 55.1445 173.291 55.0859 173.884 55.0127L173.943 56.0234C171.32 56.4189 168.266 56.5142 165.959 56.5068L165.798 55.3936ZM167.776 58.6016V57.5029H176.491V60.7549H169.182V62H176.945V63.1133H167.819V59.7441H175.114V58.6016H167.776ZM168.728 55.3496C169.372 55.3276 170.031 55.3057 170.691 55.269V52.083H168.728V55.3496ZM189.164 50.1201V63.2744H187.788V56.1113H185.18V54.9688H187.788V50.1201H189.164ZM178.823 60.1689V51.292H184.96V52.4199H180.229V54.9688H184.404V56.082H180.229V59.0117C182.426 59.0117 183.95 58.9458 185.693 58.6455L185.839 59.7734C183.928 60.0811 182.28 60.1616 179.848 60.1689H178.823ZM202.863 56.1406V57.21H190.851V56.1406H202.863ZM192.272 59.1289V58.1328H201.384V61.0186H193.678V62.1025H201.794V63.084H192.287V60.0957H200.007V59.1289H192.272ZM192.36 51.4385V50.457H201.354V53.2988H193.766V54.2949H201.574V55.2764H192.389V52.376H199.963V51.4385H192.36ZM217.794 50.1201V56.873H216.403V53.5039H213.634V52.376H216.403V50.1201H217.794ZM206.808 55.8184C208.859 55.1665 210.082 53.5332 210.089 51.6875V50.5449H211.466V51.6875C211.466 53.3574 212.667 54.9102 214.645 55.54L213.913 56.624C212.47 56.126 211.378 55.1372 210.8 53.8848C210.228 55.2983 209.108 56.397 207.555 56.9316L206.808 55.8184ZM209.21 58.5869V57.4883H217.794V60.7549H210.602V61.9707H218.248V63.084H209.24V59.7002H216.417V58.5869H209.21ZM230.438 50.1201V57.9277H229.047V54.6025H226.6V53.46H229.047V50.1201H230.438ZM219.496 56.7412C221.532 56.0308 222.784 54.2583 222.777 52.4492V52.1562H219.935V51.0283H227.01V52.1562H224.198V52.4346C224.191 54.0972 225.377 55.7158 227.362 56.3896L226.644 57.4883C225.172 56.9829 224.088 55.9282 223.517 54.6318C222.946 56.0967 221.796 57.2759 220.228 57.8545L219.496 56.7412ZM221.605 60.7695C221.598 59.2095 223.282 58.3013 226.044 58.2939C228.79 58.3013 230.475 59.2095 230.482 60.7695C230.475 62.3296 228.79 63.2378 226.044 63.2451C223.282 63.2378 221.598 62.3296 221.605 60.7695ZM222.982 60.7695C222.975 61.6558 224.117 62.1611 226.044 62.1465C227.955 62.1611 229.098 61.6558 229.105 60.7695C229.098 59.876 227.955 59.3706 226.044 59.3779C224.117 59.3706 222.975 59.876 222.982 60.7695ZM242.364 50.1201V55.4375H244.474V56.5947H242.364V63.2451H240.987V50.1201H242.364ZM232.066 53.3135V52.1709H235.304V50.2959H236.695V52.1709H239.845V53.3135H232.066ZM232.74 57.3271C232.74 55.54 234.117 54.2803 236.007 54.2803C237.889 54.2803 239.266 55.54 239.273 57.3271C239.266 59.1289 237.889 60.3813 236.007 60.3887C234.117 60.3813 232.74 59.1289 232.74 57.3271ZM234.073 57.3271C234.066 58.4697 234.886 59.2314 236.007 59.2168C237.12 59.2314 237.933 58.4697 237.94 57.3271C237.933 56.2065 237.12 55.4302 236.007 55.4229C234.886 55.4302 234.066 56.2065 234.073 57.3271ZM255.404 51.3799V52.6689C255.396 54.2876 255.396 56.104 254.906 58.792L253.499 58.6455C254.005 56.104 254.005 54.2437 254.012 52.6689V52.5078H246.043V51.3799H255.404ZM244.784 61.4727V60.3154H249.339V55.6865H250.716V60.3154H256.751V61.4727H244.784ZM264.812 53.6797C264.812 55.855 265.713 58.0522 267.493 59.0117L266.673 60.1104C265.435 59.4146 264.593 58.1621 264.131 56.668C263.648 58.3013 262.747 59.6929 261.473 60.4473L260.594 59.4365C262.469 58.3452 263.465 56.0015 263.465 53.7676V51.3213H264.812V53.6797ZM267.815 62.6006V50.3691H269.148V55.3496H270.73V50.1201H272.063V63.2451H270.73V56.4775H269.148V62.6006H267.815ZM285.41 56.7705V57.8984H273.399V56.7705H278.716V55.6719H274.937V52.4785H282.51V51.4531H274.908V50.3691H283.902V53.5039H276.314V54.5879H284.165V55.6719H280.093V56.7705H285.41ZM274.981 63.084V58.499H276.372V59.6416H282.539V58.499H283.916V63.084H274.981ZM276.372 61.9854H282.539V60.7109H276.372V61.9854ZM297.337 50.1201V63.2451H296.018V50.1201H297.337ZM286.013 59.4512C288.797 57.7959 290.13 55.5913 290.371 52.8887H286.629V51.7461H291.755C291.748 53.0278 291.572 54.251 291.17 55.3936H293.25V50.457H294.568V62.6006H293.25V56.5068H290.686C289.91 58.0303 288.657 59.3633 286.804 60.4473L286.013 59.4512ZM314.011 58.0303V59.1729H308.708V63.2598H307.331V59.1729H302.043V58.0303H314.011ZM302.746 56.0088C305.237 55.6938 307.243 54.3022 307.331 52.8301H303.171V51.7021H307.331V50.1201H308.708V51.7021H312.868V52.8301H308.723C308.796 54.2876 310.781 55.6938 313.279 56.0088L312.781 57.1221C310.671 56.8291 308.877 55.8403 308.027 54.5C307.178 55.855 305.376 56.8291 303.259 57.1221L302.746 56.0088ZM319.287 53.2402C319.287 54.8955 320.525 56.4189 322.539 57.0488L321.865 58.1475C320.356 57.6714 319.221 56.6753 318.62 55.3936C318.049 56.7632 316.914 57.8398 315.361 58.3525L314.687 57.2686C316.694 56.624 317.91 55.0054 317.91 53.2402V52.9326H315.053V51.8047H317.91V50.208H319.301V51.8047H322.143V52.9326H319.287V53.2402ZM317.104 62.9668V59.041H318.496V61.8389H325.981V62.9668H317.104ZM321.689 55.2324V54.1045H324.238V50.1348H325.629V59.9053H324.238V55.2324H321.689ZM337.643 50.1201V53.2256H339.548V54.3828H337.643V57.7812H336.252V50.1201H337.643ZM327.844 57.0195V50.8672H329.206V52.7715H332.648V50.8672H334.025V57.0195H327.844ZM329.206 55.9209H332.648V53.8701H329.206V55.9209ZM329.279 63.0547V58.4697H337.746V59.583H330.671V61.9561H337.98V63.0547H329.279ZM343.49 51.1016C345.453 51.1089 346.852 52.896 346.86 55.7012C346.852 58.5356 345.453 60.3228 343.49 60.3154C341.528 60.3228 340.129 58.5356 340.136 55.7012C340.129 52.896 341.528 51.1089 343.49 51.1016ZM341.469 55.7012C341.462 57.7886 342.297 59.0703 343.49 59.0703C344.706 59.0703 345.527 57.7886 345.527 55.7012C345.527 53.6431 344.706 52.354 343.49 52.3467C342.297 52.354 341.462 53.6431 341.469 55.7012ZM348.808 63.2451V50.1201H350.199V55.2617H352.309V56.4336H350.199V63.2451H348.808ZM3.99902 76.1016C5.96191 76.1089 7.36084 77.896 7.36816 80.7012C7.36084 83.5356 5.96191 85.3228 3.99902 85.3154C2.03613 85.3228 0.637207 83.5356 0.644531 80.7012C0.637207 77.896 2.03613 76.1089 3.99902 76.1016ZM1.97754 80.7012C1.97021 82.7886 2.80518 84.0703 3.99902 84.0703C5.21484 84.0703 6.03516 82.7886 6.03516 80.7012C6.03516 78.6431 5.21484 77.354 3.99902 77.3467C2.80518 77.354 1.97021 78.6431 1.97754 80.7012ZM9.31641 88.2451V75.1201H10.708V78.3281H12.7441V79.5146H10.708V82.2393H12.7441V83.3818H10.708V88.2451H9.31641ZM26.7819 75.1348V79.3535H28.6862V80.5107H26.7819V84.9492H25.3903V75.1348H26.7819ZM16.484 77.7861V76.6582H19.7067V75.1201H21.0983V76.6582H24.3063V77.7861H16.484ZM17.2018 80.8916C17.1945 79.3901 18.4909 78.4087 20.3952 78.416C22.2775 78.4087 23.5739 79.3901 23.5739 80.8916C23.5739 82.3784 22.2775 83.3452 20.3952 83.3525C18.4909 83.3452 17.1945 82.3784 17.2018 80.8916ZM18.4616 87.9668V84.1729H19.8532V86.8389H27.3385V87.9668H18.4616ZM18.5495 80.8916C18.5348 81.7485 19.2819 82.2759 20.3952 82.2686C21.5084 82.2759 22.2555 81.7485 22.2702 80.8916C22.2555 80.0273 21.5084 79.4927 20.3952 79.4854C19.2819 79.4927 18.5348 80.0273 18.5495 80.8916ZM39.3379 75.1201V80.2031H41.4472V81.3457H39.3379V88.2744H37.9463V75.1201H39.3379ZM29.6699 85.0078V76.3799H35.8076V77.5078H31.0615V83.8506C33.2661 83.8433 34.914 83.748 36.789 83.4111L36.9648 84.583C34.9067 84.9492 33.1635 85.0151 30.7246 85.0078H29.6699ZM52.3772 78.958V80.0713H43.3391V75.5889H44.7161V78.958H52.3772ZM41.7425 82.8398V81.7266H53.7542V82.8398H41.7425ZM43.2366 87.9375V84.085H44.6282V86.7949H52.4651V87.9375H43.2366ZM68.6855 75.1201V82.7666H67.2939V79.4707H64.8329V78.3135H67.2939V75.1201H68.6855ZM57.7577 81.5947C59.7719 80.9062 61.0317 79.1558 61.0243 77.3613V77.0537H58.1825V75.9111H65.2577V77.0537H62.4452V77.3613C62.4379 78.9946 63.6244 80.6279 65.6093 81.3164L64.8915 82.415C63.4194 81.9023 62.328 80.8477 61.7568 79.5439C61.1855 80.9941 60.0356 82.144 58.4755 82.6934L57.7577 81.5947ZM60.0282 88.084V83.3818H68.6855V88.084H60.0282ZM61.4052 86.9561H67.3232V84.4805H61.4052V86.9561ZM78.3287 77.8301C78.3287 79.3462 79.5152 80.7524 81.522 81.3311L80.8775 82.415C79.3614 81.9756 78.2408 81.0454 77.6548 79.8516C77.0762 81.1626 75.9337 82.1807 74.3736 82.6641L73.6998 81.5801C75.7066 80.9868 76.9517 79.4927 76.9517 77.8301V77.6982H74.0953V76.585H76.9517V75.0615H78.3433V76.585H81.1851V77.6982H78.3287V77.8301ZM75.6627 88.084V83.4551H84.0416V88.084H75.6627ZM77.025 86.9561H82.6646V84.5537H77.025V86.9561ZM82.65 82.8691V75.1201H84.0416V78.3721H85.9459V79.5293H84.0416V82.8691H82.65ZM96.993 76.3799V77.6689C96.9857 79.2876 96.9857 81.104 96.495 83.792L95.0888 83.6455C95.5941 81.104 95.5941 79.2437 95.6014 77.6689V77.5078H87.6327V76.3799H96.993ZM86.3729 86.4727V85.3154H90.9286V80.6865H92.3055V85.3154H98.3407V86.4727H86.3729ZM114.356 82.8398V83.9385H108.995V88.2451H107.632V83.9385H102.344V82.8398H114.356ZM103.838 81.3457V75.6475H105.215V77.3613H111.456V75.6475H112.847V81.3457H103.838ZM105.215 80.2324H111.456V78.4746H105.215V80.2324ZM121.668 75.999V77.127H116.966V78.6357H121.419V79.7197H116.966V81.3018C119.375 81.3018 120.811 81.2285 122.488 80.9355L122.635 82.0488C120.84 82.3638 119.295 82.4297 116.599 82.415H115.574V75.999H121.668ZM116.643 84.8027V83.6748H125.315V88.2451H123.924V84.8027H116.643ZM123.924 83.0742V75.1201H125.315V78.5186H127.22V79.6904H125.315V83.0742H123.924ZM138.281 81.3457V82.4883H129.141V76.292H138.164V77.4346H130.518V81.3457H138.281ZM127.647 86.5166V85.3594H139.658V86.5166H127.647ZM151.174 75.1348V82.3711H149.783V75.1348H151.174ZM140.95 76.8779V75.75H146.985V79.4121H142.341V80.9648C144.641 80.9575 146.318 80.8989 148.318 80.5693L148.494 81.6973C146.348 82.0488 144.561 82.1074 142.078 82.1221H140.979V78.3281H145.608V76.8779H140.95ZM142.561 88.084V82.9863H143.953V84.4072H149.797V82.9863H151.174V88.084H142.561ZM143.953 86.9561H149.797V85.5059H143.953V86.9561ZM163.833 75.1201V88.2451H162.441V75.1201H163.833ZM153.74 84.9053V76.3945H155.117V83.7041C157.036 83.6968 159.05 83.5283 161.152 83.1035L161.343 84.2754C159.021 84.7515 156.911 84.9126 154.839 84.9053H153.74ZM175.803 75.1201V80.2031H177.912V81.3457H175.803V88.2744H174.411V75.1201H175.803ZM166.135 85.0078V76.3799H172.273V77.5078H167.526V83.8506C169.731 83.8433 171.379 83.748 173.254 83.4111L173.43 84.583C171.372 84.9492 169.629 85.0151 167.19 85.0078H166.135ZM179.716 87.1025C179.145 87.0952 178.669 86.6338 178.676 86.0625C178.669 85.4912 179.145 85.0225 179.716 85.0225C180.28 85.0225 180.749 85.4912 180.756 86.0625C180.749 86.6338 180.28 87.0952 179.716 87.1025Z" fill="#262626"/>
</svg>
