<svg width="347" height="64" viewBox="0 0 347 64" fill="none" xmlns="http://www.w3.org/2000/svg">
<path d="M11.3818 0.120117V13.2744H9.99023V0.120117H11.3818ZM1.21582 2.43457V1.30664H7.36816V6.09668H2.65137V8.96777C4.78271 8.96045 6.63574 8.85791 8.83301 8.49902L8.96484 9.6416C6.64307 10.0298 4.66553 10.1177 2.34375 10.125H1.23047V4.9834H5.94727V2.43457H1.21582ZM24.0989 0.134766V13.2451H22.6927V10.1104H19.7923V9.05566H22.6927V0.134766H24.0989ZM13.0687 6.96094C15.5589 6.94629 18.8621 6.93896 21.7405 6.53613L21.8138 7.56152C20.5613 7.78125 19.265 7.91309 18.0052 7.99365V12.835H16.6136V8.05957C15.4124 8.10352 14.2698 8.11816 13.2591 8.11816L13.0687 6.96094ZM14.0355 3.35742C14.0428 1.80469 15.4197 0.735352 17.39 0.735352C19.3309 0.735352 20.7152 1.80469 20.7152 3.35742C20.7152 4.93945 19.3309 5.95752 17.39 5.96484C15.4197 5.95752 14.0428 4.93945 14.0355 3.35742ZM15.3538 3.35742C15.3465 4.29492 16.1815 4.90283 17.39 4.89551C18.5545 4.90283 19.3895 4.29492 19.3968 3.35742C19.3895 2.43457 18.5618 1.81201 17.39 1.80469C16.1815 1.81201 15.3465 2.43457 15.3538 3.35742ZM36.4059 6.3457V7.48828H27.2653V1.29199H36.2887V2.43457H28.6422V6.3457H36.4059ZM25.7711 11.5166V10.3594H37.7829V11.5166H25.7711ZM42.6923 1.05762C44.7651 1.05029 46.2592 2.33203 46.2666 4.17773C46.2592 6.02344 44.7651 7.30518 42.6923 7.3125C40.6269 7.30518 39.1108 6.02344 39.1181 4.17773C39.1108 2.33203 40.6269 1.05029 42.6923 1.05762ZM38.4882 9.29004C40.8759 9.29004 44.1865 9.26807 47.0576 8.85059L47.1601 9.86133C44.1938 10.4326 41.0078 10.4473 38.664 10.4473L38.4882 9.29004ZM40.4951 4.17773C40.4804 5.34229 41.4179 6.09668 42.6923 6.09668C43.9668 6.09668 44.9043 5.34229 44.9043 4.17773C44.9043 3.02783 43.9668 2.25879 42.6923 2.25879C41.4179 2.25879 40.4804 3.02783 40.4951 4.17773ZM47.8779 13.2744V0.120117H49.2695V13.2744H47.8779ZM66.398 7.53223V8.6748H63.3512V13.2451H61.9449V8.6748H58.8102V13.2451H57.3746V8.6748H54.3863V7.53223H66.398ZM55.69 3.51855C55.6974 1.74609 57.587 0.618164 60.3629 0.618164C63.1388 0.618164 65.0431 1.74609 65.0357 3.51855C65.0431 5.26904 63.1388 6.375 60.3629 6.36035C57.587 6.375 55.6974 5.26904 55.69 3.51855ZM57.1256 3.51855C57.1183 4.59521 58.4146 5.26172 60.3629 5.26172C62.3185 5.26172 63.6075 4.59521 63.6148 3.51855C63.6075 2.4126 62.3185 1.73877 60.3629 1.73145C58.4146 1.73877 57.1183 2.4126 57.1256 3.51855ZM78.412 1.98047V3.1084H67.6161V1.98047H72.3329V0.310547H73.7099V1.98047H78.412ZM67.0448 11.7949V10.667H70.121V8.32324C69.1689 7.90576 68.6342 7.23193 68.6415 6.3457C68.6342 4.77832 70.3114 3.85547 73.0214 3.87012C75.7094 3.85547 77.394 4.77832 77.3866 6.3457C77.394 7.23193 76.8593 7.90576 75.9072 8.32324V10.667H79.0566V11.7949H67.0448ZM70.0624 6.3457C70.0478 7.23193 71.1464 7.7373 73.0214 7.7373C74.8671 7.7373 75.9731 7.23193 75.9657 6.3457C75.9731 5.45215 74.8671 4.94678 73.0214 4.93945C71.1464 4.94678 70.0478 5.45215 70.0624 6.3457ZM71.5126 10.667H74.5448V8.71143C74.0834 8.78467 73.5707 8.82129 73.0214 8.82129C72.4721 8.82129 71.9667 8.78467 71.5126 8.71143V10.667ZM90.6018 0.120117V13.2451H89.1955V0.120117H90.6018ZM79.8205 9.72949C83.3069 8.06689 85.0134 5.70117 85.2844 2.63965H80.4504V1.52637H86.6907C86.6907 5.37158 85.0574 8.69678 80.553 10.8574L79.8205 9.72949ZM102.645 0.120117V4.00195H104.549V5.15918H102.645V9.65625H101.239V0.120117H102.645ZM92.3179 7.10742C95.3941 6.18457 97.2984 4.43408 97.5694 2.27344H92.8746V1.11621H99.0855C99.0855 4.55859 96.7418 7.05615 92.9039 8.2207L92.3179 7.10742ZM94.3101 12.9668V8.6748H95.7164V11.8389H103.187V12.9668H94.3101ZM116.944 6.97559V8.08887H104.976V6.97559H116.944ZM106.266 3.18164C106.258 1.53369 108.097 0.552246 110.953 0.55957C113.795 0.552246 115.633 1.53369 115.641 3.18164C115.633 4.83691 113.795 5.84033 110.953 5.84766C108.097 5.84033 106.258 4.83691 106.266 3.18164ZM106.485 12.9668V9.1582H107.891V11.8389H115.597V12.9668H106.485ZM107.701 3.18164C107.694 4.15576 108.939 4.70508 110.953 4.70508C112.96 4.70508 114.212 4.15576 114.205 3.18164C114.212 2.24414 112.96 1.67285 110.953 1.67285C108.939 1.67285 107.694 2.24414 107.701 3.18164ZM131.275 0.120117V3.35742H133.179V4.5293H131.275V7.7959H129.883V0.120117H131.275ZM120.889 6.60938C124.039 5.78174 125.906 4.11914 126.148 2.05371H121.519V0.925781H127.642C127.635 4.30225 125.357 6.67529 121.46 7.67871L120.889 6.60938ZM122.603 9.49512V8.36719H131.275V13.2451H129.883V9.49512H122.603ZM147.861 0.120117V13.2451H146.455V0.120117H147.861ZM137.08 9.72949C140.567 8.06689 142.273 5.70117 142.544 2.63965H137.71V1.52637H143.95C143.95 5.37158 142.317 8.69678 137.813 10.8574L137.08 9.72949ZM161.604 10.4326V11.6045H149.592V10.4326H161.604ZM150.618 2.52246V1.37988H160.505V2.52246H158.499V6.90234H160.461V8.01562H150.647V6.90234H152.61V2.52246H150.618ZM153.987 6.90234H157.136V2.52246H153.987V6.90234ZM169.531 1.27734V2.41992H164.419V4.9541H169.033V6.06738H164.419V9.01172C166.711 8.99707 168.374 8.9165 170.322 8.60156L170.469 9.72949C168.388 10.0664 166.587 10.1323 164.111 10.1396H163.042V1.27734H169.531ZM171.743 13.2451V0.120117H173.149V13.2451H171.743ZM185.398 0.706055V1.86328C185.398 3.10107 185.398 4.41943 185.031 6.21387L183.654 6.09668C183.801 5.38623 183.896 4.75635 183.947 4.17041L176.14 4.5293L175.949 3.35742L184.006 3.1377C184.021 2.69092 184.021 2.27344 184.021 1.86328V1.83398H176.286V0.706055H185.398ZM174.895 8.13281V7.01953H179.626V5.17383H181.032V7.01953H186.833V8.13281H174.895ZM176.374 13.04V9.14355H177.766V11.9121H185.676V13.04H176.374ZM194.16 1.42383V9.94922H188.022V1.42383H194.16ZM189.384 8.82129H192.783V2.52246H189.384V8.82129ZM196.357 13.2451V0.120117H197.748V5.26172H199.858V6.43359H197.748V13.2451H196.357ZM210.392 0.120117V5.20312H212.502V6.3457H210.392V13.2744H209.001V0.120117H210.392ZM200.724 10.0078V1.37988H206.862V2.50781H202.116V8.85059C204.321 8.84326 205.969 8.74805 207.844 8.41113L208.019 9.58301C205.961 9.94922 204.218 10.0151 201.779 10.0078H200.724ZM226.378 0.120117V5.20312H228.488V6.3457H226.378V13.2744H224.987V0.120117H226.378ZM216.71 10.0078V1.37988H222.848V2.50781H218.102V8.85059C220.307 8.84326 221.954 8.74805 223.829 8.41113L224.005 9.58301C221.947 9.94922 220.204 10.0151 217.765 10.0078H216.71ZM240.795 6.59473V7.70801H228.783V6.59473H240.795ZM230.292 1.46777V0.398438H239.286V3.5332H231.698V4.61719H239.55V5.68652H230.321V2.50781H237.894V1.46777H230.292ZM230.365 13.0547V8.46973H231.757V9.62695H237.924V8.46973H239.301V13.0547H230.365ZM231.757 11.9707H237.924V10.6963H231.757V11.9707ZM252.34 0.120117V13.2451H250.948V0.120117H252.34ZM242.247 9.90527V1.39453H243.624V8.7041C245.543 8.69678 247.557 8.52832 249.659 8.10352L249.85 9.27539C247.528 9.75146 245.419 9.9126 243.346 9.90527H242.247ZM264.31 0.120117V5.20312H266.419V6.3457H264.31V13.2744H262.918V0.120117H264.31ZM254.642 10.0078V1.37988H260.78V2.50781H256.034V8.85059C258.238 8.84326 259.886 8.74805 261.761 8.41113L261.937 9.58301C259.879 9.94922 258.136 10.0151 255.697 10.0078H254.642ZM268.223 12.1025C267.652 12.0952 267.176 11.6338 267.183 11.0625C267.176 10.4912 267.652 10.0225 268.223 10.0225C268.787 10.0225 269.256 10.4912 269.263 11.0625C269.256 11.6338 268.787 12.0952 268.223 12.1025ZM11.1475 26.3799V27.7861C11.1328 29.4341 11.1328 31.1626 10.6641 33.6748L9.30176 33.5283C9.76318 31.1553 9.76318 29.3975 9.75586 27.7861V27.5078H1.71387V26.3799H11.1475ZM0.483398 36.4727V35.3154H3.31055V31.0674H4.70215V35.3154H6.5918V31.0674H7.9541V35.3154H12.4512V36.4727H0.483398ZM23.4544 25.1201V29.6172H25.3294V30.7744H23.4544V35.374H22.0628V25.1201H23.4544ZM13.0394 32.8252C14.0501 32.8252 15.2293 32.8252 16.4671 32.7812V31.8657C14.973 31.6899 14.0208 30.9722 14.0355 29.8955C14.0208 28.6211 15.2733 27.8594 17.1556 27.874C19.0379 27.8594 20.2684 28.6211 20.2757 29.8955C20.2684 30.9722 19.3382 31.6899 17.8587 31.8584V32.7153C19.0306 32.6494 20.2171 32.5396 21.3157 32.3711L21.4329 33.3525C18.6351 33.8799 15.4783 33.9165 13.1859 33.9385L13.0394 32.8252ZM13.3763 27.3613V26.3359H16.4671V25.0762H17.8587V26.3359H20.9495V27.3613H13.3763ZM14.973 37.9668V34.6855H16.3646V36.8389H23.9232V37.9668H14.973ZM15.3538 29.8955C15.3538 30.5327 16.035 30.9355 17.1556 30.9355C18.2615 30.9355 18.95 30.5327 18.9427 29.8955C18.95 29.2144 18.2615 28.8188 17.1556 28.8262C16.035 28.8188 15.3538 29.2144 15.3538 29.8955ZM33.9326 28.46C33.9179 30.855 35.3681 33.272 37.4043 34.1729L36.5693 35.2715C35.0605 34.5537 33.8667 33.0815 33.2514 31.2871C32.6435 33.2134 31.435 34.7954 29.8603 35.5645L29.0107 34.3926C31.0761 33.4771 32.5263 30.9648 32.5263 28.46V26.2188H33.9326V28.46ZM38.5908 38.2744V25.1201H39.9824V38.2744H38.5908ZM55.9977 25.1201V38.2744H54.6061V25.1201H55.9977ZM45.8316 27.4346V26.3066H51.984V31.0967H47.2672V33.9678C49.3985 33.9604 51.2516 33.8579 53.4488 33.499L53.5807 34.6416C51.2589 35.0298 49.2813 35.1177 46.9596 35.125H45.8463V29.9834H50.5631V27.4346H45.8316ZM68.7148 25.1348V38.2451H67.3085V35.1104H64.4081V34.0557H67.3085V25.1348H68.7148ZM57.6845 31.9609C60.1747 31.9463 63.478 31.939 66.3564 31.5361L66.4296 32.5615C65.1772 32.7812 63.8808 32.9131 62.621 32.9937V37.835H61.2294V33.0596C60.0282 33.1035 58.8857 33.1182 57.8749 33.1182L57.6845 31.9609ZM58.6513 28.3574C58.6586 26.8047 60.0356 25.7354 62.0058 25.7354C63.9467 25.7354 65.331 26.8047 65.331 28.3574C65.331 29.9395 63.9467 30.9575 62.0058 30.9648C60.0356 30.9575 58.6586 29.9395 58.6513 28.3574ZM59.9697 28.3574C59.9623 29.2949 60.7973 29.9028 62.0058 29.8955C63.1703 29.9028 64.0053 29.2949 64.0126 28.3574C64.0053 27.4346 63.1777 26.812 62.0058 26.8047C60.7973 26.812 59.9623 27.4346 59.9697 28.3574ZM81.0217 31.3457V32.4883H71.8811V26.292H80.9045V27.4346H73.258V31.3457H81.0217ZM70.387 36.5166V35.3594H82.3987V36.5166H70.387ZM90.8993 27.2148C90.892 28.936 92.1078 30.54 94.0634 31.1846L93.3163 32.2832C91.8807 31.7778 90.8041 30.7524 90.2328 29.4561C89.6615 30.9282 88.5482 32.0854 87.0175 32.6494L86.2704 31.5361C88.3212 30.811 89.5077 29.0605 89.5223 27.0977V25.8086H90.8993V27.2148ZM88.0429 35.7842C88.0429 34.2461 89.7201 33.3452 92.452 33.3525C95.1473 33.3452 96.8026 34.2461 96.8026 35.7842C96.8026 37.3369 95.1473 38.2231 92.452 38.2158C89.7201 38.2231 88.0429 37.3369 88.0429 35.7842ZM89.4345 35.7842C89.4271 36.6484 90.5551 37.1172 92.452 37.1318C94.3344 37.1172 95.4476 36.6484 95.4403 35.7842C95.4476 34.9492 94.3344 34.4512 92.452 34.4512C90.5551 34.4512 89.4271 34.9492 89.4345 35.7842ZM95.2938 33.0449V25.1201H96.6854V28.416H98.5897V29.5879H96.6854V33.0449H95.2938ZM103.016 28.709C103.016 30.8037 103.895 33.0376 105.653 34.1143L104.876 35.1836C103.646 34.4438 102.818 33.1328 102.364 31.6167C101.888 33.2793 100.98 34.7002 99.7053 35.4766L98.841 34.4365C100.694 33.3232 101.675 31.0015 101.668 28.7676V26.3213H103.016V28.709ZM104.232 30.8916V29.7344H106.268V25.3691H107.586V37.6006H106.268V30.8916H104.232ZM108.978 38.2451V25.1201H110.311V38.2451H108.978ZM126.355 25.1201V38.2451H125.022V25.1201H126.355ZM114.856 33.9092C115.237 33.9092 115.677 33.9092 116.145 33.9019V27.874H115.135V26.7314H121.155V27.874H120.144V33.7407C120.591 33.7041 121.023 33.6528 121.419 33.6016L121.521 34.6123C119.441 35.0225 116.717 35.0811 115.017 35.0811L114.856 33.9092ZM117.405 33.8799C117.881 33.8726 118.372 33.8506 118.855 33.8286V27.874H117.405V33.8799ZM120.804 31.2871V30.042H122.444V25.4131H123.763V37.5713H122.444V31.2871H120.804ZM138.516 25.1201V38.2744H137.124V25.1201H138.516ZM128.101 30.7012C128.101 27.896 129.514 26.1089 131.499 26.1016C133.447 26.1089 134.883 27.896 134.883 30.7012C134.883 33.5356 133.447 35.3228 131.499 35.3154C129.514 35.3228 128.101 33.5356 128.101 30.7012ZM129.448 30.7012C129.441 32.7886 130.276 34.0703 131.499 34.0703C132.7 34.0703 133.535 32.7886 133.535 30.7012C133.535 28.6431 132.7 27.354 131.499 27.3467C130.276 27.354 129.441 28.6431 129.448 30.7012ZM145.124 28.9873C145.117 31.1846 146.56 33.4551 148.582 34.3193L147.82 35.4033C146.274 34.7222 145.044 33.272 144.436 31.5215C143.828 33.3965 142.598 34.9932 141.067 35.7402L140.261 34.6416C142.239 33.7114 143.704 31.2505 143.718 28.9873V27.5957H140.715V26.4385H148.113V27.5957H145.124V28.9873ZM149.768 38.2451V25.1201H151.16V38.2451H149.768ZM164.228 25.1201V38.2451H162.895V25.1201H164.228ZM153.081 30.7891C153.081 27.9473 154.194 26.1675 155.908 26.1748C157.505 26.1675 158.581 27.6836 158.742 30.1445H160.229V25.3691H161.562V37.6006H160.229V31.2725H158.75C158.625 33.8359 157.534 35.4253 155.908 35.418C154.194 35.4253 153.081 33.6382 153.081 30.7891ZM154.37 30.7891C154.37 32.8765 154.963 34.1069 155.908 34.0996C156.875 34.1069 157.475 32.8765 157.475 30.7891C157.475 28.6943 156.875 27.4712 155.908 27.4785C154.963 27.4712 154.37 28.6943 154.37 30.7891ZM170.31 28.46C170.31 30.8623 171.657 33.2573 173.664 34.1582L172.815 35.2715C171.328 34.5244 170.2 33.0449 169.621 31.2505C169.043 33.1401 167.9 34.7368 166.384 35.5205L165.505 34.3926C167.541 33.4185 168.896 30.8916 168.903 28.46V26.2188H170.31V28.46ZM172.214 30.6133V29.4854H175.144V25.1201H176.521V38.2744H175.144V30.6133H172.214ZM193.561 32.5322V33.6748H190.514V38.2451H189.108V33.6748H185.973V38.2451H184.538V33.6748H181.55V32.5322H193.561ZM182.853 28.5186C182.861 26.7461 184.75 25.6182 187.526 25.6182C190.302 25.6182 192.206 26.7461 192.199 28.5186C192.206 30.269 190.302 31.375 187.526 31.3604C184.75 31.375 182.861 30.269 182.853 28.5186ZM184.289 28.5186C184.282 29.5952 185.578 30.2617 187.526 30.2617C189.482 30.2617 190.771 29.5952 190.778 28.5186C190.771 27.4126 189.482 26.7388 187.526 26.7314C185.578 26.7388 184.282 27.4126 184.289 28.5186ZM205.575 26.9805V28.1084H194.779V26.9805H199.496V25.3105H200.873V26.9805H205.575ZM194.208 36.7949V35.667H197.284V33.3232C196.332 32.9058 195.797 32.2319 195.805 31.3457C195.797 29.7783 197.475 28.8555 200.185 28.8701C202.873 28.8555 204.557 29.7783 204.55 31.3457C204.557 32.2319 204.023 32.9058 203.07 33.3232V35.667H206.22V36.7949H194.208ZM197.226 31.3457C197.211 32.2319 198.31 32.7373 200.185 32.7373C202.03 32.7373 203.136 32.2319 203.129 31.3457C203.136 30.4521 202.03 29.9468 200.185 29.9395C198.31 29.9468 197.211 30.4521 197.226 31.3457ZM198.676 35.667H201.708V33.7114C201.247 33.7847 200.734 33.8213 200.185 33.8213C199.635 33.8213 199.13 33.7847 198.676 33.7114V35.667ZM217.765 25.1201V38.2451H216.359V25.1201H217.765ZM206.984 34.7295C210.47 33.0669 212.177 30.7012 212.448 27.6396H207.614V26.5264H213.854C213.854 30.3716 212.221 33.6968 207.716 35.8574L206.984 34.7295ZM229.808 25.1201V29.002H231.713V30.1592H229.808V34.6562H228.402V25.1201H229.808ZM219.481 32.1074C222.557 31.1846 224.462 29.4341 224.733 27.2734H220.038V26.1162H226.249C226.249 29.5586 223.905 32.0562 220.067 33.2207L219.481 32.1074ZM221.473 37.9668V33.6748H222.88V36.8389H230.35V37.9668H221.473ZM239.449 26.5264V27.332C239.442 28.438 239.442 30.1299 239.068 32.4736L237.691 32.3711C238.028 30.2764 238.065 28.7456 238.072 27.6543H232.74V26.5264H239.449ZM232.008 34.29C232.828 34.2827 233.744 34.2754 234.703 34.2534V30.2764H236.08V34.2095C237.472 34.1509 238.9 34.063 240.211 33.8945L240.284 34.9346C237.552 35.374 234.498 35.4326 232.169 35.418L232.008 34.29ZM240.958 38.2451V25.1201H242.364V30.54H244.371V31.7266H242.364V38.2451H240.958ZM252.681 28.46C252.667 30.7817 254.022 33.1621 255.977 34.1143L255.113 35.2275C253.685 34.4805 252.579 33.0156 252 31.2651C251.414 33.1255 250.264 34.7002 248.77 35.4766L247.906 34.3486C249.92 33.3818 251.282 30.8623 251.29 28.46V26.2188H252.681V28.46ZM256.959 38.2451V25.1201H258.35V30.3496H260.46V31.5361H258.35V38.2451H256.959ZM272.737 31.5215V32.6494H260.77V31.5215H263.641V29.7563C262.623 29.3462 262.051 28.687 262.059 27.8154C262.051 26.2554 263.86 25.3472 266.746 25.3545C269.625 25.3472 271.426 26.2554 271.434 27.8154C271.426 28.687 270.855 29.3462 269.837 29.7637V31.5215H272.737ZM262.19 35.8721C262.19 34.3706 263.89 33.543 266.746 33.543C269.566 33.543 271.265 34.3706 271.272 35.8721C271.265 37.3882 269.566 38.2158 266.746 38.2158C263.89 38.2158 262.19 37.3882 262.19 35.8721ZM263.494 27.8154C263.487 28.6943 264.703 29.1851 266.746 29.1924C268.775 29.1851 270.005 28.6943 269.998 27.8154C270.005 26.9365 268.775 26.4312 266.746 26.4238C264.703 26.4312 263.487 26.9365 263.494 27.8154ZM263.597 35.8721C263.589 36.6924 264.739 37.1611 266.746 37.1465C268.724 37.1611 269.881 36.6924 269.881 35.8721C269.881 35.0664 268.724 34.6123 266.746 34.6123C264.739 34.6123 263.589 35.0664 263.597 35.8721ZM265.047 31.5215H268.46V30.1226C267.947 30.2031 267.369 30.2471 266.746 30.2471C266.131 30.2471 265.56 30.2031 265.047 30.1299V31.5215ZM282.835 33.2939C285.537 33.2939 287.185 34.2021 287.185 35.7549C287.185 37.3296 285.537 38.2378 282.835 38.2451C280.103 38.2378 278.425 37.3296 278.425 35.7549C278.425 34.2021 280.103 33.2939 282.835 33.2939ZM277.268 32.0342V25.9404H278.63V27.8301H282.073V25.9404H283.45V32.0342H277.268ZM278.63 30.9209H282.073V28.9287H278.63V30.9209ZM279.817 35.7549C279.81 36.6338 280.938 37.1318 282.835 37.1318C284.717 37.1318 285.83 36.6338 285.823 35.7549C285.83 34.8833 284.717 34.3926 282.835 34.3926C280.938 34.3926 279.81 34.8833 279.817 35.7549ZM285.676 32.957V25.1201H287.068V28.3281H288.972V29.5146H287.068V32.957H285.676ZM291.421 25.7939V27.7129H294.702V25.7939H296.079V28.2695H298.95V25.1201H300.342V32.2832H298.95V29.4268H296.079V31.8438H290.029V25.7939H291.421ZM291.421 30.7158H294.702V28.7969H291.421V30.7158ZM291.787 38.0547V32.8984H293.164V34.3779H298.95V32.8984H300.327V38.0547H291.787ZM293.164 36.9268H298.95V35.4619H293.164V36.9268ZM308.02 25.3398C310.979 25.3325 312.7 26.1309 312.707 27.5957C312.7 29.0679 310.979 29.8662 308.02 29.8662C305.061 29.8662 303.325 29.0679 303.332 27.5957C303.325 26.1309 305.061 25.3325 308.02 25.3398ZM302.043 31.7852V30.6719H314.011V31.7852H302.043ZM303.479 33.8359V32.7959H312.502V35.8721H304.856V37.0439H312.868V38.1133H303.493V34.8613H311.125V33.8359H303.479ZM304.783 27.5957C304.775 28.4087 305.932 28.8262 308.02 28.8262C310.122 28.8262 311.279 28.4087 311.272 27.5957C311.279 26.8193 310.122 26.3652 308.02 26.3652C305.932 26.3652 304.775 26.8193 304.783 27.5957ZM328.693 25.6914V26.3359C328.693 27.1709 328.693 28.5039 328.312 30.2617L326.95 30.1006C327.265 28.665 327.316 27.5957 327.338 26.8047H324.167V25.6914H328.693ZM318.044 32.4004V31.2725H323.581V28.7383H324.958V31.2725H329.982V32.4004H318.044ZM319.055 26.8047V25.6914H323.098V26.1748C323.083 26.9585 323.083 28.3721 322.453 30.2764L321.12 30.0859C321.581 28.6284 321.691 27.5591 321.721 26.8047H319.055ZM319.348 34.8174V33.6895H328.503V38.1719H327.082V34.8174H319.348ZM344.342 25.1348V29.0312H346.217V30.1738H344.342V33.9678H342.951V25.1348H344.342ZM333.927 32.5029C334.945 32.5029 336.125 32.5029 337.355 32.4736V31.5874C335.861 31.4189 334.909 30.7158 334.923 29.6611C334.909 28.46 336.161 27.7129 338.044 27.7275C339.926 27.7129 341.156 28.46 341.164 29.6611C341.156 30.7085 340.226 31.4116 338.747 31.5874V32.4224C339.919 32.3638 341.105 32.2686 342.204 32.1074L342.321 33.1035C339.501 33.5942 336.388 33.6162 334.074 33.6162L333.927 32.5029ZM334.264 27.2881V26.248H337.355V25.0176H338.747V26.248H341.837V27.2881H334.264ZM335.568 35.667V34.583H344.342V38.2451H342.951V35.667H335.568ZM336.242 29.6611C336.242 30.2764 336.923 30.6792 338.044 30.6719C339.149 30.6792 339.838 30.2764 339.831 29.6611C339.838 29.0312 339.149 28.665 338.044 28.6797C336.923 28.665 336.242 29.0312 336.242 29.6611ZM11.3672 50.1348V59.6709H9.97559V50.1348H11.3672ZM0.74707 54.2656C0.754395 52.3687 2.26318 51.021 4.24805 51.0137C6.22559 51.021 7.73438 52.3687 7.73438 54.2656C7.73438 56.1919 6.22559 57.5322 4.24805 57.5322C2.26318 57.5322 0.754395 56.1919 0.74707 54.2656ZM2.10938 54.2656C2.10205 55.5034 3.0249 56.3164 4.24805 56.3164C5.44922 56.3164 6.37207 55.5034 6.37207 54.2656C6.37207 53.0571 5.44922 52.2295 4.24805 52.2295C3.0249 52.2295 2.10205 53.0571 2.10938 54.2656ZM2.7832 62.9668V58.7041H4.18945V61.8389H11.7627V62.9668H2.7832ZM28.4664 57.8398V58.9385H23.1051V63.2451H21.7428V58.9385H16.4547V57.8398H28.4664ZM17.9489 56.3457V50.6475H19.3258V52.3613H25.5661V50.6475H26.9577V56.3457H17.9489ZM19.3258 55.2324H25.5661V53.4746H19.3258V55.2324ZM35.7783 50.999V52.127H31.0761V53.6357H35.5293V54.7197H31.0761V56.3018C33.4858 56.3018 34.9213 56.2285 36.5986 55.9355L36.7451 57.0488C34.9506 57.3638 33.4052 57.4297 30.7099 57.415H29.6845V50.999H35.7783ZM30.7539 59.8027V58.6748H39.4257V63.2451H38.0341V59.8027H30.7539ZM38.0341 58.0742V50.1201H39.4257V53.5186H41.33V54.6904H39.4257V58.0742H38.0341ZM52.3919 56.3457V57.4883H43.2513V51.292H52.2747V52.4346H44.6282V56.3457H52.3919ZM41.7571 61.5166V60.3594H53.7688V61.5166H41.7571ZM65.2848 50.1348V57.3711H63.8932V50.1348H65.2848ZM55.0602 51.8779V50.75H61.0953V54.4121H56.4518V55.9648C58.7516 55.9575 60.4288 55.8989 62.4283 55.5693L62.6041 56.6973C60.4581 57.0488 58.671 57.1074 56.1881 57.1221H55.0895V53.3281H59.7184V51.8779H55.0602ZM56.6715 63.084V57.9863H58.0631V59.4072H63.9078V57.9863H65.2848V63.084H56.6715ZM58.0631 61.9561H63.9078V60.5059H58.0631V61.9561ZM77.9433 50.1201V63.2451H76.5517V50.1201H77.9433ZM67.8505 59.9053V51.3945H69.2275V58.7041C71.1464 58.6968 73.1606 58.5283 75.2626 58.1035L75.453 59.2754C73.1313 59.7515 71.0219 59.9126 68.9491 59.9053H67.8505ZM89.9133 50.1201V55.2031H92.0227V56.3457H89.9133V63.2744H88.5217V50.1201H89.9133ZM80.2454 60.0078V51.3799H86.383V52.5078H81.637V58.8506C83.8415 58.8433 85.4895 58.748 87.3645 58.4111L87.5403 59.583C85.4822 59.9492 83.739 60.0151 81.3 60.0078H80.2454ZM93.8267 62.1025C93.2554 62.0952 92.7794 61.6338 92.7867 61.0625C92.7794 60.4912 93.2554 60.0225 93.8267 60.0225C94.3907 60.0225 94.8594 60.4912 94.8668 61.0625C94.8594 61.6338 94.3907 62.0952 93.8267 62.1025Z" fill="#262626"/>
</svg>
