<svg width="349" height="114" viewBox="0 0 349 114" fill="none" xmlns="http://www.w3.org/2000/svg">
<path d="M7.36816 1.37988V10.0078H1.21582V1.37988H7.36816ZM2.59277 8.87988H6.02051V2.47852H2.59277V8.87988ZM9.96094 13.2744V0.120117H11.3525V13.2744H9.96094ZM17.7562 2.49316C17.7635 4.38281 18.9354 6.19189 20.8909 6.94629L20.1292 8.03027C18.701 7.45166 17.639 6.30176 17.0823 4.88086C16.5184 6.41162 15.4051 7.62744 13.8743 8.23535L13.1273 7.12207C15.1488 6.375 16.3719 4.50732 16.3792 2.49316V0.867188H17.7562V2.49316ZM15.5003 12.9668V8.92383H16.9066V11.8389H24.3626V12.9668H15.5003ZM20.1292 5.77441V4.64648H22.678V3.12305H20.1292V1.99512H22.678V0.134766H24.0696V9.90527H22.678V5.77441H20.1292ZM37.7389 6.97559V8.08887H25.7711V6.97559H37.7389ZM27.0602 3.18164C27.0529 1.53369 28.8913 0.552246 31.7477 0.55957C34.5895 0.552246 36.4279 1.53369 36.4352 3.18164C36.4279 4.83691 34.5895 5.84033 31.7477 5.84766C28.8913 5.84033 27.0529 4.83691 27.0602 3.18164ZM27.2799 12.9668V9.1582H28.6862V11.8389H36.3913V12.9668H27.2799ZM28.4957 3.18164C28.4884 4.15576 29.7335 4.70508 31.7477 4.70508C33.7545 4.70508 35.007 4.15576 34.9996 3.18164C35.007 2.24414 33.7545 1.67285 31.7477 1.67285C29.7335 1.67285 28.4884 2.24414 28.4957 3.18164ZM52.6702 0.120117V13.2451H51.2639V0.120117H52.6702ZM41.8889 9.72949C45.3753 8.06689 47.0818 5.70117 47.3528 2.63965H42.5188V1.52637H48.7591C48.7591 5.37158 47.1258 8.69678 42.6214 10.8574L41.8889 9.72949ZM57.3453 0.618164V2.1709H63.4244V0.618164H64.816V5.9209H61.066V7.20996H66.3688V8.35254H54.401V7.20996H59.6891V5.9209H55.9684V0.618164H57.3453ZM55.9098 12.9668V9.29004H57.316V11.8389H65.0211V12.9668H55.9098ZM57.3453 4.79297H63.4244V3.25488H57.3453V4.79297ZM77.2717 1.37988V10.0078H71.1194V1.37988H77.2717ZM72.4963 8.87988H75.9241V2.47852H72.4963V8.87988ZM79.8645 13.2744V0.120117H81.2561V13.2744H79.8645ZM87.6597 2.49316C87.6671 4.38281 88.8389 6.19189 90.7945 6.94629L90.0328 8.03027C88.6046 7.45166 87.5425 6.30176 86.9859 4.88086C86.4219 6.41162 85.3087 7.62744 83.7779 8.23535L83.0308 7.12207C85.0523 6.375 86.2755 4.50732 86.2828 2.49316V0.867188H87.6597V2.49316ZM85.4039 12.9668V8.92383H86.8101V11.8389H94.2662V12.9668H85.4039ZM90.0328 5.77441V4.64648H92.5816V3.12305H90.0328V1.99512H92.5816V0.134766H93.9732V9.90527H92.5816V5.77441H90.0328ZM103.294 0.955078C105.367 0.955078 106.861 2.22949 106.868 4.0752C106.861 5.7085 105.689 6.89502 103.983 7.14404V9.2168C105.22 9.1582 106.48 9.04834 107.659 8.87988L107.762 9.89062C104.796 10.4399 101.61 10.4546 99.2658 10.4619L99.09 9.31934C100.123 9.31934 101.324 9.31201 102.591 9.27539V7.14404C100.892 6.8877 99.7126 5.70117 99.7199 4.0752C99.7126 2.22949 101.229 0.955078 103.294 0.955078ZM101.097 4.0752C101.082 5.2251 102.02 6.00879 103.294 5.99414C104.569 6.00879 105.506 5.2251 105.506 4.0752C105.506 2.90332 104.569 2.15625 103.294 2.15625C102.02 2.15625 101.082 2.90332 101.097 4.0752ZM108.48 13.2744V0.120117H109.871V13.2744H108.48ZM122.955 0.120117V13.2451H121.622V0.120117H122.955ZM111.807 5.78906C111.807 2.94727 112.92 1.16748 114.634 1.1748C116.231 1.16748 117.308 2.68359 117.469 5.14453H118.956V0.369141H120.289V12.6006H118.956V6.27246H117.476C117.352 8.83594 116.26 10.4253 114.634 10.418C112.92 10.4253 111.807 8.63818 111.807 5.78906ZM113.096 5.78906C113.096 7.87646 113.689 9.10693 114.634 9.09961C115.601 9.10693 116.202 7.87646 116.202 5.78906C116.202 3.69434 115.601 2.47119 114.634 2.47852C113.689 2.47119 113.096 3.69434 113.096 5.78906ZM134.939 6.16992V7.2832H130.97V10.4912H136.316V11.6338H124.305V10.4912H129.593V7.2832H125.799V1.13086H134.822V2.25879H127.19V6.16992H134.939ZM150.515 0.120117V5.20312H152.624V6.3457H150.515V13.2744H149.124V0.120117H150.515ZM140.847 10.0078V1.37988H146.985V2.50781H142.239V8.85059C144.443 8.84326 146.091 8.74805 147.966 8.41113L148.142 9.58301C146.084 9.94922 144.341 10.0151 141.902 10.0078H140.847ZM164.931 7.32715V8.45508H152.92V7.32715H164.931ZM154.429 1.61426V0.515625H163.423V3.88477H155.835V5.17383H163.686V6.24316H154.458V2.87402H162.031V1.61426H154.429ZM154.487 12.9668V9.39258H155.879V11.8389H163.701V12.9668H154.487ZM180.917 7.53223V8.6748H177.871V13.2451H176.464V8.6748H173.33V13.2451H171.894V8.6748H168.906V7.53223H180.917ZM170.209 3.51855C170.217 1.74609 172.106 0.618164 174.882 0.618164C177.658 0.618164 179.562 1.74609 179.555 3.51855C179.562 5.26904 177.658 6.375 174.882 6.36035C172.106 6.375 170.217 5.26904 170.209 3.51855ZM171.645 3.51855C171.638 4.59521 172.934 5.26172 174.882 5.26172C176.838 5.26172 178.127 4.59521 178.134 3.51855C178.127 2.4126 176.838 1.73877 174.882 1.73145C172.934 1.73877 171.638 2.4126 171.645 3.51855ZM192.521 0.120117V13.2744H191.13V5.97949H188.42V4.83691H191.13V0.120117H192.521ZM181.418 9.6123C183.425 8.65283 184.838 6.16992 184.845 3.81152V2.58105H181.945V1.43848H189.167V2.58105H186.252V3.81152C186.252 6.03076 187.651 8.42578 189.665 9.31934L188.83 10.4326C187.314 9.7002 186.149 8.16943 185.563 6.38232C184.977 8.28662 183.783 9.91992 182.267 10.6963L181.418 9.6123ZM204.433 0.120117V5.34961H206.469V6.50684H204.433V13.2305H203.041V0.120117H204.433ZM194.223 9.72949C197.511 8.08887 199.298 5.71582 199.584 2.6543H194.882V1.49707H201.005C200.99 5.29102 199.32 8.68213 194.999 10.8135L194.223 9.72949ZM215.057 2.47852C215.057 4.16309 216.31 5.78174 218.339 6.41895L217.621 7.50293C216.112 7.00488 214.969 5.97217 214.376 4.65381C213.783 6.07471 212.618 7.20264 211.058 7.75195L210.341 6.68262C212.384 5.97217 213.644 4.2583 213.651 2.47852V2.1123H210.707V0.984375H217.943V2.1123H215.057V2.47852ZM212.186 9.83203V8.7041H221.078V13.2451H219.686V9.83203H212.186ZM219.686 8.04492V0.120117H221.078V8.04492H219.686ZM233.766 0.120117V7.26855H232.389V4.36816H229.928V3.22559H232.389V0.120117H233.766ZM222.853 6.38965C224.867 5.68652 226.127 3.96533 226.119 2.15625V1.98047H223.277V0.852539H230.353V1.98047H227.54V2.1709C227.533 3.79688 228.719 5.44482 230.704 6.11133L229.986 7.19531C228.507 6.66797 227.423 5.62793 226.852 4.33887C226.28 5.78174 225.13 6.93896 223.57 7.48828L222.853 6.38965ZM225.226 13.084V7.85449H226.603V9.36328H232.389V7.85449H233.766V13.084H225.226ZM226.603 11.9561H232.389V10.4473H226.603V11.9561ZM250.089 0.120117V13.2451H248.756V0.120117H250.089ZM238.633 9.62695C240.494 8.50635 241.439 6.11865 241.446 3.78223V2.72754H239.029V1.59961H245.035V2.72754H242.779V3.78223C242.779 6.02344 243.687 8.27197 245.533 9.33398L244.698 10.3594C243.445 9.6123 242.589 8.27197 242.127 6.68994C241.658 8.40381 240.765 9.86865 239.483 10.667L238.633 9.62695ZM244.068 5.90625V4.76367H246.104V0.398438H247.423V12.5859H246.104V5.90625H244.068ZM261.78 0.105469V4.03125H263.685V5.20312H261.78V9.75879H260.389V0.105469H261.78ZM251.673 4.28027C251.658 2.36865 253.182 1.021 255.159 1.01367C257.144 1.021 258.646 2.36865 258.66 4.28027C258.646 6.19189 257.144 7.5542 255.159 7.54688C253.182 7.5542 251.658 6.19189 251.673 4.28027ZM253.035 4.28027C253.021 5.50342 253.958 6.33105 255.159 6.33105C256.375 6.33105 257.291 5.50342 257.298 4.28027C257.291 3.05713 256.375 2.22949 255.159 2.22949C253.958 2.22949 253.021 3.05713 253.035 4.28027ZM253.46 12.9668V8.74805H254.852V11.8389H262.337V12.9668H253.46ZM274.424 0.134766V4.35352H276.328V5.51074H274.424V9.94922H273.033V0.134766H274.424ZM264.126 2.78613V1.6582H267.349V0.120117H268.741V1.6582H271.949V2.78613H264.126ZM264.844 5.8916C264.837 4.39014 266.133 3.40869 268.037 3.41602C269.92 3.40869 271.216 4.39014 271.216 5.8916C271.216 7.37842 269.92 8.34521 268.037 8.35254C266.133 8.34521 264.837 7.37842 264.844 5.8916ZM266.104 12.9668V9.17285H267.495V11.8389H274.981V12.9668H266.104ZM266.192 5.8916C266.177 6.74854 266.924 7.27588 268.037 7.26855C269.151 7.27588 269.898 6.74854 269.912 5.8916C269.898 5.02734 269.151 4.49268 268.037 4.48535C266.924 4.49268 266.177 5.02734 266.192 5.8916ZM286.982 1.37988V10.0078H280.83V1.37988H286.982ZM282.207 8.87988H285.635V2.47852H282.207V8.87988ZM289.575 13.2744V0.120117H290.967V13.2744H289.575ZM297.37 2.49316C297.378 4.38281 298.55 6.19189 300.505 6.94629L299.743 8.03027C298.315 7.45166 297.253 6.30176 296.697 4.88086C296.133 6.41162 295.019 7.62744 293.489 8.23535L292.741 7.12207C294.763 6.375 295.986 4.50732 295.993 2.49316V0.867188H297.37V2.49316ZM295.115 12.9668V8.92383H296.521V11.8389H303.977V12.9668H295.115ZM299.743 5.77441V4.64648H302.292V3.12305H299.743V1.99512H302.292V0.134766H303.684V9.90527H302.292V5.77441H299.743ZM319.992 0.120117V13.2451H318.659V0.120117H319.992ZM308.537 9.62695C310.397 8.50635 311.342 6.11865 311.35 3.78223V2.72754H308.933V1.59961H314.938V2.72754H312.683V3.78223C312.683 6.02344 313.591 8.27197 315.436 9.33398L314.601 10.3594C313.349 9.6123 312.492 8.27197 312.031 6.68994C311.562 8.40381 310.668 9.86865 309.387 10.667L308.537 9.62695ZM313.972 5.90625V4.76367H316.008V0.398438H317.326V12.5859H316.008V5.90625H313.972ZM331.684 0.105469V4.03125H333.588V5.20312H331.684V9.75879H330.292V0.105469H331.684ZM321.576 4.28027C321.562 2.36865 323.085 1.021 325.063 1.01367C327.048 1.021 328.549 2.36865 328.564 4.28027C328.549 6.19189 327.048 7.5542 325.063 7.54688C323.085 7.5542 321.562 6.19189 321.576 4.28027ZM322.939 4.28027C322.924 5.50342 323.862 6.33105 325.063 6.33105C326.279 6.33105 327.194 5.50342 327.201 4.28027C327.194 3.05713 326.279 2.22949 325.063 2.22949C323.862 2.22949 322.924 3.05713 322.939 4.28027ZM323.364 12.9668V8.74805H324.755V11.8389H332.24V12.9668H323.364ZM339.992 0.339844C342.951 0.33252 344.672 1.13086 344.679 2.5957C344.672 4.06787 342.951 4.86621 339.992 4.86621C337.033 4.86621 335.297 4.06787 335.304 2.5957C335.297 1.13086 337.033 0.33252 339.992 0.339844ZM334.015 6.78516V5.67188H345.983V6.78516H334.015ZM335.451 8.83594V7.7959H344.474V10.8721H336.828V12.0439H344.84V13.1133H335.465V9.86133H343.097V8.83594H335.451ZM336.754 2.5957C336.747 3.40869 337.904 3.82617 339.992 3.82617C342.094 3.82617 343.251 3.40869 343.244 2.5957C343.251 1.81934 342.094 1.36523 339.992 1.36523C337.904 1.36523 336.747 1.81934 336.754 2.5957ZM12.4512 33.0303V34.1729H7.14844V38.2598H5.77148V34.1729H0.483398V33.0303H12.4512ZM1.18652 31.0088C3.67676 30.6938 5.68359 29.3022 5.77148 27.8301H1.61133V26.7021H5.77148V25.1201H7.14844V26.7021H11.3086V27.8301H7.16309C7.23633 29.2876 9.22119 30.6938 11.7188 31.0088L11.2207 32.1221C9.11133 31.8291 7.31689 30.8403 6.46729 29.5C5.61768 30.855 3.81592 31.8291 1.69922 32.1221L1.18652 31.0088ZM23.3519 25.1201V30.3496H25.388V31.5068H23.3519V38.2305H21.9603V25.1201H23.3519ZM13.1419 34.7295C16.4305 33.0889 18.2176 30.7158 18.5032 27.6543H13.8011V26.4971H19.9241C19.9095 30.291 18.2396 33.6821 13.9183 35.8135L13.1419 34.7295ZM36.0836 25.0762V28.1523H38.0026V29.2949H36.0836V32.2979H34.692V25.0762H36.0836ZM25.7858 27.332V26.2334H29.0084V25.0029H30.4V26.2334H33.608V27.332H25.7858ZM26.5036 29.9834C26.4962 28.6577 27.7706 27.8301 29.6969 27.8301C31.6232 27.8301 32.8756 28.6577 32.8756 29.9834C32.8756 31.3164 31.6232 32.1294 29.6969 32.1221C27.7706 32.1294 26.4962 31.3164 26.5036 29.9834ZM27.6022 33.9531V32.9131H36.0836V35.96H28.9938V37.0586H36.5377V38.1133H27.6315V34.9785H34.7067V33.9531H27.6022ZM27.8512 29.9834C27.8366 30.6938 28.5617 31.1113 29.6969 31.1113C30.8248 31.1113 31.5573 30.6938 31.5719 29.9834C31.5573 29.2729 30.8248 28.8335 29.6969 28.8262C28.5617 28.8335 27.8366 29.2729 27.8512 29.9834ZM48.4807 26.2773C48.4734 28.0205 50.6048 29.6538 53.1829 29.998L52.6409 31.1406C50.4949 30.7964 48.6126 29.6831 47.7556 28.1377C46.8987 29.6831 45.0164 30.7964 42.885 31.1406L42.3284 29.998C44.8992 29.6538 47.0232 28.0425 47.0305 26.2773V25.5596H48.4807V26.2773ZM41.7571 33.5723V32.4297H53.7249V33.5723H48.3929V38.2451H47.0305V33.5723H41.7571ZM62.2988 33.792C62.2988 34.9199 62.8554 36.1138 64.0492 36.8242C65.2504 36.0552 65.8437 34.8027 65.8437 33.792V33.1621H67.206V33.792C67.1987 35.1543 68.0995 36.4727 69.8134 37.0293L69.1249 38.0547C67.8285 37.6079 66.9423 36.729 66.4882 35.6597C66.0707 36.7144 65.287 37.6738 64.0859 38.1719C62.8261 37.6958 62.0278 36.7656 61.6249 35.6963C61.1488 36.729 60.2846 37.6006 59.0468 38.0547L58.3437 37.0293C60.0282 36.4287 60.9438 35.0591 60.9511 33.792V33.1621H62.2988V33.792ZM58.0068 28.958C58.0141 27.1196 59.4936 25.8599 61.5077 25.8525C63.5146 25.8599 64.9941 27.1196 64.9941 28.958C64.9941 30.7744 63.5146 32.0342 61.5077 32.0342C59.4936 32.0342 58.0141 30.7744 58.0068 28.958ZM59.3691 28.958C59.3617 30.1006 60.2626 30.877 61.5077 30.877C62.7382 30.877 63.6318 30.1006 63.6318 28.958C63.6318 27.8081 62.7382 27.0317 61.5077 27.0391C60.2626 27.0317 59.3617 27.8081 59.3691 28.958ZM67.2353 32.6055V25.1348H68.6269V32.6055H67.2353ZM73.2434 32.9863V34.3779H79.4104V32.9863H80.802V38.084H71.8664V32.9863H73.2434ZM70.387 32.166V31.0088H82.3547V32.166H70.387ZM71.0315 29.1045C73.573 28.7749 75.6531 27.376 75.6604 25.8232V25.2666H77.0813V25.8232C77.0886 27.332 79.1833 28.7969 81.6955 29.1045L81.1975 30.2031C79.0735 29.9102 77.2205 28.8994 76.3782 27.5005C75.5286 28.9067 73.6682 29.9102 71.5588 30.2031L71.0315 29.1045ZM73.2434 36.9707H79.4104V35.4619H73.2434V36.9707ZM93.9293 25.1201V38.2451H92.5377V25.1201H93.9293ZM83.8365 34.9053V26.3945H85.2134V33.7041C87.1324 33.6968 89.1465 33.5283 91.2486 33.1035L91.439 34.2754C89.1172 34.7515 87.0079 34.9126 84.9351 34.9053H83.8365ZM105.899 25.1201V30.2031H108.009V31.3457H105.899V38.2744H104.508V25.1201H105.899ZM96.2313 35.0078V26.3799H102.369V27.5078H97.6229V33.8506C99.8275 33.8433 101.475 33.748 103.35 33.4111L103.526 34.583C101.468 34.9492 99.725 35.0151 97.286 35.0078H96.2313ZM109.813 37.1025C109.241 37.0952 108.765 36.6338 108.773 36.0625C108.765 35.4912 109.241 35.0225 109.813 35.0225C110.377 35.0225 110.845 35.4912 110.853 36.0625C110.845 36.6338 110.377 37.0952 109.813 37.1025ZM4.04297 51.1016C5.24414 51.1089 6.22559 51.79 6.8042 52.9766H10.0488V50.1201H11.4258V63.2744H10.0488V58.2354H6.89941C6.33545 59.5537 5.31006 60.3228 4.04297 60.3154C2.0874 60.3228 0.703125 58.5356 0.717773 55.7012C0.703125 52.896 2.0874 51.1089 4.04297 51.1016ZM2.03613 55.7012C2.04346 57.7886 2.85645 59.0703 4.04297 59.0703C5.22949 59.0703 6.04248 57.7886 6.0498 55.7012C6.04248 53.6431 5.22949 52.354 4.04297 52.3467C2.85645 52.354 2.04346 53.6431 2.03613 55.7012ZM7.19971 54.1191C7.30225 54.6025 7.36816 55.1299 7.36816 55.7012C7.36816 56.1992 7.32422 56.6606 7.23633 57.0928H10.0488V54.1191H7.19971ZM24.3187 50.1201V58.3965H23.0003V54.7344H21.4769V57.9424H20.1732V50.3691H21.4769V53.5918H23.0003V50.1201H24.3187ZM13.054 52.7129V51.6143H15.7054V50.2227H17.0823V51.6143H19.6898V52.7129H13.054ZM13.5667 55.584C13.5667 54.2217 14.7386 53.3281 16.3792 53.3281C18.0565 53.3281 19.221 54.2217 19.221 55.584C19.221 56.9463 18.0565 57.8398 16.3792 57.8398C14.7386 57.8398 13.5667 56.9463 13.5667 55.584ZM14.8118 55.584C14.8118 56.3311 15.449 56.8218 16.3792 56.8291C17.324 56.8218 17.9686 56.3311 17.9613 55.584C17.9686 54.8369 17.324 54.3462 16.3792 54.3535C15.449 54.3462 14.8118 54.8369 14.8118 55.584ZM15.4857 60.916C15.471 59.4292 17.1409 58.5869 19.9241 58.5869C22.7147 58.5869 24.3846 59.4292 24.3919 60.916C24.3846 62.3882 22.7147 63.2231 19.9241 63.2158C17.1409 63.2231 15.471 62.3882 15.4857 60.916ZM16.8626 60.916C16.848 61.707 17.9759 62.1611 19.9241 62.1465C21.8797 62.1611 22.993 61.707 23.0003 60.916C22.993 60.0884 21.8797 59.6489 19.9241 59.6562C17.9759 59.6489 16.848 60.0884 16.8626 60.916ZM32.8339 50.5596C34.8115 50.5742 36.269 51.7827 36.2763 53.5039C36.269 55.2324 34.8115 56.4336 32.8339 56.4336C30.8344 56.4336 29.3842 55.2324 29.3769 53.5039C29.3842 51.7827 30.8344 50.5742 32.8339 50.5596ZM30.7392 53.5039C30.7319 54.5879 31.6255 55.3057 32.8339 55.3057C34.0351 55.3057 34.9287 54.5879 34.9287 53.5039C34.9287 52.4346 34.0351 51.7168 32.8339 51.7314C31.6255 51.7168 30.7319 52.4346 30.7392 53.5039ZM31.3691 58.5137V57.4004H39.997V60.7109H32.7607V61.9707H40.4365V63.084H31.413V59.6709H38.6201V58.5137H31.3691ZM38.6054 56.7998V50.1201H39.997V56.7998H38.6054ZM52.6995 50.1201V57.9277H51.3079V54.6025H48.8616V53.46H51.3079V50.1201H52.6995ZM41.7571 56.7412C43.7932 56.0308 45.0457 54.2583 45.0384 52.4492V52.1562H42.1966V51.0283H49.2718V52.1562H46.4593V52.4346C46.4519 54.0972 47.6385 55.7158 49.6233 56.3896L48.9055 57.4883C47.4334 56.9829 46.3494 55.9282 45.7781 54.6318C45.2068 56.0967 44.0569 57.2759 42.4895 57.8545L41.7571 56.7412ZM43.8665 60.7695C43.8592 59.2095 45.5437 58.3013 48.305 58.2939C51.0515 58.3013 52.7361 59.2095 52.7434 60.7695C52.7361 62.3296 51.0515 63.2378 48.305 63.2451C45.5437 63.2378 43.8592 62.3296 43.8665 60.7695ZM45.2434 60.7695C45.2361 61.6558 46.3787 62.1611 48.305 62.1465C50.2166 62.1611 51.3592 61.6558 51.3665 60.7695C51.3592 59.876 50.2166 59.3706 48.305 59.3779C46.3787 59.3706 45.2361 59.876 45.2434 60.7695ZM61.7568 52.6396C61.7568 54.0752 62.6723 55.5254 64.3788 56.1699L63.6464 57.2393C62.4233 56.7705 61.5663 55.877 61.0976 54.8003C60.6142 56.0161 59.7206 57.0708 58.4462 57.6201L57.6845 56.5361C59.457 55.7671 60.4091 54.0972 60.4091 52.6396V50.9404H61.7568V52.6396ZM60.1015 60.8428C60.0868 59.3486 61.7934 58.4624 64.54 58.4551C67.2792 58.4624 69.0004 59.3486 69.0077 60.8428C69.0004 62.3369 67.2792 63.2231 64.54 63.2158C61.7934 63.2231 60.0868 62.3369 60.1015 60.8428ZM61.4784 60.8428C61.4638 61.6777 62.6283 62.1611 64.54 62.1465C66.4443 62.1611 67.6088 61.6777 67.6161 60.8428C67.6088 60.0005 66.4443 59.5171 64.54 59.5244C62.6283 59.5171 61.4638 60.0005 61.4784 60.8428ZM64.789 57.7959V50.3691H66.078V53.5479H67.6161V50.1348H68.9345V58.2061H67.6161V54.6904H66.078V57.7959H64.789ZM75.0452 52.083C75.0378 53.9214 76.2317 55.562 78.2239 56.2139L77.4622 57.2979C76.0193 56.7705 74.9573 55.7598 74.386 54.4414C73.822 55.9429 72.6794 57.1221 71.0901 57.6934L70.343 56.5801C72.4377 55.8623 73.6536 54.1118 73.6682 52.1416V50.8525H75.0452V52.083ZM72.4963 60.7402C72.489 59.1509 74.1736 58.228 76.9348 58.2354C79.6814 58.228 81.366 59.1509 81.3733 60.7402C81.366 62.3223 79.6814 63.2231 76.9348 63.2158C74.1736 63.2231 72.489 62.3223 72.4963 60.7402ZM73.8733 60.7402C73.866 61.6118 75.0085 62.1245 76.9348 62.1172C78.8464 62.1245 79.989 61.6118 79.9963 60.7402C79.989 59.8394 78.8464 59.3193 76.9348 59.3193C75.0085 59.3193 73.866 59.8394 73.8733 60.7402ZM77.1692 53.9287V52.7861H79.9377V50.1201H81.3293V57.8691H79.9377V53.9287H77.1692ZM91.1923 53.46C91.1776 55.855 92.6278 58.272 94.6639 59.1729L93.829 60.2715C92.3202 59.5537 91.1264 58.0815 90.5111 56.2871C89.9032 58.2134 88.6947 59.7954 87.12 60.5645L86.2704 59.3926C88.3358 58.4771 89.786 55.9648 89.786 53.46V51.2188H91.1923V53.46ZM95.8505 63.2744V50.1201H97.2421V63.2744H95.8505ZM107.09 53.46C107.09 55.8623 108.438 58.2573 110.445 59.1582L109.595 60.2715C108.108 59.5244 106.98 58.0449 106.402 56.2505C105.823 58.1401 104.681 59.7368 103.165 60.5205L102.286 59.3926C104.322 58.4185 105.677 55.8916 105.684 53.46V51.2188H107.09V53.46ZM108.995 55.6133V54.4854H111.924V50.1201H113.301V63.2744H111.924V55.6133H108.995ZM125.872 50.1201V63.2744H124.48V50.1201H125.872ZM115.735 60.125V51.2188H117.127V54.5879H120.657V51.2188H122.034V60.125H115.735ZM117.127 58.9824H120.657V55.6865H117.127V58.9824ZM134.312 51.9805C134.312 54.1191 136.59 56.1406 139.116 56.5947L138.472 57.752C136.37 57.2979 134.444 55.9209 133.594 54.0752C132.73 55.9136 130.803 57.2832 128.701 57.752L128.086 56.5947C130.576 56.126 132.84 54.1191 132.847 51.9805V50.9844H134.312V51.9805ZM127.647 61.5166V60.3594H139.658V61.5166H127.647ZM151.584 50.1201V63.2451H150.251V50.1201H151.584ZM140.437 55.7891C140.437 52.9473 141.55 51.1675 143.264 51.1748C144.861 51.1675 145.937 52.6836 146.099 55.1445H147.585V50.3691H148.918V62.6006H147.585V56.2725H146.106C145.981 58.8359 144.89 60.4253 143.264 60.418C141.55 60.4253 140.437 58.6382 140.437 55.7891ZM141.726 55.7891C141.726 57.8765 142.319 59.1069 143.264 59.0996C144.231 59.1069 144.832 57.8765 144.832 55.7891C144.832 53.6943 144.231 52.4712 143.264 52.4785C142.319 52.4712 141.726 53.6943 141.726 55.7891ZM157.666 53.46C157.666 55.8623 159.013 58.2573 161.02 59.1582L160.171 60.2715C158.684 59.5244 157.556 58.0449 156.977 56.2505C156.399 58.1401 155.256 59.7368 153.74 60.5205L152.861 59.3926C154.897 58.4185 156.252 55.8916 156.26 53.46V51.2188H157.666V53.46ZM159.57 55.6133V54.4854H162.5V50.1201H163.877V63.2744H162.5V55.6133H159.57ZM180.185 50.1201V63.2451H178.852V50.1201H180.185ZM168.73 59.627C170.59 58.5063 171.535 56.1187 171.542 53.7822V52.7275H169.125V51.5996H175.131V52.7275H172.875V53.7822C172.875 56.0234 173.784 58.272 175.629 59.334L174.794 60.3594C173.542 59.6123 172.685 58.272 172.224 56.6899C171.755 58.4038 170.861 59.8687 169.58 60.667L168.73 59.627ZM174.164 55.9062V54.7637H176.201V50.3984H177.519V62.5859H176.201V55.9062H174.164ZM187.482 58.3672C190.324 58.3672 192.118 59.2681 192.126 60.7988C192.118 62.3223 190.324 63.2231 187.482 63.2158C184.67 63.2231 182.868 62.3223 182.868 60.7988C182.868 59.2681 184.67 58.3672 187.482 58.3672ZM181.579 57.2832V56.1553H186.369V53.6943H187.731V56.1553H193.517V57.2832H181.579ZM182.97 51.8779V50.7646H192.023V51.8633C192.031 52.9106 192.031 53.9946 191.657 55.3496L190.295 55.2031C190.646 53.8628 190.646 52.896 190.646 51.8779H182.97ZM184.26 60.7988C184.245 61.6484 185.497 62.1392 187.482 62.1465C189.489 62.1392 190.734 61.6484 190.749 60.7988C190.734 59.9346 189.489 59.4292 187.482 59.4219C185.497 59.4292 184.245 59.9346 184.26 60.7988ZM204.433 50.1201V55.4375H206.542V56.5947H204.433V63.2451H203.056V50.1201H204.433ZM194.135 53.3135V52.1709H197.372V50.2959H198.764V52.1709H201.913V53.3135H194.135ZM194.809 57.3271C194.809 55.54 196.186 54.2803 198.075 54.2803C199.958 54.2803 201.335 55.54 201.342 57.3271C201.335 59.1289 199.958 60.3813 198.075 60.3887C196.186 60.3813 194.809 59.1289 194.809 57.3271ZM196.142 57.3271C196.134 58.4697 196.955 59.2314 198.075 59.2168C199.189 59.2314 200.002 58.4697 200.009 57.3271C200.002 56.2065 199.189 55.4302 198.075 55.4229C196.955 55.4302 196.134 56.2065 196.142 57.3271ZM217.472 53.958V55.0713H208.434V50.5889H209.811V53.958H217.472ZM206.837 57.8398V56.7266H218.849V57.8398H206.837ZM208.331 62.9375V59.085H209.723V61.7949H217.56V62.9375H208.331ZM233.751 50.1201V63.2451H232.345V50.1201H233.751ZM222.97 59.7295C226.456 58.0669 228.163 55.7012 228.434 52.6396H223.6V51.5264H229.84C229.84 55.3716 228.207 58.6968 223.702 60.8574L222.97 59.7295ZM238.426 50.6182V52.1709H244.505V50.6182H245.897V55.9209H242.147V57.21H247.45V58.3525H235.482V57.21H240.77V55.9209H237.049V50.6182H238.426ZM236.991 62.9668V59.29H238.397V61.8389H246.102V62.9668H236.991ZM238.426 54.793H244.505V53.2549H238.426V54.793ZM258.353 51.3799V60.0078H252.2V51.3799H258.353ZM253.577 58.8799H257.005V52.4785H253.577V58.8799ZM260.945 63.2744V50.1201H262.337V63.2744H260.945ZM268.741 52.4932C268.748 54.3828 269.92 56.1919 271.875 56.9463L271.114 58.0303C269.685 57.4517 268.623 56.3018 268.067 54.8809C267.503 56.4116 266.389 57.6274 264.859 58.2354L264.112 57.1221C266.133 56.375 267.356 54.5073 267.364 52.4932V50.8672H268.741V52.4932ZM266.485 62.9668V58.9238H267.891V61.8389H275.347V62.9668H266.485ZM271.114 55.7744V54.6465H273.662V53.123H271.114V51.9951H273.662V50.1348H275.054V59.9053H273.662V55.7744H271.114ZM288.738 55.4961V56.6094H276.755V55.4961H288.738ZM278.191 58.7188V57.6494H287.214V60.8281H279.568V62H287.581V63.0986H278.206V59.8027H285.838V58.7188H278.191ZM278.323 54.5439V50.501H287.185V51.6289H279.714V53.4307H287.317V54.5439H278.323ZM295.376 50.3398C298.335 50.3325 300.056 51.1309 300.063 52.5957C300.056 54.0679 298.335 54.8662 295.376 54.8662C292.417 54.8662 290.681 54.0679 290.688 52.5957C290.681 51.1309 292.417 50.3325 295.376 50.3398ZM289.399 56.7852V55.6719H301.367V56.7852H289.399ZM290.835 58.8359V57.7959H299.858V60.8721H292.212V62.0439H300.225V63.1133H290.85V59.8613H298.481V58.8359H290.835ZM292.139 52.5957C292.131 53.4087 293.289 53.8262 295.376 53.8262C297.478 53.8262 298.635 53.4087 298.628 52.5957C298.635 51.8193 297.478 51.3652 295.376 51.3652C293.289 51.3652 292.131 51.8193 292.139 52.5957ZM316.342 50.1201V63.2744H314.951V55.9795H312.241V54.8369H314.951V50.1201H316.342ZM305.239 59.6123C307.246 58.6528 308.659 56.1699 308.667 53.8115V52.5811H305.766V51.4385H312.988V52.5811H310.073V53.8115C310.073 56.0308 311.472 58.4258 313.486 59.3193L312.651 60.4326C311.135 59.7002 309.97 58.1694 309.384 56.3823C308.798 58.2866 307.605 59.9199 306.088 60.6963L305.239 59.6123ZM322.614 52.5371C322.607 54.207 323.771 55.7305 325.764 56.3604L325.104 57.4443C323.61 56.9683 322.519 55.9795 321.94 54.7344C321.369 56.1699 320.219 57.3052 318.644 57.8545L317.927 56.7412C319.977 56.0674 321.215 54.3755 321.223 52.5518V52.1855H318.337V51.0576H325.441V52.1855H322.614V52.5371ZM319.699 60.7549C319.699 59.2168 321.376 58.3159 324.108 58.3232C326.811 58.3159 328.459 59.2168 328.459 60.7549C328.459 62.3149 326.811 63.2231 324.108 63.2158C321.376 63.2231 319.699 62.3149 319.699 60.7549ZM321.091 60.7549C321.083 61.6338 322.211 62.1245 324.108 62.1172C325.991 62.1245 327.104 61.6338 327.097 60.7549C327.104 59.8979 325.991 59.4146 324.108 59.4219C322.211 59.4146 321.083 59.8979 321.091 60.7549ZM326.95 58.001V50.1201H328.342V53.3721H330.246V54.5146H328.342V58.001H326.95ZM340.986 50.0762V53.1523H342.905V54.2949H340.986V57.2979H339.594V50.0762H340.986ZM330.688 52.332V51.2334H333.91V50.0029H335.302V51.2334H338.51V52.332H330.688ZM331.406 54.9834C331.398 53.6577 332.673 52.8301 334.599 52.8301C336.525 52.8301 337.778 53.6577 337.778 54.9834C337.778 56.3164 336.525 57.1294 334.599 57.1221C332.673 57.1294 331.398 56.3164 331.406 54.9834ZM332.504 58.9531V57.9131H340.986V60.96H333.896V62.0586H341.44V63.1133H332.533V59.9785H339.609V58.9531H332.504ZM332.753 54.9834C332.739 55.6938 333.464 56.1113 334.599 56.1113C335.727 56.1113 336.459 55.6938 336.474 54.9834C336.459 54.2729 335.727 53.8335 334.599 53.8262C333.464 53.8335 332.739 54.2729 332.753 54.9834ZM7.20703 76.2773C7.19971 78.0205 9.33105 79.6538 11.9092 79.998L11.3672 81.1406C9.22119 80.7964 7.33887 79.6831 6.48193 78.1377C5.625 79.6831 3.74268 80.7964 1.61133 81.1406L1.05469 79.998C3.62549 79.6538 5.74951 78.0425 5.75684 76.2773V75.5596H7.20703V76.2773ZM0.483398 83.5723V82.4297H12.4512V83.5723H7.11914V88.2451H5.75684V83.5723H0.483398ZM21.025 83.792C21.025 84.9199 21.5817 86.1138 22.7755 86.8242C23.9767 86.0552 24.57 84.8027 24.57 83.792V83.1621H25.9323V83.792C25.9249 85.1543 26.8258 86.4727 28.5397 87.0293L27.8512 88.0547C26.5548 87.6079 25.6686 86.729 25.2145 85.6597C24.797 86.7144 24.0133 87.6738 22.8121 88.1719C21.5524 87.6958 20.754 86.7656 20.3512 85.6963C19.8751 86.729 19.0109 87.6006 17.7731 88.0547L17.07 87.0293C18.7545 86.4287 19.6701 85.0591 19.6774 83.792V83.1621H21.025V83.792ZM16.733 78.958C16.7404 77.1196 18.2199 75.8599 20.234 75.8525C22.2409 75.8599 23.7204 77.1196 23.7204 78.958C23.7204 80.7744 22.2409 82.0342 20.234 82.0342C18.2199 82.0342 16.7404 80.7744 16.733 78.958ZM18.0954 78.958C18.088 80.1006 18.9889 80.877 20.234 80.877C21.4645 80.877 22.358 80.1006 22.358 78.958C22.358 77.8081 21.4645 77.0317 20.234 77.0391C18.9889 77.0317 18.088 77.8081 18.0954 78.958ZM25.9616 82.6055V75.1348H27.3532V82.6055H25.9616ZM31.9697 82.9863V84.3779H38.1367V82.9863H39.5283V88.084H30.5927V82.9863H31.9697ZM29.1132 82.166V81.0088H41.081V82.166H29.1132ZM29.7578 79.1045C32.2993 78.7749 34.3794 77.376 34.3867 75.8232V75.2666H35.8076V75.8232C35.8149 77.332 37.9096 78.7969 40.4218 79.1045L39.9238 80.2031C37.7998 79.9102 35.9467 78.8994 35.1045 77.5005C34.2548 78.9067 32.3945 79.9102 30.2851 80.2031L29.7578 79.1045ZM31.9697 86.9707H38.1367V85.4619H31.9697V86.9707ZM52.6555 75.1201V88.2451H51.2639V75.1201H52.6555ZM42.5628 84.9053V76.3945H43.9397V83.7041C45.8587 83.6968 47.8728 83.5283 49.9749 83.1035L50.1653 84.2754C47.8435 84.7515 45.7342 84.9126 43.6614 84.9053H42.5628ZM64.6256 75.1201V80.2031H66.735V81.3457H64.6256V88.2744H63.234V75.1201H64.6256ZM54.9576 85.0078V76.3799H61.0953V77.5078H56.3492V83.8506C58.5538 83.8433 60.2018 83.748 62.0768 83.4111L62.2525 84.583C60.1944 84.9492 58.4513 85.0151 56.0123 85.0078H54.9576ZM68.539 87.1025C67.9677 87.0952 67.4916 86.6338 67.4989 86.0625C67.4916 85.4912 67.9677 85.0225 68.539 85.0225C69.103 85.0225 69.5717 85.4912 69.579 86.0625C69.5717 86.6338 69.103 87.0952 68.539 87.1025ZM84.0709 75.1201V80.2031H86.1802V81.3457H84.0709V88.2744H82.6793V75.1201H84.0709ZM74.4029 85.0078V76.3799H80.5406V77.5078H75.7945V83.8506C77.9991 83.8433 79.647 83.748 81.522 83.4111L81.6978 84.583C79.6397 84.9492 77.8965 85.0151 75.4576 85.0078H74.4029ZM98.4872 82.3271V83.4551H86.4755V82.3271H98.4872ZM87.9843 76.6143V75.5156H96.9784V78.8848H89.3905V80.1738H97.2421V81.2432H88.0136V77.874H95.5868V76.6143H87.9843ZM88.0429 87.9668V84.3926H89.4345V86.8389H97.2567V87.9668H88.0429ZM114.473 82.5322V83.6748H111.426V88.2451H110.02V83.6748H106.885V88.2451H105.45V83.6748H102.461V82.5322H114.473ZM103.765 78.5186C103.772 76.7461 105.662 75.6182 108.438 75.6182C111.214 75.6182 113.118 76.7461 113.111 78.5186C113.118 80.269 111.214 81.375 108.438 81.3604C105.662 81.375 103.772 80.269 103.765 78.5186ZM105.201 78.5186C105.193 79.5952 106.49 80.2617 108.438 80.2617C110.394 80.2617 111.683 79.5952 111.69 78.5186C111.683 77.4126 110.394 76.7388 108.438 76.7314C106.49 76.7388 105.193 77.4126 105.201 78.5186ZM126.077 75.1201V88.2744H124.685V80.9795H121.975V79.8369H124.685V75.1201H126.077ZM114.973 84.6123C116.98 83.6528 118.394 81.1699 118.401 78.8115V77.5811H115.501V76.4385H122.723V77.5811H119.807V78.8115C119.807 81.0308 121.206 83.4258 123.221 84.3193L122.386 85.4326C120.869 84.7002 119.705 83.1694 119.119 81.3823C118.533 83.2866 117.339 84.9199 115.823 85.6963L114.973 84.6123ZM137.988 75.1201V80.3496H140.025V81.5068H137.988V88.2305H136.597V75.1201H137.988ZM127.778 84.7295C131.067 83.0889 132.854 80.7158 133.14 77.6543H128.438V76.4971H134.561C134.546 80.291 132.876 83.6821 128.555 85.8135L127.778 84.7295ZM148.613 77.4785C148.613 79.1631 149.866 80.7817 151.894 81.4189L151.177 82.5029C149.668 82.0049 148.525 80.9722 147.932 79.6538C147.339 81.0747 146.174 82.2026 144.614 82.752L143.896 81.6826C145.94 80.9722 147.2 79.2583 147.207 77.4785V77.1123H144.262V75.9844H151.499V77.1123H148.613V77.4785ZM145.742 84.832V83.7041H154.634V88.2451H153.242V84.832H145.742ZM153.242 83.0449V75.1201H154.634V83.0449H153.242ZM167.321 75.1201V82.2686H165.944V79.3682H163.484V78.2256H165.944V75.1201H167.321ZM156.408 81.3896C158.422 80.6865 159.682 78.9653 159.675 77.1562V76.9805H156.833V75.8525H163.908V76.9805H161.096V77.1709C161.089 78.7969 162.275 80.4448 164.26 81.1113L163.542 82.1953C162.063 81.668 160.979 80.6279 160.407 79.3389C159.836 80.7817 158.686 81.939 157.126 82.4883L156.408 81.3896ZM158.781 88.084V82.8545H160.158V84.3633H165.944V82.8545H167.321V88.084H158.781ZM160.158 86.9561H165.944V85.4473H160.158V86.9561ZM183.644 75.1201V88.2451H182.311V75.1201H183.644ZM172.189 84.627C174.05 83.5063 174.994 81.1187 175.002 78.7822V77.7275H172.585V76.5996H178.591V77.7275H176.335V78.7822C176.335 81.0234 177.243 83.272 179.089 84.334L178.254 85.3594C177.001 84.6123 176.144 83.272 175.683 81.6899C175.214 83.4038 174.321 84.8687 173.039 85.667L172.189 84.627ZM177.624 80.9062V79.7637H179.66V75.3984H180.978V87.5859H179.66V80.9062H177.624ZM195.336 75.1055V79.0312H197.24V80.2031H195.336V84.7588H193.944V75.1055H195.336ZM185.229 79.2803C185.214 77.3687 186.737 76.021 188.715 76.0137C190.7 76.021 192.201 77.3687 192.216 79.2803C192.201 81.1919 190.7 82.5542 188.715 82.5469C186.737 82.5542 185.214 81.1919 185.229 79.2803ZM186.591 79.2803C186.576 80.5034 187.514 81.3311 188.715 81.3311C189.931 81.3311 190.846 80.5034 190.854 79.2803C190.846 78.0571 189.931 77.2295 188.715 77.2295C187.514 77.2295 186.576 78.0571 186.591 79.2803ZM187.016 87.9668V83.748H188.407V86.8389H195.893V87.9668H187.016ZM207.98 75.1348V79.3535H209.884V80.5107H207.98V84.9492H206.588V75.1348H207.98ZM197.682 77.7861V76.6582H200.905V75.1201H202.296V76.6582H205.504V77.7861H197.682ZM198.4 80.8916C198.392 79.3901 199.689 78.4087 201.593 78.416C203.475 78.4087 204.772 79.3901 204.772 80.8916C204.772 82.3784 203.475 83.3452 201.593 83.3525C199.689 83.3452 198.392 82.3784 198.4 80.8916ZM199.66 87.9668V84.1729H201.051V86.8389H208.537V87.9668H199.66ZM199.747 80.8916C199.733 81.7485 200.48 82.2759 201.593 82.2686C202.706 82.2759 203.454 81.7485 203.468 80.8916C203.454 80.0273 202.706 79.4927 201.593 79.4854C200.48 79.4927 199.733 80.0273 199.747 80.8916ZM220.538 76.3799V85.0078H214.386V76.3799H220.538ZM215.763 83.8799H219.19V77.4785H215.763V83.8799ZM223.131 88.2744V75.1201H224.523V88.2744H223.131ZM230.926 77.4932C230.933 79.3828 232.105 81.1919 234.061 81.9463L233.299 83.0303C231.871 82.4517 230.809 81.3018 230.252 79.8809C229.688 81.4116 228.575 82.6274 227.044 83.2354L226.297 82.1221C228.319 81.375 229.542 79.5073 229.549 77.4932V75.8672H230.926V77.4932ZM228.67 87.9668V83.9238H230.077V86.8389H237.533V87.9668H228.67ZM233.299 80.7744V79.6465H235.848V78.123H233.299V76.9951H235.848V75.1348H237.24V84.9053H235.848V80.7744H233.299ZM250.924 80.4961V81.6094H238.941V80.4961H250.924ZM240.377 83.7188V82.6494H249.4V85.8281H241.754V87H249.766V88.0986H240.391V84.8027H248.023V83.7188H240.377ZM240.508 79.5439V75.501H249.371V76.6289H241.9V78.4307H249.503V79.5439H240.508ZM263.553 81.9756V83.0889H251.585V81.9756H263.553ZM252.874 78.1816C252.867 76.5337 254.705 75.5522 257.562 75.5596C260.403 75.5522 262.242 76.5337 262.249 78.1816C262.242 79.8369 260.403 80.8403 257.562 80.8477C254.705 80.8403 252.867 79.8369 252.874 78.1816ZM253.094 87.9668V84.1582H254.5V86.8389H262.205V87.9668H253.094ZM254.31 78.1816C254.302 79.1558 255.547 79.7051 257.562 79.7051C259.568 79.7051 260.821 79.1558 260.813 78.1816C260.821 77.2441 259.568 76.6729 257.562 76.6729C255.547 76.6729 254.302 77.2441 254.31 78.1816ZM278.074 84.29V88.084H269.006V84.29H278.074ZM267.571 83.3965V82.2979H272.859V81.4043C270.537 81.3091 269.234 80.6865 269.241 79.5586C269.234 78.3354 270.794 77.7056 273.547 77.6982C276.316 77.7056 277.861 78.3354 277.854 79.5586C277.861 80.6865 276.58 81.3091 274.251 81.4043V82.2979H279.539V83.3965H267.571ZM268.186 77.2295V76.1602H272.859V74.9443H274.251V76.1602H278.865V77.2295H268.186ZM270.383 87.0146H276.726V85.3594H270.383V87.0146ZM270.72 79.5586C270.713 80.1519 271.716 80.4668 273.547 80.4668C275.393 80.4668 276.375 80.1519 276.375 79.5586C276.375 78.958 275.393 78.665 273.547 78.6504C271.716 78.665 270.713 78.958 270.72 79.5586ZM293.84 75.1201V80.6133H295.818V81.7852H293.84V88.2451H292.449V75.1201H293.84ZM283.396 84.6709C284.428 84.6709 285.63 84.6709 286.882 84.6343V83.3013C285.403 83.0815 284.436 82.188 284.45 80.9209C284.436 79.4414 285.718 78.4673 287.585 78.46C289.446 78.4673 290.742 79.4414 290.749 80.9209C290.742 82.188 289.761 83.0889 288.274 83.3013V84.583C289.438 84.5244 290.61 84.4292 291.701 84.2754L291.789 85.3008C288.948 85.8062 285.879 85.8354 283.616 85.8281L283.396 84.6709ZM283.645 77.7861V76.6729H286.882V75.1494H288.274V76.6729H291.511V77.7861H283.645ZM285.754 80.9209C285.754 81.7559 286.487 82.2759 287.585 82.2686C288.684 82.2759 289.409 81.7559 289.416 80.9209C289.409 80.0786 288.684 79.5439 287.585 79.5439C286.487 79.5439 285.754 80.0786 285.754 80.9209ZM302.895 76.2334V77.3467H305.752V75.1348H307.143V84.7002H305.752V81.3018H302.895V82.4443H296.801V76.2334H302.895ZM298.178 81.3457H301.533V77.3613H298.178V81.3457ZM298.574 87.9668V83.8213H299.98V86.8389H307.436V87.9668H298.574ZM302.895 80.1592H305.752V78.4893H302.895V80.1592ZM320.139 75.1201V88.2451H318.806V75.1201H320.139ZM308.991 80.7891C308.991 77.9473 310.104 76.1675 311.818 76.1748C313.415 76.1675 314.492 77.6836 314.653 80.1445H316.14V75.3691H317.473V87.6006H316.14V81.2725H314.66C314.536 83.8359 313.444 85.4253 311.818 85.418C310.104 85.4253 308.991 83.6382 308.991 80.7891ZM310.28 80.7891C310.28 82.8765 310.873 84.1069 311.818 84.0996C312.785 84.1069 313.386 82.8765 313.386 80.7891C313.386 78.6943 312.785 77.4712 311.818 77.4785C310.873 77.4712 310.28 78.6943 310.28 80.7891ZM326.22 78.46C326.22 80.8623 327.568 83.2573 329.574 84.1582L328.725 85.2715C327.238 84.5244 326.11 83.0449 325.531 81.2505C324.953 83.1401 323.81 84.7368 322.294 85.5205L321.415 84.3926C323.451 83.4185 324.806 80.8916 324.814 78.46V76.2188H326.22V78.46ZM328.124 80.6133V79.4854H331.054V75.1201H332.431V88.2744H331.054V80.6133H328.124ZM348.432 75.1201V88.2744H347.04V80.9795H344.33V79.8369H347.04V75.1201H348.432ZM337.328 84.6123C339.335 83.6528 340.748 81.1699 340.756 78.8115V77.5811H337.855V76.4385H345.077V77.5811H342.162V78.8115C342.162 81.0308 343.561 83.4258 345.575 84.3193L344.74 85.4326C343.224 84.7002 342.059 83.1694 341.474 81.3823C340.888 83.2866 339.694 84.9199 338.178 85.6963L337.328 84.6123ZM5.06836 102.537C5.06104 104.207 6.22559 105.73 8.21777 106.36L7.55859 107.444C6.06445 106.968 4.97314 105.979 4.39453 104.734C3.82324 106.17 2.67334 107.305 1.09863 107.854L0.380859 106.741C2.43164 106.067 3.66943 104.375 3.67676 102.552V102.186H0.791016V101.058H7.89551V102.186H5.06836V102.537ZM2.15332 110.755C2.15332 109.217 3.83057 108.316 6.5625 108.323C9.26514 108.316 10.9131 109.217 10.9131 110.755C10.9131 112.315 9.26514 113.223 6.5625 113.216C3.83057 113.223 2.15332 112.315 2.15332 110.755ZM3.54492 110.755C3.5376 111.634 4.66553 112.125 6.5625 112.117C8.44482 112.125 9.55811 111.634 9.55078 110.755C9.55811 109.898 8.44482 109.415 6.5625 109.422C4.66553 109.415 3.5376 109.898 3.54492 110.755ZM9.4043 108.001V100.12H10.7959V103.372H12.7002V104.515H10.7959V108.001H9.4043ZM23.4398 100.076V103.152H25.3587V104.295H23.4398V107.298H22.0482V100.076H23.4398ZM13.1419 102.332V101.233H16.3646V100.003H17.7562V101.233H20.9642V102.332H13.1419ZM13.8597 104.983C13.8524 103.658 15.1268 102.83 17.053 102.83C18.9793 102.83 20.2318 103.658 20.2318 104.983C20.2318 106.316 18.9793 107.129 17.053 107.122C15.1268 107.129 13.8524 106.316 13.8597 104.983ZM14.9583 108.953V107.913H23.4398V110.96H16.3499V112.059H23.8939V113.113H14.9876V109.979H22.0628V108.953H14.9583ZM15.2073 104.983C15.1927 105.694 15.9178 106.111 17.053 106.111C18.181 106.111 18.9134 105.694 18.928 104.983C18.9134 104.273 18.181 103.833 17.053 103.826C15.9178 103.833 15.1927 104.273 15.2073 104.983ZM35.8369 101.277C35.8296 103.021 37.9609 104.654 40.539 104.998L39.997 106.141C37.851 105.796 35.9687 104.683 35.1118 103.138C34.2548 104.683 32.3725 105.796 30.2412 106.141L29.6845 104.998C32.2553 104.654 34.3794 103.042 34.3867 101.277V100.56H35.8369V101.277ZM29.1132 108.572V107.43H41.081V108.572H35.749V113.245H34.3867V108.572H29.1132ZM49.6549 108.792C49.6549 109.92 50.2115 111.114 51.4054 111.824C52.6065 111.055 53.1998 109.803 53.1998 108.792V108.162H54.5621V108.792C54.5548 110.154 55.4557 111.473 57.1695 112.029L56.4811 113.055C55.1847 112.608 54.2984 111.729 53.8443 110.66C53.4269 111.714 52.6432 112.674 51.442 113.172C50.1822 112.696 49.3839 111.766 48.9811 110.696C48.505 111.729 47.6407 112.601 46.4029 113.055L45.6998 112.029C47.3844 111.429 48.2999 110.059 48.3072 108.792V108.162H49.6549V108.792ZM45.3629 103.958C45.3702 102.12 46.8497 100.86 48.8639 100.853C50.8707 100.86 52.3502 102.12 52.3502 103.958C52.3502 105.774 50.8707 107.034 48.8639 107.034C46.8497 107.034 45.3702 105.774 45.3629 103.958ZM46.7252 103.958C46.7179 105.101 47.6188 105.877 48.8639 105.877C50.0943 105.877 50.9879 105.101 50.9879 103.958C50.9879 102.808 50.0943 102.032 48.8639 102.039C47.6188 102.032 46.7179 102.808 46.7252 103.958ZM54.5914 107.605V100.135H55.983V107.605H54.5914ZM60.5995 107.986V109.378H66.7665V107.986H68.1581V113.084H59.2226V107.986H60.5995ZM57.7431 107.166V106.009H69.7109V107.166H57.7431ZM58.3876 104.104C60.9291 103.775 63.0092 102.376 63.0165 100.823V100.267H64.4374V100.823C64.4447 102.332 66.5395 103.797 69.0517 104.104L68.5536 105.203C66.4296 104.91 64.5766 103.899 63.7343 102.5C62.8847 103.907 61.0243 104.91 58.915 105.203L58.3876 104.104ZM60.5995 111.971H66.7665V110.462H60.5995V111.971ZM81.2854 100.12V113.245H79.8938V100.12H81.2854ZM71.1926 109.905V101.395H72.5696V108.704C74.4885 108.697 76.5027 108.528 78.6047 108.104L78.7952 109.275C76.4734 109.751 74.364 109.913 72.2913 109.905H71.1926ZM93.2554 100.12V105.203H95.3648V106.346H93.2554V113.274H91.8638V100.12H93.2554ZM83.5875 110.008V101.38H89.7252V102.508H84.9791V108.851C87.1837 108.843 88.8316 108.748 90.7066 108.411L90.8824 109.583C88.8243 109.949 87.0811 110.015 84.6422 110.008H83.5875ZM97.1688 112.103C96.5975 112.095 96.1215 111.634 96.1288 111.062C96.1215 110.491 96.5975 110.022 97.1688 110.022C97.7328 110.022 98.2015 110.491 98.2089 111.062C98.2015 111.634 97.7328 112.095 97.1688 112.103Z" fill="#262626"/>
</svg>
