<svg width="18" height="18" viewBox="0 0 18 18" fill="none" xmlns="http://www.w3.org/2000/svg">
<path d="M0.0625 9.04033V15.0143C0.0625 15.7146 0.344833 16.4534 0.795833 16.964C1.25508 17.4837 2.037 17.8917 2.89225 17.4618C3.53025 17.1409 4.061 17.129 4.49275 17.4187C5.52492 18.1108 6.97508 18.1108 8.00725 17.4187C8.3235 17.2078 8.56367 17.1363 8.7635 17.1345C8.96333 17.1336 9.20808 17.2005 9.5335 17.4187C10.5666 18.1108 12.0168 18.1108 13.0489 17.4187C13.2442 17.2885 13.5806 17.2014 14.0059 17.2115C14.4221 17.2207 14.8291 17.3215 15.1078 17.4618C15.963 17.8917 16.7449 17.4837 17.2042 16.964C17.6552 16.4534 17.9375 15.7146 17.9375 15.0152V9.04033C17.9375 4.08575 13.939 0.0625 9 0.0625C4.061 0.0625 0.0625 4.08575 0.0625 9.04033ZM5.69817 11.3412C5.80673 11.1947 5.96902 11.0974 6.14935 11.0705C6.32967 11.0437 6.51327 11.0896 6.65975 11.1982C7.32708 11.6932 8.13283 11.9792 9 11.9792C9.86717 11.9792 10.6729 11.6923 11.3403 11.1982C11.4125 11.1419 11.4953 11.1007 11.5838 11.0769C11.6722 11.0531 11.7645 11.0472 11.8553 11.0595C11.946 11.0719 12.0334 11.1023 12.1122 11.1489C12.1911 11.1955 12.2598 11.2574 12.3144 11.3309C12.369 11.4044 12.4084 11.4881 12.4302 11.5771C12.452 11.666 12.4558 11.7585 12.4414 11.8489C12.427 11.9394 12.3947 12.026 12.3463 12.1038C12.2979 12.1816 12.2345 12.2489 12.1597 12.3018C11.2473 12.9837 10.1391 13.3528 9 13.3542C7.86091 13.3528 6.75271 12.9837 5.84025 12.3018C5.69393 12.1931 5.59677 12.0308 5.57013 11.8505C5.54349 11.6701 5.58954 11.4875 5.69817 11.3412ZM7.39583 7.16667V7.625C7.39583 7.80734 7.3234 7.9822 7.19447 8.11114C7.06554 8.24007 6.89067 8.3125 6.70833 8.3125C6.526 8.3125 6.35113 8.24007 6.2222 8.11114C6.09327 7.9822 6.02083 7.80734 6.02083 7.625V7.16667C6.02083 6.98433 6.09327 6.80946 6.2222 6.68053C6.35113 6.5516 6.526 6.47917 6.70833 6.47917C6.89067 6.47917 7.06554 6.5516 7.19447 6.68053C7.3234 6.80946 7.39583 6.98433 7.39583 7.16667ZM11.2917 6.47917C11.474 6.47917 11.6489 6.5516 11.7778 6.68053C11.9067 6.80946 11.9792 6.98433 11.9792 7.16667V7.625C11.9792 7.80734 11.9067 7.9822 11.7778 8.11114C11.6489 8.24007 11.474 8.3125 11.2917 8.3125C11.1093 8.3125 10.9345 8.24007 10.8055 8.11114C10.6766 7.9822 10.6042 7.80734 10.6042 7.625V7.16667C10.6042 6.98433 10.6766 6.80946 10.8055 6.68053C10.9345 6.5516 11.1093 6.47917 11.2917 6.47917Z" fill="#147814"/>
</svg>
