<svg width="14" height="15" viewBox="0 0 14 15" fill="none" xmlns="http://www.w3.org/2000/svg">
<path d="M0.583984 13.4167V5.44905C0.583984 5.21439 0.63654 4.99225 0.741651 4.78264C0.846762 4.57302 0.991595 4.40039 1.17615 4.26472L6.1124 0.526552C6.3709 0.329164 6.66607 0.230469 6.9979 0.230469C7.32973 0.230469 7.62673 0.329164 7.8889 0.526552L12.8252 4.2638C13.0103 4.39947 13.1551 4.57241 13.2596 4.78264C13.3648 4.99225 13.4173 5.21439 13.4173 5.44905V13.4167C13.4173 13.6624 13.326 13.8766 13.1432 14.0593C12.9605 14.242 12.7463 14.3334 12.5007 14.3334H9.39865C9.18843 14.3334 9.01243 14.2625 8.87065 14.1207C8.72887 13.9783 8.65798 13.8023 8.65798 13.5927V9.22114C8.65798 9.01152 8.5871 8.83583 8.44532 8.69405C8.30293 8.55166 8.12693 8.48047 7.91732 8.48047H6.08398C5.87437 8.48047 5.69868 8.55166 5.5569 8.69405C5.41451 8.83583 5.34332 9.01152 5.34332 9.22114V13.5936C5.34332 13.8032 5.27243 13.9789 5.13065 14.1207C4.98887 14.2625 4.81318 14.3334 4.60357 14.3334H1.50065C1.25498 14.3334 1.04079 14.242 0.858068 14.0593C0.675345 13.8766 0.583984 13.6624 0.583984 13.4167Z" fill="#4BAF4B"/>
</svg>
