<svg width="20" height="22" viewBox="0 0 20 22" fill="none" xmlns="http://www.w3.org/2000/svg">
<path d="M4.49967 5.50033H15.4997V9.13033L9.99967 7.33366L4.49967 9.13033M2.61134 17.417H2.66634C4.13301 17.417 5.41634 16.6103 6.33301 15.5837C7.24967 16.6103 8.53301 17.417 9.99967 17.417C11.4663 17.417 12.7497 16.6103 13.6663 15.5837C14.583 16.6103 15.8663 17.417 17.333 17.417H17.3788L19.1205 11.2845C19.1938 11.0553 19.1663 10.7987 19.0655 10.5787C18.9463 10.3587 18.7538 10.1937 18.5155 10.1203L17.333 9.73533V5.50033C17.333 5.0141 17.1399 4.54778 16.796 4.20396C16.4522 3.86015 15.9859 3.66699 15.4997 3.66699H12.7497V0.916992H7.24967V3.66699H4.49967C4.01344 3.66699 3.54713 3.86015 3.20331 4.20396C2.8595 4.54778 2.66634 5.0141 2.66634 5.50033V9.73533L1.48384 10.1203C1.24551 10.1937 1.05301 10.3587 0.933841 10.5787C0.833008 10.7987 0.805508 11.0553 0.878841 11.2845M17.333 19.2503C16.0588 19.2503 14.7847 18.8195 13.6663 18.0312C11.4297 19.5987 8.56967 19.5987 6.33301 18.0312C5.21467 18.8195 3.94051 19.2503 2.66634 19.2503H0.833008V21.0837H2.66634C3.92217 21.0837 5.17801 20.7628 6.33301 20.167C8.62467 21.3587 11.3747 21.3587 13.6663 20.167C14.8213 20.7628 16.068 21.0837 17.333 21.0837H19.1663V19.2503H17.333Z" fill="#006400"/>
</svg>
