<svg width="24" height="24" viewBox="0 0 24 24" fill="none" xmlns="http://www.w3.org/2000/svg">
<path d="M21.998 7V9.5C21.998 11.2239 21.3132 12.8772 20.0942 14.0962C18.8753 15.3152 17.222 16 15.498 16H12.998V21H10.998V14L11.017 13C11.143 11.3675 11.8805 9.84259 13.082 8.73022C14.2835 7.61785 15.8606 6.99994 17.498 7H21.998ZM5.99805 3C7.46755 2.99951 8.89995 3.46149 10.0922 4.32049C11.2845 5.17949 12.1763 6.39193 12.641 7.786C11.876 8.43457 11.2491 9.23038 10.7978 10.1261C10.3465 11.0218 10.08 11.9992 10.014 13H8.99805C7.14153 13 5.36105 12.2625 4.0483 10.9497C2.73554 9.63699 1.99805 7.85652 1.99805 6V3H5.99805Z" fill="#3CA03C"/>
</svg>
