<svg width="20" height="18" viewBox="0 0 20 18" fill="none" xmlns="http://www.w3.org/2000/svg">
<path fill-rule="evenodd" clip-rule="evenodd" d="M6.79134 0.75C7.39913 0.75 7.98202 0.991443 8.41179 1.42121C8.84156 1.85098 9.08301 2.43388 9.08301 3.04167V4.41667H10.9163V3.04167C10.9163 2.45984 11.1375 1.89976 11.5351 1.47504C11.9328 1.05032 12.4771 0.792751 13.0577 0.754583L13.2621 0.75C13.8391 0.750182 14.4014 0.931836 14.8694 1.26925C15.3374 1.60666 15.6875 2.08274 15.87 2.63008L18.8052 11.4347C19.0568 11.9957 19.1798 12.6059 19.1652 13.2206C19.1506 13.8353 18.9987 14.4389 18.7208 14.9874C18.4428 15.5358 18.0458 16.0152 17.5587 16.3904C17.0716 16.7656 16.5068 17.0272 15.9056 17.1561C15.3044 17.2849 14.682 17.2777 14.0839 17.135C13.4858 16.9922 12.9272 16.7176 12.4489 16.3312C11.9707 15.9448 11.5848 15.4564 11.3197 14.9016C11.0545 14.3469 10.9167 13.7399 10.9163 13.125V6.25H9.08301V13.125C9.08265 13.7399 8.94485 14.3469 8.67967 14.9016C8.4145 15.4564 8.02867 15.9448 7.5504 16.3312C7.07214 16.7176 6.51353 16.9922 5.91546 17.135C5.31739 17.2777 4.69498 17.2849 4.09376 17.1561C3.49255 17.0272 2.92773 16.7656 2.44064 16.3904C1.95355 16.0152 1.55651 15.5358 1.27855 14.9874C1.0006 14.4389 0.848771 13.8353 0.834171 13.2206C0.819571 12.6059 0.942572 11.9957 1.19417 11.4347L4.12842 2.63008C4.30199 2.10982 4.62717 1.65335 5.06215 1.3193C5.49714 0.985264 6.02208 0.788919 6.56951 0.7555L6.79134 0.75ZM4.95801 10.8333C3.71592 10.8333 2.66634 11.8866 2.66634 13.125C2.66634 13.5782 2.80074 14.0213 3.05256 14.3982C3.30437 14.775 3.66228 15.0688 4.08102 15.2422C4.49977 15.4157 4.96055 15.4611 5.40509 15.3726C5.84963 15.2842 6.25797 15.0659 6.57846 14.7455C6.89896 14.425 7.11722 14.0166 7.20564 13.5721C7.29406 13.1275 7.24868 12.6668 7.07523 12.248C6.90178 11.8293 6.60805 11.4714 6.23119 11.2195C5.85433 10.9677 5.41126 10.8333 4.95801 10.8333ZM15.0413 10.8333C14.5881 10.8333 14.145 10.9677 13.7682 11.2195C13.3913 11.4714 13.0976 11.8293 12.9241 12.248C12.7507 12.6668 12.7053 13.1275 12.7937 13.5721C12.8821 14.0166 13.1004 14.425 13.4209 14.7455C13.7414 15.0659 14.1497 15.2842 14.5943 15.3726C15.0388 15.4611 15.4996 15.4157 15.9183 15.2422C16.3371 15.0688 16.695 14.775 16.9468 14.3982C17.1986 14.0213 17.333 13.5782 17.333 13.125C17.333 11.8866 16.2834 10.8333 15.0413 10.8333Z" fill="#288C28"/>
</svg>
