<svg width="243" height="72" viewBox="0 0 243 72" fill="none" xmlns="http://www.w3.org/2000/svg">
<path d="M25.5 0L31.1292 8.25H19.8708L25.5 0Z" fill="#262626"/>
<path d="M0 11C0 9.34315 1.34315 8 3 8H240C241.657 8 243 9.34315 243 11V69C243 70.6569 241.657 72 240 72H3C1.34314 72 0 70.6569 0 69V11Z" fill="#262626"/>
<path d="M24.1055 18.4648V19.3555H20.9121C21.0059 20.416 22.5176 21.3242 24.4688 21.5234L24.0586 22.3906C22.2422 22.1914 20.7422 21.4121 20.168 20.2871C19.5938 21.4121 18.0996 22.1914 16.2891 22.3906L15.8906 21.5234C17.8184 21.3066 19.3359 20.4102 19.4238 19.3555H16.2656V18.4648H24.1055ZM15.3867 23.9141V23.0117H24.9844V23.9141H15.3867ZM16.4531 25.7891V24.8867H23.7891V28.4961H22.6641V25.7891H16.4531ZM30.2191 25.2383C32.5277 25.2383 33.8343 25.7949 33.8402 26.8672C33.8343 27.9336 32.5277 28.4902 30.2191 28.4961C27.8812 28.4902 26.5745 27.9336 26.5745 26.8672C26.5745 25.7949 27.8812 25.2383 30.2191 25.2383ZM25.4378 24.6055V23.7383H35.012V24.6055H25.4378ZM25.93 19.707V18.8633H29.6683V17.8555H30.7816V18.8633H34.473V19.707H25.93ZM26.7738 21.6172C26.7679 20.6211 28.0159 20.0879 30.2191 20.0938C32.4339 20.0879 33.6702 20.6211 33.6644 21.6172C33.6702 22.6016 32.4339 23.123 30.2191 23.1172C28.0159 23.123 26.7679 22.6016 26.7738 21.6172ZM27.7113 26.8672C27.7113 27.3945 28.5843 27.6699 30.2191 27.6641C31.8421 27.6699 32.7152 27.3945 32.7152 26.8672C32.7152 26.334 31.8421 26.0527 30.2191 26.0469C28.5843 26.0527 27.7113 26.334 27.7113 26.8672ZM27.9573 21.6172C27.9515 22.0918 28.7542 22.3379 30.2191 22.3438C31.6956 22.3379 32.4808 22.0918 32.4808 21.6172C32.4808 21.1191 31.6956 20.8496 30.2191 20.8555C28.7542 20.8496 27.9515 21.1191 27.9573 21.6172ZM45.0631 23.5273V24.4414H35.4889V23.5273H39.7194V22.5137C37.7506 22.3965 36.5143 21.6289 36.5202 20.3984C36.5143 19.0918 37.985 18.2949 40.2702 18.2891C42.5436 18.2949 44.0143 19.0918 44.0202 20.3984C44.0143 21.6289 42.778 22.3965 40.8209 22.5137V23.5273H45.0631ZM36.6959 28.2734V25.2266H37.8209V27.3711H43.985V28.2734H36.6959ZM37.6686 20.3984C37.6627 21.1895 38.6588 21.623 40.2702 21.6289C41.8756 21.623 42.8776 21.1895 42.8717 20.3984C42.8776 19.6484 41.8756 19.1855 40.2702 19.1914C38.6588 19.1855 37.6627 19.6484 37.6686 20.3984ZM54.0478 22.8359V23.7266H50.872V26.293H55.1494V27.207H45.54V26.293H49.7705V23.7266H46.7353V18.8047H53.9541V19.707H47.8486V22.8359H54.0478ZM64.0872 21.0664V21.957H56.8567V18.3711H57.9583V21.0664H64.0872ZM55.5794 24.1719V23.2812H65.1888V24.1719H55.5794ZM56.7747 28.25V25.168H57.888V27.3359H64.1575V28.25H56.7747ZM71.8964 20.668C71.8847 22.5254 72.9687 24.4297 74.5331 25.1914L73.8417 26.082C72.6991 25.4844 71.8144 24.3125 71.3515 22.9121C70.8827 24.4004 69.9628 25.6602 68.7675 26.2812L68.0761 25.3789C69.6874 24.6055 70.7773 22.5898 70.7831 20.668V18.875H71.8964V20.668ZM75.3183 28.4961V17.9961H76.4316V22.1797H78.1191V23.1289H76.4316V28.4961H75.3183ZM87.8772 23.1172V24.0195H78.303V23.1172H80.5998V21.7051C79.7854 21.377 79.3284 20.8496 79.3342 20.1523C79.3284 18.9043 80.7756 18.1777 83.0842 18.1836C85.387 18.1777 86.8284 18.9043 86.8342 20.1523C86.8284 20.8496 86.3713 21.377 85.5569 21.7109V23.1172H87.8772ZM79.4397 26.5977C79.4397 25.3965 80.7991 24.7344 83.0842 24.7344C85.3401 24.7344 86.6995 25.3965 86.7053 26.5977C86.6995 27.8105 85.3401 28.4727 83.0842 28.4727C80.7991 28.4727 79.4397 27.8105 79.4397 26.5977ZM80.4827 20.1523C80.4768 20.8555 81.4495 21.248 83.0842 21.2539C84.7073 21.248 85.6916 20.8555 85.6858 20.1523C85.6916 19.4492 84.7073 19.0449 83.0842 19.0391C81.4495 19.0449 80.4768 19.4492 80.4827 20.1523ZM80.5647 26.5977C80.5588 27.2539 81.4787 27.6289 83.0842 27.6172C84.6662 27.6289 85.592 27.2539 85.592 26.5977C85.592 25.9531 84.6662 25.5898 83.0842 25.5898C81.4787 25.5898 80.5588 25.9531 80.5647 26.5977ZM81.7248 23.1172H84.4553V21.998C84.0452 22.0625 83.5823 22.0977 83.0842 22.0977C82.592 22.0977 82.135 22.0625 81.7248 22.0039V23.1172ZM92.0103 21.0898C92.0045 22.748 93.1002 24.5996 94.6939 25.3555L94.0611 26.2227C92.8834 25.6602 91.9459 24.4766 91.4713 23.1055C90.9908 24.5996 90.0064 25.8945 88.8111 26.4922L88.1548 25.6133C89.7486 24.8457 90.9029 22.8652 90.9088 21.0898V19.9766H88.5416V19.0508H94.2955V19.9766H92.0103V21.0898ZM95.4205 28.4961V17.9961H96.5338V22.1562H98.2213V23.0938H96.5338V28.4961H95.4205ZM101.827 18.7461C103.485 18.7402 104.681 19.7656 104.686 21.2422C104.681 22.7188 103.485 23.7441 101.827 23.75C100.175 23.7441 98.9618 22.7188 98.9677 21.2422C98.9618 19.7656 100.175 18.7402 101.827 18.7461ZM98.4638 25.332C100.374 25.332 103.022 25.3145 105.319 24.9805L105.401 25.7891C103.028 26.2461 100.479 26.2578 98.6044 26.2578L98.4638 25.332ZM100.069 21.2422C100.058 22.1738 100.808 22.7773 101.827 22.7773C102.847 22.7773 103.597 22.1738 103.597 21.2422C103.597 20.3223 102.847 19.707 101.827 19.707C100.808 19.707 100.058 20.3223 100.069 21.2422ZM105.975 28.5195V17.9961H107.089V28.5195H105.975ZM113.914 18.7812C114.875 18.7871 115.66 19.332 116.123 20.2812H118.718V17.9961H119.82V28.5195H118.718V24.4883H116.199C115.748 25.543 114.927 26.1582 113.914 26.1523C112.349 26.1582 111.242 24.7285 111.253 22.4609C111.242 20.2168 112.349 18.7871 113.914 18.7812ZM112.308 22.4609C112.314 24.1309 112.964 25.1562 113.914 25.1562C114.863 25.1562 115.513 24.1309 115.519 22.4609C115.513 20.8145 114.863 19.7832 113.914 19.7773C112.964 19.7832 112.314 20.8145 112.308 22.4609ZM116.439 21.1953C116.521 21.582 116.574 22.0039 116.574 22.4609C116.574 22.8594 116.539 23.2285 116.468 23.5742H118.718V21.1953H116.439ZM130.07 17.9961V24.6172H129.015V21.6875H127.797V24.2539H126.754V18.1953H127.797V20.7734H129.015V17.9961H130.07ZM121.058 20.0703V19.1914H123.18V18.0781H124.281V19.1914H126.367V20.0703H121.058ZM121.469 22.3672C121.469 21.2773 122.406 20.5625 123.719 20.5625C125.06 20.5625 125.992 21.2773 125.992 22.3672C125.992 23.457 125.06 24.1719 123.719 24.1719C122.406 24.1719 121.469 23.457 121.469 22.3672ZM122.465 22.3672C122.465 22.9648 122.974 23.3574 123.719 23.3633C124.474 23.3574 124.99 22.9648 124.984 22.3672C124.99 21.7695 124.474 21.377 123.719 21.3828C122.974 21.377 122.465 21.7695 122.465 22.3672ZM123.004 26.6328C122.992 25.4434 124.328 24.7695 126.555 24.7695C128.787 24.7695 130.123 25.4434 130.129 26.6328C130.123 27.8105 128.787 28.4785 126.555 28.4727C124.328 28.4785 122.992 27.8105 123.004 26.6328ZM124.105 26.6328C124.094 27.2656 124.996 27.6289 126.555 27.6172C128.119 27.6289 129.01 27.2656 129.015 26.6328C129.01 25.9707 128.119 25.6191 126.555 25.625C124.996 25.6191 124.094 25.9707 124.105 26.6328ZM139.286 19.0039V25.9062H134.364V19.0039H139.286ZM135.465 25.0039H138.207V19.8828H135.465V25.0039ZM141.36 28.5195V17.9961H142.473V28.5195H141.36ZM147.532 19.8945C147.538 21.4062 148.475 22.8535 150.04 23.457L149.43 24.3242C148.288 23.8613 147.438 22.9414 146.993 21.8047C146.542 23.0293 145.651 24.002 144.427 24.4883L143.829 23.5977C145.446 23 146.425 21.5059 146.43 19.8945V18.5938H147.532V19.8945ZM145.727 28.2734V25.0391H146.852V27.3711H152.817V28.2734H145.727ZM149.43 22.5195V21.6172H151.47V20.3984H149.43V19.4961H151.47V18.0078H152.583V25.8242H151.47V22.5195H149.43ZM161.622 18.582V19.4727H158.037V22.0273C160.017 22.0273 161.206 21.9512 162.572 21.6758L162.701 22.5547C161.247 22.8652 159.964 22.918 157.767 22.918H156.935V18.582H161.622ZM157.955 24.6523V23.7617H164.74V26.4453H159.068V27.4648H165.103V28.3672H157.978V25.5898H163.638V24.6523H157.955ZM163.626 23.2695V17.9961H164.74V20.1406H166.263V21.0547H164.74V23.2695H163.626ZM170.267 19.5664C170.261 21.0371 171.217 22.3496 172.81 22.8711L172.201 23.7383C171.047 23.3164 170.197 22.5078 169.74 21.4531C169.289 22.6543 168.375 23.5977 167.103 24.0547L166.506 23.1641C168.181 22.5898 169.154 21.1895 169.166 19.6133V18.582H170.267V19.5664ZM168.228 26.4922C168.222 25.2207 169.57 24.4824 171.779 24.4883C173.976 24.4824 175.324 25.2207 175.33 26.4922C175.324 27.7578 173.976 28.4785 171.779 28.4727C169.57 28.4785 168.222 27.7578 168.228 26.4922ZM169.33 26.4922C169.324 27.1895 170.238 27.5996 171.779 27.5938C173.308 27.5996 174.222 27.1895 174.228 26.4922C174.222 25.7715 173.308 25.3555 171.779 25.3555C170.238 25.3555 169.324 25.7715 169.33 26.4922ZM171.967 21.043V20.1289H174.181V17.9961H175.295V24.1953H174.181V21.043H171.967ZM182.44 19.1211V19.7656C182.434 20.6504 182.434 22.0039 182.135 23.8789L181.033 23.7969C181.303 22.1211 181.332 20.8965 181.338 20.0234H177.072V19.1211H182.44ZM176.486 25.332C177.143 25.3262 177.875 25.3203 178.643 25.3027V22.1211H179.744V25.2676C180.857 25.2207 182 25.1504 183.049 25.0156L183.107 25.8477C180.922 26.1992 178.479 26.2461 176.615 26.2344L176.486 25.332ZM183.647 28.4961V17.9961H184.772V22.332H186.377V23.2812H184.772V28.4961H183.647ZM192.932 20.1641C192.932 21.377 193.882 22.502 195.487 22.9648L194.971 23.832C193.759 23.4805 192.862 22.7363 192.393 21.7812C191.93 22.8301 191.016 23.6445 189.768 24.0312L189.229 23.1641C190.835 22.6895 191.831 21.4941 191.831 20.1641V20.0586H189.546V19.168H191.831V17.9492H192.944V19.168H195.217V20.0586H192.932V20.1641ZM190.8 28.3672V24.6641H197.503V28.3672H190.8ZM191.889 27.4648H196.401V25.543H191.889V27.4648ZM196.389 24.1953V17.9961H197.503V20.5977H199.026V21.5234H197.503V24.1953H196.389ZM202.151 18.7812C203.112 18.7871 203.898 19.332 204.36 20.2812H206.956V17.9961H208.058V28.5195H206.956V24.4883H204.437C203.985 25.543 203.165 26.1582 202.151 26.1523C200.587 26.1582 199.48 24.7285 199.491 22.4609C199.48 20.2168 200.587 18.7871 202.151 18.7812ZM200.546 22.4609C200.552 24.1309 201.202 25.1562 202.151 25.1562C203.101 25.1562 203.751 24.1309 203.757 22.4609C203.751 20.8145 203.101 19.7832 202.151 19.7773C201.202 19.7832 200.552 20.8145 200.546 22.4609ZM204.677 21.1953C204.759 21.582 204.812 22.0039 204.812 22.4609C204.812 22.8594 204.776 23.2285 204.706 23.5742H206.956V21.1953H204.677ZM217.863 22.8359V23.7266H214.687V26.293H218.964V27.207H209.355V26.293H213.585V23.7266H210.55V18.8047H217.769V19.707H211.663V22.8359H217.863ZM19.2539 38.0898C19.248 39.8477 20.4023 41.6641 22.0195 42.3555L21.4102 43.2227C20.1738 42.6777 19.1895 41.5176 18.7031 40.1172C18.2168 41.6172 17.2324 42.8945 16.0078 43.4922L15.3633 42.6133C16.9453 41.8691 18.1172 39.9004 18.1289 38.0898V36.9766H15.7266V36.0508H21.6445V36.9766H19.2539V38.0898ZM22.9688 45.4961V34.9961H24.082V45.4961H22.9688ZM35.0472 43.3398V44.2539H25.4378V43.3398H28.0159V41.0078H26.2816V40.1055H27.8519V36.8359H26.2581V35.9219H34.1683V36.8359H32.5628V40.1055H34.1331V41.0078H32.4105V43.3398H35.0472ZM28.9534 40.1055H31.473V36.8359H28.9534V40.1055ZM29.1292 43.3398H31.2972V41.0078H29.1292V43.3398ZM44.5241 34.9961V45.4961H43.4577V34.9961H44.5241ZM35.6061 39.5312C35.6061 37.2578 36.4967 35.834 37.8678 35.8398C38.7643 35.834 39.4557 36.4316 39.8307 37.4688H41.36V35.1953H42.4147V44.9805H41.36V41.5938H39.8366C39.4557 42.6367 38.7643 43.2402 37.8678 43.2344C36.4967 43.2402 35.6061 41.8105 35.6061 39.5312ZM36.6256 39.5312C36.6198 41.2012 37.0885 42.1855 37.8678 42.1797C38.6413 42.1855 39.1334 41.2012 39.1334 39.5312C39.1334 37.8555 38.6413 36.877 37.8678 36.8828C37.0885 36.877 36.6198 37.8555 36.6256 39.5312ZM40.0651 38.3711C40.1237 38.7285 40.153 39.1152 40.153 39.5312C40.153 39.9414 40.1237 40.3281 40.0651 40.6797H41.36V38.3711H40.0651ZM55.1494 43.2578V44.1836H45.54V43.2578H47.8369V40.5156C46.9755 40.041 46.4482 39.291 46.4541 38.3477C46.4482 36.6953 48.0713 35.6113 50.3213 35.6055C52.5771 35.6113 54.2002 36.6953 54.2002 38.3477C54.2002 39.2734 53.6963 40.0176 52.8525 40.4922V43.2578H55.1494ZM47.5322 38.3477C47.5322 39.4727 48.6748 40.2051 50.3213 40.2109C51.956 40.2051 53.1162 39.4727 53.122 38.3477C53.1162 37.2168 51.956 36.4961 50.3213 36.4961C48.6748 36.4961 47.5322 37.2168 47.5322 38.3477ZM48.9384 43.2578H51.7275V40.9258C51.2998 41.0254 50.8252 41.0781 50.3213 41.0781C49.8291 41.0781 49.3603 41.0254 48.9384 40.9258V43.2578ZM56.7864 44.582C56.3294 44.5762 55.9485 44.207 55.9544 43.75C55.9485 43.293 56.3294 42.918 56.7864 42.918C57.2376 42.918 57.6126 43.293 57.6184 43.75C57.6126 44.207 57.2376 44.5762 56.7864 44.582ZM69.623 35.4648V36.3555H66.4296C66.5234 37.416 68.0351 38.3242 69.9863 38.5234L69.5761 39.3906C67.7597 39.1914 66.2597 38.4121 65.6855 37.2871C65.1113 38.4121 63.6171 39.1914 61.8066 39.3906L61.4081 38.5234C63.3359 38.3066 64.8534 37.4102 64.9413 36.3555H61.7831V35.4648H69.623ZM60.9042 40.9141V40.0117H70.5019V40.9141H60.9042ZM61.9706 42.7891V41.8867H69.3066V45.4961H68.1816V42.7891H61.9706ZM75.7366 42.2383C78.0452 42.2383 79.3518 42.7949 79.3577 43.8672C79.3518 44.9336 78.0452 45.4902 75.7366 45.4961C73.3987 45.4902 72.092 44.9336 72.092 43.8672C72.092 42.7949 73.3987 42.2383 75.7366 42.2383ZM70.9553 41.6055V40.7383H80.5295V41.6055H70.9553ZM71.4475 36.707V35.8633H75.1858V34.8555H76.2991V35.8633H79.9905V36.707H71.4475ZM72.2912 38.6172C72.2854 37.6211 73.5334 37.0879 75.7366 37.0938C77.9514 37.0879 79.1877 37.6211 79.1819 38.6172C79.1877 39.6016 77.9514 40.123 75.7366 40.1172C73.5334 40.123 72.2854 39.6016 72.2912 38.6172ZM73.2287 43.8672C73.2287 44.3945 74.1018 44.6699 75.7366 44.6641C77.3596 44.6699 78.2327 44.3945 78.2327 43.8672C78.2327 43.334 77.3596 43.0527 75.7366 43.0469C74.1018 43.0527 73.2287 43.334 73.2287 43.8672ZM73.4748 38.6172C73.469 39.0918 74.2717 39.3379 75.7366 39.3438C77.2131 39.3379 77.9983 39.0918 77.9983 38.6172C77.9983 38.1191 77.2131 37.8496 75.7366 37.8555C74.2717 37.8496 73.469 38.1191 73.4748 38.6172ZM86.4638 35.7812C87.4247 35.7871 88.2098 36.332 88.6727 37.2812H91.2684V34.9961H92.37V45.5195H91.2684V41.4883H88.7489C88.2977 42.543 87.4774 43.1582 86.4638 43.1523C84.8993 43.1582 83.7919 41.7285 83.8036 39.4609C83.7919 37.2168 84.8993 35.7871 86.4638 35.7812ZM84.8583 39.4609C84.8641 41.1309 85.5145 42.1562 86.4638 42.1562C87.413 42.1562 88.0634 41.1309 88.0692 39.4609C88.0634 37.8145 87.413 36.7832 86.4638 36.7773C85.5145 36.7832 84.8641 37.8145 84.8583 39.4609ZM88.9891 38.1953C89.0712 38.582 89.1239 39.0039 89.1239 39.4609C89.1239 39.8594 89.0888 40.2285 89.0184 40.5742H91.2684V38.1953H88.9891ZM102.62 34.9961V41.6172H101.566V38.6875H100.347V41.2539H99.3039V35.1953H100.347V37.7734H101.566V34.9961H102.62ZM93.6086 37.0703V36.1914H95.7297V35.0781H96.8313V36.1914H98.9172V37.0703H93.6086ZM94.0188 39.3672C94.0188 38.2773 94.9563 37.5625 96.2688 37.5625C97.6105 37.5625 98.5422 38.2773 98.5422 39.3672C98.5422 40.457 97.6105 41.1719 96.2688 41.1719C94.9563 41.1719 94.0188 40.457 94.0188 39.3672ZM95.0148 39.3672C95.0148 39.9648 95.5246 40.3574 96.2688 40.3633C97.0246 40.3574 97.5402 39.9648 97.5344 39.3672C97.5402 38.7695 97.0246 38.377 96.2688 38.3828C95.5246 38.377 95.0148 38.7695 95.0148 39.3672ZM95.5539 43.6328C95.5422 42.4434 96.8781 41.7695 99.1047 41.7695C101.337 41.7695 102.673 42.4434 102.679 43.6328C102.673 44.8105 101.337 45.4785 99.1047 45.4727C96.8781 45.4785 95.5422 44.8105 95.5539 43.6328ZM96.6555 43.6328C96.6438 44.2656 97.5461 44.6289 99.1047 44.6172C100.669 44.6289 101.56 44.2656 101.566 43.6328C101.56 42.9707 100.669 42.6191 99.1047 42.625C97.5461 42.6191 96.6438 42.9707 96.6555 43.6328ZM115.035 34.9961V42.7188H113.922V34.9961H115.035ZM106.375 40.9023C107.236 40.9023 108.232 40.8965 109.258 40.8672V40.1113C108.039 39.9883 107.271 39.4375 107.277 38.6172C107.271 37.6738 108.279 37.0879 109.82 37.0938C111.338 37.0879 112.369 37.6738 112.375 38.6172C112.369 39.4434 111.584 39.9883 110.371 40.1113V40.8203C111.303 40.7734 112.24 40.6973 113.113 40.5742L113.195 41.3711C110.922 41.7344 108.414 41.7695 106.527 41.7695L106.375 40.9023ZM106.715 36.707V35.8867H109.258V34.9258H110.371V35.8867H112.926V36.707H106.715ZM107.43 44.6055C109.474 44.3887 110.898 43.4688 110.91 42.332V42.2148H112.035V42.332C112.035 43.4688 113.471 44.3887 115.515 44.6055L115.129 45.4492C113.471 45.25 112.105 44.6172 111.467 43.6445C110.822 44.6172 109.469 45.25 107.828 45.4492L107.43 44.6055ZM108.332 38.6172C108.338 39.1094 108.918 39.3848 109.82 39.3906C110.711 39.3848 111.308 39.1094 111.308 38.6172C111.308 38.1309 110.711 37.8555 109.82 37.8555C108.918 37.8555 108.338 38.1309 108.332 38.6172ZM121.758 35.9219C121.752 37.3164 123.457 38.623 125.52 38.8984L125.086 39.8125C123.369 39.5371 121.863 38.6465 121.178 37.4102C120.492 38.6465 118.986 39.5371 117.281 39.8125L116.836 38.8984C118.893 38.623 120.592 37.334 120.598 35.9219V35.3477H121.758V35.9219ZM116.379 41.7578V40.8438H125.953V41.7578H121.688V45.4961H120.598V41.7578H116.379ZM128.317 43.6914L127.379 46.9258H126.383L127.004 43.6914H128.317ZM137.298 36.0039V42.9062H132.376V36.0039H137.298ZM133.478 42.0039H136.22V36.8828H133.478V42.0039ZM139.372 45.5195V34.9961H140.485V45.5195H139.372ZM145.544 36.8945C145.55 38.4062 146.488 39.8535 148.052 40.457L147.443 41.3242C146.3 40.8613 145.451 39.9414 145.005 38.8047C144.554 40.0293 143.664 41.002 142.439 41.4883L141.841 40.5977C143.458 40 144.437 38.5059 144.443 36.8945V35.5938H145.544V36.8945ZM143.74 45.2734V42.0391H144.865V44.3711H150.83V45.2734H143.74ZM147.443 39.5195V38.6172H149.482V37.3984H147.443V36.4961H149.482V35.0078H150.595V42.8242H149.482V39.5195H147.443ZM159.635 35.582V36.4727H156.049V39.0273C158.029 39.0273 159.219 38.9512 160.584 38.6758L160.713 39.5547C159.26 39.8652 157.977 39.918 155.779 39.918H154.947V35.582H159.635ZM155.967 41.6523V40.7617H162.752V43.4453H157.08V44.4648H163.115V45.3672H155.99V42.5898H161.65V41.6523H155.967ZM161.639 40.2695V34.9961H162.752V37.1406H164.275V38.0547H162.752V40.2695H161.639ZM168.28 36.5664C168.274 38.0371 169.229 39.3496 170.823 39.8711L170.213 40.7383C169.059 40.3164 168.209 39.5078 167.752 38.4531C167.301 39.6543 166.387 40.5977 165.116 41.0547L164.518 40.1641C166.194 39.5898 167.166 38.1895 167.178 36.6133V35.582H168.28V36.5664ZM166.241 43.4922C166.235 42.2207 167.582 41.4824 169.791 41.4883C171.989 41.4824 173.336 42.2207 173.342 43.4922C173.336 44.7578 171.989 45.4785 169.791 45.4727C167.582 45.4785 166.235 44.7578 166.241 43.4922ZM167.342 43.4922C167.336 44.1895 168.25 44.5996 169.791 44.5938C171.321 44.5996 172.235 44.1895 172.241 43.4922C172.235 42.7715 171.321 42.3555 169.791 42.3555C168.25 42.3555 167.336 42.7715 167.342 43.4922ZM169.979 38.043V37.1289H172.194V34.9961H173.307V41.1953H172.194V38.043H169.979ZM185.921 34.9961V42.7188H184.808V34.9961H185.921ZM177.261 40.9023C178.122 40.9023 179.118 40.8965 180.144 40.8672V40.1113C178.925 39.9883 178.157 39.4375 178.163 38.6172C178.157 37.6738 179.165 37.0879 180.706 37.0938C182.224 37.0879 183.255 37.6738 183.261 38.6172C183.255 39.4434 182.47 39.9883 181.257 40.1113V40.8203C182.189 40.7734 183.126 40.6973 183.999 40.5742L184.081 41.3711C181.808 41.7344 179.3 41.7695 177.413 41.7695L177.261 40.9023ZM177.601 36.707V35.8867H180.144V34.9258H181.257V35.8867H183.812V36.707H177.601ZM178.315 44.6055C180.36 44.3887 181.784 43.4688 181.796 42.332V42.2148H182.921V42.332C182.921 43.4688 184.356 44.3887 186.401 44.6055L186.015 45.4492C184.356 45.25 182.991 44.6172 182.353 43.6445C181.708 44.6172 180.355 45.25 178.714 45.4492L178.315 44.6055ZM179.218 38.6172C179.224 39.1094 179.804 39.3848 180.706 39.3906C181.597 39.3848 182.194 39.1094 182.194 38.6172C182.194 38.1309 181.597 37.8555 180.706 37.8555C179.804 37.8555 179.224 38.1309 179.218 38.6172ZM192.644 35.9219C192.638 37.3164 194.343 38.623 196.406 38.8984L195.972 39.8125C194.255 39.5371 192.749 38.6465 192.064 37.4102C191.378 38.6465 189.872 39.5371 188.167 39.8125L187.722 38.8984C189.779 38.623 191.478 37.334 191.484 35.9219V35.3477H192.644V35.9219ZM187.265 41.7578V40.8438H196.839V41.7578H192.574V45.4961H191.484V41.7578H187.265ZM199.203 43.6914L198.265 46.9258H197.269L197.89 43.6914H199.203ZM211.7 34.9961V45.4961H210.645V34.9961H211.7ZM202.641 42.4609C204.867 41.1367 205.934 39.373 206.127 37.2109H203.133V36.2969H207.235C207.229 37.3223 207.088 38.3008 206.766 39.2148H208.43V35.2656H209.485V44.9805H208.43V40.1055H206.379C205.758 41.3242 204.756 42.3906 203.274 43.2578L202.641 42.4609ZM216.583 37.668C216.571 39.584 217.731 41.5176 219.36 42.2383L218.692 43.1172C217.485 42.543 216.53 41.3652 216.038 39.9297C215.551 41.4707 214.585 42.7363 213.325 43.3516L212.645 42.4141C214.298 41.6816 215.458 39.6719 215.458 37.668V35.875H216.583V37.668ZM220.309 45.5195V34.9961H221.423V45.5195H220.309ZM24.9609 56.3438V57.2344H20.7188V58.1484H23.7539V60.6094H17.6367V61.5352H24.0469V62.3906H16.5469V59.8008H22.6523V59.0039H16.5352V58.1484H19.6055V57.2344H15.3867V56.3438H24.9609ZM16.6172 55.5703V52.3359H23.7305V55.5703H16.6172ZM17.707 54.6914H22.6172V53.2148H17.707V54.6914ZM31.7155 53.8828C31.7096 55.2246 32.6412 56.4961 34.2467 57.0352L33.6842 57.9023C32.4948 57.4922 31.6217 56.6719 31.1647 55.6406C30.7077 56.7715 29.7936 57.668 28.5631 58.1016L27.9655 57.2344C29.6061 56.6777 30.5963 55.3184 30.6022 53.8711V53.5898H28.2936V52.6875H33.9772V53.5898H31.7155V53.8828ZM29.36 59.7422V58.8398H36.2975V62.4961H35.1842V59.7422H29.36ZM35.1842 58.3242V51.9961H36.2975V54.6914H37.8209V55.6289H36.2975V58.3242H35.1842ZM41.8252 53.5664C41.8193 55.0371 42.7744 56.3496 44.3681 56.8711L43.7588 57.7383C42.6045 57.3164 41.7548 56.5078 41.2978 55.4531C40.8466 56.6543 39.9326 57.5977 38.6611 58.0547L38.0634 57.1641C39.7392 56.5898 40.7119 55.1895 40.7236 53.6133V52.582H41.8252V53.5664ZM39.7861 60.4922C39.7802 59.2207 41.1279 58.4824 43.3369 58.4883C45.5341 58.4824 46.8818 59.2207 46.8877 60.4922C46.8818 61.7578 45.5341 62.4785 43.3369 62.4727C41.1279 62.4785 39.7802 61.7578 39.7861 60.4922ZM40.8877 60.4922C40.8818 61.1895 41.7959 61.5996 43.3369 61.5938C44.8662 61.5996 45.7802 61.1895 45.7861 60.4922C45.7802 59.7715 44.8662 59.3555 43.3369 59.3555C41.7959 59.3555 40.8818 59.7715 40.8877 60.4922ZM43.5244 55.043V54.1289H45.7392V51.9961H46.8525V58.1953H45.7392V55.043H43.5244ZM60.3453 56.9297V57.8438H50.7594V56.9297H60.3453ZM51.8961 60.5742C51.8961 59.3555 53.2613 58.6641 55.5406 58.6641C57.8023 58.6641 59.1559 59.3555 59.1617 60.5742C59.1559 61.793 57.8023 62.4785 55.5406 62.4727C53.2613 62.4785 51.8961 61.793 51.8961 60.5742ZM51.9547 56.0156V52.3711H59.1617V53.2852H53.0563V55.1133H59.232V56.0156H51.9547ZM53.0211 60.5742C53.0152 61.248 53.9352 61.6113 55.5406 61.6172C57.1227 61.6113 58.0484 61.248 58.0484 60.5742C58.0484 59.9062 57.1227 59.5312 55.5406 59.5195C53.9352 59.5312 53.0152 59.9062 53.0211 60.5742ZM72.1389 52.4648V53.3555H68.9455C69.0393 54.416 70.551 55.3242 72.5022 55.5234L72.092 56.3906C70.2756 56.1914 68.7756 55.4121 68.2014 54.2871C67.6272 55.4121 66.133 56.1914 64.3225 56.3906L63.9241 55.5234C65.8518 55.3066 67.3694 54.4102 67.4573 53.3555H64.2991V52.4648H72.1389ZM63.4202 57.9141V57.0117H73.0178V57.9141H63.4202ZM64.4866 59.7891V58.8867H71.8225V62.4961H70.6975V59.7891H64.4866ZM78.2525 59.2383C80.5611 59.2383 81.8677 59.7949 81.8736 60.8672C81.8677 61.9336 80.5611 62.4902 78.2525 62.4961C75.9146 62.4902 74.608 61.9336 74.608 60.8672C74.608 59.7949 75.9146 59.2383 78.2525 59.2383ZM73.4712 58.6055V57.7383H83.0455V58.6055H73.4712ZM73.9634 53.707V52.8633H77.7017V51.8555H78.815V52.8633H82.5064V53.707H73.9634ZM74.8072 55.6172C74.8013 54.6211 76.0494 54.0879 78.2525 54.0938C80.4673 54.0879 81.7037 54.6211 81.6978 55.6172C81.7037 56.6016 80.4673 57.123 78.2525 57.1172C76.0494 57.123 74.8013 56.6016 74.8072 55.6172ZM75.7447 60.8672C75.7447 61.3945 76.6177 61.6699 78.2525 61.6641C79.8755 61.6699 80.7486 61.3945 80.7486 60.8672C80.7486 60.334 79.8755 60.0527 78.2525 60.0469C76.6177 60.0527 75.7447 60.334 75.7447 60.8672ZM75.9908 55.6172C75.9849 56.0918 76.7877 56.3379 78.2525 56.3438C79.7291 56.3379 80.5142 56.0918 80.5142 55.6172C80.5142 55.1191 79.7291 54.8496 78.2525 54.8555C76.7877 54.8496 75.9849 55.1191 75.9908 55.6172ZM88.9797 52.7812C89.9406 52.7871 90.7258 53.332 91.1887 54.2812H93.7844V51.9961H94.8859V62.5195H93.7844V58.4883H91.2648C90.8137 59.543 89.9934 60.1582 88.9797 60.1523C87.4152 60.1582 86.3078 58.7285 86.3195 56.4609C86.3078 54.2168 87.4152 52.7871 88.9797 52.7812ZM87.3742 56.4609C87.3801 58.1309 88.0305 59.1562 88.9797 59.1562C89.9289 59.1562 90.5793 58.1309 90.5852 56.4609C90.5793 54.8145 89.9289 53.7832 88.9797 53.7773C88.0305 53.7832 87.3801 54.8145 87.3742 56.4609ZM91.5051 55.1953C91.5871 55.582 91.6398 56.0039 91.6398 56.4609C91.6398 56.8594 91.6047 57.2285 91.5344 57.5742H93.7844V55.1953H91.5051ZM105.136 51.9961V58.6172H104.082V55.6875H102.863V58.2539H101.82V52.1953H102.863V54.7734H104.082V51.9961H105.136ZM96.1245 54.0703V53.1914H98.2456V52.0781H99.3472V53.1914H101.433V54.0703H96.1245ZM96.5347 56.3672C96.5347 55.2773 97.4722 54.5625 98.7847 54.5625C100.126 54.5625 101.058 55.2773 101.058 56.3672C101.058 57.457 100.126 58.1719 98.7847 58.1719C97.4722 58.1719 96.5347 57.457 96.5347 56.3672ZM97.5308 56.3672C97.5308 56.9648 98.0406 57.3574 98.7847 57.3633C99.5406 57.3574 100.056 56.9648 100.05 56.3672C100.056 55.7695 99.5406 55.377 98.7847 55.3828C98.0406 55.377 97.5308 55.7695 97.5308 56.3672ZM98.0698 60.6328C98.0581 59.4434 99.3941 58.7695 101.621 58.7695C103.853 58.7695 105.189 59.4434 105.195 60.6328C105.189 61.8105 103.853 62.4785 101.621 62.4727C99.3941 62.4785 98.0581 61.8105 98.0698 60.6328ZM99.1714 60.6328C99.1597 61.2656 100.062 61.6289 101.621 61.6172C103.185 61.6289 104.076 61.2656 104.082 60.6328C104.076 59.9707 103.185 59.6191 101.621 59.625C100.062 59.6191 99.1597 59.9707 99.1714 60.6328ZM117.598 52.0078V58.2188H116.485V56.9414H113.836V56.0273H116.485V54.75H113.947C113.268 56.4375 111.692 57.627 109.418 58.2773L108.973 57.4102C111.457 56.7012 112.91 55.3652 113.11 53.6719H109.512V52.7578H114.317C114.317 53.1445 114.276 53.5195 114.205 53.8711H116.485V52.0078H117.598ZM110.602 60.3867C110.602 59.1152 111.985 58.3418 114.141 58.3359C116.268 58.3418 117.662 59.1152 117.668 60.3867C117.662 61.6641 116.268 62.4492 114.141 62.4492C111.985 62.4492 110.602 61.6641 110.602 60.3867ZM111.703 60.3867C111.703 61.125 112.641 61.5527 114.141 61.5586C115.611 61.5527 116.549 61.125 116.555 60.3867C116.549 59.6367 115.611 59.209 114.141 59.2148C112.641 59.209 111.703 59.6367 111.703 60.3867ZM127.649 51.9961V58.3594H126.536V56.0742H124.895V55.1484H126.536V51.9961H127.649ZM118.907 53.9297V53.0391H121.438V51.9023H122.54V53.0391H125.059V53.9297H118.907ZM119.516 56.2852C119.516 55.1836 120.547 54.4102 121.989 54.4102C123.43 54.4102 124.45 55.1836 124.45 56.2852C124.45 57.416 123.43 58.166 121.989 58.1719C120.547 58.166 119.516 57.416 119.516 56.2852ZM120.582 56.2852C120.582 56.9238 121.151 57.3223 121.989 57.3281C122.815 57.3223 123.383 56.9238 123.383 56.2852C123.383 55.6699 122.815 55.2598 121.989 55.2656C121.151 55.2598 120.582 55.6699 120.582 56.2852ZM120.723 62.3672V58.875H127.649V62.3672H120.723ZM121.825 61.4648H126.559V59.7539H121.825V61.4648ZM137.641 51.9961V62.4961H136.528V51.9961H137.641ZM129.098 59.625C130.721 58.8984 131.8 57.1289 131.805 55.3711V54.6797H129.415V53.7891H131.794V52.207H132.895V53.7891H135.251V54.6797H132.895V55.3711C132.901 57.0469 134.003 58.7578 135.637 59.4492L135.028 60.3047C133.815 59.7773 132.854 58.6816 132.368 57.3574C131.893 58.7637 130.938 59.9297 129.72 60.4805L129.098 59.625ZM148.595 56.8125V57.668H138.985V56.8125H148.595ZM140.122 59.2031V58.4062H147.411V60.7148H141.247V61.582H147.739V62.3672H140.134V59.9766H146.31V59.2031H140.122ZM140.192 53.0508V52.2656H147.388V54.5391H141.317V55.3359H147.564V56.1211H140.216V53.8008H146.275V53.0508H140.192ZM161.467 56.1211V57.0352H159.838V62.4844H158.724V51.9961H159.838V56.1211H161.467ZM152.056 59.8477V53.0156H153.158V58.9219C154.623 58.916 156.152 58.793 157.822 58.4531L157.951 59.3906C156.152 59.748 154.5 59.8535 152.924 59.8477H152.056ZM167.1 52.9219V53.8359H163.279V55.8633H166.889V56.7539H163.279V59.1094C165.031 59.0977 166.332 59.0332 167.85 58.7812L167.955 59.6836C166.332 59.9531 164.938 60.0059 162.998 60.0117H162.154V52.9219H167.1ZM168.775 62.4961V51.9961H169.889V56.1328H171.576V57.0703H169.889V62.4961H168.775ZM180.748 51.9961V62.4961H179.682V57.1172H178.334V61.957H177.291V52.207H178.334V56.2031H179.682V51.9961H180.748ZM172.252 59.8242V53.2383H173.366V58.8457C174.332 58.834 175.393 58.7578 176.588 58.5234L176.705 59.4961C175.264 59.7539 174.063 59.8301 172.932 59.8242H172.252ZM191.421 60.2578V61.1836H181.811V60.2578H184.108V57.5156C183.247 57.041 182.719 56.291 182.725 55.3477C182.719 53.6953 184.342 52.6113 186.592 52.6055C188.848 52.6113 190.471 53.6953 190.471 55.3477C190.471 56.2734 189.967 57.0176 189.124 57.4922V60.2578H191.421ZM183.803 55.3477C183.803 56.4727 184.946 57.2051 186.592 57.2109C188.227 57.2051 189.387 56.4727 189.393 55.3477C189.387 54.2168 188.227 53.4961 186.592 53.4961C184.946 53.4961 183.803 54.2168 183.803 55.3477ZM185.21 60.2578H187.999V57.9258C187.571 58.0254 187.096 58.0781 186.592 58.0781C186.1 58.0781 185.632 58.0254 185.21 57.9258V60.2578ZM193.058 61.582C192.601 61.5762 192.22 61.207 192.226 60.75C192.22 60.293 192.601 59.918 193.058 59.918C193.509 59.918 193.884 60.293 193.89 60.75C193.884 61.207 193.509 61.5762 193.058 61.582Z" fill="white"/>
</svg>
