<svg width="16" height="16" viewBox="0 0 16 16" fill="none" xmlns="http://www.w3.org/2000/svg">
<path fill-rule="evenodd" clip-rule="evenodd" d="M8.00008 0.935547C6.12645 0.935547 4.32956 1.67984 3.0047 3.0047C1.67984 4.32956 0.935547 6.12645 0.935547 8.00008C0.935547 9.87371 1.67984 11.6706 3.0047 12.9955C4.32956 14.3203 6.12645 15.0646 8.00008 15.0646C9.87371 15.0646 11.6706 14.3203 12.9955 12.9955C14.3203 11.6706 15.0646 9.87371 15.0646 8.00008C15.0646 6.12645 14.3203 4.32956 12.9955 3.0047C11.6706 1.67984 9.87371 0.935547 8.00008 0.935547ZM1.94888 8.00008C1.94888 6.3952 2.58642 4.85606 3.72124 3.72124C4.85606 2.58642 6.3952 1.94888 8.00008 1.94888C9.60496 1.94888 11.1441 2.58642 12.2789 3.72124C13.4137 4.85606 14.0513 6.3952 14.0513 8.00008C14.0513 9.60496 13.4137 11.1441 12.2789 12.2789C11.1441 13.4137 9.60496 14.0513 8.00008 14.0513C6.3952 14.0513 4.85606 13.4137 3.72124 12.2789C2.58642 11.1441 1.94888 9.60496 1.94888 8.00008ZM8.80008 4.80008C8.80008 5.01225 8.7158 5.21574 8.56577 5.36577C8.41574 5.5158 8.21225 5.60008 8.00008 5.60008C7.78791 5.60008 7.58442 5.5158 7.4344 5.36577C7.28437 5.21574 7.20008 5.01225 7.20008 4.80008C7.20008 4.58791 7.28437 4.38442 7.4344 4.2344C7.58442 4.08437 7.78791 4.00008 8.00008 4.00008C8.21225 4.00008 8.41574 4.08437 8.56577 4.2344C8.7158 4.38442 8.80008 4.58791 8.80008 4.80008ZM6.40008 6.40008H8.00008C8.14153 6.40008 8.27718 6.45627 8.3772 6.55629C8.47722 6.65631 8.53341 6.79197 8.53341 6.93341V10.6667H9.60008V11.7334H6.40008V10.6667H7.46675V7.46675H6.40008V6.40008Z" fill="#A5A5A5"/>
</svg>
