<svg width="24" height="24" viewBox="0 0 24 24" fill="none" xmlns="http://www.w3.org/2000/svg">
<path d="M5.625 9.74994C5.52554 9.74994 5.43016 9.78945 5.35984 9.85978C5.28951 9.93011 5.25 10.0255 5.25 10.1249V19.8749C5.25 20.0819 5.418 20.2499 5.625 20.2499H18.375C18.4745 20.2499 18.5698 20.2104 18.6402 20.1401C18.7105 20.0698 18.75 19.9744 18.75 19.8749V10.1249C18.75 10.0255 18.7105 9.93011 18.6402 9.85978C18.5698 9.78945 18.4745 9.74994 18.375 9.74994H16.875C16.5766 9.74994 16.2905 9.63142 16.0795 9.42044C15.8685 9.20946 15.75 8.92331 15.75 8.62494C15.75 8.32658 15.8685 8.04043 16.0795 7.82945C16.2905 7.61847 16.5766 7.49994 16.875 7.49994H18.375C19.824 7.49994 21 8.67594 21 10.1249V19.8749C21 20.5711 20.7234 21.2388 20.2312 21.7311C19.7389 22.2234 19.0712 22.4999 18.375 22.4999H5.625C4.92881 22.4999 4.26113 22.2234 3.76884 21.7311C3.27656 21.2388 3 20.5711 3 19.8749V10.1249C3 8.67594 4.176 7.49994 5.625 7.49994H7.125C7.42337 7.49994 7.70952 7.61847 7.9205 7.82945C8.13147 8.04043 8.25 8.32658 8.25 8.62494C8.25 8.92331 8.13147 9.20946 7.9205 9.42044C7.70952 9.63142 7.42337 9.74994 7.125 9.74994H5.625ZM11.7345 0.265444C11.7693 0.230521 11.8107 0.202814 11.8563 0.183909C11.9018 0.165005 11.9507 0.155273 12 0.155273C12.0493 0.155273 12.0982 0.165005 12.1437 0.183909C12.1893 0.202814 12.2307 0.230521 12.2655 0.265444L16.6095 4.60944C16.6621 4.66189 16.6979 4.72877 16.7124 4.8016C16.727 4.87443 16.7195 4.94994 16.6911 5.01854C16.6626 5.08715 16.6145 5.14576 16.5527 5.18696C16.4909 5.22816 16.4183 5.25008 16.344 5.24994H13.125V13.8749C13.125 14.1733 13.0065 14.4595 12.7955 14.6704C12.5845 14.8814 12.2984 14.9999 12 14.9999C11.7016 14.9999 11.4155 14.8814 11.2045 14.6704C10.9935 14.4595 10.875 14.1733 10.875 13.8749V5.24994H7.656C7.58173 5.25008 7.5091 5.22816 7.44731 5.18696C7.38552 5.14576 7.33735 5.08715 7.30891 5.01854C7.28047 4.94994 7.27305 4.87443 7.28757 4.8016C7.3021 4.72877 7.33792 4.66189 7.3905 4.60944L11.7345 0.265444Z" fill="#262626"/>
</svg>
