<svg width="18" height="23" viewBox="0 0 18 23" fill="none" xmlns="http://www.w3.org/2000/svg">
<path d="M2.625 9.74994C2.52554 9.74994 2.43016 9.78945 2.35984 9.85978C2.28951 9.93011 2.25 10.0255 2.25 10.1249V19.8749C2.25 20.0819 2.418 20.2499 2.625 20.2499H15.375C15.4745 20.2499 15.5698 20.2104 15.6402 20.1401C15.7105 20.0698 15.75 19.9744 15.75 19.8749V10.1249C15.75 10.0255 15.7105 9.93011 15.6402 9.85978C15.5698 9.78945 15.4745 9.74994 15.375 9.74994H13.875C13.5766 9.74994 13.2905 9.63142 13.0795 9.42044C12.8685 9.20946 12.75 8.92331 12.75 8.62494C12.75 8.32658 12.8685 8.04043 13.0795 7.82945C13.2905 7.61847 13.5766 7.49994 13.875 7.49994H15.375C16.824 7.49994 18 8.67594 18 10.1249V19.8749C18 20.5711 17.7234 21.2388 17.2312 21.7311C16.7389 22.2234 16.0712 22.4999 15.375 22.4999H2.625C1.92881 22.4999 1.26113 22.2234 0.768845 21.7311C0.276562 21.2388 0 20.5711 0 19.8749V10.1249C0 8.67594 1.176 7.49994 2.625 7.49994H4.125C4.42337 7.49994 4.70952 7.61847 4.9205 7.82945C5.13147 8.04043 5.25 8.32658 5.25 8.62494C5.25 8.92331 5.13147 9.20946 4.9205 9.42044C4.70952 9.63142 4.42337 9.74994 4.125 9.74994H2.625ZM8.7345 0.265444C8.76933 0.230521 8.81072 0.202814 8.85628 0.183909C8.90183 0.165005 8.95067 0.155273 9 0.155273C9.04933 0.155273 9.09817 0.165005 9.14372 0.183909C9.18928 0.202814 9.23067 0.230521 9.2655 0.265444L13.6095 4.60944C13.6621 4.66189 13.6979 4.72877 13.7124 4.8016C13.727 4.87443 13.7195 4.94994 13.6911 5.01854C13.6626 5.08715 13.6145 5.14576 13.5527 5.18696C13.4909 5.22816 13.4183 5.25008 13.344 5.24994H10.125V13.8749C10.125 14.1733 10.0065 14.4595 9.79549 14.6704C9.58452 14.8814 9.29837 14.9999 9 14.9999C8.70163 14.9999 8.41548 14.8814 8.2045 14.6704C7.99353 14.4595 7.875 14.1733 7.875 13.8749V5.24994H4.656C4.58173 5.25008 4.5091 5.22816 4.44731 5.18696C4.38552 5.14576 4.33735 5.08715 4.30891 5.01854C4.28047 4.94994 4.27305 4.87443 4.28757 4.8016C4.3021 4.72877 4.33792 4.66189 4.3905 4.60944L8.7345 0.265444Z" fill="white"/>
</svg>
