<svg width="46" height="46" viewBox="0 0 46 46" fill="none" xmlns="http://www.w3.org/2000/svg">
<rect width="46" height="46" rx="5" fill="#ECE9EC"/>
<path d="M33.5179 30.6265C33.1051 31.5805 32.6163 32.4585 32.0498 33.266C31.278 34.3666 30.6459 35.1283 30.1588 35.5515C29.4037 36.2459 28.5947 36.6015 27.7284 36.6217C27.1064 36.6217 26.3564 36.4449 25.4833 36.0858C24.6074 35.7284 23.8024 35.5515 23.0663 35.5515C22.2944 35.5515 21.4665 35.7284 20.5809 36.0858C19.694 36.4449 18.9796 36.6318 18.4333 36.6505C17.6025 36.6857 16.7744 36.32 15.9479 35.5515C15.4203 35.0913 14.7605 34.3024 13.97 33.1851C13.1218 31.9917 12.4246 30.6079 11.8783 29.0303C11.2933 27.3263 11 25.6762 11 24.0787C11 22.2488 11.3954 20.6705 12.1874 19.3479C12.8099 18.2856 13.6379 17.4476 14.6743 16.8324C15.7107 16.2172 16.8306 15.9037 18.0365 15.8836C18.6964 15.8836 19.5617 16.0877 20.637 16.4889C21.7094 16.8914 22.3979 17.0955 22.6997 17.0955C22.9254 17.0955 23.6903 16.8568 24.9869 16.381C26.2131 15.9398 27.248 15.757 28.0958 15.829C30.3931 16.0144 32.1191 16.92 33.2668 18.5516C31.2122 19.7965 30.1959 21.5401 30.2161 23.7769C30.2346 25.5191 30.8667 26.969 32.1089 28.1202C32.6718 28.6545 33.3006 29.0674 34 29.3607C33.8484 29.8006 33.6881 30.222 33.5179 30.6265ZM28.2492 9.89343C28.2492 11.259 27.7503 12.5341 26.7558 13.7142C25.5558 15.1172 24.1042 15.928 22.5302 15.8C22.5101 15.6362 22.4985 15.4638 22.4985 15.2826C22.4985 13.9716 23.0692 12.5686 24.0827 11.4215C24.5887 10.8407 25.2322 10.3577 26.0125 9.97248C26.7912 9.59298 27.5278 9.38311 28.2205 9.34717C28.2407 9.52973 28.2492 9.7123 28.2492 9.89342V9.89343Z" fill="black"/>
</svg>
