<svg width="20" height="24" viewBox="0 0 20 24" fill="none" xmlns="http://www.w3.org/2000/svg">
<g filter="url(#filter0_d_1117_7353)">
<g filter="url(#filter1_d_1117_7353)">
<path fill-rule="evenodd" clip-rule="evenodd" d="M15.3368 4.10229C15.3368 2.26837 14.1613 1.5332 12.469 1.5332H8.49467C6.85432 1.5332 5.625 2.21825 5.625 3.97999V13.7959C5.625 14.2797 6.1131 14.5845 6.50846 14.3479L10.4972 11.9613L14.4514 14.3439C14.8474 14.5818 15.3368 14.2771 15.3368 13.7925V4.10229Z" fill="#0059FF"/>
<path fill-rule="evenodd" clip-rule="evenodd" d="M15.3368 4.10229C15.3368 2.26837 14.1613 1.5332 12.469 1.5332H8.49467C6.85432 1.5332 5.625 2.21825 5.625 3.97999V13.7959C5.625 14.2797 6.1131 14.5845 6.50846 14.3479L10.4972 11.9613L14.4514 14.3439C14.8474 14.5818 15.3368 14.2771 15.3368 13.7925V4.10229Z" stroke="white" stroke-width="1.3" stroke-linecap="round" stroke-linejoin="round"/>
</g>
</g>
<defs>
<filter id="filter0_d_1117_7353" x="0.974609" y="0.882812" width="19.0117" height="22.2041" filterUnits="userSpaceOnUse" color-interpolation-filters="sRGB">
<feFlood flood-opacity="0" result="BackgroundImageFix"/>
<feColorMatrix in="SourceAlpha" type="matrix" values="0 0 0 0 0 0 0 0 0 0 0 0 0 0 0 0 0 0 127 0" result="hardAlpha"/>
<feOffset dy="4"/>
<feGaussianBlur stdDeviation="2"/>
<feComposite in2="hardAlpha" operator="out"/>
<feColorMatrix type="matrix" values="0 0 0 0 0 0 0 0 0 0 0 0 0 0 0 0 0 0 0.5 0"/>
<feBlend mode="normal" in2="BackgroundImageFix" result="effect1_dropShadow_1117_7353"/>
<feBlend mode="normal" in="SourceGraphic" in2="effect1_dropShadow_1117_7353" result="shape"/>
</filter>
<filter id="filter1_d_1117_7353" x="0.974609" y="0.882812" width="19.0117" height="22.2041" filterUnits="userSpaceOnUse" color-interpolation-filters="sRGB">
<feFlood flood-opacity="0" result="BackgroundImageFix"/>
<feColorMatrix in="SourceAlpha" type="matrix" values="0 0 0 0 0 0 0 0 0 0 0 0 0 0 0 0 0 0 127 0" result="hardAlpha"/>
<feOffset dy="4"/>
<feGaussianBlur stdDeviation="2"/>
<feComposite in2="hardAlpha" operator="out"/>
<feColorMatrix type="matrix" values="0 0 0 0 0 0 0 0 0 0 0 0 0 0 0 0 0 0 0.25 0"/>
<feBlend mode="normal" in2="BackgroundImageFix" result="effect1_dropShadow_1117_7353"/>
<feBlend mode="normal" in="SourceGraphic" in2="effect1_dropShadow_1117_7353" result="shape"/>
</filter>
</defs>
</svg>
