<svg width="157" height="29" viewBox="0 0 157 29" fill="none" xmlns="http://www.w3.org/2000/svg">
<path d="M11.349 28.0176L4.15953 9.05078L0.960312 8.62891V1H18.556V8.62891L16.6224 9.05078L19.6634 19.0527L22.7045 9.05078L20.7709 8.62891V1H37.8392V8.62891L35.9056 9.05078L38.9466 19.0527L41.9877 9.05078L40.0541 8.62891V1H53.5189V8.62891L50.3373 9.05078L43.1478 28.0176H30.6322L27.2396 17.6816L23.8646 28.0176H11.349ZM54.8688 28V20.3711L57.6462 19.9316V9.10352L54.8688 8.66406V1H78.8981V10H76.068C75.1774 9.37891 74.1403 8.85156 72.9567 8.41797C71.7848 7.97266 70.4313 7.75 68.8962 7.75V12.5488L74.1696 11.4062V17.6289L68.8962 16.4863V21.25C70.4079 21.25 71.7497 21.0391 72.9216 20.6172C74.0934 20.1836 75.1071 19.6445 75.9626 19H78.8981V28H54.8688ZM96.0156 28.3164C91.3633 28.3164 87.7246 27.127 85.0996 24.748C82.4863 22.3574 81.1797 18.8359 81.1797 14.1836C81.1797 9.66016 82.4453 6.26758 84.9766 4.00586C87.5078 1.73242 91.0176 0.595703 95.5059 0.595703C97.9199 0.595703 100.064 0.789062 101.939 1.17578C103.826 1.55078 105.561 2.11328 107.143 2.86328V10.8965H101.852C101.383 10.2285 100.803 9.6543 100.111 9.17383C99.4199 8.68164 98.582 8.43555 97.5977 8.43555C96.543 8.43555 95.6289 8.69336 94.8555 9.20898C94.0938 9.71289 93.502 10.3984 93.0801 11.2656C92.6582 12.1328 92.4473 13.1055 92.4473 14.1836C92.4473 16.082 92.875 17.5352 93.7305 18.543C94.5977 19.5391 95.9395 20.0371 97.7559 20.0371C98.2246 20.0371 98.6699 20.0137 99.0918 19.9668C99.5137 19.9082 99.9238 19.8379 100.322 19.7559V17.6289H96.9473V12.8125H107.881V25.6445C106.205 26.3477 104.389 26.9688 102.432 27.5078C100.486 28.0469 98.3477 28.3164 96.0156 28.3164ZM125.754 28.3164C122.508 28.3164 119.707 27.8184 117.352 26.8223C114.996 25.8145 113.186 24.2676 111.92 22.1816C110.655 20.0957 110.022 17.4297 110.022 14.1836C110.022 11.0547 110.678 8.48828 111.991 6.48438C113.315 4.48047 115.16 2.99805 117.528 2.03711C119.895 1.07617 122.637 0.595703 125.754 0.595703C128.883 0.595703 131.631 1.07617 133.998 2.03711C136.366 2.99805 138.211 4.48047 139.535 6.48438C140.86 8.48828 141.522 11.0547 141.522 14.1836C141.522 17.4062 140.877 20.0664 139.588 22.1641C138.299 24.25 136.471 25.7969 134.104 26.8047C131.748 27.8125 128.965 28.3164 125.754 28.3164ZM125.754 19.8262C127.489 19.8262 128.672 19.3105 129.305 18.2793C129.95 17.248 130.272 15.8828 130.272 14.1836C130.272 12.4727 129.95 11.1191 129.305 10.123C128.66 9.12695 127.477 8.62891 125.754 8.62891C124.032 8.62891 122.854 9.12695 122.221 10.123C121.588 11.1191 121.272 12.4727 121.272 14.1836C121.272 15.8828 121.582 17.248 122.203 18.2793C122.836 19.3105 124.02 19.8262 125.754 19.8262ZM145.614 19L143.346 8.01367V1H156.864V8.01367L154.614 19H145.614ZM144.489 28V21.25H155.739V28H144.489Z" fill="#0059FF"/>
</svg>
