<svg width="16" height="16" viewBox="0 0 16 16" fill="none" xmlns="http://www.w3.org/2000/svg">
<rect width="16" height="16" rx="8" fill="#0059FF"/>
<g clip-path="url(#clip0_1198_11610)">
<path fill-rule="evenodd" clip-rule="evenodd" d="M11.8538 4.98218C11.9764 5.1048 12.0452 5.27108 12.0452 5.44445C12.0452 5.61783 11.9764 5.78411 11.8538 5.90672L6.953 10.8075C6.88824 10.8723 6.81135 10.9237 6.72672 10.9587C6.64209 10.9938 6.55139 11.0118 6.45978 11.0118C6.36818 11.0118 6.27748 10.9938 6.19285 10.9587C6.10822 10.9237 6.03133 10.8723 5.96657 10.8075L3.53164 8.37303C3.46919 8.31271 3.41938 8.24057 3.38511 8.16079C3.35085 8.08102 3.33281 7.99522 3.33206 7.90841C3.3313 7.82159 3.34785 7.73549 3.38072 7.65514C3.4136 7.57478 3.46215 7.50178 3.52354 7.44039C3.58493 7.37899 3.65793 7.33044 3.73829 7.29757C3.81864 7.26469 3.90474 7.24815 3.99156 7.2489C4.07838 7.24966 4.16417 7.26769 4.24395 7.30196C4.32372 7.33623 4.39587 7.38604 4.45618 7.44849L6.45957 9.45188L10.9288 4.98218C10.9895 4.92142 11.0616 4.87322 11.141 4.84034C11.2204 4.80745 11.3054 4.79053 11.3913 4.79053C11.4772 4.79053 11.5623 4.80745 11.6416 4.84034C11.721 4.87322 11.7931 4.92142 11.8538 4.98218Z" fill="white"/>
</g>
<defs>
<clipPath id="clip0_1198_11610">
<rect width="10.4615" height="7.38462" fill="white" transform="translate(2.46191 4.30762)"/>
</clipPath>
</defs>
</svg>
