<svg width="25" height="43" viewBox="0 0 25 43" fill="none" xmlns="http://www.w3.org/2000/svg">
<path d="M11.1872 2.54575C11.5583 2.24465 12.0217 2.08032 12.4997 2.08032C12.9776 2.08032 13.441 2.24465 13.8122 2.54575L21.758 8.98325C22.1193 9.27584 22.4108 9.64536 22.6112 10.0649C22.8116 10.4844 22.9158 10.9433 22.9163 11.4082V20.8332C22.9163 21.3858 22.6968 21.9157 22.3061 22.3064C21.9154 22.6971 21.3855 22.9166 20.833 22.9166H16.6663C16.1138 22.9166 15.5839 22.6971 15.1932 22.3064C14.8025 21.9157 14.583 21.3858 14.583 20.8332V14.5832H10.4163V20.8332C10.4163 21.3858 10.1968 21.9157 9.80615 22.3064C9.41545 22.6971 8.88554 22.9166 8.33301 22.9166H4.16634C3.61381 22.9166 3.0839 22.6971 2.6932 22.3064C2.3025 21.9157 2.08301 21.3858 2.08301 20.8332V11.4103C2.08292 10.9447 2.18687 10.485 2.38728 10.0647C2.58769 9.64438 2.87949 9.2742 3.24134 8.98116L11.1872 2.54575ZM20.4476 10.5999L12.4997 4.16658L4.55176 10.5999C4.43118 10.6977 4.33399 10.8213 4.2673 10.9615C4.20062 11.1017 4.16612 11.2551 4.16634 11.4103V20.8332H8.33301V14.5832C8.33301 14.0307 8.5525 13.5008 8.9432 13.1101C9.3339 12.7194 9.86381 12.4999 10.4163 12.4999H14.583C15.1355 12.4999 15.6654 12.7194 16.0561 13.1101C16.4468 13.5008 16.6663 14.0307 16.6663 14.5832V20.8332H20.833V11.4103C20.8332 11.2551 20.7987 11.1017 20.732 10.9615C20.6654 10.8213 20.5682 10.6977 20.4476 10.5999Z" fill="#0059FF"/>
<path d="M15.5029 40.1934V42.7227H9.45801V40.1934H15.5029ZM8.50098 39.5977V38.8652H12.0264V38.2695C10.4785 38.2061 9.60938 37.791 9.61426 37.0391C9.60938 36.2236 10.6494 35.8037 12.4854 35.7988C14.3311 35.8037 15.3613 36.2236 15.3564 37.0391C15.3613 37.791 14.5068 38.2061 12.9541 38.2695V38.8652H16.4795V39.5977H8.50098ZM8.91113 35.4863V34.7734H12.0264V33.9629H12.9541V34.7734H16.0303V35.4863H8.91113ZM10.376 42.0098H14.6045V40.9062H10.376V42.0098ZM10.6006 37.0391C10.5957 37.4346 11.2646 37.6445 12.4854 37.6445C13.7158 37.6445 14.3701 37.4346 14.3701 37.0391C14.3701 36.6387 13.7158 36.4434 12.4854 36.4336C11.2646 36.4434 10.5957 36.6387 10.6006 37.0391Z" fill="#0059FF"/>
</svg>
