<svg width="25" height="43" viewBox="0 0 25 43" fill="none" xmlns="http://www.w3.org/2000/svg">
<path d="M4.16699 18.7502C4.16699 17.6451 4.60598 16.5853 5.38738 15.8039C6.16878 15.0225 7.22859 14.5835 8.33366 14.5835H16.667C17.7721 14.5835 18.8319 15.0225 19.6133 15.8039C20.3947 16.5853 20.8337 17.6451 20.8337 18.7502C20.8337 19.3027 20.6142 19.8326 20.2235 20.2233C19.8328 20.614 19.3029 20.8335 18.7503 20.8335H6.25033C5.69779 20.8335 5.16789 20.614 4.77719 20.2233C4.38649 19.8326 4.16699 19.3027 4.16699 18.7502Z" stroke="#0059FF" stroke-width="2" stroke-linejoin="round"/>
<path d="M12.5 10.4167C14.2259 10.4167 15.625 9.01764 15.625 7.29175C15.625 5.56586 14.2259 4.16675 12.5 4.16675C10.7741 4.16675 9.375 5.56586 9.375 7.29175C9.375 9.01764 10.7741 10.4167 12.5 10.4167Z" stroke="#0059FF" stroke-width="2"/>
<path d="M5.79965 34.9297H7.10824L9.34457 40.4082H9.43246L11.6688 34.9297H12.9774V42H11.952V36.8926H11.8836L9.81332 41.9902H8.96371L6.88363 36.8828H6.82504V42H5.79965V34.9297ZM13.5558 34.9297H14.7765L16.6125 38.1328H16.6906L18.5363 34.9297H19.757L17.1886 39.2266V42H16.1144V39.2266L13.5558 34.9297Z" fill="#0059FF"/>
</svg>
