<svg width="25" height="43" viewBox="0 0 25 43" fill="none" xmlns="http://www.w3.org/2000/svg">
<path d="M2.08301 9.37492C2.08301 7.41034 2.08301 6.42909 2.69342 5.81867C3.30384 5.20825 4.28509 5.20825 6.24967 5.20825H18.7497C20.7143 5.20825 21.6955 5.20825 22.3059 5.81867C22.9163 6.42909 22.9163 7.41034 22.9163 9.37492C22.9163 9.86554 22.9163 10.1114 22.7643 10.2645C22.6111 10.4166 22.3643 10.4166 21.8747 10.4166H3.12467C2.63405 10.4166 2.38822 10.4166 2.23509 10.2645C2.08301 10.1114 2.08301 9.8645 2.08301 9.37492ZM2.08301 18.7499C2.08301 20.7145 2.08301 21.6958 2.69342 22.3062C3.30384 22.9166 4.28509 22.9166 6.24967 22.9166H18.7497C20.7143 22.9166 21.6955 22.9166 22.3059 22.3062C22.9163 21.6958 22.9163 20.7145 22.9163 18.7499V13.5416C22.9163 13.051 22.9163 12.8051 22.7643 12.652C22.6111 12.4999 22.3643 12.4999 21.8747 12.4999H3.12467C2.63405 12.4999 2.38822 12.4999 2.23509 12.652C2.08301 12.8051 2.08301 13.052 2.08301 13.5416V18.7499Z" fill="#0059FF"/>
<path d="M7.29102 3.125V6.25M17.7077 3.125V6.25" stroke="#0059FF" stroke-width="2" stroke-linecap="round"/>
<path d="M6.82016 34.373C8.13852 34.3828 9.1102 35.1885 9.11508 36.3359C9.1102 37.4883 8.13852 38.2891 6.82016 38.2891C5.48715 38.2891 4.52035 37.4883 4.51547 36.3359C4.52035 35.1885 5.48715 34.3828 6.82016 34.373ZM5.42367 36.3359C5.41879 37.0586 6.01449 37.5371 6.82016 37.5371C7.62094 37.5371 8.21664 37.0586 8.21664 36.3359C8.21664 35.623 7.62094 35.1445 6.82016 35.1543C6.01449 35.1445 5.41879 35.623 5.42367 36.3359ZM5.84359 39.6758V38.9336H11.5955V41.1406H6.77133V41.9805H11.8885V42.7227H5.87289V40.4473H10.6776V39.6758H5.84359ZM10.6678 38.5332V34.0801H11.5955V38.5332H10.6678ZM19.9572 34.0801V39.2852H19.0295V37.0684H17.3986V36.3066H19.0295V34.0801H19.9572ZM12.6623 38.4941C14.0197 38.0205 14.8546 36.8389 14.8498 35.6328V35.4375H12.9552V34.6855H17.672V35.4375H15.797V35.623C15.7921 36.7314 16.5832 37.8105 17.9064 38.2598L17.4279 38.9922C16.4464 38.6553 15.7238 37.9521 15.3429 37.0879C14.9621 38.0645 14.1955 38.8506 13.1505 39.2363L12.6623 38.4941ZM14.0685 41.1797C14.0636 40.1396 15.1867 39.5342 17.0275 39.5293C18.8586 39.5342 19.9816 40.1396 19.9865 41.1797C19.9816 42.2197 18.8586 42.8252 17.0275 42.8301C15.1867 42.8252 14.0636 42.2197 14.0685 41.1797ZM14.9865 41.1797C14.9816 41.7705 15.7433 42.1074 17.0275 42.0977C18.3019 42.1074 19.0636 41.7705 19.0685 41.1797C19.0636 40.584 18.3019 40.2471 17.0275 40.252C15.7433 40.2471 14.9816 40.584 14.9865 41.1797Z" fill="#0059FF"/>
</svg>
