<svg width="26" height="43" viewBox="0 0 26 43" fill="none" xmlns="http://www.w3.org/2000/svg">
<path fill-rule="evenodd" clip-rule="evenodd" d="M4.33301 5.20825C4.33301 4.37945 4.67542 3.58459 5.28491 2.99854C5.8944 2.41249 6.72105 2.08325 7.58301 2.08325H18.4163C19.2783 2.08325 20.1049 2.41249 20.7144 2.99854C21.3239 3.58459 21.6663 4.37945 21.6663 5.20825V21.9041C21.6663 23.1749 20.1713 23.9145 19.0967 23.176L12.9997 18.9885L6.90267 23.176C5.82692 23.9155 4.33301 23.176 4.33301 21.9051V5.20825ZM7.58301 4.16659C7.29569 4.16659 7.02014 4.27633 6.81698 4.47168C6.61381 4.66703 6.49967 4.93198 6.49967 5.20825V20.8926L12.055 17.077C12.3306 16.8876 12.6609 16.7859 12.9997 16.7859C13.3384 16.7859 13.6687 16.8876 13.9443 17.077L19.4997 20.8926V5.20825C19.4997 4.93198 19.3855 4.66703 19.1824 4.47168C18.9792 4.27633 18.7037 4.16659 18.4163 4.16659H7.58301Z" fill="#0059FF"/>
<path d="M5.12176 35.3203C5.12176 36.7461 6.64031 38.0938 8.32488 38.3965L7.8952 39.168C6.49383 38.8652 5.20965 37.9473 4.64324 36.7168C4.06707 37.9424 2.78289 38.8555 1.38152 39.168L0.971367 38.3965C2.63152 38.084 4.14031 36.7461 4.1452 35.3203V34.6562H5.12176V35.3203ZM0.678398 41.6777V40.9062H8.68621V41.6777H0.678398ZM16.042 34.9297V35.9941C16.042 37.2734 16.042 38.4746 15.6611 40.291L14.7432 40.2031C14.9287 39.3975 15.0264 38.6992 15.0752 38.0498L9.82129 38.3281L9.7041 37.5664L15.1191 37.3613C15.1387 36.8926 15.1387 36.4434 15.1436 35.9941V35.6914H9.94824V34.9297H16.042ZM9.00098 41.6582V40.8965H16.9795V41.6582H9.00098ZM24.7845 34.0898V38.9336H23.9056V36.8633H22.8314V38.8555H21.9622V34.2363H22.8314V36.1211H23.9056V34.0898H24.7845ZM17.6946 35.3203V34.5781H21.015V36.9121H18.6126V37.9082C19.6966 37.8984 20.5218 37.8545 21.4837 37.6641L21.5814 38.4062C20.4779 38.6162 19.5696 38.6553 18.2904 38.6602H17.7142V36.2188H20.1263V35.3203H17.6946ZM18.9446 42.7227V39.3242H19.8626V40.2324H23.8763V39.3242H24.7845V42.7227H18.9446ZM19.8626 41.9707H23.8763V40.9746H19.8626V41.9707Z" fill="#0059FF"/>
</svg>
