<svg width="26" height="43" viewBox="0 0 26 43" fill="none" xmlns="http://www.w3.org/2000/svg">
<path d="M6.85033 20.8334C6.37046 20.8334 5.97012 20.673 5.64928 20.3522C5.32845 20.0313 5.16769 19.6306 5.16699 19.1501V5.85008C5.16699 5.37022 5.32776 4.96987 5.64928 4.64904C5.97081 4.32821 6.37116 4.16744 6.85033 4.16675H16.5274C16.758 4.16675 16.9774 4.21189 17.1857 4.30216C17.3941 4.39244 17.5739 4.51362 17.7253 4.66571L21.3347 8.27508C21.4861 8.42647 21.6069 8.60633 21.6972 8.81466C21.7875 9.023 21.833 9.24244 21.8337 9.473V19.1501C21.8337 19.6299 21.6732 20.0303 21.3524 20.3511C21.0316 20.672 20.6309 20.8327 20.1503 20.8334H6.85033ZM16.6253 5.20841V8.53341C16.6253 8.77161 16.7059 8.97161 16.867 9.13341C17.0281 9.29522 17.2281 9.37578 17.467 9.37508H20.792L16.6253 5.20841ZM17.667 16.6667C17.8149 16.6667 17.9385 16.6167 18.0378 16.5167C18.1371 16.4167 18.1871 16.2928 18.1878 16.1449C18.1885 15.997 18.1385 15.8733 18.0378 15.774C17.9371 15.6747 17.8135 15.6251 17.667 15.6251H9.33366C9.18574 15.6251 9.06213 15.6751 8.96283 15.7751C8.86352 15.8751 8.81352 15.999 8.81283 16.147C8.81213 16.2949 8.86213 16.4185 8.96283 16.5178C9.06352 16.6171 9.18713 16.6667 9.33366 16.6667H17.667ZM12.9795 9.37508C13.1274 9.37508 13.251 9.32508 13.3503 9.22508C13.4496 9.12508 13.4996 9.00112 13.5003 8.85321C13.501 8.70529 13.451 8.58168 13.3503 8.48237C13.2496 8.38307 13.126 8.33341 12.9795 8.33341H9.33366C9.18574 8.33341 9.06213 8.38341 8.96283 8.48341C8.86352 8.58341 8.81352 8.70737 8.81283 8.85529C8.81213 9.00321 8.86213 9.12682 8.96283 9.22612C9.06352 9.32543 9.18713 9.37508 9.33366 9.37508H12.9795ZM17.667 13.0209C17.8149 13.0209 17.9385 12.9709 18.0378 12.8709C18.1371 12.7709 18.1871 12.647 18.1878 12.499C18.1885 12.3511 18.1385 12.2275 18.0378 12.1282C17.9371 12.0289 17.8135 11.9792 17.667 11.9792H9.33366C9.18574 11.9792 9.06213 12.0292 8.96283 12.1292C8.86352 12.2292 8.81352 12.3532 8.81283 12.5011C8.81213 12.649 8.86213 12.7727 8.96283 12.872C9.06352 12.9713 9.18713 13.0209 9.33366 13.0209H17.667Z" fill="#0059FF"/>
<path d="M8.19793 34.0801V42.8301H7.31902V34.0801H8.19793ZM0.649101 40.3008C2.50457 39.1973 3.39324 37.7275 3.55437 35.9258H1.05926V35.1641H4.47723C4.47234 36.0186 4.35516 36.834 4.0866 37.5957H5.47332V34.3047H6.35223V42.4004H5.47332V38.3379H3.76434C3.24676 39.3535 2.4118 40.2422 1.17645 40.9648L0.649101 40.3008ZM12.2139 36.3066C12.2041 37.9033 13.1709 39.5146 14.5283 40.1152L13.9717 40.8477C12.9658 40.3691 12.1699 39.3877 11.7598 38.1914C11.3545 39.4756 10.5488 40.5303 9.49902 41.043L8.93262 40.2617C10.3096 39.6514 11.2764 37.9766 11.2764 36.3066V34.8125H12.2139V36.3066ZM15.3193 42.8496V34.0801H16.2471V42.8496H15.3193ZM22.2943 34.8711V35.623H21.4642V38.3672C21.8792 38.3379 22.2845 38.2988 22.6751 38.25L22.7337 38.9434C20.971 39.2217 18.93 39.2607 17.431 39.2656L17.3236 38.5039C17.6605 38.5039 18.0218 38.499 18.3978 38.4941V35.623H17.5677V34.8711H22.2943ZM18.6517 42.6445V39.9102H19.5794V41.8926H24.5696V42.6445H18.6517ZM19.2962 38.4746C19.7113 38.46 20.1312 38.4453 20.556 38.4258V35.623H19.2962V38.4746ZM23.2708 40.5254V34.0898H24.1986V36.6777H25.4681V37.459H24.1986V40.5254H23.2708Z" fill="#0059FF"/>
</svg>
