<svg width="16" height="16" viewBox="0 0 16 16" fill="none" xmlns="http://www.w3.org/2000/svg">
<path d="M8 10C8.53043 10 9.03914 9.78929 9.41421 9.41421C9.78929 9.03914 10 8.53043 10 8C10 7.46957 9.78929 6.96086 9.41421 6.58579C9.03914 6.21071 8.53043 6 8 6C7.46957 6 6.96086 6.21071 6.58579 6.58579C6.21071 6.96086 6 7.46957 6 8C6 8.53043 6.21071 9.03914 6.58579 9.41421C6.96086 9.78929 7.46957 10 8 10Z" fill="#696969"/>
<path fill-rule="evenodd" clip-rule="evenodd" d="M0.531554 8.47203C0.413961 8.16669 0.413961 7.82856 0.531554 7.52323C1.11296 6.01456 2.13785 4.71748 3.47114 3.80291C4.80443 2.88834 6.38354 2.39923 8.00035 2.40003C11.406 2.40003 14.3148 4.52803 15.4692 7.52803C15.5868 7.83283 15.586 8.17123 15.4692 8.47683C14.8877 9.98549 13.8629 11.2826 12.5296 12.1971C11.1963 13.1117 9.61717 13.6008 8.00035 13.6C4.59475 13.6 1.68595 11.472 0.531554 8.47203ZM11.2004 8.00003C11.2004 8.84872 10.8632 9.66265 10.2631 10.2628C9.66298 10.8629 8.84905 11.2 8.00035 11.2C7.15166 11.2 6.33773 10.8629 5.73761 10.2628C5.1375 9.66265 4.80035 8.84872 4.80035 8.00003C4.80035 7.15133 5.1375 6.3374 5.73761 5.73728C6.33773 5.13717 7.15166 4.80003 8.00035 4.80003C8.84905 4.80003 9.66298 5.13717 10.2631 5.73728C10.8632 6.3374 11.2004 7.15133 11.2004 8.00003Z" fill="#696969"/>
</svg>
