<svg width="26" height="26" viewBox="0 0 26 26" fill="none" xmlns="http://www.w3.org/2000/svg">
<rect width="26" height="26" rx="13" fill="#0059FF" fill-opacity="0.3"/>
<g clip-path="url(#clip0_1085_5628)">
<path fill-rule="evenodd" clip-rule="evenodd" d="M19.2619 8.09489C19.4611 8.29414 19.573 8.56434 19.573 8.84607C19.573 9.12781 19.4611 9.39801 19.2619 9.59726L11.2981 17.5611C11.1929 17.6663 11.0679 17.7498 10.9304 17.8068C10.7929 17.8638 10.6455 17.8931 10.4967 17.8931C10.3478 17.8931 10.2004 17.8638 10.0629 17.8068C9.92537 17.7498 9.80042 17.6663 9.69518 17.5611L5.73843 13.605C5.63695 13.507 5.55601 13.3898 5.50032 13.2601C5.44464 13.1305 5.41533 12.9911 5.4141 12.85C5.41288 12.7089 5.43976 12.569 5.49318 12.4384C5.54661 12.3079 5.6255 12.1892 5.72526 12.0895C5.82502 11.9897 5.94365 11.9108 6.07423 11.8574C6.20481 11.804 6.34472 11.7771 6.4858 11.7783C6.62687 11.7795 6.76629 11.8088 6.89592 11.8645C7.02555 11.9202 7.14279 12.0012 7.24081 12.1026L10.4963 15.3581L17.7588 8.09489C17.8575 7.99615 17.9747 7.91783 18.1036 7.86439C18.2326 7.81095 18.3708 7.78345 18.5104 7.78345C18.65 7.78345 18.7882 7.81095 18.9171 7.86439C19.0461 7.91783 19.1633 7.99615 19.2619 8.09489Z" fill="white"/>
</g>
<defs>
<clipPath id="clip0_1085_5628">
<rect width="17" height="12" fill="white" transform="translate(4 7)"/>
</clipPath>
</defs>
</svg>
