<svg width="17" height="12" viewBox="0 0 17 12" fill="none" xmlns="http://www.w3.org/2000/svg">
<g clip-path="url(#clip0_980_4900)">
<path fill-rule="evenodd" clip-rule="evenodd" d="M15.2619 1.09489C15.4611 1.29414 15.573 1.56434 15.573 1.84607C15.573 2.12781 15.4611 2.39801 15.2619 2.59726L7.29814 10.5611C7.1929 10.6663 7.06795 10.7498 6.93043 10.8068C6.79291 10.8638 6.64551 10.8931 6.49666 10.8931C6.34781 10.8931 6.20041 10.8638 6.06289 10.8068C5.92537 10.7498 5.80042 10.6663 5.69518 10.5611L1.73843 6.60501C1.63695 6.507 1.55601 6.38976 1.50032 6.26013C1.44464 6.1305 1.41533 5.99108 1.4141 5.85C1.41288 5.70892 1.43976 5.56901 1.49318 5.43844C1.54661 5.30786 1.6255 5.18923 1.72526 5.08947C1.82502 4.98971 1.94365 4.91081 2.07423 4.85739C2.20481 4.80397 2.34472 4.77708 2.4858 4.77831C2.62687 4.77953 2.76629 4.80885 2.89592 4.86453C3.02555 4.92021 3.14279 5.00116 3.24081 5.10264L6.49631 8.35814L13.7588 1.09489C13.8575 0.996153 13.9747 0.917829 14.1036 0.86439C14.2326 0.810952 14.3708 0.783447 14.5104 0.783447C14.65 0.783447 14.7882 0.810952 14.9171 0.86439C15.0461 0.917829 15.1633 0.996153 15.2619 1.09489Z" fill="#0059FF" fill-opacity="0.3"/>
</g>
<defs>
<clipPath id="clip0_980_4900">
<rect width="17" height="12" fill="white"/>
</clipPath>
</defs>
</svg>
